<svg version="1.1" xmlns="http://www.w3.org/2000/svg" xmlns:xlink="http://www.w3.org/1999/xlink" width="89.65965" height="82.37128" viewBox="0,0,89.65965,82.37128"><g transform="translate(-195.37656,-138.72016)"><g data-paper-data="{&quot;isPaintingLayer&quot;:true}" fill-rule="nonzero" stroke-linejoin="miter" stroke-miterlimit="10" stroke-dasharray="" stroke-dashoffset="0" style="mix-blend-mode: normal"><path d="M251.20733,158.91088l-1.4787,-18.751l12.81239,1.67764l6.56795,11.40678l14.20785,2.07592l-3.39095,8.96234c0,0 -11.29628,2.69567 -15.58239,3.17497c-8.43591,0.94336 -13.13616,-8.54664 -13.13616,-8.54664z" fill="#b183f7" stroke="#000000" stroke-width="2.5" stroke-linecap="round"/><path d="M215.58288,184.41172l-8.65952,-1.63761l16.27487,-15.62214l9.43566,8.37668c0,0 -5.68608,5.84616 -10.22475,8.21068c-4.53867,2.36452 -6.82627,0.6724 -6.82627,0.6724z" fill="#b183f7" stroke="#000000" stroke-width="2.5" stroke-linecap="round"/><path d="M219.22286,219.84012l-19.53356,-0.04976l-0.98129,-7.61006c0,0 1.95825,-2.59297 3.92479,0.43017c1.91566,2.94493 5.57265,4.25328 7.33584,1.46002c0.52557,-0.83262 2.55252,-3.86393 -1.42419,-6.96496c-3.97671,-3.10103 -11.47764,-1.89315 -11.47764,-1.89315l-0.38362,-3.69504l47.06189,-44.93707l18.44556,0.25195l-0.27567,20.18162z" fill="#9a62ee" stroke="#000000" stroke-width="2.5" stroke-linecap="round"/><path d="M203.63925,200.74415c0.02456,-1.79774 1.50182,-3.23519 3.29956,-3.21063c1.79774,0.02456 3.23519,1.50182 3.21063,3.29956c-0.02456,1.79774 -1.50182,3.23519 -3.29956,3.21064c-1.79774,-0.02456 -3.23519,-1.50182 -3.21064,-3.29956z" fill="#000000" stroke="none" stroke-width="0.5" stroke-linecap="butt"/><path d="M245.87393,175.51693l-0.1229,8.99754l-14.52551,14.65307l-11.24692,-0.15362l0.12832,-9.39449l14.05607,-14.19629z" fill="#9a62ee" stroke="#000000" stroke-width="2.5" stroke-linecap="round"/></g></g></svg>