<svg version="1.1" xmlns="http://www.w3.org/2000/svg" xmlns:xlink="http://www.w3.org/1999/xlink" width="53.28441" height="51.2995" viewBox="0,0,53.28441,51.2995"><defs><linearGradient x1="70.77686" y1="224.2631" x2="89.33002" y2="227.11384" gradientUnits="userSpaceOnUse" id="color-1"><stop offset="0" stop-color="#de5656"/><stop offset="1" stop-color="#d72727"/></linearGradient><linearGradient x1="30.93342" y1="216.92117" x2="70.80035" y2="216.92117" gradientUnits="userSpaceOnUse" id="color-2"><stop offset="0" stop-color="#de5656"/><stop offset="1" stop-color="#d72727"/></linearGradient><linearGradient x1="50.95853" y1="216.92719" x2="66.37481" y2="212.64488" gradientUnits="userSpaceOnUse" id="color-3"><stop offset="0" stop-color="#de5656"/><stop offset="1" stop-color="#d72727"/></linearGradient></defs><g transform="translate(-31.35009,-186.43521)"><g data-paper-data="{&quot;isPaintingLayer&quot;:true}" fill-rule="nonzero" stroke-linecap="butt" stroke-linejoin="miter" stroke-miterlimit="10" stroke-dasharray="" stroke-dashoffset="0" style="mix-blend-mode: normal"><g><path d="M57.41707,193.52433c0,0 2.85698,-2.38962 6.26011,-2.25584c3.40313,0.13378 6.11794,1.36066 6.06371,2.7403c-0.05424,1.37965 -2.85698,2.38962 -6.26011,2.25584c-3.40313,-0.13378 -6.06371,-2.7403 -6.06371,-2.7403z" fill="#0e8400" stroke="#005604" stroke-width="2.5"/><g><path d="M46.69633,203.40977c0,0 1.10641,-5.94539 2.26464,-8.50222c1.18823,-2.62304 4.77703,-7.04246 4.77703,-7.04246l4.49622,1.29339c0,0 -3.05051,4.78669 -3.77074,7.38968c-0.73411,2.65316 -0.59309,8.38164 -0.59309,8.38164z" fill="#5a2300" stroke="#3d2300" stroke-width="2.5"/><path d="M81.70085,214.9668c5.12331,0.78721 -2.97807,4.59866 -4.06547,10.49006c-1.13928,6.17246 5.89396,11.7405 0.77065,10.95329c-5.12331,-0.78721 -13.481,-6.98498 -12.57117,-12.9064c0.90984,-5.92142 10.74268,-9.32415 15.86599,-8.53695z" fill="url(#color-1)" stroke="#b90000" stroke-width="2.5"/><path d="M70.80035,216.92117c0,4.72383 -1.01743,16.74265 -7.07691,17.52643c-9.72077,1.25734 -8.99367,-4.34965 -12.85655,-4.34965c-2.34857,0 -3.05567,2.65323 -9.09443,2.05249c-4.29828,-0.42759 -8.33324,-5.84292 -8.5048,-7.42879c-0.16802,-1.55319 9.95033,0.99112 8.10766,-6.52719c-0.16812,-0.68595 -3.22879,0.08164 -5.68868,0.02694c-1.68407,-0.03745 -3.08655,-0.8145 -3.08655,-1.30024c0,-4.79547 0.24994,-16.27274 6.33525,-17.63099c8.33164,-1.85963 8.17704,4.45421 11.93155,4.45421c2.52918,0 3.615,-5.02196 8.84121,-3.45405c7.37814,2.21352 11.09226,11.02537 11.09226,16.63083z" fill="url(#color-2)" stroke="#b90000" stroke-width="2.5"/><path d="M36.07748,212.9081c0,-0.95741 0.77613,-1.73354 1.73354,-1.73354c0.95741,0 1.73354,0.77613 1.73354,1.73354c0,0.95741 -0.77614,1.73355 -1.73354,1.73355c-0.95741,0 -1.73354,-0.77614 -1.73354,-1.73355z" fill="#000000" stroke="none" stroke-width="0"/><path d="M66.37481,212.64488c0.49272,1.77379 -2.55891,4.17036 -6.816,5.35288c-4.25709,1.18252 -8.10757,0.70321 -8.60029,-1.07057c-0.49272,-1.77379 2.5589,-4.17036 6.81599,-5.35288c4.25709,-1.18252 8.10757,-0.70321 8.60029,1.07057z" fill="url(#color-3)" stroke="#b90000" stroke-width="2.5"/></g></g></g></g></svg>