<svg version="1.1" xmlns="http://www.w3.org/2000/svg" xmlns:xlink="http://www.w3.org/1999/xlink" width="80.72346" height="97.62594" viewBox="0,0,80.72346,97.62594"><defs><radialGradient cx="252.1313" cy="180.26646" r="12" gradientUnits="userSpaceOnUse" id="color-1"><stop offset="0" stop-color="#fcff00"/><stop offset="1" stop-color="#cfcb00"/></radialGradient><radialGradient cx="267.2563" cy="141.39146" r="6.08333" gradientUnits="userSpaceOnUse" id="color-2"><stop offset="0" stop-color="#656700"/><stop offset="1" stop-color="#646200"/></radialGradient><radialGradient cx="264.0063" cy="196.51646" r="40.87558" gradientUnits="userSpaceOnUse" id="color-3"><stop offset="0" stop-color="#fcff00"/><stop offset="1" stop-color="#cfcb00"/></radialGradient><radialGradient cx="248.6313" cy="200.14146" r="10.875" gradientUnits="userSpaceOnUse" id="color-4"><stop offset="0" stop-color="#fcff00"/><stop offset="1" stop-color="#cfcb00"/></radialGradient><radialGradient cx="212.2563" cy="194.01646" r="15.25" gradientUnits="userSpaceOnUse" id="color-5"><stop offset="0" stop-color="#fcff00"/><stop offset="1" stop-color="#cfcb00"/></radialGradient></defs><g transform="translate(-199.63827,-131.14051)"><g data-paper-data="{&quot;isPaintingLayer&quot;:true}" fill-rule="nonzero" stroke-linejoin="miter" stroke-miterlimit="10" stroke-dasharray="" stroke-dashoffset="0" style="mix-blend-mode: normal"><g><path d="M260.5063,180.26646c0,6.62742 -3.74962,12 -8.375,12c-4.62538,0 -8.375,-5.37258 -8.375,-12c0,-6.62742 3.74962,-12 8.375,-12c4.62538,0 8.375,5.37258 8.375,12z" fill="url(#color-1)" stroke="#857400" stroke-width="1.5" stroke-linecap="butt"/><path d="M263.32443,150.07297l2.41199,-18.08991l5.45175,0.7269l-2.41199,18.08991z" fill="url(#color-2)" stroke="#594d00" stroke-width="1.5" stroke-linecap="butt"/><path d="M260.5063,146.26646c34.77925,0.63969 17.46029,81.5 -15.125,81.75c-16.08482,0.12341 -29.125,-23.31294 -29.125,-29.25c0,-5.93706 13.03971,7.75 29.125,7.75c16.08529,0 2.44393,-60.48324 15.125,-60.25z" fill="url(#color-3)" stroke="#857400" stroke-width="1.5" stroke-linecap="butt"/><path d="M248.09052,205.48919c-5.97562,-0.60428 -10.5777,-3.4884 -10.27904,-6.44187c0.29867,-2.95347 5.38498,-4.85786 11.3606,-4.25359c5.97562,0.60428 10.5777,3.4884 10.27904,6.44187c-0.29867,2.95347 -5.38498,4.85786 -11.3606,4.25359z" fill="url(#color-4)" stroke="#857400" stroke-width="1.5" stroke-linecap="butt"/><path d="M223.61504,183.84093c2.76383,3.08521 3.66888,13.14201 -2.60438,18.7618c-6.27326,5.61979 -17.34927,4.67448 -20.1131,1.58927c-2.76383,-3.08521 6.33112,-3.89201 12.60438,-9.5118c6.27326,-5.61979 7.34927,-13.92448 10.1131,-10.83927z" fill="url(#color-5)" stroke="#857400" stroke-width="1.5" stroke-linecap="butt"/><path d="M264.0063,175.26646l15,-1.75" fill="none" stroke="#857400" stroke-width="1.5" stroke-linecap="round"/><path d="M273.2563,166.76646c0,-0.69036 0.55964,-1.25 1.25,-1.25c0.69036,0 1.25,0.55964 1.25,1.25c0,0.69036 -0.55964,1.25 -1.25,1.25c-0.69036,0 -1.25,-0.55964 -1.25,-1.25z" fill="#000000" stroke="none" stroke-width="0.5" stroke-linecap="butt"/><path d="M265.7563,167.51646c0,-0.69036 0.55964,-1.25 1.25,-1.25c0.69036,0 1.25,0.55964 1.25,1.25c0,0.69036 -0.55964,1.25 -1.25,1.25c-0.69036,0 -1.25,-0.55964 -1.25,-1.25z" fill="#000000" stroke="none" stroke-width="0.5" stroke-linecap="butt"/></g></g></g></svg>