<svg version="1.1" xmlns="http://www.w3.org/2000/svg" xmlns:xlink="http://www.w3.org/1999/xlink" width="54.99574" height="47.73655" viewBox="0,0,54.99574,47.73655"><defs><linearGradient x1="206.82887" y1="127.06616" x2="221.50397" y2="131.50739" gradientUnits="userSpaceOnUse" id="color-1"><stop offset="0" stop-color="#37db00"/><stop offset="1" stop-color="#00eb09"/></linearGradient><linearGradient x1="199.716" y1="108.26578" x2="186.65237" y2="129.58107" gradientUnits="userSpaceOnUse" id="color-2"><stop offset="0" stop-color="#990049"/><stop offset="1" stop-color="#7c0035"/></linearGradient><linearGradient x1="193.19546" y1="124.64013" x2="202.13788" y2="136.26528" gradientUnits="userSpaceOnUse" id="color-3"><stop offset="0" stop-color="#990049"/><stop offset="1" stop-color="#7c0035"/></linearGradient></defs><g transform="translate(-175.51128,-95.78638)"><g data-paper-data="{&quot;isPaintingLayer&quot;:true}" fill-rule="nonzero" stroke-linecap="butt" stroke-linejoin="miter" stroke-miterlimit="10" stroke-dasharray="" stroke-dashoffset="0" style="mix-blend-mode: normal"><g><path d="M205.10889,130.13772l3.43995,-6.14315l16.48121,-1.1615l-8.38045,4.70104l4.9572,3.14051l-6.5976,2.49029l2.63083,6.59627z" fill="url(#color-1)" stroke="#089c00" stroke-width="2.5"/><path d="M209.2417,128.76468c-3.60742,5.88605 -13.721,6.25156 -22.58933,0.81638c-2.07327,-1.27066 -7.56823,-3.82352 -5.42323,-4.33572c24.55496,-5.86345 -3.6633,-4.61249 -4.54462,-7.01001c-1.20916,-3.28938 -1.15663,-6.54454 0.44214,-9.15317c3.60742,-5.88605 5.98418,-4.97458 11.58934,-4.81638c2.97801,0.08405 12.99301,-11.92608 22.67354,-5.16291c0.8569,0.59866 -2.46506,0.16384 -3.99465,0.92301c-1.77421,0.88057 -1.82412,2.94642 -1.01934,3.42959c3.16359,1.89936 3.42255,2.16445 4.6019,5.90062c2.42811,7.69229 -0.89509,18.03696 -1.73574,19.4086z" fill="url(#color-2)" stroke="#800048" stroke-width="2.5"/><path d="M202.13788,136.26528c-1.75101,1.34694 -5.17233,-0.16353 -7.64171,-3.37373c-2.46938,-3.21019 -3.05173,-6.90448 -1.30072,-8.25142c1.75101,-1.34694 5.17233,0.16353 7.64171,3.37373c2.46938,3.21019 3.05173,6.90448 1.30071,8.25142z" fill="url(#color-3)" stroke="#800048" stroke-width="2.5"/><path d="M179.08334,114.11937c0,-0.69035 0.55964,-1.25 1.25,-1.25c0.69036,0 1.25,0.55965 1.25,1.25c0,0.69035 -0.55964,1.25 -1.25,1.25c-0.69036,0 -1.25,-0.55965 -1.25,-1.25z" fill="#000000" stroke="none" stroke-width="0.5"/><path d="M185.08334,114.4527c0,-0.69035 0.55964,-1.25 1.25,-1.25c0.69036,0 1.25,0.55965 1.25,1.25c0,0.69035 -0.55964,1.25 -1.25,1.25c-0.69036,0 -1.25,-0.55965 -1.25,-1.25z" fill="#000000" stroke="none" stroke-width="0.5"/></g></g></g></svg>