<svg version="1.1" xmlns="http://www.w3.org/2000/svg" xmlns:xlink="http://www.w3.org/1999/xlink" width="64.67189" height="66.15948" viewBox="0,0,64.67189,66.15948"><g transform="translate(-208.50784,-148.06259)"><g data-paper-data="{&quot;isPaintingLayer&quot;:true}" fill-rule="nonzero" stroke-linejoin="miter" stroke-miterlimit="10" stroke-dasharray="" stroke-dashoffset="0" style="mix-blend-mode: normal"><path d="M263.69165,161.18634c0,0 5.27294,30.7447 -1.17957,38.44c-6.83498,8.15143 -38.749,9.17905 -38.749,9.17905" fill="none" stroke="#444444" stroke-width="1.5" stroke-linecap="round"/><path d="M226.26308,177.47206l-1.66667,-12.66667l12.16667,0.16667z" fill="#896727" stroke="#5e471a" stroke-width="1.5" stroke-linecap="butt"/><path d="M218.41666,205.1736c0,0 4.30083,-26.41359 11.32331,-35.09355c7.02089,-8.18637 30.84143,-15.25365 30.84143,-15.25365l1.00193,2.50484c0,0 -23.18813,6.17877 -29.78256,14.32966c-6.83925,8.45349 -10.54529,33.5127 -10.54529,33.5127z" fill="#896727" stroke="#5e471a" stroke-width="1.5" stroke-linecap="butt"/><path d="M226.56857,175.46243c0,0 2.04163,-3.98596 3.1714,-5.38238c1.03235,-1.20372 4.05757,-3.51966 4.05757,-3.51966l1.84329,1.65948c0,0 -2.87429,2.24732 -3.84006,3.44103c-0.92234,1.14003 -2.59466,4.22393 -2.59466,4.22393z" fill="#969696" stroke="#737373" stroke-width="1.5" stroke-linecap="butt"/><path d="M213.09641,213.47206l6.66667,-9.5l6.83333,9.5z" fill="#969696" stroke="#737373" stroke-width="1.5" stroke-linecap="butt"/><path d="M259.26308,156.22207c0,-2.7154 2.94746,-4.91667 6.58333,-4.91667c3.63587,0 6.58333,2.20127 6.58333,4.91667c0,0.65036 -4.13415,-1.4817 -5.30954,1.17277c-0.97977,2.21269 3.65731,2.19897 2.73051,2.73013c-1.10944,0.63583 -2.49777,1.01376 -4.0043,1.01376c-3.63587,0 -6.58333,-2.20127 -6.58333,-4.91667z" fill="#896727" stroke="#5e471a" stroke-width="1.5" stroke-linecap="butt"/><path d="M267.29931,153.77641c0,-0.48025 0.38932,-0.86957 0.86957,-0.86957c0.48025,0 0.86957,0.38932 0.86957,0.86957c0,0.48025 -0.38932,0.86957 -0.86957,0.86957c-0.48025,0 -0.86957,-0.38932 -0.86957,-0.86957z" fill="#000000" stroke="none" stroke-width="0" stroke-linecap="butt"/><path d="M258.36108,157.47116l0.12931,-1.18272l1.76986,-0.36035l0.22486,0.97439z" fill="#896727" stroke="none" stroke-width="0" stroke-linecap="butt"/><path d="M231.6507,185.5757l13.233,-13.233l3.83858,3.83858l-13.233,13.233z" fill="#d8d8d8" stroke="#b8b8b8" stroke-width="1.5" stroke-linecap="butt"/><path d="M255.64182,199.16225l-33.73909,-33.73909l2.82843,-2.82843l33.73909,33.73909z" fill="#896727" stroke="#654b1c" stroke-width="1.5" stroke-linecap="butt"/><path d="M258.1776,210.99076l-2.72866,-15.20082l15.15067,3.66702z" fill="#d8d8d8" stroke="#b8b8b8" stroke-width="1.5" stroke-linecap="butt"/><path d="M209.40041,149.00925l24.66951,14.97949l-10.87827,-0.51445l-2.57537,12.09541c0,0 -2.32252,-5.7182 -4.01801,-9.73331c-0.76123,-1.80269 2.91731,-0.43599 2.48486,-4.22695c-1.20785,-2.45454 -3.97636,0.63528 -4.63084,-0.91459c-1.84053,-4.35859 -5.05189,-11.68559 -5.05189,-11.68559z" fill="#d8d8d8" stroke="#b8b8b8" stroke-width="1.5" stroke-linecap="butt"/><path d="M214.04364,155.61499c0,-0.67063 0.54366,-1.21429 1.21428,-1.21429c0.67063,0 1.21429,0.54366 1.21429,1.21429c0,0.67063 -0.54366,1.21428 -1.21429,1.21428c-0.67063,0 -1.21428,-0.54366 -1.21428,-1.21428z" fill="#000000" stroke="none" stroke-width="0" stroke-linecap="butt"/></g></g></svg>