<svg version="1.1" xmlns="http://www.w3.org/2000/svg" xmlns:xlink="http://www.w3.org/1999/xlink" width="120.70818" height="98.93785" viewBox="0,0,120.70818,98.93785"><defs><linearGradient x1="236.08415" y1="132.85047" x2="224.17464" y2="162.55788" gradientUnits="userSpaceOnUse" id="color-1"><stop offset="0" stop-color="#a3a3a3"/><stop offset="1" stop-color="#b5b5b5"/></linearGradient><linearGradient x1="293.37046" y1="170.51183" x2="293.37046" y2="210.07267" gradientUnits="userSpaceOnUse" id="color-2"><stop offset="0" stop-color="#a3a3a3"/><stop offset="1" stop-color="#b5b5b5"/></linearGradient><linearGradient x1="230.09197" y1="156.69165" x2="230.09197" y2="228.21893" gradientUnits="userSpaceOnUse" id="color-3"><stop offset="0" stop-color="#a3a3a3"/><stop offset="1" stop-color="#b5b5b5"/></linearGradient><linearGradient x1="241.13399" y1="193.90342" x2="241.13399" y2="209.61023" gradientUnits="userSpaceOnUse" id="color-4"><stop offset="0" stop-color="#a3a3a3"/><stop offset="1" stop-color="#b5b5b5"/></linearGradient></defs><g transform="translate(-179.64591,-130.53108)"><g data-paper-data="{&quot;isPaintingLayer&quot;:true}" fill-rule="nonzero" stroke-linejoin="miter" stroke-miterlimit="10" stroke-dasharray="" stroke-dashoffset="0" style="mix-blend-mode: normal"><path d="M234.84862,150.15225c-3.28872,8.20347 -0.28731,16.56959 -10.67397,12.40564c-10.38666,-4.16395 -2.34132,-8.37956 0.94741,-16.58304c3.28872,-8.20347 0.60356,-17.35777 10.96211,-13.12437c35.68566,14.58423 2.05318,9.09829 -1.23554,17.30177z" fill="url(#color-1)" stroke="#757575" stroke-width="2.5" stroke-linecap="butt"/><path d="M291.83647,190.61519c0,10.92442 14.46838,17.5198 1.53399,19.45748c-4.19374,0.62825 -5.09886,-8.7842 -8.30739,-11.0902c-4.98978,-3.58622 -11.31156,-2.04123 -11.31156,-8.69022c0,-5.39153 7.14511,-3.49738 10.61476,-7.06535c3.56063,-3.66153 3.51797,-12.844 9.00419,-12.71507c13.74176,0.32295 -1.53399,9.17894 -1.53399,20.10336z" fill="url(#color-2)" stroke="#757575" stroke-width="2.5" stroke-linecap="butt"/><path d="M196.39732,228.21893c-8.56118,0 -15.5014,-15.90465 -15.5014,-35.52402c0,-19.61938 6.94022,-35.52403 15.5014,-35.52403c8.56118,0 83.25243,-7.35052 82.88939,35.52403c-0.29555,34.90338 -74.32821,35.52402 -82.88939,35.52402z" fill="url(#color-3)" stroke="#757575" stroke-width="2.5" stroke-linecap="butt"/><path d="M196.39731,228.21893c-8.56119,0 -15.5014,-15.90465 -15.5014,-35.52402c0,-19.61937 6.94021,-35.52403 15.5014,-35.52403c8.56119,0 15.5014,15.90465 15.5014,35.52403c0,19.61937 -6.94021,35.52402 -15.5014,35.52402z" fill="#444444" stroke="#757575" stroke-width="2.5" stroke-linecap="butt"/><path d="M253.75713,206.71977c-1.32153,3.36129 -8.04442,3.86417 -15.01599,1.12321c-6.97157,-2.74096 -11.55183,-7.68781 -10.23029,-11.0491c1.32153,-3.36129 8.04442,-3.86417 15.01599,-1.12321c6.97157,2.74096 11.55183,7.68782 10.2303,11.0491z" fill="url(#color-4)" stroke="#757575" stroke-width="2.5" stroke-linecap="butt"/><path d="M221.91872,181.33051c0,-1.78358 1.44588,-3.22946 3.22945,-3.22946c1.78358,0 3.22946,1.44588 3.22946,3.22946c0,1.78358 -1.44588,3.22946 -3.22946,3.22946c-1.78358,0 -3.22945,-1.44588 -3.22945,-3.22946z" fill="#000000" stroke="none" stroke-width="0.5" stroke-linecap="butt"/><path d="M221.4343,179.71578l9.77336,-3.71388" fill="none" stroke="#000000" stroke-width="2.5" stroke-linecap="round"/></g></g></svg>