<svg version="1.1" xmlns="http://www.w3.org/2000/svg" xmlns:xlink="http://www.w3.org/1999/xlink" width="59.84954" height="42.0217" viewBox="0,0,59.84954,42.0217"><defs><linearGradient x1="74.9867" y1="161.27004" x2="88.30969" y2="157.14753" gradientUnits="userSpaceOnUse" id="color-1"><stop offset="0" stop-color="#d900db"/><stop offset="1" stop-color="#c600eb"/></linearGradient><linearGradient x1="46.25536" y1="152.37394" x2="62.42303" y2="152.37394" gradientUnits="userSpaceOnUse" id="color-2"><stop offset="0" stop-color="#890099"/><stop offset="1" stop-color="#6a007d"/></linearGradient><linearGradient x1="34.28882" y1="171.00122" x2="75.73234" y2="169.75466" gradientUnits="userSpaceOnUse" id="color-3"><stop offset="0" stop-color="#890099"/><stop offset="1" stop-color="#6a007d"/></linearGradient><linearGradient x1="56.42535" y1="175.58238" x2="73.37532" y2="175.58238" gradientUnits="userSpaceOnUse" id="color-4"><stop offset="0" stop-color="#890099"/><stop offset="1" stop-color="#6a007d"/></linearGradient></defs><g transform="translate(-30.35325,-141.85684)"><g data-paper-data="{&quot;isPaintingLayer&quot;:true}" fill-rule="nonzero" stroke-linecap="butt" stroke-linejoin="miter" stroke-miterlimit="10" stroke-dasharray="" stroke-dashoffset="0" style="mix-blend-mode: normal"><g><path d="M85.38991,148.8011l-0.96533,6.54142l3.49892,2.64152l-5.41102,3.03575l3.59075,4.89586l-11.54908,-1.53033l0.86508,-6.23057z" data-paper-data="{&quot;index&quot;:null}" fill="url(#color-1)" stroke="#9c006f" stroke-width="2.5"/><path d="M63.20535,143.76855c0,4.10454 -0.7508,15.51575 -5.21538,15.51575c-4.46459,0 -14.08153,4.75646 -14.08153,0.65193c0,-4.10454 19.2969,-20.27221 19.2969,-16.16768z" fill="url(#color-2)" stroke="#600080" stroke-width="2.5"/><path d="M74.49612,156.1608c5.72432,15.76811 -7.67275,26.12351 -19.11706,26.46774c-4.12104,0.12395 -8.33072,-1.17693 -12.04035,-3.20848c-1.31016,-0.7175 7.12553,-2.85695 5.96606,-3.72615c-1.05341,-0.78969 -11.71741,-0.29856 -12.60559,-1.1653c-3.05312,-2.9794 -5.0151,-6.27849 -5.09593,-8.96577c-0.20351,-6.76582 11.59454,-7.09127 23.03885,-7.4355c11.44431,-0.34422 17.5442,-8.32912 19.85402,-1.96654z" fill="url(#color-3)" stroke="#600080" stroke-width="2.5"/><path d="M73.37532,175.58238c0,1.80023 -3.79438,3.25961 -8.47499,3.25961c-4.68061,0 -8.47499,-1.45937 -8.47499,-3.25961c0,-1.80023 3.79438,-3.25961 8.47499,-3.25961c4.68061,0 8.47499,1.45938 8.47499,3.25961z" fill="url(#color-4)" stroke="#600080" stroke-width="2.5"/><path d="M36.41133,168.93277c0,-0.54007 0.43782,-0.97788 0.97789,-0.97788c0.54007,0 0.97788,0.43781 0.97788,0.97788c0,0.54007 -0.43781,0.97788 -0.97788,0.97788c-0.54007,0 -0.97789,-0.43782 -0.97789,-0.97788z" fill="#000000" stroke="none" stroke-width="0.5"/><path d="M42.93056,169.71508c0,-0.54007 0.43781,-0.97789 0.97788,-0.97789c0.54007,0 0.97789,0.43782 0.97789,0.97789c0,0.54007 -0.43782,0.97788 -0.97789,0.97788c-0.54007,0 -0.97788,-0.43781 -0.97788,-0.97788z" fill="#000000" stroke="none" stroke-width="0.5"/></g></g></g></svg>