<svg version="1.1" xmlns="http://www.w3.org/2000/svg" xmlns:xlink="http://www.w3.org/1999/xlink" width="59.19522" height="38.3847" viewBox="0,0,59.19522,38.3847"><defs><linearGradient x1="86.68304" y1="65.00531" x2="86.68304" y2="84.71055" gradientUnits="userSpaceOnUse" id="color-1"><stop offset="0" stop-color="#e0e0e0"/><stop offset="1" stop-color="#b0b0b0"/></linearGradient><linearGradient x1="54.79381" y1="54.59007" x2="54.79381" y2="85.82073" gradientUnits="userSpaceOnUse" id="color-2"><stop offset="0" stop-color="#e0e0e0"/><stop offset="1" stop-color="#b0b0b0"/></linearGradient><linearGradient x1="60.99008" y1="73.94834" x2="59.6655" y2="81.19359" gradientUnits="userSpaceOnUse" id="color-3"><stop offset="0" stop-color="#e0e0e0"/><stop offset="1" stop-color="#b0b0b0"/></linearGradient><linearGradient x1="62.04129" y1="51.28235" x2="62.04129" y2="61.56335" gradientUnits="userSpaceOnUse" id="color-4"><stop offset="0" stop-color="#e0e0e0"/><stop offset="1" stop-color="#b0b0b0"/></linearGradient></defs><g transform="translate(-33.73551,-48.68603)"><g data-paper-data="{&quot;isPaintingLayer&quot;:true}" fill-rule="nonzero" stroke-linecap="butt" stroke-linejoin="miter" stroke-miterlimit="10" stroke-dasharray="" stroke-dashoffset="0" style="mix-blend-mode: normal"><g><path d="M74.26015,75.14352c0,-5.44145 9.66272,-10.1382 12.42287,-10.1382c1.20469,0 2.677,2.06422 3.54,3.46373c0.18583,0.30135 -4.04571,3.1989 -3.88376,3.54931c0.13131,0.28412 4.90524,-0.15093 5.01916,0.1621c0.58805,1.61583 0.32231,0.53702 0.32231,2.67746c0,5.44146 -2.23755,9.85263 -4.9977,9.85263c-2.76015,0 -12.42287,-4.12558 -12.42287,-9.56704z" fill="url(#color-1)" stroke="#7d7d7d" stroke-width="2.5"/><path d="M54.79381,85.82073c-6.8628,0 -14.00118,-0.66178 -17.51425,-4.18948c1.69443,-0.57115 2.91461,-2.17323 2.91461,-4.06029c0,-2.36585 -1.91789,-4.28375 -4.28374,-4.28375c-0.18143,0 -0.36024,0.01128 -0.53574,0.03317c1.92417,-7.97399 12.13732,-16.37329 20.79406,-16.37329c9.60042,0 22.29358,11.50885 22.29358,20.13296c0,8.62411 -14.06809,8.74066 -23.66851,8.74066z" fill="url(#color-2)" stroke="#7d7d7d" stroke-width="2.5"/><path d="M39.97999,70.1458c0,-0.59146 0.47948,-1.07094 1.07094,-1.07094c0.59146,0 1.07094,0.47948 1.07094,1.07094c0,0.59146 -0.47948,1.07094 -1.07094,1.07094c-0.59146,0 -1.07094,-0.47948 -1.07094,-1.07094z" fill="#000000" stroke="none" stroke-width="0.5"/><path d="M45.12048,71.00253c0,-0.59146 0.47948,-1.07093 1.07094,-1.07093c0.59146,0 1.07094,0.47947 1.07094,1.07093c0,0.59146 -0.47948,1.07094 -1.07094,1.07094c-0.59146,0 -1.07094,-0.47948 -1.07094,-1.07094z" fill="#000000" stroke="none" stroke-width="0.5"/><path d="M68.03327,79.20618c-0.36577,2.00072 -4.11215,2.8905 -8.36777,1.9874c-4.25562,-0.9031 -7.40897,-3.25711 -7.0432,-5.25783c0.36577,-2.00072 4.11215,-2.89052 8.36777,-1.98742c4.25562,0.9031 7.40897,3.25713 7.0432,5.25785z" fill="url(#color-3)" stroke="#7d7d7d" stroke-width="2.5"/><path d="M71.15953,53.36303c0,1.40889 -3.50318,1.97024 -5.15708,3.65798c-1.67883,1.71318 -1.52655,4.54234 -3.96117,4.54234c-4.83309,0 -8.75108,-2.30148 -8.75108,-5.1405c0,-2.83902 3.91799,-6.48682 8.75108,-6.48682c4.83309,0 9.11826,0.58798 9.11826,3.427z" fill="url(#color-4)" stroke="#7d7d7d" stroke-width="2.5"/></g></g></g></svg>