<svg version="1.1" xmlns="http://www.w3.org/2000/svg" xmlns:xlink="http://www.w3.org/1999/xlink" width="55.02069" height="54.80463" viewBox="0,0,55.02069,54.80463"><defs><radialGradient cx="259.05166" cy="197.03823" r="12.8277" gradientUnits="userSpaceOnUse" id="color-1"><stop offset="0" stop-color="#333435"/><stop offset="1" stop-color="#2a2a2a"/></radialGradient><radialGradient cx="249.25576" cy="158.50095" r="7.47854" gradientUnits="userSpaceOnUse" id="color-2"><stop offset="0" stop-color="#333435"/><stop offset="1" stop-color="#2a2a2a"/></radialGradient><radialGradient cx="234.75576" cy="177.50095" r="23.33333" gradientUnits="userSpaceOnUse" id="color-3"><stop offset="0" stop-color="#333435"/><stop offset="1" stop-color="#2a2a2a"/></radialGradient><radialGradient cx="240.5891" cy="183.66763" r="8.84177" gradientUnits="userSpaceOnUse" id="color-4"><stop offset="0" stop-color="#333435"/><stop offset="1" stop-color="#2a2a2a"/></radialGradient></defs><g transform="translate(-212.48965,-152.59769)"><g data-paper-data="{&quot;isPaintingLayer&quot;:true}" fill-rule="nonzero" stroke-linecap="butt" stroke-linejoin="miter" stroke-miterlimit="10" stroke-dasharray="" stroke-dashoffset="0" style="mix-blend-mode: normal"><path d="M258.37453,197.14025c-2.47426,4.33509 3.74016,12.05257 -3.8029,7.74735c-7.54306,-4.30521 -11.65214,-11.30957 -9.17787,-15.64465c2.47426,-4.33509 10.5949,-4.35931 18.13796,-0.0541c7.54306,4.30521 -2.68293,3.61632 -5.15719,7.9514z" fill="url(#color-1)" stroke="#212122" stroke-width="2.5"/><path d="M256.64273,156.44901c0.64053,2.30593 -2.14747,5.09392 -6.22718,6.22718c-4.07971,1.13326 -7.90623,0.18262 -8.54676,-2.12331c-0.64053,-2.30593 2.14747,-5.09393 6.22718,-6.22718c4.07971,-1.13326 7.90623,-0.18262 8.54676,2.12331z" fill="url(#color-2)" stroke="#212122" stroke-width="2.5"/><path d="M255.25576,177.50095c0,12.88665 -9.17817,23.33334 -20.5,23.33334c-11.32183,0 -22.9309,-9.63257 -20.75,-22.33334c0.13948,-0.8123 5.16409,2.11058 9.87045,1.5962c4.70637,-0.51438 9.37977,-5.49485 9.59106,-6.22321c0.27229,-0.93864 -6.93862,0.50442 -10.5716,0.74806c-3.63298,0.24364 -7.82534,-2.09258 -7.45805,-2.88709c2.22059,-4.80341 3.13439,-9.38031 7.55127,-12.83793c3.33322,-2.60931 8.26349,-4.72936 11.76687,-4.72936c11.32183,0 20.5,10.44668 20.5,23.33333z" fill="url(#color-3)" stroke="#212122" stroke-width="2.5"/><path d="M249.27438,187.08478c-0.90992,2.31272 -5.53609,2.65763 -10.33284,0.77039c-4.79675,-1.88724 -7.94765,-5.29199 -7.03773,-7.60471c0.90992,-2.31272 5.5361,-2.65763 10.33285,-0.77039c4.79675,1.88725 7.94764,5.29199 7.03772,7.60471z" fill="url(#color-4)" stroke="#212122" stroke-width="2.5"/><path d="M221.65576,166.27206c0,-1.10457 0.89543,-2 2,-2c1.10457,0 2,0.89543 2,2c0,1.10457 -0.89543,2 -2,2c-1.10457,0 -2,-0.89543 -2,-2z" fill="#000000" stroke="none" stroke-width="0.5"/><path d="M230.65576,166.87207c0,-1.10457 0.89543,-2 2,-2c1.10457,0 2,0.89543 2,2c0,1.10457 -0.89543,2 -2,2c-1.10457,0 -2,-0.89543 -2,-2z" fill="#000000" stroke="none" stroke-width="0.5"/></g></g></svg>