<svg version="1.1" xmlns="http://www.w3.org/2000/svg" xmlns:xlink="http://www.w3.org/1999/xlink" width="78.88047" height="64.02177" viewBox="0,0,78.88047,64.02177"><defs><linearGradient x1="273.35861" y1="194.3597" x2="285.21605" y2="194.3597" gradientUnits="userSpaceOnUse" id="color-1"><stop offset="0" stop-color="#65b757"/><stop offset="1" stop-color="#579856"/></linearGradient><linearGradient x1="249.41647" y1="151.28981" x2="235.22356" y2="164.19245" gradientUnits="userSpaceOnUse" id="color-2"><stop offset="0" stop-color="#65b757"/><stop offset="1" stop-color="#579856"/></linearGradient><linearGradient x1="234.00192" y1="159.03173" x2="234.00192" y2="201.88787" gradientUnits="userSpaceOnUse" id="color-3"><stop offset="0" stop-color="#65b757"/><stop offset="1" stop-color="#579856"/></linearGradient><linearGradient x1="237.08879" y1="183.89725" x2="256.96744" y2="183.89725" gradientUnits="userSpaceOnUse" id="color-4"><stop offset="0" stop-color="#65b757"/><stop offset="1" stop-color="#579856"/></linearGradient></defs><g transform="translate(-202.17997,-149.78111)"><g data-paper-data="{&quot;isPaintingLayer&quot;:true}" fill-rule="nonzero" stroke-linecap="butt" stroke-linejoin="miter" stroke-miterlimit="10" stroke-dasharray="" stroke-dashoffset="0" style="mix-blend-mode: normal"><path d="M273.35861,194.3597c0,8.95629 5.92872,16.21679 5.92872,16.21679c0,0 0.52312,-7.26051 0.52312,-16.21679c0,-8.95629 -0.52312,-16.21679 -0.52312,-16.21679c0,0 -5.92872,7.26051 -5.92872,16.21679z" fill="url(#color-1)" stroke="#1d4c16" stroke-width="2.5"/><path d="M238.44922,153.48326c-3.91926,3.56297 -5.36344,8.35763 -3.22566,10.70919c2.13778,2.35156 7.04798,1.36952 10.96724,-2.19345c3.91926,-3.56297 3.22566,-10.70919 3.22566,-10.70919c0,0 -7.04798,-1.36952 -10.96724,2.19345z" fill="url(#color-2)" stroke="#1d4c16" stroke-width="2.5"/><path d="M269.00725,180.4598c1.77436,2.90699 10.09908,10.6642 6.79542,17.75757c-2.3178,4.9766 -12.41267,4.28259 -14.43571,3.47576c-3.37632,-1.34655 -10.91398,-0.67894 -27.54977,-3.1303c-22.53849,-3.32115 -30.38722,-6.26863 -30.38722,-18.10302c0,-11.83439 12.57918,-22.72114 29.46359,-22.72114c16.88442,0 30.01777,12.73399 36.11368,22.72114z" fill="url(#color-3)" stroke="#1d4c16" stroke-width="2.5"/><path d="M256.96744,183.89725c0,3.17804 -4.44999,5.75435 -9.93932,5.75435c-5.48934,0 -9.93932,-2.57631 -9.93932,-5.75435c0,-3.17804 4.44999,-5.75435 9.93932,-5.75435c5.48934,0 9.93932,2.57631 9.93932,5.75435z" fill="url(#color-4)" stroke="#1d4c16" stroke-width="2.5"/><path d="M209.71206,176.22479v-7.32371h7.32371v7.32371z" fill="#000000" stroke="none" stroke-width="0"/><path d="M222.96449,176.22479v-7.32371h7.32371v7.32371z" fill="#000000" stroke="none" stroke-width="0"/><path d="M215.30442,186.01503v-8.26601h9.54426v8.26601z" fill="#000000" stroke="none" stroke-width="0"/><path d="M211.38446,190.36108v-8.86253h4.0904v8.86253z" fill="#000000" stroke="none" stroke-width="0"/><path d="M224.8209,190.24808v-8.86253h4.0904v8.86253z" fill="#000000" stroke="none" stroke-width="0"/></g></g></svg>