<svg version="1.1" xmlns="http://www.w3.org/2000/svg" xmlns:xlink="http://www.w3.org/1999/xlink" width="61.33333" height="52.4066" viewBox="0,0,61.33333,52.4066"><defs><radialGradient cx="257.91667" cy="184.60282" r="16.12765" gradientUnits="userSpaceOnUse" id="color-1"><stop offset="0" stop-color="#86ecdb"/><stop offset="1" stop-color="#68c6b7"/></radialGradient><radialGradient cx="236.10037" cy="161.25" r="12.08333" gradientUnits="userSpaceOnUse" id="color-2"><stop offset="0" stop-color="#86ecdb"/><stop offset="1" stop-color="#68c6b7"/></radialGradient><radialGradient cx="235.43371" cy="185.16667" r="25.25" gradientUnits="userSpaceOnUse" id="color-3"><stop offset="0" stop-color="#86ecdb"/><stop offset="1" stop-color="#68c6b7"/></radialGradient><radialGradient cx="243.46494" cy="184.45468" r="10.78123" gradientUnits="userSpaceOnUse" id="color-4"><stop offset="0" stop-color="#86ecdb"/><stop offset="1" stop-color="#68c6b7"/></radialGradient></defs><g transform="translate(-208.93371,-153.76007)"><g data-paper-data="{&quot;isPaintingLayer&quot;:true}" fill-rule="nonzero" stroke-linejoin="miter" stroke-miterlimit="10" stroke-dasharray="" stroke-dashoffset="0" style="mix-blend-mode: normal"><path d="M246.01704,183.25c0,0 18.56925,-21.70519 23,-12.5c1.30451,2.71019 0.92318,24.62785 -0.5,27.66667c-4.63589,9.89866 -22.5,-15.16667 -22.5,-15.16667z" fill="url(#color-1)" stroke="#487f75" stroke-width="2.5" stroke-linecap="butt"/><path d="M224.01704,167.41667l6.33333,-12.33333l17.83333,1.66666l-10.16666,10.5z" fill="url(#color-2)" stroke="#487f75" stroke-width="2.5" stroke-linecap="butt"/><path d="M235.43371,204.91667c-7.31803,0 -13.90894,-2.43506 -18.5206,-6.32577c-0.86699,-0.73145 4.16084,0.02796 7.90423,-1.44337c2.70794,-1.06435 4.45771,-3.77274 4.18587,-6.77689c-0.15266,-1.6871 -5.26064,0.17297 -10.02424,0.87534c-4.0895,0.60298 -7.92518,0.03714 -8.15387,-0.75583c-0.43151,-1.49625 -0.64139,-3.22012 -0.64139,-5.32348c0,-10.90762 11.30481,-19.75 25.25,-19.75c13.94519,0 25.25,8.84238 25.25,19.75c0,10.90762 -11.30481,19.75 -25.25,19.75z" fill="url(#color-3)" stroke="#487f75" stroke-width="2.5" stroke-linecap="butt"/><path d="M252.51704,177.58334c3.00126,3.09858 1.65812,11.44206 -0.71463,13.87355c-6.20599,6.35963 -19.11871,-7.54021 -19.11871,-7.54021c0,0 13.64016,-12.72733 19.83333,-6.33334z" fill="url(#color-4)" stroke="#487f75" stroke-width="2.5" stroke-linecap="round"/><path d="M215.85278,181.35325c0,-0.69036 0.55964,-1.25 1.25,-1.25c0.69036,0 1.25,0.55964 1.25,1.25c0,0.69036 -0.55964,1.25 -1.25,1.25c-0.69036,0 -1.25,-0.55964 -1.25,-1.25z" fill="#000000" stroke="none" stroke-width="0.5" stroke-linecap="butt"/><path d="M223.85278,181.35325c0,-0.69036 0.55964,-1.25 1.25,-1.25c0.69036,0 1.25,0.55964 1.25,1.25c0,0.69036 -0.55964,1.25 -1.25,1.25c-0.69036,0 -1.25,-0.55964 -1.25,-1.25z" fill="#000000" stroke="none" stroke-width="0.5" stroke-linecap="butt"/></g></g></svg>