<svg version="1.1" xmlns="http://www.w3.org/2000/svg" xmlns:xlink="http://www.w3.org/1999/xlink" width="154.02471" height="152.97909" viewBox="0,0,154.02471,152.97909"><defs><radialGradient cx="288" cy="249.40555" r="29.1587" gradientUnits="userSpaceOnUse" id="color-1"><stop offset="0" stop-color="#d9d9d9"/><stop offset="1" stop-color="#262551"/></radialGradient><radialGradient cx="283" cy="119.73889" r="20.20381" gradientUnits="userSpaceOnUse" id="color-2"><stop offset="0" stop-color="#d9d9d9"/><stop offset="1" stop-color="#262551"/></radialGradient><radialGradient cx="225" cy="110.07222" r="63.03664" gradientUnits="userSpaceOnUse" id="color-3"><stop offset="0" stop-color="#d9d9d9"/><stop offset="1" stop-color="#262551"/></radialGradient><radialGradient cx="228.66667" cy="197.07222" r="23.88669" gradientUnits="userSpaceOnUse" id="color-4"><stop offset="0" stop-color="#d9d9d9"/><stop offset="1" stop-color="#262551"/></radialGradient></defs><g transform="translate(-162.98765,-103.51045)"><g data-paper-data="{&quot;isPaintingLayer&quot;:true}" fill-rule="nonzero" stroke-linecap="butt" stroke-linejoin="miter" stroke-miterlimit="10" stroke-dasharray="" stroke-dashoffset="0" style="mix-blend-mode: normal"><g><path d="M285.16927,167.74903c-0.09463,7.78817 -1.3789,24.0235 0.09241,24.24385c13.1628,1.97131 32.99132,12.14879 31.6897,19.9391c-0.50698,3.03437 -17.85465,14.59187 -22.76942,16.43371c-0.5198,0.1948 1.94751,20.05507 -2.70395,26.81546c-4.93453,7.17179 -33.17065,-17.39762 -36.6212,-19.12827c-2.37095,-1.18917 -8.69375,5.56911 -29.07394,6.33156c-35.3468,1.32237 -69.72184,-31.01316 -61.58904,-70.31486c1.27549,-6.16379 26.94275,3.4375 33.04623,1.99484c2.81546,-0.66548 18.13076,-8.19816 13.83799,-7.1854c-3.76223,0.8876 -20.05538,3.3588 -24.92437,2.36511c-1.51025,-0.30822 -19.92342,-7.58751 -18.54001,-12.51113c8.63045,-30.71605 27.83425,-53.02398 59.62325,-53.1836c10.29454,-0.05169 20.58105,6.72424 21.80588,6.0018c2.49805,-1.47342 31.21308,-14.35856 40.97373,2.73357c3.17829,5.56559 -7.70903,18.39301 -13.24021,22.68057c-2.31525,1.7947 8.61514,14.49707 8.39296,32.7837z" fill="#d9d9d9" stroke="none" stroke-width="0"/><path d="M288.37192,225.53334c-6.68439,11.71155 10.1043,32.56086 -10.2738,20.93001c-20.37811,-11.63082 -31.47908,-30.55359 -24.79466,-42.26512c6.68439,-11.71155 28.62287,-11.77698 49.00098,-0.14615c20.37811,11.63082 -7.24813,9.76974 -13.93251,21.48127z" fill="#f1f1f1" stroke="url(#color-1)" stroke-width="2.5"/><path d="M283.69334,115.60309c1.73044,6.22963 -5.80154,13.76159 -16.82316,16.82317c-11.02162,3.06158 -21.35924,0.49336 -23.08967,-5.73627c-1.73043,-6.22963 5.80154,-13.76161 16.82316,-16.82316c11.02162,-3.06158 21.35924,-0.49336 23.08967,5.73627z" fill="#f1f1f1" stroke="url(#color-2)" stroke-width="2.5"/><path d="M279.94634,172.47639c0,34.81419 -24.79547,63.03666 -55.38218,63.03666c-30.58672,0 -61.94944,-26.02307 -56.05758,-60.33508c0.37681,-2.19448 13.95115,5.70188 26.66571,4.31224c12.71459,-1.38963 25.3401,-14.84472 25.91092,-16.81243c0.73561,-2.5358 -18.74517,1.36272 -28.55992,2.02093c-9.81475,0.65821 -21.14071,-5.65325 -20.14845,-7.79967c5.99908,-12.97675 8.46778,-25.34157 20.40029,-34.68257c9.00493,-7.04923 22.3244,-12.7767 31.78903,-12.7767c30.58672,0 55.38218,28.22244 55.38218,63.03663z" fill="#f1f1f1" stroke="url(#color-3)" stroke-width="2.5"/><path d="M263.78722,198.36778c-2.45821,6.24797 -14.95614,7.17978 -27.91489,2.08127c-12.95875,-5.09851 -21.47114,-14.29669 -19.01292,-20.54466c2.45821,-6.24797 14.95616,-7.17978 27.91492,-2.08127c12.95875,5.09854 21.47111,14.29669 19.01289,20.54466z" fill="#f1f1f1" stroke="url(#color-4)" stroke-width="2.5"/><path d="M189.17358,142.14075c0,-2.98407 2.41906,-5.40314 5.40314,-5.40314c2.98407,0 5.40314,2.41907 5.40314,5.40314c0,2.98407 -2.41906,5.40314 -5.40314,5.40314c-2.98408,0 -5.40314,-2.41906 -5.40314,-5.40314z" fill="#262551" stroke="none" stroke-width="0.5"/><path d="M213.48771,143.76172c0,-2.98407 2.41906,-5.40314 5.40314,-5.40314c2.98407,0 5.40314,2.41907 5.40314,5.40314c0,2.98407 -2.41907,5.40314 -5.40314,5.40314c-2.98408,0 -5.40314,-2.41906 -5.40314,-5.40314z" fill="#262551" stroke="none" stroke-width="0.5"/></g></g></g></svg>