<svg version="1.1" xmlns="http://www.w3.org/2000/svg" xmlns:xlink="http://www.w3.org/1999/xlink" width="52.83455" height="48.71339" viewBox="0,0,52.83455,48.71339"><defs><linearGradient x1="69.34115" y1="270.98881" x2="69.34115" y2="282.52905" gradientUnits="userSpaceOnUse" id="color-1"><stop offset="0" stop-color="#412c6d"/><stop offset="1" stop-color="#351d48"/></linearGradient><linearGradient x1="49.87925" y1="245.17003" x2="49.87925" y2="288.98375" gradientUnits="userSpaceOnUse" id="color-2"><stop offset="0" stop-color="#412c6d"/><stop offset="1" stop-color="#351d48"/></linearGradient></defs><g transform="translate(-29.96722,-241.53148)"><g data-paper-data="{&quot;isPaintingLayer&quot;:true}" fill-rule="nonzero" stroke-linecap="butt" stroke-linejoin="miter" stroke-miterlimit="10" stroke-dasharray="" stroke-dashoffset="0" style="mix-blend-mode: normal"><g><path d="M62.20186,282.52905v-11.54022c0,0 11.0529,-6.74908 17.01694,-3.52075c5.96403,3.22834 -4.73989,6.87214 -4.4977,10.29741c0.20942,2.96181 9.8508,7.55081 5.86688,9.06669c-3.98392,1.51588 -18.38611,-4.30313 -18.38611,-4.30313z" fill="url(#color-1)" stroke="#000000" stroke-width="2.5"/><path d="M49.87925,288.98375c-8.78292,0.27178 -18.11854,-4.45351 -18.66203,-12.51279c-0.04219,-0.62571 12.85137,3.99547 12.88686,0.17861c0.04276,-4.59857 -12.74453,-4.36383 -12.54523,-5.55122c2.28634,-13.62158 14.57138,-33.43303 28.10025,-27.1019c2.72548,1.27545 -10.172,6.99251 -6.78035,12.55456c3.74783,6.14614 14.1472,12.36777 14.09032,18.73811c-0.0829,9.28454 -8.94046,13.44246 -17.08982,13.69463z" fill="url(#color-2)" stroke="#000000" stroke-width="2.5"/><path d="M34.42709,268.83727c0,-1.08025 0.87572,-1.95597 1.95597,-1.95597c1.08025,0 1.95597,0.87572 1.95597,1.95597c0,1.08025 -0.87572,1.95597 -1.95597,1.95597c-1.08025,0 -1.95597,-0.87572 -1.95597,-1.95597z" fill="#000000" stroke="none" stroke-width="0.5"/><path d="M42.64216,269.03286c0,-1.08025 0.87572,-1.95597 1.95597,-1.95597c1.08025,0 1.95597,0.87572 1.95597,1.95597c0,1.08025 -0.87572,1.95597 -1.95597,1.95597c-1.08025,0 -1.95597,-0.87572 -1.95597,-1.95597z" fill="#000000" stroke="none" stroke-width="0.5"/></g></g></g></svg>