<svg version="1.1" xmlns="http://www.w3.org/2000/svg" xmlns:xlink="http://www.w3.org/1999/xlink" width="58.04163" height="45.07895" viewBox="0,0,58.04163,45.07895"><defs><linearGradient x1="236.01535" y1="159.28708" x2="236.01535" y2="166.28708" gradientUnits="userSpaceOnUse" id="color-1"><stop offset="0" stop-color="#b5f4c4"/><stop offset="1" stop-color="#469a3b"/></linearGradient><linearGradient x1="259.89035" y1="178.78708" x2="259.89035" y2="189.28708" gradientUnits="userSpaceOnUse" id="color-2"><stop offset="0" stop-color="#b5f4c4"/><stop offset="1" stop-color="#469a3b"/></linearGradient><linearGradient x1="232.39035" y1="176.78708" x2="232.39035" y2="192.53708" gradientUnits="userSpaceOnUse" id="color-3"><stop offset="0" stop-color="#b5f4c4"/><stop offset="1" stop-color="#469a3b"/></linearGradient><linearGradient x1="237.64035" y1="179.28708" x2="237.64035" y2="189.28708" gradientUnits="userSpaceOnUse" id="color-4"><stop offset="0" stop-color="#b5f4c4"/><stop offset="1" stop-color="#469a3b"/></linearGradient></defs><g transform="translate(-210.56803,-157.46292)"><g data-paper-data="{&quot;isPaintingLayer&quot;:true}" fill-rule="nonzero" stroke-linecap="butt" stroke-linejoin="miter" stroke-miterlimit="10" stroke-dasharray="" stroke-dashoffset="0" style="mix-blend-mode: normal"><path d="M229.14035,166.28708c0,0 1.05706,-4.45695 2.88415,-5.48648c6.26802,-3.5319 10.86585,-1.51352 10.86585,-1.51352v7z" fill="url(#color-1)" stroke="#4a7b42" stroke-width="2.5"/><path d="M253.14035,189.28708v-10.5c0,0 9.53574,-10.90207 13.25,-6.5c2.14981,2.54792 -1.26397,6.57168 -1.37486,11.50842c-0.0807,3.59253 3.93986,8.02138 1.62486,10.99158c-5.49621,7.05174 -13.5,-5.5 -13.5,-5.5z" fill="url(#color-2)" stroke="#4a7b42" stroke-width="2.5"/><path d="M212.64035,176.78708l12.5,-10l19.19904,-0.0374l8.55096,10.0374v15.75l-9.25,8.75l-20.38488,-0.1961l-9.61512,-8.0539c0,0 3.81777,-0.3897 6.25671,-0.89155c2.16409,-0.44529 6.04003,-2.73437 6.02193,-4.08058c-0.03617,-1.21307 -4.55227,-0.37483 -7.21137,-0.47334c-2.63644,-0.09768 -5.53338,-2.12891 -5.53338,-2.12891z" fill="url(#color-3)" stroke="#4a7b42" stroke-width="2.5"/><path d="M245.39035,184.28708c0,2.76143 -3.4698,5 -7.75,5c-4.2802,0 -7.75,-2.23857 -7.75,-5c0,-2.76143 3.4698,-5 7.75,-5c4.2802,0 7.75,2.23857 7.75,5z" fill="url(#color-4)" stroke="#4a7b42" stroke-width="2.5"/><path d="M215.89035,179.28708c0,-0.69036 0.55964,-1.25 1.25,-1.25c0.69036,0 1.25,0.55964 1.25,1.25c0,0.69036 -0.55964,1.25 -1.25,1.25c-0.69036,0 -1.25,-0.55964 -1.25,-1.25z" fill="#000000" stroke="none" stroke-width="0.5"/></g></g></svg>