<svg version="1.1" xmlns="http://www.w3.org/2000/svg" xmlns:xlink="http://www.w3.org/1999/xlink" width="114.70557" height="87.68917" viewBox="0,0,114.70557,87.68917"><defs><linearGradient x1="194.14462" y1="184.87357" x2="194.14462" y2="216.06584" gradientUnits="userSpaceOnUse" id="color-1"><stop offset="0" stop-color="#ffda00"/><stop offset="1" stop-color="#ff7900"/></linearGradient><linearGradient x1="234.54213" y1="149.00831" x2="234.54213" y2="235.1975" gradientUnits="userSpaceOnUse" id="color-2"><stop offset="0" stop-color="#ffda00"/><stop offset="1" stop-color="#ff7900"/></linearGradient><linearGradient x1="209.7067" y1="216.71598" x2="218.45236" y2="229.4874" gradientUnits="userSpaceOnUse" id="color-3"><stop offset="0" stop-color="#ffda00"/><stop offset="1" stop-color="#ff7900"/></linearGradient></defs><g transform="translate(-161.62902,-148.25833)"><g data-paper-data="{&quot;isPaintingLayer&quot;:true}" fill-rule="nonzero" stroke-linejoin="miter" stroke-miterlimit="10" stroke-dasharray="" stroke-dashoffset="0" style="mix-blend-mode: normal"><path d="M217.48019,200.46971c0,8.61351 -10.44769,15.59614 -23.33558,15.59614c-6.56198,0 -25.62495,3.81849 -29.86476,0.90451c-2.08629,-1.43388 18.18612,-4.60154 20.39441,-7.9217c2.11801,-3.18441 -13.86522,-6.50912 -13.86522,-8.57894c0,-1.75326 13.52855,-3.63845 11.4306,-6.87891c-3.24872,-5.01795 -22.33028,-11.64648 -19.5929,-13.37419c4.1795,-2.6379 25.29554,4.65696 31.49788,4.65696c12.88789,0 23.33558,6.98263 23.33558,15.59614z" fill="url(#color-1)" stroke="#d49c00" stroke-width="1.5" stroke-linecap="butt"/><path d="M275.5846,192.10291c0,23.80049 -18.37533,43.09459 -41.04247,43.09459c-22.66713,0 -41.04247,-19.2941 -41.04247,-43.09459c0,-10.29502 3.4381,-19.74689 9.17448,-27.15877c3.73583,-4.827 14.30963,21.69989 19.68016,18.93389c5.44754,-2.80567 5.71087,-34.8697 12.18783,-34.8697c5.30211,0 9.19675,36.23493 13.84896,38.15701c5.54927,2.2927 11.68062,-29.36109 15.74282,-24.92407c7.09133,7.74562 11.45068,18.26908 11.45068,29.86166z" fill="url(#color-2)" stroke="#d49c00" stroke-width="1.5" stroke-linecap="butt"/><path d="M227.91524,213.62724c2.41504,3.52673 -1.82163,10.62757 -9.46288,15.86016c-7.64125,5.2326 -15.79348,6.61547 -18.20853,3.08874c-2.41504,-3.52673 1.82163,-10.62757 9.46288,-15.86016c7.64125,-5.2326 15.79348,-6.61547 18.20853,-3.08874z" fill="url(#color-3)" stroke="#d49c00" stroke-width="1.5" stroke-linecap="butt"/><path d="M244.68548,217.23849c0,0 6.18202,-3.38503 11.56101,-3.56808c9.56409,-0.32547 12.82995,0.98827 12.82995,0.98827" fill="none" stroke="#d49c00" stroke-width="1.5" stroke-linecap="round"/><path d="M265.26535,198.71074c0,-0.80955 0.65626,-1.4658 1.4658,-1.4658c0.80955,0 1.4658,0.65626 1.4658,1.4658c0,0.80955 -0.65626,1.4658 -1.4658,1.4658c-0.80955,0 -1.4658,-0.65626 -1.4658,-1.4658z" fill="#000000" stroke="none" stroke-width="0.5" stroke-linecap="butt"/><path d="M252.36629,199.1798c0,-0.80955 0.65626,-1.4658 1.4658,-1.4658c0.80955,0 1.4658,0.65626 1.4658,1.4658c0,0.80955 -0.65626,1.4658 -1.4658,1.4658c-0.80955,0 -1.4658,-0.65626 -1.4658,-1.4658z" fill="#000000" stroke="none" stroke-width="0.5" stroke-linecap="butt"/></g></g></svg>