<svg version="1.1" xmlns="http://www.w3.org/2000/svg" xmlns:xlink="http://www.w3.org/1999/xlink" width="59.51879" height="47.75346" viewBox="0,0,59.51879,47.75346"><defs><radialGradient cx="296.89274" cy="268.20849" r="8.00967" gradientUnits="userSpaceOnUse" id="color-1"><stop offset="0" stop-color="#ff0000"/><stop offset="1" stop-color="#be0000"/></radialGradient><radialGradient cx="296.52496" cy="274.98665" r="8.00967" gradientUnits="userSpaceOnUse" id="color-2"><stop offset="0" stop-color="#ff0000"/><stop offset="1" stop-color="#be0000"/></radialGradient><radialGradient cx="270.16979" cy="269.6823" r="22.63205" gradientUnits="userSpaceOnUse" id="color-3"><stop offset="0" stop-color="#ff0000"/><stop offset="1" stop-color="#be0000"/></radialGradient><radialGradient cx="276.4597" cy="270.44738" r="7.04465" gradientUnits="userSpaceOnUse" id="color-4"><stop offset="0" stop-color="#ff0000"/><stop offset="1" stop-color="#be0000"/></radialGradient></defs><g transform="translate(-246.21662,-238.4071)"><g data-paper-data="{&quot;isPaintingLayer&quot;:true}" stroke-linejoin="miter" stroke-miterlimit="10" stroke-dasharray="" stroke-dashoffset="0" style="mix-blend-mode: normal"><g><path d="M296.03019,264.0509c4.33138,-0.89862 8.22885,0.23431 8.70522,2.53046c0.47637,2.29615 -2.64873,4.88603 -6.98011,5.78465c-4.33138,0.89862 -8.22885,-0.23431 -8.70522,-2.53046c-0.47637,-2.29615 2.64873,-4.88603 6.98011,-5.78465z" data-paper-data="{&quot;index&quot;:null}" fill="url(#color-1)" fill-rule="nonzero" stroke="#950000" stroke-width="2" stroke-linecap="butt"/><path d="M297.85293,270.95358c4.20171,1.38348 7.01332,4.31069 6.27991,6.53811c-0.73342,2.22741 -4.73412,2.91155 -8.93583,1.52807c-4.20171,-1.38348 -7.01332,-4.31069 -6.27991,-6.53811c0.73342,-2.22741 4.73412,-2.91155 8.93583,-1.52807z" data-paper-data="{&quot;index&quot;:null}" fill="url(#color-2)" fill-rule="nonzero" stroke="#950000" stroke-width="2" stroke-linecap="butt"/><path d="M270.16979,254.20408c12.49934,0 22.63205,6.92984 22.63205,15.47824c0,8.5484 -10.13272,15.47824 -22.63205,15.47824c-12.49934,0 -22.63205,-6.92984 -22.63205,-15.47824c0,-8.5484 10.13272,-15.47824 22.63205,-15.47824z" data-paper-data="{&quot;index&quot;:null}" fill="url(#color-3)" fill-rule="nonzero" stroke="#950000" stroke-width="2" stroke-linecap="butt"/><path d="M252.67953,264.3915c-0.53297,0 -0.96502,-0.43205 -0.96502,-0.96502c0,-0.53297 0.43205,-0.96502 0.96502,-0.96502c0.53297,0 0.96502,0.43205 0.96502,0.96502c0,0.53297 -0.43205,0.96502 -0.96502,0.96502z" data-paper-data="{&quot;index&quot;:null}" fill="#000000" fill-rule="nonzero" stroke="none" stroke-width="0.5" stroke-linecap="butt"/><path d="M258.92286,264.3915c-0.53297,0 -0.96502,-0.43205 -0.96502,-0.96502c0,-0.53297 0.43205,-0.96502 0.96502,-0.96502c0.53297,0 0.96502,0.43205 0.96502,0.96502c0,0.53297 -0.43205,0.96502 -0.96502,0.96502z" data-paper-data="{&quot;index&quot;:null}" fill="#000000" fill-rule="nonzero" stroke="none" stroke-width="0.5" stroke-linecap="butt"/><path d="M259.70327,267.58871c0,0 -1.73414,2.3611 -3.3818,2.60139c-1.64766,0.24028 -9.10485,-0.78042 -9.10485,-0.78042" data-paper-data="{&quot;index&quot;:null}" fill="none" fill-rule="nonzero" stroke="#950000" stroke-width="2" stroke-linecap="round"/><g data-paper-data="{&quot;index&quot;:null}" fill-rule="evenodd" stroke="none" stroke-width="1" stroke-linecap="butt"><path d="M262.01189,239.88505c0.07792,0.1308 0.17366,0.24027 0.28738,0.32842c0.38179,0.59878 0.72394,1.22827 1.02633,1.88845c0.19254,0.50436 0.24722,1.02437 0.16422,1.56003c-0.4653,1.14956 -0.84849,2.32642 -1.14949,3.53059c-0.15592,1.37085 -0.32013,2.73925 -0.49264,4.10534c-0.64913,1.10622 -1.27861,2.22838 -1.88845,3.36638c-0.1824,0.31924 -0.44241,0.55185 -0.78001,0.69791c-0.46831,0.0564 -0.93358,0.04278 -1.39581,-0.04106c0.11146,-0.99719 0.27567,-1.98247 0.49264,-2.95584c0.72319,-4.31791 1.96847,-8.47796 3.73586,-12.48022z" data-paper-data="{&quot;index&quot;:null}" fill="#ec2025"/><path d="M263.03824,239.55662c0.05551,-0.09045 0.11019,-0.17255 0.16422,-0.24632c0.49896,0.76087 0.95055,1.55457 1.35476,2.38109c0.1684,0.64398 0.2505,1.30082 0.24632,1.97056c2.18601,-1.23956 4.52605,-2.01958 7.02012,-2.34004c0.65916,-0.05733 1.31601,-0.04365 1.97056,0.04106c0,-0.21895 0,-0.4379 0,-0.65685c0.05928,0.0863 0.14139,0.14105 0.24632,0.16422c-0.01338,0.19351 0.00025,0.3851 0.04106,0.57475c0.66917,0.48909 1.16181,1.11857 1.47792,1.88845c0.60315,1.89465 0.93158,3.83782 0.98528,5.82957c0.04597,2.35408 0.03226,4.70783 -0.04106,7.06118c0.10944,0 0.21897,0 0.32842,0c0.14624,-3.09567 0.10518,-6.18831 -0.12316,-9.27806c-0.11823,-1.62309 -0.54248,-3.15575 -1.27265,-4.59798c0.06068,0.01075 0.11545,-0.00293 0.16422,-0.04106c-0.06872,-0.08304 -0.09606,-0.17882 -0.0821,-0.28738c0.36062,0.49026 0.62065,1.03764 0.78001,1.64213c0.57426,2.48283 0.83429,5.00079 0.78001,7.55382c-0.03703,1.69681 -0.06437,3.39363 -0.0821,5.09061c0.13687,0 0.27366,0 0.41054,0c0.38032,-3.62164 0.31193,-7.23433 -0.20526,-10.83808c-0.16257,-1.19832 -0.47729,-2.34781 -0.94423,-3.44848c0.09106,0.00467 0.17316,0.03204 0.24632,0.0821c4.60331,1.99068 7.46341,5.43916 8.58015,10.34544c0.11372,0.57261 0.20946,1.14736 0.28738,1.72424c-0.06683,-0.18728 -0.17636,-0.3515 -0.32842,-0.49264c-0.07275,0.06774 -0.10008,0.14984 -0.0821,0.24632c-0.6626,-5.24235 -3.35841,-9.01931 -8.08751,-11.33073c0.96524,3.93336 1.29367,7.9292 0.98528,11.98758c-0.01814,0.56407 -0.0592,1.12511 -0.12316,1.68319c0.03326,0.0776 0.08802,0.13235 0.16422,0.16422c2.28996,0.28006 4.53418,0.73165 6.73275,1.35476c-0.10313,-0.0032 -0.18523,0.03785 -0.24632,0.12316c0.10543,0.05616 0.20125,0.04245 0.28738,-0.04106c0.08531,0.06109 0.12636,0.14319 0.12316,0.24632c-3.90204,-1.02494 -7.87058,-1.61331 -11.90547,-1.76529c-3.11898,-0.12447 -6.23904,-0.15181 -9.36017,-0.0821c-2.7259,0.20256 -5.44911,0.43517 -8.16962,0.69791c-0.40644,0.00755 -0.80329,-0.04722 -1.19055,-0.16422c0.08842,-0.09894 0.19789,-0.15371 0.32842,-0.16422c0.82442,-0.39797 1.70022,-0.64429 2.62741,-0.73896c0,-0.0821 0,-0.16422 0,-0.24632c-1.03517,0.02907 -2.02045,0.26167 -2.95584,0.69791c-0.09894,0.11298 -0.20841,0.20871 -0.32842,0.28738c-0.12044,-0.06503 -0.22991,-0.06503 -0.32842,0c-0.18373,0.14434 -0.26584,0.33598 -0.24632,0.57475c-0.02737,0 -0.05474,0 -0.0821,0c0,-0.16422 0,-0.32842 0,-0.49264c0.20885,-0.41357 0.53728,-0.70094 0.98528,-0.86212c1.01546,-0.3359 2.05548,-0.56859 3.12006,-0.69791c0.19924,-1.06632 0.39083,-2.13371 0.57475,-3.20216c0.07365,0.09016 0.14207,0.09016 0.20526,0c0.03067,0.16347 0.0991,0.30035 0.20526,0.41054c-0.21697,0.97337 -0.38118,1.95866 -0.49264,2.95584c0.46223,0.08383 0.9275,0.09746 1.39581,0.04106c0.33761,-0.14607 0.59762,-0.37868 0.78001,-0.69791c0.60984,-1.138 1.23933,-2.26016 1.88845,-3.36638c0.17251,-1.36609 0.33671,-2.73448 0.49264,-4.10534c0.301,-1.20417 0.68419,-2.38102 1.14949,-3.53059c0.08301,-0.53566 0.02833,-1.05567 -0.16422,-1.56003c-0.3024,-0.66017 -0.64454,-1.28966 -1.02633,-1.88845c0.08211,-0.02737 0.13687,-0.08211 0.16422,-0.16422c0.40872,0.5973 0.77821,1.22678 1.10844,1.88845c0.23926,0.72959 0.26668,1.46855 0.0821,2.21688c-0.43788,1.0125 -0.79365,2.05252 -1.06739,3.12006c-0.06856,1.26363 -0.178,2.52265 -0.32842,3.77691c-0.329,0.87574 -0.7943,1.66947 -1.39581,2.38109c-0.29819,0.80276 -0.74978,1.50067 -1.35476,2.09372c-0.54452,0.22439 -1.10557,0.26545 -1.68319,0.12316c-0.16198,-0.01568 -0.28514,0.03909 -0.36948,0.16422c0.34169,0.35659 0.76591,0.5208 1.27265,0.49264c0.60713,0.01133 1.0724,-0.23499 1.39581,-0.73896c0.25777,-0.62499 0.55882,-1.22717 0.90317,-1.80635c0.51998,-0.73897 1.04005,-1.47793 1.56003,-2.21688c0.13753,-1.53917 0.32917,-3.07178 0.57475,-4.59798c0.33409,-1.08432 0.71728,-2.1517 1.14949,-3.20216c0.18433,-0.67477 0.12964,-1.33163 -0.16422,-1.97056c-0.49421,-0.93478 -1.0279,-1.83795 -1.60108,-2.70952c0.08177,-0.00705 0.15017,0.02033 0.20526,0.0821c0.04393,-0.14537 0.1124,-0.17274 0.20526,-0.0821c-0.24214,0.21294 -0.21479,0.37715 0.0821,0.49264z" data-paper-data="{&quot;index&quot;:null}" fill="#0e0504"/><path d="M268.7036,242.3072c0.72796,-0.15684 1.43949,-0.33474 2.13477,-0.53369c0.16643,-0.01331 0.33064,0.00037 0.49264,0.04106c-2.08378,1.3034 -3.60275,3.09606 -4.55692,5.37799c-1.10967,2.82553 -1.78024,5.75395 -2.01161,8.78542c-1.50904,0.06519 -3.01438,0.17472 -4.51587,0.32842c0.31738,-0.66187 0.65949,-1.31872 1.02633,-1.97056c0.63567,-0.80579 1.21042,-1.65428 1.72424,-2.54531c0.11561,-0.29205 0.19771,-0.59314 0.24632,-0.90317c-0.0087,-2.27444 0.41554,-4.46391 1.27265,-6.56854c1.26304,-0.93248 2.65886,-1.60302 4.18744,-2.01161z" data-paper-data="{&quot;index&quot;:null}" fill="#ec2025"/><path d="M273.5479,241.6914c0.63641,0.03828 1.11534,0.33935 1.43687,0.90317c0.45273,0.87984 0.75374,1.81039 0.90317,2.79163c0.43377,3.57378 0.55693,7.15913 0.36948,10.75598c-1.67063,-0.03538 -3.34011,-0.10378 -5.00851,-0.20526c-1.8061,-0.04106 -3.61245,-0.05477 -5.41905,-0.04106c0.23409,-3.42706 1.09621,-6.68398 2.58636,-9.7707c1.14785,-2.14802 2.85846,-3.62594 5.13167,-4.43376z" data-paper-data="{&quot;index&quot;:null}" fill="#ec1f24"/><path d="M262.13505,238.98188c0.14714,-0.01101 0.28392,0.01636 0.41054,0.0821c0.57319,0.87158 1.10689,1.77475 1.60108,2.70952c0.29386,0.63894 0.34854,1.29579 0.16422,1.97056c-0.43221,1.05046 -0.8154,2.11784 -1.14949,3.20216c-0.24559,1.5262 -0.43722,3.05881 -0.57475,4.59798c-0.51998,0.73897 -1.04005,1.47793 -1.56003,2.21688c-0.34435,0.57918 -0.64541,1.18135 -0.90317,1.80635c-0.32341,0.50397 -0.78868,0.75029 -1.39581,0.73896c-0.50674,0.02816 -0.93096,-0.13605 -1.27265,-0.49264c0.08433,-0.12514 0.20749,-0.1799 0.36948,-0.16422c0.57761,0.14229 1.13867,0.10123 1.68319,-0.12316c0.60498,-0.59306 1.05657,-1.29097 1.35476,-2.09372c0.60152,-0.71161 1.06681,-1.50534 1.39581,-2.38109c0.15042,-1.25426 0.25986,-2.51329 0.32842,-3.77691c0.27375,-1.06754 0.62952,-2.10756 1.06739,-3.12006c0.18458,-0.74833 0.15715,-1.48729 -0.0821,-2.21688c-0.33023,-0.66167 -0.69971,-1.29115 -1.10844,-1.88845c-0.14286,-0.34643 -0.25231,-0.70222 -0.32842,-1.06739z" data-paper-data="{&quot;index&quot;:null}" fill="#ea2025"/><path d="M276.87322,242.59456c4.7291,2.31143 7.42491,6.08838 8.08751,11.33073c0.15863,1.31108 0.18605,2.62479 0.0821,3.94112c-0.12899,-0.06642 -0.26586,-0.09385 -0.41054,-0.0821c-2.19857,-0.6231 -4.44279,-1.07469 -6.73275,-1.35476c-0.0762,-0.03186 -0.13096,-0.08663 -0.16422,-0.16422c0.06396,-0.55808 0.10502,-1.11911 0.12316,-1.68319c0.3084,-4.05837 -0.02003,-8.05422 -0.98528,-11.98758z" data-paper-data="{&quot;index&quot;:null}" fill="#ec1f25"/><path d="M272.48051,241.52718c0.30231,-0.01357 0.60332,0.00012 0.90317,0.04106c-2.28741,0.80933 -4.02536,2.27357 -5.21377,4.39271c-0.97773,1.83836 -1.66192,3.78151 -2.05267,5.82957c-0.2189,1.36814 -0.43787,2.73654 -0.65685,4.10534c-0.11133,0.07225 -0.23449,0.09968 -0.36948,0.0821c0.18425,-3.55604 1.0737,-6.92242 2.66847,-10.09912c0.87428,-1.53139 2.03748,-2.80404 3.48954,-3.81796c0.40864,-0.20387 0.81918,-0.38175 1.2316,-0.53369z" data-paper-data="{&quot;index&quot;:null}" fill="#bc2026"/><path d="M285.53548,258.03063c0.02636,-1.29063 -0.02841,-2.57692 -0.16422,-3.85902c-0.07792,-0.57688 -0.17366,-1.15163 -0.28738,-1.72424c-1.11673,-4.90629 -3.97684,-8.35477 -8.58015,-10.34544c-0.07234,-0.28154 -0.20921,-0.52786 -0.41054,-0.73896c3.20947,0.92057 5.71372,2.80902 7.51276,5.66537c2.08839,3.4002 2.95051,7.095 2.58636,11.0844c-0.21898,-0.02734 -0.43787,-0.05476 -0.65685,-0.0821z" data-paper-data="{&quot;index&quot;:null}" fill="#eb2025"/><path d="M274.08158,241.44507c-0.04081,-0.18965 -0.05444,-0.38124 -0.04106,-0.57475c0.57853,0.38693 1.04382,0.87957 1.39581,1.47792c0.73017,1.44223 1.15442,2.97489 1.27265,4.59798c0.22834,3.08976 0.2694,6.18239 0.12316,9.27806c-0.10944,0 -0.21897,0 -0.32842,0c0.07333,-2.35335 0.08704,-4.7071 0.04106,-7.06118c-0.05369,-1.99174 -0.38212,-3.93492 -0.98528,-5.82957c-0.31611,-0.76988 -0.80875,-1.39936 -1.47792,-1.88845z" data-paper-data="{&quot;index&quot;:null}" fill="#b61f25"/><path d="M276.25742,242.01982c0.46695,1.10067 0.78166,2.25017 0.94423,3.44848c0.51719,3.60374 0.58558,7.21644 0.20526,10.83808c-0.13687,0 -0.27366,0 -0.41054,0c0.01773,-1.69698 0.04507,-3.3938 0.0821,-5.09061c0.05427,-2.55303 -0.20576,-5.07099 -0.78001,-7.55382c-0.15937,-0.6045 -0.41941,-1.15187 -0.78001,-1.64213c-0.25642,-0.40702 -0.58484,-0.74913 -0.98528,-1.02633c0.77025,0.01832 1.34499,0.36042 1.72424,1.02633z" data-paper-data="{&quot;index&quot;:null}" fill="#e51f24"/><path d="M257.8655,251.95471c0.90238,-4.68164 2.27082,-9.19753 4.10534,-13.54761c0.13687,0 0.27366,0 0.41054,0c0.25544,0.16906 0.5291,0.31959 0.82107,0.45158c2.87677,0.33181 5.75051,0.6876 8.62121,1.06739c1.13324,0.16577 2.25539,0.38472 3.36638,0.65685c2.8468,0.62223 5.26895,1.97699 7.26644,4.06428c3.3213,3.89194 4.73082,8.40781 4.2285,13.54761c3.68462,1.13086 7.10576,2.7867 10.26334,4.96745c0.31702,0.22136 0.59068,0.48139 0.82107,0.78001c0,0.0821 0,0.16422 0,0.24632c-0.13885,0.11199 -0.27572,0.22144 -0.41054,0.32842c-0.32842,0 -0.65685,0 -0.98528,0c-3.30487,-1.06961 -6.61648,-2.15071 -9.93491,-3.24322c-7.19986,-1.96736 -14.53469,-2.95264 -22.0046,-2.95584c-3.14742,-0.02734 -6.29485,-0.05476 -9.44227,-0.0821c-0.65435,-0.07151 -1.2154,-0.33155 -1.68319,-0.78001c-0.03964,-0.07783 -0.05332,-0.15995 -0.04106,-0.24632c-0.01952,-0.23877 0.06259,-0.43041 0.24632,-0.57475c0.0985,-0.06503 0.20798,-0.06503 0.32842,0c-0.19175,0.41686 -0.05491,0.64947 0.41054,0.69791c0.95792,0.05477 1.91582,0.05477 2.87374,0c5.97959,-0.75793 11.97338,-0.8948 17.98137,-0.41054c4.23785,0.34394 8.37053,1.19243 12.39811,2.54531c1.16296,0.46062 2.31245,0.95325 3.44848,1.47792c2.00348,1.00171 4.00138,2.0007 5.99379,2.9969c0.05477,-0.01371 0.10945,-0.02734 0.16422,-0.04106c-2.7142,-1.98698 -5.67004,-3.54701 -8.86753,-4.68008c-1.14465,-0.39526 -2.29414,-0.76474 -3.44848,-1.10844c0.0032,-0.10313 -0.03785,-0.18523 -0.12316,-0.24632c-0.08613,0.0835 -0.18195,0.09722 -0.28738,0.04106c0.06109,-0.08531 0.14319,-0.12636 0.24632,-0.12316c0.14468,-0.01174 0.28155,0.01568 0.41054,0.0821c0.10395,-1.31633 0.07653,-2.63004 -0.0821,-3.94112c-0.01799,-0.09647 0.00936,-0.17858 0.0821,-0.24632c0.15206,0.14114 0.26159,0.30536 0.32842,0.49264c0.13581,1.2821 0.19057,2.56838 0.16422,3.85902c0.21898,0.02734 0.43787,0.05476 0.65685,0.0821c0.36414,-3.98939 -0.49798,-7.6842 -2.58636,-11.0844c-1.79904,-2.85634 -4.30329,-4.7448 -7.51276,-5.66537c0.20133,0.21109 0.3382,0.45741 0.41054,0.73896c-0.07316,-0.05007 -0.15526,-0.07743 -0.24632,-0.0821c-0.37925,-0.66591 -0.954,-1.00801 -1.72424,-1.02633c0.40043,0.2772 0.72886,0.61931 0.98528,1.02633c-0.01396,0.10855 0.01338,0.20434 0.0821,0.28738c-0.04878,0.03812 -0.10354,0.05181 -0.16422,0.04106c-0.35199,-0.59834 -0.81729,-1.09098 -1.39581,-1.47792c-0.10493,-0.02318 -0.18704,-0.07791 -0.24632,-0.16422c-3.52828,-0.48841 -7.05888,-0.95369 -10.59176,-1.39581c-0.05403,0.07377 -0.10871,0.15587 -0.16422,0.24632c-0.29689,-0.11549 -0.32424,-0.2797 -0.0821,-0.49264c-0.09286,-0.09064 -0.16134,-0.06327 -0.20526,0.0821c-0.05509,-0.06178 -0.12348,-0.08914 -0.20526,-0.0821c-0.12661,-0.06574 -0.2634,-0.09311 -0.41054,-0.0821c0.07611,0.36517 0.18555,0.72096 0.32842,1.06739c-0.02734,0.08211 -0.08211,0.13685 -0.16422,0.16422c-0.11372,-0.08815 -0.20946,-0.19762 -0.28738,-0.32842c-1.76739,4.00227 -3.01267,8.16231 -3.73586,12.48022c-0.10616,-0.11019 -0.17459,-0.24706 -0.20526,-0.41054c-0.0632,0.09016 -0.13161,0.09016 -0.20526,0z" data-paper-data="{&quot;index&quot;:null}" fill="#0b0708"/><path d="M263.20245,239.3103c3.53289,0.44213 7.06347,0.9074 10.59176,1.39581c0,0.21895 0,0.4379 0,0.65685c-0.65455,-0.08471 -1.31141,-0.09839 -1.97056,-0.04106c-2.49407,0.32046 -4.83411,1.10048 -7.02012,2.34004c0.00418,-0.66974 -0.07792,-1.32659 -0.24632,-1.97056c-0.4042,-0.82651 -0.8558,-1.62022 -1.35476,-2.38109z" data-paper-data="{&quot;index&quot;:null}" fill="#ec2025"/><path d="M266.3225,256.88113c5.35976,-0.06092 10.66936,0.41801 15.92871,1.43687c3.4007,0.7837 6.65762,1.96054 9.7707,3.53059c1.18972,0.58115 2.36656,1.18324 3.53059,1.80635c-3.1497,-1.05893 -6.32452,-2.07155 -9.52438,-3.03795c-6.44579,-1.77737 -13.01432,-2.68054 -19.70561,-2.70952c-3.83208,-0.07726 -7.6637,-0.15937 -11.49494,-0.24632c3.84751,-0.21594 7.67911,-0.47589 11.49494,-0.78001z" data-paper-data="{&quot;index&quot;:null}" fill="#97191e"/><path d="M257.12655,255.89587c-0.92718,0.09466 -1.80298,0.34098 -2.62741,0.73896c-0.13053,0.01051 -0.24,0.06527 -0.32842,0.16422c0.38726,0.11701 0.78411,0.17177 1.19055,0.16422c2.72051,-0.26275 5.4437,-0.49536 8.16962,-0.69791c3.12112,-0.06971 6.24118,-0.04237 9.36017,0.0821c4.03489,0.15198 8.00343,0.74036 11.90547,1.76529c1.15433,0.34369 2.30383,0.71317 3.44848,1.10844c3.19748,1.13307 6.15333,2.69309 8.86753,4.68008c-0.05477,0.01371 -0.10945,0.02734 -0.16422,0.04106c-1.9924,-0.9962 -3.99031,-1.9952 -5.99379,-2.9969c-1.13603,-0.52465 -2.28552,-1.0173 -3.44848,-1.47792c-4.02758,-1.35287 -8.16026,-2.20136 -12.39811,-2.54531c-6.00799,-0.48426 -12.00179,-0.34739 -17.98137,0.41054c-0.95792,0.05477 -1.91582,0.05477 -2.87374,0c-0.46544,-0.04844 -0.60228,-0.28105 -0.41054,-0.69791c0.12,-0.07866 0.22947,-0.1744 0.32842,-0.28738c0.93539,-0.43624 1.92068,-0.66884 2.95584,-0.69791c0,0.0821 0,0.16422 0,0.24632z" data-paper-data="{&quot;index&quot;:null}" fill="#e92025"/><path d="M255.03284,256.79903c-0.21433,-0.00271 -0.39222,-0.05748 -0.53369,-0.16422c0.71903,-0.16947 1.4443,-0.30634 2.17583,-0.41054c1.4509,0.11454 1.46459,0.26503 0.04106,0.45158c-0.56121,0.03908 -1.12226,0.08014 -1.68319,0.12316z" data-paper-data="{&quot;index&quot;:null}" fill="#b91f25"/></g><path d="M276.4597,263.40275c1.86538,0 3.37757,3.154 3.37757,7.04465c0,3.89065 -1.51219,7.04465 -3.37757,7.04465c-1.86538,0 -3.37757,-3.154 -3.37757,-7.04465c0,-3.89065 1.51219,-7.04465 3.37757,-7.04465z" data-paper-data="{&quot;index&quot;:null}" fill="url(#color-4)" fill-rule="nonzero" stroke="#950000" stroke-width="2" stroke-linecap="butt"/></g></g></g></svg>