<svg version="1.1" xmlns="http://www.w3.org/2000/svg" xmlns:xlink="http://www.w3.org/1999/xlink" width="69.22765" height="43.60631" viewBox="0,0,69.22765,43.60631"><g transform="translate(-90.658,-193.4985)"><g data-paper-data="{&quot;isPaintingLayer&quot;:true}" fill-rule="nonzero" stroke-linecap="butt" stroke-linejoin="miter" stroke-miterlimit="10" stroke-dasharray="" stroke-dashoffset="0" style="mix-blend-mode: normal"><g><path d="M132.60486,231.26278l-0.15785,-14.20658l19.16496,-5.22766l4.57932,5.55926l-11.03156,5.22631l12.76118,7.75265l-4.37943,4.67516z" data-paper-data="{&quot;index&quot;:null}" fill="#484848" stroke="#3c3c3c" stroke-width="2.5"/><path d="M115.30224,201.45865c0,0 8.77467,-4.65928 13.67693,-5.7795c4.88613,-1.11655 15.68841,-0.93083 15.68841,-0.93083c0,0 -9.43572,4.36291 -12.95298,7.34524c-3.2611,2.76513 -7.44025,9.94649 -7.44025,9.94649z" data-paper-data="{&quot;index&quot;:null}" fill="#484848" stroke="#3c3c3c" stroke-width="2.5"/><path d="M97.43708,209.01068c6.22773,-10.58083 34.96841,-7.3469 34.96841,-7.3469l0.86505,6.37024l2.59341,7.40114l1.01202,8.17318l1.98008,8.2252c0,0 -21.9907,9.17107 -40.19604,-0.18669c-1.78155,-0.91574 8.35632,0.02573 7.18849,-4.84022c-0.4121,-1.71708 -4.06593,-0.06572 -7.1033,0.06221c-3.58664,0.15106 -6.61873,-1.08043 -6.8372,-1.79497c-1.29706,-4.24201 1.55403,-9.30963 5.52909,-16.0632z" data-paper-data="{&quot;index&quot;:null}" fill="#484848" stroke="#3c3c3c" stroke-width="2.5"/><path d="M99.40638,213.25956c0.20358,-0.88942 1.08963,-1.44539 1.97905,-1.24181c0.88941,0.20358 1.44539,1.08963 1.24181,1.97905c-0.20358,0.88942 -1.08963,1.44539 -1.97905,1.24181c-0.88941,-0.20358 -1.44539,-1.08963 -1.24181,-1.97905z" data-paper-data="{&quot;index&quot;:null}" fill="#000000" stroke="none" stroke-width="0.5"/><path d="M121.25993,217.83111c6.46398,3.78964 10.78947,8.42176 9.66125,10.34616c-1.12822,1.9244 -7.28289,0.41231 -13.74687,-3.37733c-6.46398,-3.78964 -0.37013,-4.89363 -0.37013,-4.89363c0,0 -2.00823,-5.86484 4.45574,-2.0752z" data-paper-data="{&quot;index&quot;:null}" fill="#484848" stroke="#3c3c3c" stroke-width="2.5"/></g></g></g></svg>