<svg version="1.1" xmlns="http://www.w3.org/2000/svg" xmlns:xlink="http://www.w3.org/1999/xlink" width="113.61299" height="86.40061" viewBox="0,0,113.61299,86.40061"><g transform="translate(-183.07599,-137.07609)"><g data-paper-data="{&quot;isPaintingLayer&quot;:true}" fill-rule="nonzero" stroke="#000000" stroke-width="2.5" stroke-linejoin="miter" stroke-miterlimit="10" stroke-dasharray="" stroke-dashoffset="0" style="mix-blend-mode: normal"><g stroke-linecap="butt"><path d="M214.5926,196.3735c0,0 -1.61857,-7.87133 -1.21647,-13.47474c0.39378,-5.48738 4.74258,-16.21267 4.74258,-16.21267c0,0 22.2744,11.49635 22.18816,15.24692c-0.08624,3.75055 3.14766,10.78511 -4.37686,10.52713z" fill="#ffd08a"/><path d="M242.17462,191.58208c-0.87565,-0.45848 -6.53528,1.81459 -6.53528,1.81459c0,0 1.44634,-7.63356 2.67856,-9.92465c0.91671,-1.70449 -2.09121,-7.67182 -2.09121,-7.67182c0,0 8.25537,4.65494 10.23197,5.82553c2.79541,1.65551 4.28419,4.19048 2.95831,7.06157c-1.32588,2.8711 -4.05878,4.56167 -7.24234,2.89478z" fill="#ff8417"/></g><path d="M224.75039,185.29065c0,0 2.37138,-4.80525 4.88346,-6.93705c2.64168,-2.24177 10.59737,-6.20025 10.59737,-6.20025l0.22466,12.66204z" fill="#ffd08a" stroke-linecap="round"/><path d="M190.81584,187.98021c3.59157,-4.67064 8.07598,-14.90757 14.50546,-9.61265c1.91281,1.57527 1.98039,5.63739 4.16528,6.75375c9.56113,4.88519 17.15019,12.27278 16.91167,15.15116c-0.08606,1.03849 -13.65331,3.65245 -14.84232,4.74463c-5.40988,4.9693 -26.99491,-2.02535 -26.99491,-2.02535c0,0 2.39521,-9.99234 6.25482,-15.01153z" data-paper-data="{&quot;index&quot;:null}" fill="#3249a1" stroke-linecap="butt"/><path d="M229.95904,219.63283c-3.91141,0 -7.84627,-0.64296 -7.84627,-0.64296c0,0 -0.06747,-5.58621 0.14422,-7.41442c0.24087,-2.0802 1.03883,-2.40324 4.99272,-2.81026c7.78261,-0.80119 5.72102,4.06328 9.24845,4.78819c2.14661,0.44114 1.97912,5.77314 1.97912,5.77314c0,0 -4.60682,0.3063 -8.51824,0.3063z" fill="#b0b0b0" stroke-linecap="butt"/><path d="M238.10478,211.04938c-8.08514,3.12128 -18.63335,5.01738 -22.67729,-5.08204c-4.04394,-10.09944 0.0791,-13.09061 13.2877,-19.84654c19.5685,-10.00892 20.01898,-5.04425 24.06292,5.05519c4.04394,10.09944 7.37623,11.36113 -14.67332,19.87341z" fill="#ff8417" stroke-linecap="butt"/><path d="M249.94963,185.34525c0,0 8.92534,-4.29795 10.92256,-4.27578c2.78581,0.03093 5.5765,8.03129 4.39723,10.275c-0.99577,1.89461 -10.8316,5.23329 -10.8316,5.23329l-5.58012,-1.86461z" fill="#ffd08a" stroke-linecap="butt"/><path d="M266.39229,192.79023c-12.5799,0 -18.4501,-5.19524 -20.23135,-18.19308c-1.12372,-8.19983 7.08553,-17.06125 19.66543,-17.06125c12.5799,0 22.00941,3.46703 20.9719,17.23265c-0.27077,3.5926 -0.82559,6.48405 -1.67024,8.80725c-0.80296,2.20854 -7.72419,-4.96996 -10.19963,1.99923c-2.09915,5.90983 4.66099,5.041 3.22481,5.62763c-3.08636,1.26067 -6.99785,1.58757 -11.76093,1.58757z" fill="#ffd08a" stroke-linecap="butt"/><path d="M244.01259,169.07555c0,-6.07401 5.24294,-15.60184 19.52265,-17.58253c3.58067,-0.49667 11.08793,2.22181 20.03548,-0.74772c6.2198,-2.06425 5.84188,18.09309 5.84188,20.55214c0,4.3237 -10.46599,-0.92328 -22.66189,0.32772c-8.84631,0.90743 -12.23906,14.89556 -17.42993,12.68941c-1.61084,-0.68462 -5.30819,-9.16504 -5.30819,-15.23904z" fill="#aa6129" stroke-linecap="butt"/><path d="M280.0206,174.01247l0.54527,7.25609" fill="none" stroke-linecap="round"/><path d="M273.64797,184.20539l-0.86018,-7.00428" fill="none" stroke-linecap="round"/><g stroke-linecap="butt"><path d="M288.34871,151.87506c1.67828,4.92048 1.41298,9.32527 1.41298,9.32527c0,0 -5.66238,-0.5934 -14.88913,0.01181c-10.56093,0.69272 -30.26694,7.96364 -30.26694,7.96364c0,0 -3.39217,-8.92828 -3.53886,-11.16491c-0.72708,-11.08498 10.40429,-18.81696 23.63477,-19.68478c13.23048,-0.86782 20.06102,3.03495 23.64718,13.54899z" fill="#ffdb29"/><path d="M276.65804,160.33438c0.65268,2.02097 -3.84229,2.09022 -5.90498,2.22551c-2.06269,0.13531 -5.0313,1.56162 -5.42153,-0.52596c-0.79155,-4.23442 1.3991,-6.9815 4.86862,-7.90368c4.51642,-1.20046 5.29731,2.61047 6.45789,6.2041z" fill="#ffffff"/><path d="M246.02025,168.34284c0,0 10.51017,-5.03213 18.11254,-5.98378c8.70169,-1.08924 26.56414,-2.35973 26.56414,-2.35973c0,0 4.8474,3.75874 4.7403,5.91852c-0.09109,1.83706 0.49814,4.21254 -6.03221,5.72118c-1.14716,0.26501 -2.51405,0.50328 -4.14289,0.70717c-10.90126,1.36456 -26.53879,2.27117 -30.25334,0.60089c-3.73948,-1.6815 -8.98854,-4.60424 -8.98854,-4.60424z" data-paper-data="{&quot;index&quot;:null}" fill="#ffdb29"/></g><path d="M225.41974,213.51079c-2.17993,-0.34234 -6.72955,-0.01147 -9.71385,-7.24038c-3.26684,-7.91329 -1.86784,-8.36642 1.25752,-12.89203c0.59147,-0.85647 5.92179,-3.93519 5.92179,-3.93519c0,0 1.39808,8.56141 3.06016,12.4452c1.80473,4.21711 4.82068,10.80957 4.82068,10.80957c0,0 -4.49787,0.94606 -5.3463,0.81283z" fill="#3249a1" stroke-linecap="butt"/><path d="M210.8157,215.61739c-2.5934,-2.92804 -4.72103,-6.29993 -4.72103,-6.29993c0,0 4.13704,-3.75436 5.64597,-4.80806c1.71692,-1.19893 2.48782,-0.81577 5.41407,1.87419c5.7599,5.29476 0.75151,6.97679 2.54766,10.09802c1.09304,1.89942 -3.0095,5.30934 -3.0095,5.30934c0,0 -3.28377,-3.24553 -5.87718,-6.17357z" fill="#b0b0b0" stroke-linecap="butt"/><g stroke-linecap="butt"><path d="M214.45689,208.56473c0,0 -4.12986,-6.89361 -5.60289,-12.31487c-1.44253,-5.309 -0.8841,-16.86894 -0.8841,-16.86894c0,0 24.82265,3.48586 25.98121,7.05404c1.15856,3.56817 6.53628,9.13802 -0.65042,11.38219z" fill="#ffd08a"/><path d="M238.90388,194.92397c-0.97799,-0.14321 -5.56788,3.87316 -5.56788,3.87316c0,0 -1.15868,-7.68248 -0.7532,-10.25212c0.30165,-1.91171 -4.50997,-6.54907 -4.50997,-6.54907c0,0 9.33012,1.66393 11.58258,2.11521c3.18554,0.63823 5.42868,2.53847 5.12655,5.68646c-0.30213,3.148 -2.32244,5.64701 -5.87807,5.12636z" fill="#ff8417"/></g></g></g></svg>