<svg version="1.1" xmlns="http://www.w3.org/2000/svg" xmlns:xlink="http://www.w3.org/1999/xlink" width="106.67967" height="103.46815" viewBox="0,0,106.67967,103.46815"><g transform="translate(-186.04161,-131.04712)"><g data-paper-data="{&quot;isPaintingLayer&quot;:true}" fill-rule="nonzero" stroke-linejoin="miter" stroke-miterlimit="10" stroke-dasharray="" stroke-dashoffset="0" style="mix-blend-mode: normal"><path d="M208.00389,154.58953c0,0 16.69347,-0.76735 16.38433,-1.85484c-2.91777,-10.26412 -15.61149,-19.32115 -15.61149,-19.32115z" fill="#ffffff" stroke="#d0d0d0" stroke-width="2.5" stroke-linecap="butt"/><path d="M291.47128,189.98589c0,23.21962 -24.262,42.04283 -36.94204,43.27938c-24.46306,2.38563 -56.6985,-3.10686 -65.37598,-16.40174c-1.88888,-2.89398 15.30241,-9.69154 13.79313,-12.89606c-1.93614,-4.11083 -15.65478,-11.19582 -15.65478,-15.52728c0,-0.84716 12.17926,-7.12902 11.97267,-11.05959c-0.3433,-12.71433 -12.27845,-13.14154 -8.53653,-17.0164c11.87236,-12.29414 40.32527,-13.14 63.80148,-11.18459c11.13436,0.92741 36.94204,17.58666 36.94204,40.80628z" fill="#ffffff" stroke="#d0d0d0" stroke-width="2.5" stroke-linecap="butt"/><path d="M212.33183,189.98588c0,5.46344 7.05871,9.89243 15.76606,9.89243c8.70736,0 15.76606,-4.42899 15.76606,-9.89243c0,-5.46344 -7.05871,-9.89243 -15.76606,-9.89243c-8.70736,0 -15.76606,4.42899 -15.76606,9.89243z" fill="#ffffff" stroke="#d0d0d0" stroke-width="2.5" stroke-linecap="butt"/><path d="M275.70521,179.62974c0,-1.96342 1.59167,-3.55509 3.55509,-3.55509c1.96342,0 3.55509,1.59167 3.55509,3.55509c0,1.96342 -1.59167,3.55509 -3.55509,3.55509c-1.96342,0 -3.55509,-1.59167 -3.55509,-3.55509z" fill="#000000" stroke="none" stroke-width="0" stroke-linecap="butt"/><path d="M262.46604,179.68353c0,-1.96343 1.59167,-3.5551 3.55509,-3.5551c1.96342,0 3.55509,1.59167 3.55509,3.5551c0,1.96343 -1.59167,3.55509 -3.55509,3.55509c-1.96342,0 -3.55509,-1.59166 -3.55509,-3.55509z" fill="#000000" stroke="none" stroke-width="0" stroke-linecap="butt"/><path d="M262.7214,191.22244c0,0 9.63394,14.27101 27.20419,8.96502" fill="none" stroke="#d0d0d0" stroke-width="2.5" stroke-linecap="round"/></g></g></svg>