<svg version="1.1" xmlns="http://www.w3.org/2000/svg" xmlns:xlink="http://www.w3.org/1999/xlink" width="75.30241" height="58.75688" viewBox="0,0,75.30241,58.75688"><g transform="translate(-207.94013,-145.89221)"><g data-paper-data="{&quot;isPaintingLayer&quot;:true}" fill-rule="nonzero" stroke-linejoin="miter" stroke-miterlimit="10" stroke-dasharray="" stroke-dashoffset="0" style="mix-blend-mode: normal"><path d="M214.77448,174.43882c0,-1.02439 0.83044,-1.85483 1.85483,-1.85483c1.02439,0 1.85483,0.83044 1.85483,1.85483c0,1.02439 -0.83044,1.85483 -1.85483,1.85483c-1.02439,0 -1.85483,-0.83044 -1.85483,-1.85483z" fill="#000000" stroke="none" stroke-width="0" stroke-linecap="butt"/><path d="M208.94013,180c0,2.47067 0.4976,4.85285 1.42064,7.09162c0.54923,1.3321 6.88411,-3.80797 8.224,2.65172c0.95363,4.5975 -5.44068,3.50914 -3.79398,4.93318c5.6919,4.92229 15.91876,8.97258 25.20921,8.97258c17.15389,0 31.05987,-10.58806 31.05987,-23.64909c0,-13.06103 -13.90598,-23.64909 -31.05987,-23.64909c-17.15389,0 -31.05987,10.58806 -31.05987,23.64909z" fill="none" stroke="#d0eae9" stroke-width="2" stroke-linecap="butt"/><path d="M233.44659,156.22185l6.84803,-8.501l12.98764,-0.70842l-7.55644,9.44555z" fill="none" stroke="#d0eae9" stroke-width="2" stroke-linecap="round"/><path d="M271.09229,179.75099c0,11.11692 10.8767,20.12897 10.8767,20.12897c0,0 -1.44351,-14.13682 -1.44351,-21.01111c0,-6.52701 1.44351,-19.24682 1.44351,-19.24682c0,0 -10.8767,9.01204 -10.8767,20.12897z" fill="none" stroke="#d0eae9" stroke-width="2" stroke-linecap="butt"/><path d="M233.18342,180c0,2.7903 3.05189,5.05229 6.81658,5.05229c3.76469,0 6.81658,-2.26199 6.81658,-5.05229c0,-2.7903 -3.05189,-5.05229 -6.81658,-5.05229c-3.76469,0 -6.81658,2.26199 -6.81658,5.05229z" fill="none" stroke="#d0eae9" stroke-width="2" stroke-linecap="butt"/></g></g></svg>