<svg version="1.1" xmlns="http://www.w3.org/2000/svg" xmlns:xlink="http://www.w3.org/1999/xlink" width="58.01376" height="47.81156" viewBox="0,0,58.01376,47.81156"><defs><radialGradient cx="211.01674" cy="69.00369" r="12.66667" gradientUnits="userSpaceOnUse" id="color-1"><stop offset="0" stop-color="#ffea00"/><stop offset="1" stop-color="#cecb00"/></radialGradient><radialGradient cx="193.66667" cy="65.70061" r="21" gradientUnits="userSpaceOnUse" id="color-2"><stop offset="0" stop-color="#ffea00"/><stop offset="1" stop-color="#cecb00"/></radialGradient><radialGradient cx="207.91667" cy="42.83326" r="10.66667" gradientUnits="userSpaceOnUse" id="color-3"><stop offset="0" stop-color="#ffea00"/><stop offset="1" stop-color="#cecb00"/></radialGradient><radialGradient cx="202.58334" cy="73.58326" r="7.16667" gradientUnits="userSpaceOnUse" id="color-4"><stop offset="0" stop-color="#ffea00"/><stop offset="1" stop-color="#cecb00"/></radialGradient></defs><g transform="translate(-171.91667,-40.13905)"><g data-paper-data="{&quot;isPaintingLayer&quot;:true}" fill-rule="nonzero" stroke-linecap="butt" stroke-linejoin="miter" stroke-miterlimit="10" stroke-dasharray="" stroke-dashoffset="0" style="mix-blend-mode: normal"><g><path d="M212.91424,75.74161c-6.73369,1.89629 -13.04195,0.41689 -14.08991,-3.30436c-1.04796,-3.72125 3.56123,-8.27518 10.29492,-10.17148c4.57178,-1.28749 14.50289,-9.00155 17.16931,-7.53175c1.2609,0.69505 -6.41585,10.9747 -6.07939,12.16944c0.37233,1.32215 9.30543,7.09991 8.40794,8.47574c-1.62854,2.49651 -11.36165,-0.86015 -15.70288,0.3624z" fill="url(#color-1)" stroke="#857400" stroke-width="2.5"/><path d="M214.16667,70.03395c0,9.20475 -9.17816,16.66667 -20.5,16.66667c-4.22034,0 -8.14282,-1.03684 -11.40307,-2.8143c-1.55564,-0.84812 8.03949,-5.53152 6.82497,-6.6847c-0.81015,-0.76923 -12.5356,2.06749 -13.1646,1.18639c-1.75338,-2.45612 -2.7573,-5.30978 -2.7573,-8.35406c0,-9.20475 20.5,-25.33333 20.5,-25.33333c0,0 20.5,16.12858 20.5,25.33333z" fill="url(#color-2)" stroke="#857400" stroke-width="2.5"/><path d="M205.48378,53.58844l-10.15969,-9.8794c0,0 5.42765,-2.867 9.24824,-2.22675c4.51388,0.75643 12.93693,8.97518 12.93693,8.97518z" fill="url(#color-3)" stroke="#857400" stroke-width="2.5"/><path d="M195.49635,72.51753c0,0 3.66863,-2.81914 7.58267,-2.23056c3.91404,0.58858 6.86506,2.54151 6.5913,4.36199c-0.27375,1.82048 -3.66863,2.81914 -7.58267,2.23056c-3.91404,-0.58858 -6.59131,-4.36198 -6.59131,-4.36198z" fill="url(#color-4)" stroke="#857400" stroke-width="2.5"/><path d="M178.5,66.91657c0,-0.69035 0.55964,-1.25 1.25,-1.25c0.69036,0 1.25,0.55965 1.25,1.25c0,0.69035 -0.55964,1.25 -1.25,1.25c-0.69036,0 -1.25,-0.55965 -1.25,-1.25z" fill="#000000" stroke="none" stroke-width="0.5"/><path d="M186.33334,67.41657c0,-0.69035 0.55964,-1.25 1.25,-1.25c0.69036,0 1.25,0.55965 1.25,1.25c0,0.69035 -0.55964,1.25 -1.25,1.25c-0.69036,0 -1.25,-0.55965 -1.25,-1.25z" fill="#000000" stroke="none" stroke-width="0.5"/></g></g></g></svg>