<svg version="1.1" xmlns="http://www.w3.org/2000/svg" xmlns:xlink="http://www.w3.org/1999/xlink" width="77.9954" height="76.64668" viewBox="0,0,77.9954,76.64668"><g transform="translate(-200.94093,-141.67666)"><g data-paper-data="{&quot;isPaintingLayer&quot;:true}" fill-rule="nonzero" stroke-linecap="butt" stroke-linejoin="miter" stroke-miterlimit="10" stroke-dasharray="" stroke-dashoffset="0" style="mix-blend-mode: normal"><path d="M276.54213,191.89336c3.89576,3.5281 -2.96067,9.49332 -8.51096,15.62201c-5.5503,6.12869 -10.06229,12.02503 -13.95805,8.49693c-3.89576,-3.5281 -13.54921,-21.00041 -7.99892,-27.12911c5.5503,-6.12869 26.57218,-0.51794 30.46793,3.01015z" fill="#fac237" stroke="#000000" stroke-width="2.5"/><path d="M252.53085,149.30481c0,3.52256 -4.36738,6.37815 -9.75482,6.37815c-5.38744,0 -9.75482,-2.8556 -9.75482,-6.37815c0,-3.52256 4.36738,-6.37815 9.75482,-6.37815c5.38744,0 9.75482,2.8556 9.75482,6.37815z" fill="#fac237" stroke="#000000" stroke-width="2.5"/><path d="M263.59375,194.1706c0,0 -4.06483,3.70472 -7.08061,5.13452c-3.94588,1.87076 -14.5635,5.12704 -14.5635,5.12704c0,0 -12.48894,-0.18925 -23.02947,-4.16962c-7.66136,-2.89312 -13.76245,-8.10767 -15.87488,-15.15744c-0.25809,-0.8613 0.2021,-2.58176 0.2021,-2.58176c0,0 4.52865,6.15679 10.78745,3.44843c4.56403,-1.97498 6.66286,-7.2759 4.68788,-11.83994c-1.97498,-4.56403 -7.2759,-6.66286 -11.83994,-4.68788c-2.15207,0.93127 -4.56911,3.24604 -4.56911,3.24604l0.24075,-6.02239c0,0 -0.86511,-8.37614 5.73237,-14.54939c6.58437,-6.16099 22.31165,-5.13975 22.31165,-5.13975c0,0 10.88725,4.055 15.24074,6.46654c3.30652,1.83159 8.61421,6.74749 8.61421,6.74749c0,0 5.52189,9.88802 6.81125,14.68107c1.66186,6.17777 2.3291,19.29704 2.3291,19.29704z" fill="#fab937" stroke="#000000" stroke-width="2.5"/><path d="M205.6058,160.96293c0,-2.307 1.2596,-4.17719 2.8134,-4.17719c1.5538,0 2.81339,1.87019 2.81339,4.17719c0,2.307 -1.25959,4.17719 -2.81339,4.17719c-1.5538,0 -2.8134,-1.87019 -2.8134,-4.17719z" fill="#000000" stroke="none" stroke-width="0.5"/><path d="M216.5863,165.19448c0,-2.307 1.25959,-4.17718 2.81339,-4.17718c1.5538,0 2.8134,1.87019 2.8134,4.17718c0,2.307 -1.25961,4.17719 -2.8134,4.17719c-1.5538,0 -2.81339,-1.87019 -2.81339,-4.17719z" fill="#000000" stroke="none" stroke-width="0.5"/><path d="M247.3255,173.77623c5.05533,4.16143 6.61269,10.62151 3.47846,14.429c-3.13423,3.8075 -9.7732,3.52059 -14.82853,-0.64084c-5.05533,-4.16143 -6.61269,-10.62151 -3.47846,-14.429c3.13423,-3.8075 9.7732,-3.52059 14.82853,0.64084z" fill="#fac237" stroke="#000000" stroke-width="2.5"/></g></g></svg>