<svg version="1.1" xmlns="http://www.w3.org/2000/svg" xmlns:xlink="http://www.w3.org/1999/xlink" width="81.63186" height="77.79222" viewBox="0,0,81.63186,77.79222"><defs><linearGradient x1="220.05229" y1="198.57025" x2="191.55038" y2="202.94965" gradientUnits="userSpaceOnUse" id="color-1"><stop offset="0" stop-color="#57de69"/><stop offset="1" stop-color="#27d636"/></linearGradient><linearGradient x1="281.26097" y1="187.29137" x2="220.0162" y2="187.29137" gradientUnits="userSpaceOnUse" id="color-2"><stop offset="0" stop-color="#57de69"/><stop offset="1" stop-color="#27d636"/></linearGradient><linearGradient x1="250.4978" y1="187.30061" x2="226.81485" y2="180.722" gradientUnits="userSpaceOnUse" id="color-3"><stop offset="0" stop-color="#57de69"/><stop offset="1" stop-color="#27d636"/></linearGradient></defs><g transform="translate(-199.18407,-140.93869)"><g data-paper-data="{&quot;isPaintingLayer&quot;:true}" fill-rule="nonzero" stroke-width="3" stroke-linecap="butt" stroke-linejoin="miter" stroke-miterlimit="10" stroke-dasharray="" stroke-dashoffset="0" style="mix-blend-mode: normal"><path d="M246.02451,168.86986c0,0 0.21664,-8.80026 -0.91112,-12.87612c-1.10644,-3.99879 -5.79272,-11.35225 -5.79272,-11.35225l6.90722,-1.98695c0,0 5.51322,6.78924 7.33861,10.81884c1.77931,3.92788 3.47901,13.06136 3.47901,13.06136z" data-paper-data="{&quot;index&quot;:null}" fill="#5a2300" stroke="#3d2300"/><path d="M227.64434,197.40372c1.39771,9.09666 -11.44162,18.61786 -19.3122,19.82719c-7.87058,1.20933 2.93409,-7.34445 1.18389,-16.82677c-1.6705,-9.05054 -14.11607,-14.90581 -6.24549,-16.11514c7.87058,-1.20932 22.97608,4.01806 24.37381,13.11472z" data-paper-data="{&quot;index&quot;:null}" fill="url(#color-1)" stroke="#24ba00"/><path d="M220.01619,187.29135c0,-8.61128 5.70575,-22.1483 17.04026,-25.54878c8.02866,-2.40867 9.69673,5.30622 13.58213,5.30622c5.76779,0 5.53029,-9.69951 18.3296,-6.84269c9.34844,2.08658 10.34775,22.48737 10.34775,29.85432c0,0.74621 -2.76988,-0.82913 -5.357,-0.7716c-3.77896,0.08403 -9.71155,0.13553 -9.0468,7.65046c-0.03311,2.5653 3.71799,1.13246 7.16206,0.76271c2.97475,-0.31937 5.72046,0.46691 5.60084,1.57271c-0.26355,2.43626 -6.46218,10.75545 -13.06532,11.41233c-9.27692,0.92287 -10.36319,-3.1531 -13.97113,-3.1531c-5.93427,0 -4.81728,8.61362 -19.75062,6.68206c-9.30875,-1.20407 -10.87176,-19.66774 -10.87176,-26.92462z" data-paper-data="{&quot;index&quot;:null}" fill="url(#color-2)" stroke="#24ba00"/><path d="M270.69539,183.78949c-1.47079,0 -2.66311,-1.19233 -2.66311,-2.66313c0,-1.4708 1.19231,-2.66311 2.66311,-2.66311c1.4708,0 2.66311,1.19231 2.66311,2.66311c0,1.4708 -1.19232,2.66313 -2.66311,2.66313z" data-paper-data="{&quot;index&quot;:null}" fill="#000000" stroke="none"/><path d="M226.81487,180.722c0.75693,-2.72493 6.67215,-3.46126 13.21202,-1.64464c6.53987,1.81662 11.22786,5.49831 10.47093,8.22326c-0.75693,2.72493 -6.67216,3.46126 -13.21202,1.64464c-6.53987,-1.81662 -11.22787,-5.49831 -10.47094,-8.22325z" data-paper-data="{&quot;index&quot;:null}" fill="url(#color-3)" stroke="#24ba00"/><path d="M231.26074,155.55817c-5.22799,0.20552 -9.53365,-1.34603 -9.61697,-3.46549c-0.08331,-2.11944 4.08726,-4.00421 9.31525,-4.20973c5.22799,-0.20552 9.61696,3.46549 9.61696,3.46549c0,0 -4.08726,4.00422 -9.31525,4.20973z" data-paper-data="{&quot;index&quot;:null}" fill="#0e8400" stroke="#005604"/></g></g></svg>