<svg version="1.1" xmlns="http://www.w3.org/2000/svg" xmlns:xlink="http://www.w3.org/1999/xlink" width="71.45783" height="56.49266" viewBox="0,0,71.45783,56.49266"><g transform="translate(-206.10856,-154.91342)"><g data-paper-data="{&quot;isPaintingLayer&quot;:true}" fill-rule="nonzero" stroke-linejoin="miter" stroke-miterlimit="10" stroke-dasharray="" stroke-dashoffset="0" style="mix-blend-mode: normal"><path d="M237.85943,179.73689l-6.32506,-6.9727l7.60346,-15.62373l14.57097,16.40287z" fill="#d2b097" stroke="#4f473c" stroke-width="2.5" stroke-linecap="butt"/><path d="M207.35856,189.582v-15.125l16.875,-8.26273l18.625,8.26273v15.125l-17.375,6.86227z" fill="#d2b097" stroke="#4f473c" stroke-width="2.5" stroke-linecap="butt"/><path d="M241.48356,175.19426l-17,6.25l-17,-6.5" fill="none" stroke="#4f473c" stroke-width="2.5" stroke-linecap="round"/><path d="M224.73356,195.94426v-14" fill="none" stroke="#4f473c" stroke-width="2.5" stroke-linecap="round"/><path d="M222.98356,174.44426l4.75,-12.75l2.5,9z" fill="#d2b097" stroke="#4f473c" stroke-width="2.5" stroke-linecap="butt"/><path d="M232.23356,189.19426v-5.5l14.5,-5.5l-0.25,6z" fill="#d2b097" stroke="#4f473c" stroke-width="2.5" stroke-linecap="butt"/><path d="M209.73356,180.94426c0,-0.69035 0.55964,-1.25 1.25,-1.25c0.69036,0 1.25,0.55965 1.25,1.25c0,0.69035 -0.55964,1.25 -1.25,1.25c-0.69036,0 -1.25,-0.55965 -1.25,-1.25z" fill="#000000" stroke="none" stroke-width="0.5" stroke-linecap="butt"/><path d="M218.73356,183.69426c0,-0.69035 0.55964,-1.25 1.25,-1.25c0.69036,0 1.25,0.55965 1.25,1.25c0,0.69035 -0.55964,1.25 -1.25,1.25c-0.69036,0 -1.25,-0.55965 -1.25,-1.25z" fill="#000000" stroke="none" stroke-width="0.5" stroke-linecap="butt"/><path d="M273.06459,198.53862c0,4.95422 6.99084,8.65565 0.47213,8.65565c-6.51871,0 -11.80316,-4.01618 -11.80316,-8.9704c0,-4.95421 5.28446,-8.9704 11.80316,-8.9704c6.51871,0 -0.47213,4.33094 -0.47213,9.28515z" fill="#d2b097" stroke="#4f473c" stroke-width="2.5" stroke-linecap="butt"/><path d="M244.73356,201.28288c0,1.34473 5.00275,7.06347 3.14777,7.44122c-2.75697,0.56142 -9.77909,-5.08724 -14.69053,-4.70446c-1.16323,0.09065 -1.72433,3.67397 -2.95724,3.67397c-2.52015,0 -5.52344,0.08579 -6.64207,-0.65147c-1.25074,-0.82432 -0.54738,-2.51676 -2.28744,-3.26478c-2.84258,-1.22197 -9.07049,-1.22718 -9.07049,-2.99447c0,-2.0335 3.89481,-2.71095 7.53598,-4.40182c2.16889,-1.00718 2.14787,-2.8667 4.60412,-3.7497c1.1597,-0.4169 4.3703,-0.36634 5.8599,-0.36634c2.55188,0 3.37259,3.20264 5.57193,3.72772c3.71961,0.88804 8.65532,-3.59497 11.0184,-2.75327c0.74858,0.26663 -2.09033,7.38833 -2.09033,8.04341z" fill="#d2b097" stroke="#4f473c" stroke-width="2.5" stroke-linecap="butt"/><path d="M235.48356,194.69426c0,-8.1462 6.6038,-14.75 14.75,-14.75c8.1462,0 14.75,6.6038 14.75,14.75c0,8.1462 -6.6038,14.75 -14.75,14.75c-2.33156,0 -7.23639,-2.90506 -7.23639,-2.90506c0,0 2.46557,-0.03911 4.03271,-1.29008c0.91668,-0.73174 1.19702,-2.20704 1.36792,-3.46049c0.08514,-0.62443 -2.63254,0.64636 -5.41378,0.74378c-2.86779,0.10045 -5.80317,-0.96235 -5.80317,-0.96235c0,0 -1.69728,-4.39279 -1.69728,-6.87581z" fill="#d2b097" stroke="#4f473c" stroke-width="2.5" stroke-linecap="butt"/><path d="M261.16136,185.11336c-0.44977,0.17147 -0.8974,0.32728 -1.34068,0.46751c-3.16573,-1.31679 -6.26216,-2.61222 -9.72003,-3.273c1.11441,-1.97478 4.05605,-4.1559 7.85459,-5.60408c5.41856,-2.0658 10.52887,-1.85793 11.41422,0.46431c0.88534,2.32224 -2.78954,5.87945 -8.2081,7.94526z" fill="#d2b097" stroke="#4f473c" stroke-width="2.5" stroke-linecap="butt"/><path d="M266.23215,205.70937c-0.58176,1.55136 -4.35463,1.57101 -8.42696,0.04389c-4.07232,-1.52712 -6.90198,-4.02273 -6.32022,-5.57409c0.58176,-1.55136 4.35463,-1.57101 8.42696,-0.04389c4.07232,1.52712 6.90198,4.02272 6.32022,5.57408z" fill="#d2b097" stroke="#4f473c" stroke-width="2.5" stroke-linecap="butt"/><path d="M239.98356,193.69426c0,-0.69035 0.55964,-1.25 1.25,-1.25c0.69036,0 1.25,0.55965 1.25,1.25c0,0.69035 -0.55964,1.25 -1.25,1.25c-0.69036,0 -1.25,-0.55965 -1.25,-1.25z" fill="#000000" stroke="none" stroke-width="0.5" stroke-linecap="butt"/><path d="M219.48356,200.44426c0,-0.69035 0.55964,-1.25 1.25,-1.25c0.69036,0 1.25,0.55965 1.25,1.25c0,0.69035 -0.55964,1.25 -1.25,1.25c-0.69036,0 -1.25,-0.55965 -1.25,-1.25z" fill="#000000" stroke="none" stroke-width="0.5" stroke-linecap="butt"/><path d="M222.88811,206.91243c0.22795,1.22155 -2.06294,2.67379 -5.11682,3.24365c-3.05389,0.56986 -5.71434,0.04156 -5.94228,-1.17999c-0.22795,-1.22155 2.06294,-2.67379 5.11682,-3.24365c3.05389,-0.56986 5.71434,-0.04156 5.94228,1.17999z" fill="#d2b097" stroke="#4f473c" stroke-width="2.5" stroke-linecap="butt"/><path d="M235.48356,196.69426c0,0 0.5648,2.45837 0.32941,3.51765c-0.2618,1.17806 -1.82941,3.23235 -1.82941,3.23235" fill="none" stroke="#4f473c" stroke-width="2.5" stroke-linecap="round"/><path d="M239.71358,207.27866c-0.58602,1.25018 -3.29072,1.2185 -6.04111,-0.07074c-2.75039,-1.28924 -4.50496,-3.34786 -3.91894,-4.59804c0.58602,-1.25018 3.29072,-1.2185 6.04111,0.07074c2.75039,1.28924 4.50496,3.34786 3.91894,4.59804z" fill="#d2b097" stroke="#4f473c" stroke-width="2.5" stroke-linecap="butt"/><path d="M223.48356,192.94426l7,-8l2,8z" fill="#d2b097" stroke="#4f473c" stroke-width="2.5" stroke-linecap="butt"/><path d="M218.57898,188.07407c-0.45958,1.00442 -2.80558,1.90688 -4.70681,1.03696c-1.90123,-0.86993 -2.85381,-2.7861 -2.39423,-3.79051c0.45958,-1.00442 2.15729,-0.71673 4.05852,0.15318c1.90123,0.86993 3.5021,1.59594 3.04252,2.60037z" fill="#000000" stroke="#000000" stroke-width="1.5" stroke-linecap="butt"/></g></g></svg>