<svg version="1.1" xmlns="http://www.w3.org/2000/svg" xmlns:xlink="http://www.w3.org/1999/xlink" width="63.01949" height="60.80471" viewBox="0,0,63.01949,60.80471"><defs><linearGradient x1="251.49994" y1="192.02426" x2="264.86334" y2="203.16584" gradientUnits="userSpaceOnUse" id="color-1"><stop offset="0" stop-color="#355ab1"/><stop offset="1" stop-color="#6e8fe0"/></linearGradient><linearGradient x1="243.37311" y1="150.64849" x2="243.37311" y2="162.04544" gradientUnits="userSpaceOnUse" id="color-2"><stop offset="0" stop-color="#355ab1"/><stop offset="1" stop-color="#6e8fe0"/></linearGradient><linearGradient x1="234.09749" y1="151.04682" x2="234.09749" y2="196.39298" gradientUnits="userSpaceOnUse" id="color-3"><stop offset="0" stop-color="#355ab1"/><stop offset="1" stop-color="#6e8fe0"/></linearGradient><linearGradient x1="240.49811" y1="167.37597" x2="240.49811" y2="179.56795" gradientUnits="userSpaceOnUse" id="color-4"><stop offset="0" stop-color="#355ab1"/><stop offset="1" stop-color="#6e8fe0"/></linearGradient></defs><g transform="translate(-208.80561,-149.7968)"><g data-paper-data="{&quot;isPaintingLayer&quot;:true}" fill-rule="nonzero" stroke-linecap="butt" stroke-linejoin="miter" stroke-miterlimit="10" stroke-dasharray="" stroke-dashoffset="0" style="mix-blend-mode: normal"><path d="M249.97798,208.56383c-2.78151,-3.39679 -2.12378,-12.33597 3.16728,-17.11923c5.29108,-4.78325 14.08892,-1.87799 16.87043,1.5188c2.78151,3.39679 -5.44257,1.03153 -10.73364,5.81479c-5.29108,4.78325 -6.52256,13.18243 -9.30407,9.78564z" data-paper-data="{&quot;index&quot;:null}" fill="url(#color-1)" stroke="#213f7d" stroke-width="2.5"/><path d="M253.7702,154.1581c0.61155,2.90485 -3.54763,6.23969 -9.28978,7.44857c-5.74215,1.20888 -10.89284,-0.16599 -11.50439,-3.07085c-0.61155,-2.90485 3.54763,-6.23969 9.28978,-7.44857c5.74215,-1.20888 10.89284,0.16599 11.50439,3.07085z" fill="url(#color-2)" stroke="#213f7d" stroke-width="2.5"/><path d="M255.4676,194.69144c-5.71142,5.71142 -15.99373,-4.29756 -30.93592,-10.25305c-2.83131,-1.12848 -9.25639,-8.16419 -9.25639,-8.16419c0,0 3.28542,-0.06159 5.98232,-1.2174c1.99496,-0.85498 3.66789,-2.36531 3.45074,-4.59778c-0.28366,-2.91614 -4.07279,-0.9283 -7.78634,-0.97626c-6.10278,-0.0788 -6.66582,-2.36627 -6.8664,-2.94357c-2.04858,-5.89599 1.3003,-10.114 4.22303,-13.03673c5.71142,-5.71142 19.5619,-1.12097 30.93592,10.25305c11.37402,11.37402 15.96447,25.2245 10.25305,30.93592z" fill="url(#color-3)" stroke="#213f7d" stroke-width="2.5"/><path d="M248.14699,177.72133c-1.34106,2.41392 -5.85273,2.46828 -10.07709,0.12141c-4.22436,-2.34687 -6.56172,-6.20624 -5.22066,-8.62016c1.34106,-2.41392 5.85273,-2.46828 10.07709,-0.12141c4.22436,2.34687 6.56172,6.20624 5.22066,8.62016z" fill="url(#color-4)" stroke="#213f7d" stroke-width="2.5"/><path d="M214.24811,162.47197c0,-0.69036 0.55964,-1.25 1.25,-1.25c0.69036,0 1.25,0.55964 1.25,1.25c0,0.69036 -0.55964,1.25 -1.25,1.25c-0.69036,0 -1.25,-0.55964 -1.25,-1.25z" fill="#000000" stroke="none" stroke-width="0.5"/><path d="M219.49811,162.97197c0,-0.69036 0.55964,-1.25 1.25,-1.25c0.69036,0 1.25,0.55964 1.25,1.25c0,0.69036 -0.55964,1.25 -1.25,1.25c-0.69036,0 -1.25,-0.55964 -1.25,-1.25z" fill="#000000" stroke="none" stroke-width="0.5"/></g></g></svg>