<svg version="1.1" xmlns="http://www.w3.org/2000/svg" xmlns:xlink="http://www.w3.org/1999/xlink" width="106.44207" height="110.36509" viewBox="0,0,106.44207,110.36509"><g transform="translate(-186.65397,-124.31745)"><g data-paper-data="{&quot;isPaintingLayer&quot;:true}" fill-rule="nonzero" stroke-linejoin="miter" stroke-miterlimit="10" stroke-dasharray="" stroke-dashoffset="0" style="mix-blend-mode: normal"><path d="M213.84141,204.09476c-5.01241,-5.34382 -3.53754,-10.04567 0.32438,-13.66809c3.86192,-3.62241 8.46424,-6.22922 13.47667,-0.88538c5.01241,5.34382 8.53684,16.61466 4.67491,20.23708c-3.86192,3.62241 -13.46354,-0.33977 -18.47596,-5.68361z" fill="#faff00" stroke="#000000" stroke-width="2" stroke-linecap="butt"/><g data-paper-data="{&quot;index&quot;:null}"><path d="M203.23239,225.95156l-3.59397,-6.06908l15.25008,-8.74624" fill="none" stroke="#000000" stroke-width="2" stroke-linecap="round"/><path d="M201.91865,223.85594c0.26872,-1.16758 -0.4305,-1.86141 -0.81632,-3.56512c-0.15418,-0.6809 -0.63486,-1.6684 -0.33846,-2.03911c0.35424,-0.44304 1.10531,0.25918 1.65798,0.38878c1.76687,1.97134 5.23924,4.36146 5.72671,7.9419c0.28817,2.1165 -0.82302,3.69896 -2.23687,3.45119c-1.31457,-0.23038 -2.64343,-1.68535 -3.76831,-3.28676c-0.14214,-0.03283 -0.30998,-0.14486 -0.49726,-0.40171c-0.22981,-0.31518 -0.31181,-0.60559 -0.3258,-0.84353c-0.19501,-0.31133 -0.38025,-0.61775 -0.5541,-0.91139c0,0 -0.53404,-0.90195 -0.05444,-1.43081c0.47959,-0.52885 1.01363,0.3731 1.01363,0.3731c0.06451,0.10895 0.12889,0.21679 0.19326,0.32348z" fill="#000000" stroke="none" stroke-width="0.5" stroke-linecap="butt"/></g><g><path d="M215.76894,232.38598l-5.99643,-2.66631l6.88418,-14.06085" fill="none" stroke="#000000" stroke-width="2" stroke-linecap="round"/><path d="M211.86689,230.71193c-0.21411,-1.18678 -1.17473,-1.51014 -2.24198,-2.89601c-0.42653,-0.55387 0.18777,-0.63846 0.32461,-1.10913c0.16353,-0.56249 -0.30441,-0.85888 0.28453,-0.98613c2.51609,1.0165 6.85733,1.65757 8.78647,4.71375c1.14037,1.80659 0.70576,3.74718 -0.76684,4.14926c-1.36919,0.37385 -3.25032,-0.36536 -4.99305,-1.3291c-0.15126,0.0332 -0.35968,0.00541 -0.64587,-0.14613c-0.35117,-0.18596 -0.54885,-0.41495 -0.65919,-0.62623c-0.31584,-0.19789 -0.62018,-0.39563 -0.90831,-0.58677c0,0 -0.88499,-0.58705 -0.63472,-1.28371c0.25026,-0.69665 1.13525,-0.1096 1.13525,-0.1096c0.10689,0.07091 0.21323,0.14088 0.31907,0.20977z" fill="#000000" stroke="none" stroke-width="0.5" stroke-linecap="butt"/></g><path d="M192.25281,211.8062c-6.30247,-3.77334 -5.38482,-10.69826 -1.68454,-17.70296c3.70026,-7.00468 8.36529,-13.16224 14.66778,-9.38888c6.30247,3.77334 11.8558,16.04869 8.15552,23.05339c-3.70026,7.00468 -14.83627,7.81181 -21.13876,4.03845z" fill="#faff00" stroke="#000000" stroke-width="2" stroke-linecap="butt"/><path d="M227.88596,225.98195c-11.29692,0.50125 -20.80131,-6.90015 -21.22866,-16.5315c-0.42735,-9.63135 8.38418,-17.84543 19.6811,-18.34668c11.29692,-0.50125 20.80131,6.90015 21.22866,16.5315c0.42735,9.63135 -8.38418,17.84544 -19.68109,18.34669z" fill="#4dff00" stroke="#000000" stroke-width="2" stroke-linecap="butt"/><path d="M246.75038,206.17546c-1.59277,1.32379 -4.17173,0.84751 -5.76028,-1.06381c-1.58855,-1.91131 -1.58514,-4.53389 0.00763,-5.85768c1.59277,-1.32379 4.17173,-0.84751 5.76028,1.06381c1.58855,1.91131 1.58514,4.53389 -0.00763,5.85768z" fill="#faff00" stroke="#000000" stroke-width="2" stroke-linecap="butt"/><path d="M221.79511,225.20658c-7.17203,1.49753 -10.41863,-2.20954 -11.50088,-7.3927c-1.08225,-5.18314 -0.91191,-10.46972 6.26015,-11.96725c7.17203,-1.49753 18.62987,1.36105 19.71212,6.54421c1.08225,5.18314 -7.29934,11.31821 -14.47139,12.81574z" fill="#faff00" stroke="#000000" stroke-width="2" stroke-linecap="butt"/><path d="M233.8068,193.34639c0.1968,3.36115 -3.92341,3.59098 -8.35113,3.59098c-4.42772,0 -8.01708,0.44401 -8.01708,-2.92289c0,-3.36691 -3.59261,-10.10487 0.83511,-10.10487c4.42772,0 15.19906,3.73155 15.5331,9.43678z" fill="#faff00" stroke="#000000" stroke-width="2" stroke-linecap="butt"/><g><path d="M257.37279,163.81745c-10.76955,0 -19.5,-8.61852 -19.5,-19.25c0,-10.63148 8.73045,-19.25 19.5,-19.25c10.76955,0 19.5,8.61852 19.5,19.25c0,10.63148 -8.73045,19.25 -19.5,19.25z" fill="#00b3ff" stroke="#000000" stroke-width="2" stroke-linecap="butt"/><path d="M290.293,177.17421c0,17.10702 -14.10303,30.975 -31.5,30.975c-17.39697,0 -31.5,-13.86798 -31.5,-30.975c0,-17.10702 14.10303,-30.975 31.5,-30.975c17.39697,0 31.5,13.86798 31.5,30.975z" fill="#faff00" stroke="#000000" stroke-width="2" stroke-linecap="butt"/><path d="M276.24926,181.76796l0.7875,-18.1125" fill="none" stroke="#000000" stroke-width="2" stroke-linecap="round"/><path d="M260.76176,162.34296v19.6875" fill="none" stroke="#000000" stroke-width="2" stroke-linecap="round"/><path d="M252.88676,187.54296l22.8375,0.2625" fill="none" stroke="#000000" stroke-width="2" stroke-linecap="round"/><path d="M274.14926,188.06796c0,-1.05 1.05,-1.05 1.05,-1.05h0.7875c5.67592,0 1.85101,3.48516 0.05384,5.87821c-0.69797,0.92938 -1.42046,3.11582 -2.28433,3.86583c-2.04721,1.7774 -5.39305,2.43166 -8.01485,3.08711c-4.17736,1.04434 -8.07501,1.44404 -10.81896,-2.24221c-0.9084,-1.22035 -2.08855,-1.65509 -2.53261,-3.2602c-0.60016,-2.16935 -0.29059,-4.82022 -0.29059,-7.06624c0,0 0,-1.05 1.05,-1.05c1.05,0 1.05,1.05 1.05,1.05c0,2.1539 -0.20045,4.48613 0.23441,6.58376c0.20618,0.99456 1.65472,1.8029 2.19239,2.5148c2.1677,2.87013 5.28201,2.2638 8.60604,1.43279c2.42791,-0.60698 5.25691,-1.18945 7.21015,-2.68789c0.49553,-0.38015 1.58396,-3.04136 1.91567,-3.48417c0.48864,-0.6523 1.61554,-2.25288 2.56062,-2.81935c-0.28195,0.12668 -0.71197,0.29756 -0.93178,0.29756h-0.7875c0,0 -1.05,0 -1.05,-1.05z" fill="#000000" stroke="none" stroke-width="0.5" stroke-linecap="butt"/><path d="M274.82,154.21188c-0.89443,0.44721 -1.34164,-0.44721 -1.34164,-0.44721c-1.45197,-2.90395 -2.45187,-6.43593 0.18732,-9.15432c0.75784,-0.78058 2.23729,-1.24686 3,-2c0.6067,-0.59908 1.35853,-1.20983 2.20711,-1.29289h1c0,0 0.04171,0 0.10809,0.00852c0.83118,-0.40113 1.71342,-0.73412 2.66215,-0.98177c1.48517,-0.38767 3.06089,-0.19977 4.56957,-0.51384c2.84458,-0.59217 5.13343,-1.14491 5.13343,2.71684c-2.59751,5.46346 -7.14009,7.91952 -12.7435,9.2435c-1.48845,0.35169 -2.35266,1.5 -4,1.5l-0.22422,0.12068c-0.01003,0.27142 -0.13121,0.58695 -0.55832,0.8005z" fill="#00b3ff" stroke="#000000" stroke-width="1.5" stroke-linecap="butt"/></g></g></g></svg>