<svg version="1.1" xmlns="http://www.w3.org/2000/svg" xmlns:xlink="http://www.w3.org/1999/xlink" width="114.27901" height="97.18864" viewBox="0,0,114.27901,97.18864"><defs><radialGradient cx="207.80482" cy="189.31248" r="32" gradientUnits="userSpaceOnUse" id="color-1"><stop offset="0" stop-color="#c2c2c2"/><stop offset="1" stop-color="#959595"/></radialGradient><radialGradient cx="248.99319" cy="178.73831" r="46.14633" gradientUnits="userSpaceOnUse" id="color-2"><stop offset="0" stop-color="#c2c2c2"/><stop offset="1" stop-color="#959595"/></radialGradient><radialGradient cx="243.78626" cy="212.62789" r="27.53427" gradientUnits="userSpaceOnUse" id="color-3"><stop offset="0" stop-color="#c2c2c2"/><stop offset="1" stop-color="#959595"/></radialGradient></defs><g transform="translate(-182.86049,-130.59198)"><g data-paper-data="{&quot;isPaintingLayer&quot;:true}" fill-rule="nonzero" stroke-width="4" stroke-linejoin="miter" stroke-miterlimit="10" stroke-dasharray="" stroke-dashoffset="0" style="mix-blend-mode: normal"><path d="M237.85466,200.31281c-2.21496,6.05065 -17.46431,6.03066 -34.06037,-0.04466c-7.02661,-2.57223 -13.13674,-5.86841 -17.67874,-9.27364c-6.1857,-4.63754 12.43786,0.0922 13.71503,-3.39667c1.31751,-3.59906 -14.7159,-14.51936 -6.68475,-13.74451c5.47061,0.52781 11.94518,2.04189 18.66954,4.50347c16.59607,6.07531 28.25426,15.90535 26.0393,21.956z" fill="url(#color-1)" stroke="#898989" stroke-linecap="butt"/><path d="M248.99318,132.59198c25.48591,0 46.14633,20.66042 46.14633,46.14633c0,25.48591 -20.66042,46.14633 -46.14633,46.14633c-16.38343,0 -30.77273,-8.53784 -38.96134,-21.40695c2.15441,0.60508 4.42659,0.9287 6.77435,0.9287c13.80712,0 25,-11.19288 25,-25c0,-13.80712 -11.19288,-25 -25,-25c-2.71246,0 -5.32402,0.43198 -7.76965,1.23089c7.98288,-13.7778 22.88749,-23.0453 39.95664,-23.0453z" fill="url(#color-2)" stroke="#898989" stroke-linecap="butt"/><path d="M290.8133,193.43144c0,0 -8.47058,0.93058 -15.78285,0.12659c-7.04886,-0.77503 -14.01999,-6.85627 -14.01999,-6.85627" fill="none" stroke="#898989" stroke-linecap="round"/><path d="M267.25945,170.35827c0,0 -2.92659,1.92277 -4.32622,1.92277c-1.31958,0 -3.84553,-1.92277 -3.84553,-1.92277" data-paper-data="{&quot;index&quot;:null}" fill="none" stroke="#000000" stroke-linecap="round"/><path d="M287.44847,169.87757c0,0 -2.92659,1.92277 -4.32622,1.92277c-1.31957,0 -3.84553,-1.92277 -3.84553,-1.92277" data-paper-data="{&quot;index&quot;:null}" fill="none" stroke="#000000" stroke-linecap="round"/><path d="M219.59656,225.78062c-2.02261,-3.71986 7.16784,-12.62408 20.52744,-19.88813c13.3596,-7.26405 5.31779,1.77446 7.3404,5.49432c2.02261,3.71986 13.34372,0.71243 -0.01588,7.97648c-13.3596,7.26405 -25.82935,10.13719 -27.85196,6.41733z" fill="url(#color-3)" stroke="#898989" stroke-linecap="butt"/><path d="M259.88952,136.94522c0,0 -2.33299,9.76565 -7.28995,16.78636c-4.95132,7.01272 -13.71005,11.71364 -13.71005,11.71364" fill="none" stroke="#898989" stroke-linecap="round"/></g></g></svg>