<svg version="1.1" xmlns="http://www.w3.org/2000/svg" xmlns:xlink="http://www.w3.org/1999/xlink" width="58.10636" height="42.85876" viewBox="0,0,58.10636,42.85876"><defs><linearGradient x1="147.93772" y1="67.66192" x2="147.93772" y2="83.76355" gradientUnits="userSpaceOnUse" id="color-1"><stop offset="0" stop-color="#a71b1b"/><stop offset="1" stop-color="#861616"/></linearGradient><linearGradient x1="123.59357" y1="54.3525" x2="123.59357" y2="83.48881" gradientUnits="userSpaceOnUse" id="color-2"><stop offset="0" stop-color="#a71b1b"/><stop offset="1" stop-color="#861616"/></linearGradient><linearGradient x1="128.4147" y1="42.38913" x2="128.4147" y2="54.20235" gradientUnits="userSpaceOnUse" id="color-3"><stop offset="0" stop-color="#a71b1b"/><stop offset="1" stop-color="#861616"/></linearGradient><linearGradient x1="133.20686" y1="44.88105" x2="133.20686" y2="56.69427" gradientUnits="userSpaceOnUse" id="color-4"><stop offset="0" stop-color="#a71b1b"/><stop offset="1" stop-color="#861616"/></linearGradient><linearGradient x1="127.7568" y1="66.32937" x2="128.2479" y2="72.82818" gradientUnits="userSpaceOnUse" id="color-5"><stop offset="0" stop-color="#a71b1b"/><stop offset="1" stop-color="#861616"/></linearGradient></defs><g transform="translate(-103.74998,-41.88005)"><g data-paper-data="{&quot;isPaintingLayer&quot;:true}" fill-rule="nonzero" stroke-linejoin="miter" stroke-miterlimit="10" stroke-dasharray="" stroke-dashoffset="0" style="mix-blend-mode: normal"><g><path d="M135.28643,67.66192l18.78526,-11.50118c0,0 6.04849,2.65709 6.53465,12.25559c0.43848,8.65724 -5.7679,12.66362 -5.7679,12.66362z" fill="url(#color-1)" stroke="#581500" stroke-width="2.5" stroke-linecap="butt"/><path d="M142.18713,68.92065c0,3.6405 4.42964,6.96911 1.61205,9.52275c-3.40949,3.0901 -14.5831,5.04541 -20.20562,5.04541c-4.68638,0 -8.96783,-1.35841 -12.23791,-3.60009c1.23447,-0.63683 2.07853,-1.92446 2.07853,-3.40923c0,-2.11731 -1.71642,-3.83373 -3.83373,-3.83373c-1.35783,0 -2.55078,0.7059 -3.23191,1.77075c-0.88236,-1.69594 -1.36856,-3.5514 -1.36856,-5.49585c0,-3.86574 4.60534,-5.84631 7.74113,-8.45423c3.39074,-2.81996 5.51739,-6.11393 10.85244,-6.11393c3.21058,0 16.96553,0.63756 19.601,1.75991c5.79402,2.46744 -1.00744,7.27799 -1.00744,12.80825z" fill="url(#color-2)" stroke="#581500" stroke-width="2.5" stroke-linecap="butt"/><path d="M107.49192,67.66192c0,-0.52933 0.4291,-0.95844 0.95843,-0.95844c0.52933,0 0.95844,0.42911 0.95844,0.95844c0,0.52933 -0.42911,0.95843 -0.95844,0.95843c-0.52933,0 -0.95843,-0.4291 -0.95843,-0.95843z" fill="#000000" stroke="none" stroke-width="0.5" stroke-linecap="butt"/><path d="M112.47577,68.04529c0,-0.52933 0.4291,-0.95843 0.95843,-0.95843c0.52933,0 0.95843,0.42911 0.95843,0.95843c0,0.52933 -0.4291,0.95843 -0.95843,0.95843c-0.52933,0 -0.95843,-0.4291 -0.95843,-0.95843z" fill="#000000" stroke="none" stroke-width="0.5" stroke-linecap="butt"/><path d="M123.68941,54.20235c0,0 4.80831,-5.17993 7.67832,-7.32233c2.71272,-2.02499 5.55249,-2.83704 5.55249,-2.83704c0,0 -1.55341,2.24427 -2.85842,4.47543c-1.10183,1.88378 -0.92181,5.68395 -0.92181,5.68395z" fill="url(#color-3)" stroke="#581500" stroke-width="2.5" stroke-linecap="butt"/><path d="M128.48157,56.69427c0,0 4.80831,-5.17993 7.67832,-7.32233c2.71272,-2.02499 5.55249,-2.83704 5.55249,-2.83704c0,0 -1.55341,2.24427 -2.85843,4.47543c-1.10183,1.88378 -0.92181,5.68394 -0.92181,5.68394z" fill="url(#color-4)" stroke="#581500" stroke-width="2.5" stroke-linecap="butt"/><path d="M118.89726,64.36172v-4.2171" fill="none" stroke="#ba1300" stroke-width="2.5" stroke-linecap="round"/><path d="M126.94808,66.08689v-4.2171" fill="none" stroke="#ba1300" stroke-width="2.5" stroke-linecap="round"/><path d="M133.84878,59.56956v4.2171" fill="none" stroke="#ba1300" stroke-width="2.5" stroke-linecap="round"/><path d="M136.22143,68.95767c0.13561,1.7946 -3.43426,3.52747 -7.97353,3.87049c-4.53927,0.34302 -8.32901,-0.83372 -8.46462,-2.62832c-0.13561,-1.7946 3.43426,-3.52747 7.97352,-3.87049c4.53927,-0.34302 8.32902,0.83372 8.46463,2.62832z" fill="url(#color-5)" stroke="#581500" stroke-width="2.5" stroke-linecap="butt"/><path d="M138.25757,70.87905v4.2171" fill="none" stroke="#ba1300" stroke-width="2.5" stroke-linecap="round"/><path d="M133.27372,73.56266v4.2171" fill="none" stroke="#ba1300" stroke-width="2.5" stroke-linecap="round"/><path d="M124.26447,79.69662v-4.2171" fill="none" stroke="#ba1300" stroke-width="2.5" stroke-linecap="round"/><path d="M116.98039,74.52109v-4.2171" fill="none" stroke="#ba1300" stroke-width="2.5" stroke-linecap="round"/><path d="M137.29913,51.51874v4.2171" fill="none" stroke="#ba1300" stroke-width="2.5" stroke-linecap="round"/><path d="M128.28988,53.05223v-4.2171" fill="none" stroke="#ba1300" stroke-width="2.5" stroke-linecap="round"/><path d="M147.65019,64.17003v4.2171" fill="none" stroke="#ba1300" stroke-width="2.5" stroke-linecap="round"/><path d="M152.25066,75.28783v-4.2171" fill="none" stroke="#ba1300" stroke-width="2.5" stroke-linecap="round"/><path d="M154.16752,60.71968v4.2171" fill="none" stroke="#ba1300" stroke-width="2.5" stroke-linecap="round"/><path d="M157.42619,71.6458v-4.2171" fill="none" stroke="#ba1300" stroke-width="2.5" stroke-linecap="round"/></g></g></g></svg>