<svg version="1.1" xmlns="http://www.w3.org/2000/svg" xmlns:xlink="http://www.w3.org/1999/xlink" width="60.08519" height="67.04764" viewBox="0,0,60.08519,67.04764"><defs><radialGradient cx="261.65586" cy="185.54528" r="4.90652" gradientUnits="userSpaceOnUse" id="color-1"><stop offset="0" stop-color="#d9d1c4"/><stop offset="1" stop-color="#c4b7a5"/></radialGradient><radialGradient cx="237.82768" cy="178.4299" r="23" gradientUnits="userSpaceOnUse" id="color-2"><stop offset="0" stop-color="#d9d1c4"/><stop offset="1" stop-color="#c4b7a5"/></radialGradient><radialGradient cx="260.37968" cy="156.76527" r="4.54371" gradientUnits="userSpaceOnUse" id="color-3"><stop offset="0" stop-color="#d9d1c4"/><stop offset="1" stop-color="#c4b7a5"/></radialGradient><radialGradient cx="248.18952" cy="162.46834" r="11.31423" gradientUnits="userSpaceOnUse" id="color-4"><stop offset="0" stop-color="#d9d1c4"/><stop offset="1" stop-color="#c4b7a5"/></radialGradient><radialGradient cx="236.98775" cy="153.49455" r="4.6317" gradientUnits="userSpaceOnUse" id="color-5"><stop offset="0" stop-color="#d9d1c4"/><stop offset="1" stop-color="#c4b7a5"/></radialGradient><radialGradient cx="224.8753" cy="159.89691" r="11.25614" gradientUnits="userSpaceOnUse" id="color-6"><stop offset="0" stop-color="#d9d1c4"/><stop offset="1" stop-color="#c4b7a5"/></radialGradient><radialGradient cx="237.38749" cy="203.08246" r="5.2242" gradientUnits="userSpaceOnUse" id="color-7"><stop offset="0" stop-color="#d9d1c4"/><stop offset="1" stop-color="#c4b7a5"/></radialGradient><radialGradient cx="223.66101" cy="195.36763" r="12.17252" gradientUnits="userSpaceOnUse" id="color-8"><stop offset="0" stop-color="#d9d1c4"/><stop offset="1" stop-color="#c4b7a5"/></radialGradient><radialGradient cx="263.94168" cy="206.39574" r="4.56981" gradientUnits="userSpaceOnUse" id="color-9"><stop offset="0" stop-color="#d9d1c4"/><stop offset="1" stop-color="#c4b7a5"/></radialGradient><radialGradient cx="247.84193" cy="196.53976" r="13.57506" gradientUnits="userSpaceOnUse" id="color-10"><stop offset="0" stop-color="#d9d1c4"/><stop offset="1" stop-color="#c4b7a5"/></radialGradient></defs><g transform="translate(-210.2385,-146.50472)"><g data-paper-data="{&quot;isPaintingLayer&quot;:true}" fill-rule="nonzero" stroke-linecap="butt" stroke-linejoin="miter" stroke-miterlimit="10" stroke-dasharray="" stroke-dashoffset="0" style="mix-blend-mode: normal"><path d="M256.74934,185.03901l9.81304,-3.95513l-1.99391,8.92279z" fill="url(#color-1)" stroke="#7f726d" stroke-width="2.5"/><path d="M260.82768,185.96199c0,3.86599 -21.68087,-2.33333 -30.33333,-2.33333c-8.65246,0 -15.66667,-3.13401 -15.66667,-7c0,-3.86599 7.01421,-7 15.66667,-7c8.65246,0 30.33333,12.46734 30.33333,16.33333z" fill="url(#color-2)" stroke="#7f726d" stroke-width="2.5"/><path d="M255.87618,159.1433l8.00177,-6.92174l1.00523,9.08743z" fill="url(#color-3)" stroke="#7f726d" stroke-width="2.5"/><path d="M256.73244,153.11119c4.33938,0 2.28572,6.03177 2.28572,8.71429c0,2.68252 -11.66062,10 -16,10c-4.33938,0 -6.14286,-4.03177 -6.14286,-6.71429c0,-2.68252 15.51776,-12 19.85714,-12z" fill="url(#color-4)" stroke="#7f726d" stroke-width="2.5"/><path d="M232.35606,157.82011l6.09074,-8.65111l3.17265,8.57474z" fill="url(#color-5)" stroke="#7f726d" stroke-width="2.5"/><path d="M235.95855,155.68344c1.07941,2.83931 -3.00771,7.02747 -9.12882,9.3545c-6.12111,2.32704 -11.95829,1.91175 -13.03769,-0.92756c-1.07941,-2.83931 3.00771,-7.02746 9.12882,-9.35449c6.12111,-2.32703 11.95829,-1.91176 13.0377,0.92755z" fill="url(#color-6)" stroke="#7f726d" stroke-width="2.5"/><path d="M241.53019,197.85826l-1.66425,10.4484l-6.62115,-6.30493z" fill="url(#color-7)" stroke="#7f726d" stroke-width="2.5"/><path d="M235.31975,202.76644c-1.92637,3.0355 -8.7078,2.1837 -15.14674,-1.90255c-6.43895,-4.08625 -10.0971,-9.85958 -8.17073,-12.89508c1.92637,-3.0355 8.70781,-2.1837 15.14675,1.90255c6.43895,4.08625 10.09709,9.85958 8.17072,12.89508z" fill="url(#color-8)" stroke="#7f726d" stroke-width="2.5"/><path d="M265.13838,210.831l-5.76651,-8.87052l9.13963,0.24275z" fill="url(#color-9)" stroke="#7f726d" stroke-width="2.5"/><path d="M261.07589,203.03644c-1.66274,3.38706 -8.93569,3.22415 -16.24461,-0.36386c-7.30891,-3.58801 -11.88605,-9.24243 -10.22331,-12.62949c1.66274,-3.38706 8.9357,-3.22415 16.24461,0.36386c7.30891,3.58801 11.88604,9.24242 10.2233,12.62948z" fill="url(#color-10)" stroke="#7f726d" stroke-width="2.5"/><path d="M216.93482,162.27193c0,-0.69036 0.55965,-1.25 1.25,-1.25c0.69035,0 1.25,0.55965 1.25,1.25c0,0.69036 -0.55965,1.25 -1.25,1.25c-0.69035,0 -1.25,-0.55964 -1.25,-1.25z" fill="#000000" stroke="none" stroke-width="0.5"/><path d="M240.18482,166.52193c0,-0.69036 0.55965,-1.25 1.25,-1.25c0.69035,0 1.25,0.55964 1.25,1.25c0,0.69036 -0.55965,1.25 -1.25,1.25c-0.69035,0 -1.25,-0.55964 -1.25,-1.25z" fill="#000000" stroke="none" stroke-width="0.5"/><path d="M218.68482,176.02193c0,-0.69036 0.55965,-1.25 1.25,-1.25c0.69035,0 1.25,0.55964 1.25,1.25c0,0.69036 -0.55965,1.25 -1.25,1.25c-0.69035,0 -1.25,-0.55964 -1.25,-1.25z" fill="#000000" stroke="none" stroke-width="0.5"/><path d="M214.43482,190.52193c0,-0.69036 0.55965,-1.25 1.25,-1.25c0.69035,0 1.25,0.55964 1.25,1.25c0,0.69036 -0.55965,1.25 -1.25,1.25c-0.69035,0 -1.25,-0.55964 -1.25,-1.25z" fill="#000000" stroke="none" stroke-width="0.5"/><path d="M238.68482,192.52193c0,-0.69036 0.55965,-1.25 1.25,-1.25c0.69035,0 1.25,0.55964 1.25,1.25c0,0.69036 -0.55965,1.25 -1.25,1.25c-0.69035,0 -1.25,-0.55964 -1.25,-1.25z" fill="#000000" stroke="none" stroke-width="0.5"/></g></g></svg>