<svg version="1.1" xmlns="http://www.w3.org/2000/svg" xmlns:xlink="http://www.w3.org/1999/xlink" width="50.49062" height="56.41965" viewBox="0,0,50.49062,56.41965"><defs><linearGradient x1="242.14934" y1="153.04018" x2="242.14934" y2="161.54018" gradientUnits="userSpaceOnUse" id="color-1"><stop offset="0" stop-color="#a82516"/><stop offset="1" stop-color="#490d06"/></linearGradient><linearGradient x1="234.9797" y1="157.20983" x2="234.9797" y2="206.95983" gradientUnits="userSpaceOnUse" id="color-2"><stop offset="0" stop-color="#a82516"/><stop offset="1" stop-color="#490d06"/></linearGradient><linearGradient x1="256.22858" y1="170.86341" x2="256.22858" y2="193.35033" gradientUnits="userSpaceOnUse" id="color-3"><stop offset="0" stop-color="#a82516"/><stop offset="1" stop-color="#490d06"/></linearGradient><linearGradient x1="246.27434" y1="183.79018" x2="246.27434" y2="193.54018" gradientUnits="userSpaceOnUse" id="color-4"><stop offset="0" stop-color="#a82516"/><stop offset="1" stop-color="#490d06"/></linearGradient></defs><g transform="translate(-214.75469,-151.79017)"><g data-paper-data="{&quot;isPaintingLayer&quot;:true}" fill-rule="nonzero" stroke-linecap="butt" stroke-linejoin="miter" stroke-miterlimit="10" stroke-dasharray="" stroke-dashoffset="0" style="mix-blend-mode: normal"><path d="M248.52434,157.29018c0,2.34721 -2.85419,4.25 -6.375,4.25c-3.52081,0 -6.375,-1.90279 -6.375,-4.25c0,-2.34721 2.85419,-4.25 6.375,-4.25c3.52081,0 6.375,1.90279 6.375,4.25z" fill="url(#color-1)" stroke="#330603" stroke-width="2.5"/><path d="M253.3547,184.33483c0,0 -12.10748,22.625 -20.875,22.625c-5.32605,0 -10.5395,-3.95153 -13.41918,-9.66911c-1.04739,-2.07958 -2.01043,-4.94311 -2.01043,-4.94311c0,0 3.70277,1.35332 7.11322,0.45867c3.3915,-0.88967 6.49115,-4.01901 6.36178,-6.97932c-0.03401,-0.77831 -4.50786,2.87566 -8.11085,2.81979c-3.32875,-0.05163 -6.41255,-0.8305 -6.40955,-1.06193c0.2,-15.46701 12.20748,-30.375 20.975,-30.375c8.76752,0 16.375,27.125 16.375,27.125z" fill="url(#color-2)" stroke="#330603" stroke-width="2.5"/><path d="M248.46184,187.10268v-11c0,0 5.84031,2.6288 11.75,-4.75c3.77206,-4.70978 6.06956,26.25193 0.25,21.5c-8.85709,-7.2322 -12,-5.75 -12,-5.75z" fill="url(#color-3)" stroke="#330603" stroke-width="2.5"/><path d="M256.02434,188.66518c0,2.69239 -4.36523,4.875 -9.75,4.875c-5.38477,0 -9.75,-2.18261 -9.75,-4.875c0,-2.69239 4.36523,-4.875 9.75,-4.875c5.38477,0 9.75,2.18261 9.75,4.875z" fill="url(#color-4)" stroke="#330603" stroke-width="2.5"/><path d="M220.26467,178.636c0,-0.69036 0.55964,-1.25 1.25,-1.25c0.69036,0 1.25,0.55964 1.25,1.25c0,0.69036 -0.55964,1.25 -1.25,1.25c-0.69036,0 -1.25,-0.55964 -1.25,-1.25z" fill="#000000" stroke="none" stroke-width="0.5"/><path d="M226.93133,177.636c0,-0.69036 0.55964,-1.25 1.25,-1.25c0.69036,0 1.25,0.55964 1.25,1.25c0,0.69036 -0.55964,1.25 -1.25,1.25c-0.69036,0 -1.25,-0.55964 -1.25,-1.25z" fill="#000000" stroke="none" stroke-width="0.5"/></g></g></svg>