<svg version="1.1" xmlns="http://www.w3.org/2000/svg" xmlns:xlink="http://www.w3.org/1999/xlink" width="64.19354" height="40.38078" viewBox="0,0,64.19354,40.38078"><defs><linearGradient x1="53.77341" y1="113.6911" x2="53.77341" y2="117.82932" gradientUnits="userSpaceOnUse" id="color-1"><stop offset="0" stop-color="#633500"/><stop offset="1" stop-color="#4b2400"/></linearGradient><linearGradient x1="82.13245" y1="108.82259" x2="82.13245" y2="123.42811" gradientUnits="userSpaceOnUse" id="color-2"><stop offset="0" stop-color="#00db28"/><stop offset="1" stop-color="#8aeb00"/></linearGradient><linearGradient x1="39.04618" y1="118.5596" x2="39.04618" y2="133.16512" gradientUnits="userSpaceOnUse" id="color-3"><stop offset="0" stop-color="#db003f"/><stop offset="1" stop-color="#ea0064"/></linearGradient><linearGradient x1="39.53303" y1="105.90149" x2="39.53303" y2="120.507" gradientUnits="userSpaceOnUse" id="color-4"><stop offset="0" stop-color="#db003f"/><stop offset="1" stop-color="#ea0064"/></linearGradient><linearGradient x1="47.72441" y1="99.13057" x2="49.40039" y2="113.63961" gradientUnits="userSpaceOnUse" id="color-5"><stop offset="0" stop-color="#db003f"/><stop offset="1" stop-color="#ea0064"/></linearGradient><linearGradient x1="52.678" y1="104.19751" x2="52.678" y2="118.80302" gradientUnits="userSpaceOnUse" id="color-6"><stop offset="0" stop-color="#db003f"/><stop offset="1" stop-color="#ea0064"/></linearGradient><linearGradient x1="50.7306" y1="116.6122" x2="50.7306" y2="131.21771" gradientUnits="userSpaceOnUse" id="color-7"><stop offset="0" stop-color="#db003f"/><stop offset="1" stop-color="#ea0064"/></linearGradient><linearGradient x1="62.65843" y1="116.6122" x2="62.65843" y2="131.21771" gradientUnits="userSpaceOnUse" id="color-8"><stop offset="0" stop-color="#db003f"/><stop offset="1" stop-color="#ea0064"/></linearGradient><linearGradient x1="66.06639" y1="101.76326" x2="66.06639" y2="116.36877" gradientUnits="userSpaceOnUse" id="color-9"><stop offset="0" stop-color="#db003f"/><stop offset="1" stop-color="#ea0064"/></linearGradient><linearGradient x1="67.42904" y1="124.3629" x2="64.79653" y2="130.11978" gradientUnits="userSpaceOnUse" id="color-10"><stop offset="0" stop-color="#db003f"/><stop offset="1" stop-color="#ea0064"/></linearGradient></defs><g transform="translate(-30.24999,-93.25568)"><g data-paper-data="{&quot;isPaintingLayer&quot;:true}" fill-rule="nonzero" stroke-linecap="butt" stroke-linejoin="miter" stroke-miterlimit="10" stroke-dasharray="" stroke-dashoffset="0" style="mix-blend-mode: normal"><g><path d="M41.23701,121.4807l-3.40796,-2.67767l39.19146,-5.11193l0.73028,4.62507z" fill="url(#color-1)" stroke="#522800" stroke-width="2.5"/><path d="M74.82969,116.12535c0,-4.0332 11.54602,-8.76331 15.57922,-8.76331c4.0332,0 -0.9737,4.73011 -0.9737,8.76331c0,4.0332 6.46746,10.71071 2.43426,10.71071c-1.76389,0 -5.24411,-1.2772 -8.60203,-3.05183c-1.19621,-0.63218 0.54421,-4.73544 -0.53784,-5.45863c-1.0091,-0.67443 -3.18686,4.36818 -3.95697,3.67386c-1.3864,-1.24997 -3.94294,-4.81916 -3.94294,-5.87411z" fill="url(#color-2)" stroke="#00800c" stroke-width="2.5"/><path d="M31.5,124.4018c0,-4.0332 3.51298,-5.84221 7.54618,-5.84221c4.0332,0 7.30276,3.26956 7.30276,7.30276c0,4.0332 -7.16436,9.00673 -11.44099,5.11193c-2.01475,-1.83487 5.36578,-1.97944 4.11088,-4.19169c-0.6024,-1.06197 -7.51884,-1.07265 -7.51884,-2.38079z" fill="url(#color-3)" stroke="#7f0042" stroke-width="2.5"/><path d="M32.23028,113.20424c0,-4.0332 3.26955,-7.30275 7.30275,-7.30275c4.0332,0 7.30276,3.26955 7.30276,7.30275c0,4.0332 -3.26956,7.30276 -7.30276,7.30276c-4.0332,0 -7.30275,-3.26956 -7.30275,-7.30276z" fill="url(#color-4)" stroke="#7f0042" stroke-width="2.5"/><path d="M41.30788,107.22308c-0.46281,-4.00656 21.2342,-12.25459 25.24076,-12.7174c4.00656,-0.46281 -5.20497,5.85289 -4.74216,9.85945c0.46281,4.00656 2.07283,6.1317 -1.93373,6.59451c-4.00656,0.46281 -18.10206,0.27 -18.56487,-3.73656z" fill="url(#color-5)" stroke="#7f0042" stroke-width="2.5"/><path d="M45.37523,111.50027c0,-4.0332 3.26956,-7.30276 7.30276,-7.30276c4.0332,0 7.30275,3.26956 7.30275,7.30276c0,4.0332 -3.26955,7.30276 -7.30275,7.30276c-4.0332,0 -7.30276,-3.26956 -7.30276,-7.30276z" fill="url(#color-6)" stroke="#7f0042" stroke-width="2.5"/><path d="M43.42784,123.91495c0,-4.0332 3.26956,-7.30275 7.30276,-7.30275c4.0332,0 7.30275,3.26955 7.30275,7.30275c0,4.0332 -3.26955,7.30276 -7.30275,7.30276c-4.0332,0 -7.30276,-3.26956 -7.30276,-7.30276z" fill="url(#color-7)" stroke="#7f0042" stroke-width="2.5"/><path d="M55.35567,123.91495c0,-4.0332 3.26956,-7.30275 7.30276,-7.30275c4.0332,0 7.30275,3.26955 7.30275,7.30275c0,4.0332 -3.26955,7.30276 -7.30275,7.30276c-4.0332,0 -7.30276,-3.26956 -7.30276,-7.30276z" fill="url(#color-8)" stroke="#7f0042" stroke-width="2.5"/><path d="M58.76363,109.06602c0,-4.0332 3.26956,-7.30276 7.30276,-7.30276c4.0332,0 7.30275,3.26956 7.30275,7.30276c0,4.0332 -3.26955,7.30276 -7.30275,7.30276c-4.0332,0 -7.30276,-3.26956 -7.30276,-7.30276z" fill="url(#color-9)" stroke="#7f0042" stroke-width="2.5"/><path d="M59.90814,124.40409c0.72695,-1.58972 4.09416,-1.60817 7.52089,-0.04119c3.42673,1.56698 5.61534,4.12598 4.8884,5.7157c-0.72695,1.58972 -4.09417,1.60816 -7.5209,0.04119c-3.42673,-1.56698 -5.61534,-4.12598 -4.88839,-5.7157z" fill="url(#color-10)" stroke="#7f0042" stroke-width="2.5"/><path d="M34.72539,115.56952c0,-0.50415 0.40869,-0.91284 0.91285,-0.91284c0.50415,0 0.91285,0.40869 0.91285,0.91284c0,0.50415 -0.40869,0.91285 -0.91285,0.91285c-0.50415,0 -0.91285,-0.4087 -0.91285,-0.91285z" fill="#000000" stroke="none" stroke-width="0.5"/><path d="M41.54129,115.3261c0,-0.50415 0.4087,-0.91285 0.91285,-0.91285c0.50415,0 0.91285,0.4087 0.91285,0.91285c0,0.50415 -0.4087,0.91284 -0.91285,0.91284c-0.50415,0 -0.91285,-0.40869 -0.91285,-0.91284z" fill="#000000" stroke="none" stroke-width="0.5"/></g></g></g></svg>