<svg version="1.1" xmlns="http://www.w3.org/2000/svg" xmlns:xlink="http://www.w3.org/1999/xlink" width="83.50261" height="52.50268" viewBox="0,0,83.50261,52.50268"><g transform="translate(-198.2487,-153.23578)"><g data-paper-data="{&quot;isPaintingLayer&quot;:true}" fill-rule="nonzero" stroke-linecap="butt" stroke-linejoin="miter" stroke-miterlimit="10" stroke-dasharray="" stroke-dashoffset="0" style="mix-blend-mode: normal"><g><path d="M255.82563,167.43154c0,0 -10.01283,3.12 -13.68,3.12c-3.66717,0 -6.16,-3.76 -6.16,-3.76l-1.04,-11.28c0,0 20.88,11.92 20.88,11.92z" fill="#00e4f7" stroke="#008b97" stroke-width="2.5"/><path d="M203.66044,183.73593c1.00852,7.76737 -5.50578,20.4808 1.15197,19.61636c2.27937,-0.29595 2.17092,-4.6492 5.28492,-6.54657c5.98157,-3.6446 15.09456,-6.43228 14.43132,-11.54038c-0.61657,-4.74865 -1.96303,-3.51548 -7.79416,-9.14644c-1.77726,-1.71626 -6.62669,-0.83426 -9.33011,-4.15962c-2.93514,-3.61039 -3.70959,-11.36539 -5.0565,-11.1905c-6.65775,0.86444 0.30404,15.19979 1.31256,22.96716z" fill="#00e4f7" stroke="#008b97" stroke-width="2.5"/><path d="M280.5013,184.35603c0,1.11059 -13.46412,0.43838 -13.81704,1.49523c-0.13781,0.41267 -0.21242,3.87511 4.56248,6.38023c2.39159,1.25473 5.7571,3.50699 5.7571,3.50699c0,0 -5.03541,3.99358 -11.69632,6.07569c-7.48462,2.33959 -16.83403,2.79098 -19.75504,2.65135c-10.75217,-0.51396 -34.94881,-9.8712 -34.94881,-20.10949c0,-10.23829 15.64712,-18.53806 34.94881,-18.53806c19.3017,0 34.94882,8.29977 34.94882,18.53806z" fill="#00e4f7" stroke="#008b97" stroke-width="2.5"/><path d="M218.36088,193.03252c-1.12422,0.12416 -2.60791,-0.21567 -3.55357,-0.07771c-0.93472,0.13637 -1.33385,0.75198 -2.03072,0.63124c-1.42394,-0.24671 -3.92096,-6.31185 -3.6772,-11.32574c0.15942,-3.27898 2.15139,-6.46315 2.69732,-6.46315c0.18064,0 4.87584,1.10844 4.87584,1.10844c0,0 2.39085,16.04932 1.68833,16.12691z" fill="#00e4f7" stroke="none" stroke-width="0.5"/><path d="M247.98563,184.71154c0,3.93227 -4.83532,7.12 -10.8,7.12c-5.96468,0 -10.8,-3.18773 -10.8,-7.12c0,-3.93227 4.83532,-7.12 10.8,-7.12c5.96468,0 10.8,3.18773 10.8,7.12z" fill="#00e4f7" stroke="#008b97" stroke-width="2.5"/><path d="M269.10563,179.67154c0,-1.41385 1.14615,-2.56 2.56,-2.56c1.41385,0 2.56,1.14615 2.56,2.56c0,1.41385 -1.14615,2.56 -2.56,2.56c-1.41385,0 -2.56,-1.14615 -2.56,-2.56z" fill="#000000" stroke="none" stroke-width="0"/></g></g></g></svg>