<svg version="1.1" xmlns="http://www.w3.org/2000/svg" xmlns:xlink="http://www.w3.org/1999/xlink" width="63.58717" height="45.92111" viewBox="0,0,63.58717,45.92111"><g transform="translate(-172.63887,-289.63334)"><g data-paper-data="{&quot;isPaintingLayer&quot;:true}" fill-rule="nonzero" stroke-width="1.5" stroke-linejoin="miter" stroke-miterlimit="10" stroke-dasharray="" stroke-dashoffset="0" style="mix-blend-mode: normal"><g><path d="M173.38889,312.68082c0.34131,0.05134 0.69072,0.07795 1.04635,0.07795c3.85251,0 6.97561,-3.12308 6.97561,-6.97561c0,-0.60217 -0.0763,-1.18652 -0.21977,-1.7439h36.57086c-0.05134,0.34131 -0.07795,0.69071 -0.07795,1.04634c0,3.85251 0.79789,9.88211 4.6504,9.88211c0.72909,0 12.47677,-9.64518 13.13739,-9.85268l-0.11627,27.95093c-0.34131,-0.05134 -11.85169,-7.16982 -12.2073,-7.16982c-3.61709,0 -4.03346,5.31077 -4.38345,8.83577h-38.08593c0.02278,-0.22943 0.03444,-0.46213 0.03444,-0.69756c0,-3.85251 -3.12308,-6.97561 -6.97561,-6.97561c-0.11695,0 -0.23323,0.00288 -0.34879,0.00857z" fill="#189400" stroke="#126b00" stroke-linecap="butt"/><path d="M192.68806,303.75637c0,0 0.56043,-5.49487 4.18536,-9.18454c3.62494,-3.68967 8.83577,-4.06911 8.83577,-4.06911c0,0 -2.55772,3.33416 -2.55772,6.85935c0,2.16884 2.55772,6.39431 2.55772,6.39431z" fill="#189400" stroke="#126b00" stroke-linecap="butt"/><path d="M179.26002,316.1962c0,-0.48157 0.39039,-0.87195 0.87195,-0.87195c0.48157,0 0.87195,0.39039 0.87195,0.87195c0,0.48157 -0.39039,0.87195 -0.87195,0.87195c-0.48157,0 -0.87195,-0.39039 -0.87195,-0.87195z" fill="#000000" stroke="none" stroke-linecap="butt"/><path d="M173.85393,322.93928c0,0 3.41958,-0.47072 5.01867,-0.27743c1.88137,0.22741 5.561,1.5563 5.561,1.5563" fill="none" stroke="#126b00" stroke-linecap="round"/><path d="M194.29181,305.06474l-6.45863,29.73971" fill="none" stroke="#126b00" stroke-linecap="round"/><path d="M209.16165,333.75303l8.26103,-28.98871" fill="none" stroke="#126b00" stroke-linecap="round"/><path d="M213.56422,327.46615c-0.44187,1.64316 -4.36892,2.0155 -8.77135,0.83165c-4.40242,-1.18384 -7.61308,-3.47558 -7.17123,-5.11874c0.44187,-1.64316 4.36892,-2.01551 8.77135,-0.83166c4.40242,1.18384 7.61309,3.47558 7.17123,5.11874z" fill="#189400" stroke="#126b00" stroke-linecap="butt"/></g></g></g></svg>