<svg version="1.1" xmlns="http://www.w3.org/2000/svg" xmlns:xlink="http://www.w3.org/1999/xlink" width="91.35357" height="62.30626" viewBox="0,0,91.35357,62.30626"><defs><linearGradient x1="215.50313" y1="170.29295" x2="215.50313" y2="201.70725" gradientUnits="userSpaceOnUse" id="color-1"><stop offset="0" stop-color="#8c3fff"/><stop offset="1" stop-color="#7d52ff"/></linearGradient><linearGradient x1="194.96994" y1="181.57462" x2="218.27195" y2="181.57462" gradientUnits="userSpaceOnUse" id="color-2"><stop offset="0" stop-color="#a9ebfc"/><stop offset="1" stop-color="#a66aad"/></linearGradient><linearGradient x1="210.32593" y1="178.80717" x2="219.39883" y2="178.80717" gradientUnits="userSpaceOnUse" id="color-3"><stop offset="0" stop-color="#8c3fff"/><stop offset="1" stop-color="#4440ff"/></linearGradient><linearGradient x1="210.75681" y1="185.39812" x2="219.56162" y2="185.39812" gradientUnits="userSpaceOnUse" id="color-4"><stop offset="0" stop-color="#8c3fff"/><stop offset="1" stop-color="#4440ff"/></linearGradient><linearGradient x1="252.50503" y1="203.41078" x2="245.4164" y2="194.34119" gradientUnits="userSpaceOnUse" id="color-5"><stop offset="0" stop-color="#1d1814"/><stop offset="1" stop-color="#002265"/></linearGradient><linearGradient x1="242.62784" y1="180.08681" x2="277.83205" y2="180.08681" gradientUnits="userSpaceOnUse" id="color-6"><stop offset="0" stop-color="#d3ae91"/><stop offset="1" stop-color="#9e826f"/></linearGradient><linearGradient x1="260.64703" y1="173.58741" x2="260.64703" y2="184.92074" gradientUnits="userSpaceOnUse" id="color-7"><stop offset="0" stop-color="#351200"/><stop offset="1" stop-color="#ff3b00"/></linearGradient><linearGradient x1="246.86663" y1="162.06528" x2="256.42021" y2="166.49249" gradientUnits="userSpaceOnUse" id="color-8"><stop offset="0" stop-color="#1d1814"/><stop offset="1" stop-color="#002265"/></linearGradient></defs><g transform="translate(-194.32322,-146.85831)"><g data-paper-data="{&quot;isPaintingLayer&quot;:true}" fill-rule="nonzero" stroke-linejoin="miter" stroke-miterlimit="10" stroke-dasharray="" stroke-dashoffset="0" style="mix-blend-mode: normal"><path d="" fill="#9966ff" stroke="#000000" stroke-width="2" stroke-linecap="butt"/><g stroke-width="2"><g><path d="M206.48991,182.6263c0,-5.33875 -4.85618,-12.33333 0.66667,-12.33333c5.52284,0 18.83333,6.99458 18.83333,12.33333c0,2.64558 -3.93275,17.04293 -5.71403,18.78842c-1.81333,1.77689 -8.33327,-5.12175 -11.11931,-5.12175c-5.52285,0 -2.66667,-8.32792 -2.66667,-13.66667z" fill="url(#color-1)" stroke="#1c1036" stroke-linecap="butt"/><path d="M219.32323,199.5263l-4.5,-3.5l-5,-24" fill="none" stroke="#ffffff" stroke-linecap="round"/><path d="M223.82323,184.6263l-17,-4" fill="none" stroke="#1c1036" stroke-linecap="round"/><path d="M223.15657,189.6263l-15.66667,2.33333" fill="none" stroke="#1c1036" stroke-linecap="round"/></g><path d="M222.82323,176.5763c0,1.79493 -1.45507,3.25 -3.25,3.25c-1.79493,0 -3.25,-1.45507 -3.25,-3.25c0,-1.79493 1.45507,-3.25 3.25,-3.25c1.79493,0 3.25,1.45507 3.25,3.25z" fill="#3e1b73" stroke="#610000" stroke-linecap="butt"/><path d="M223.07323,181.8263c0,1.65685 -1.28718,3 -2.875,3c-1.58782,0 -2.875,-1.34315 -2.875,-3c0,-1.65685 1.28718,-3 2.875,-3c1.58782,0 2.875,1.34315 2.875,3z" fill="#ffffff" stroke="#610000" stroke-linecap="butt"/><path d="M224.07323,186.8263c0,1.51878 -1.28718,2.75 -2.875,2.75c-1.58782,0 -2.875,-1.23122 -2.875,-2.75c0,-1.51878 1.28718,-2.75 2.875,-2.75c1.58782,0 2.875,1.23122 2.875,2.75z" fill="#3e1b73" stroke="#610000" stroke-linecap="butt"/><path d="M224.32323,192.0763c0,1.24264 -1.00736,2.25 -2.25,2.25c-1.24264,0 -2.25,-1.00736 -2.25,-2.25c0,-1.24264 1.00736,-2.25 2.25,-2.25c1.24264,0 2.25,1.00736 2.25,2.25z" fill="#ffffff" stroke="#610000" stroke-linecap="butt"/><path d="M198.07322,173.40129c0.58287,0 1.96661,0.03576 3.74481,0.11564c5.45902,0.24523 14.63567,0.90633 15.77089,2.22538c1.3856,1.60998 0.2343,5.27636 0.2343,7.65898c0,4.97056 0.80635,0.5 -3.75,0.5c-2.25126,0 -8.36699,0.09138 -11.95515,0.59611c-3.67397,0.51679 -6.79485,5.41854 -6.79485,2.90389c0,-4.97056 -1.80635,-14 2.75,-14z" fill="url(#color-2)" stroke="#6b6d87" stroke-linecap="butt"/><path d="M212.83461,175.6365c3.99257,1.54259 7.16444,3.25479 6.46779,5.05789c-0.69665,1.8031 -4.49801,2.01428 -8.49058,0.4717c0,0 -1.96978,-7.07217 2.02279,-5.52959z" fill="url(#color-3)" stroke="#610000" stroke-linecap="butt"/><path d="M211.60838,185.07622c3.26081,-2.7726 6.27906,-4.74302 7.5312,-3.2704c1.25214,1.47262 -0.3762,4.91405 -3.63701,7.68665c0,0 -7.155,-1.64365 -3.89419,-4.41625z" fill="url(#color-4)" stroke="#610000" stroke-linecap="butt"/></g><path d="M250.21066,192.65227c2.55311,3.26659 8.10474,4.37144 6.63359,8.2476c-1.01281,2.66851 -5.14077,3.85168 -7.58755,7.26469c-7.80976,0.07106 -13.01285,0.51677 -16.31395,-6.56137c0.26928,0.02882 6.76015,3.24889 6.96302,3.14654c1.67821,-0.8467 -0.75821,-2.45625 -0.85287,-4.17441c-0.06759,-1.2267 2.07197,-2.58533 3.12935,-3.41176c2.50193,-1.95547 6.51292,-6.4503 8.0284,-4.5113z" data-paper-data="{&quot;index&quot;:null}" fill="url(#color-5)" stroke="#0f0036" stroke-width="2" stroke-linecap="butt"/><path d="M231.73833,169.38388c3.67231,-2.01213 9.5988,-6.09092 12.5849,-6.09092c2.65539,0 9.79615,-0.86475 11.87441,1.09199c3.68506,3.46958 -1.54108,9.52197 -1.54108,16.40801c0,9.64122 9.54914,16.64822 3.26336,18.22019c-0.73564,0.18397 -15.82518,1.27981 -16.59669,1.27981c-3.80961,0 -7.155,-2.95781 -10.98292,-6.68421c-3.57127,-3.47657 -7.77852,-7.53572 -7.35041,-12.81579c0.52731,-6.50346 3.36473,-8.45925 8.74843,-11.40908z" fill="#8588ff" stroke="#7470b6" stroke-width="2" stroke-linecap="butt"/><path d="M252.25,198.92711c-13.73551,0.76972 -9.9451,-26.26828 -5.76859,-33.57581c0.47464,-0.83047 3.24886,-2.63612 3.62202,-2.65703c10.08057,-0.5649 26.73432,2.52833 27.72557,18.42479c0.05174,0.82974 -0.54402,6.17137 -2.6701,7.22023c-3.60189,1.77691 -9.62329,-0.66312 -9.98874,0.67552c-0.19394,0.71042 0.94224,3.00182 1.74021,3.57737c2.5021,1.80468 7.23356,-0.20753 5.86698,1.75549c-4.07539,5.85404 -8.78749,5.16283 -13.44786,5.25643z" fill="url(#color-6)" stroke="#58493d" stroke-width="2" stroke-linecap="butt"/><g stroke="none" stroke-width="0" stroke-linecap="butt"><path d="M252.54146,180.24221c-0.48447,-3.22737 4.86246,-7.76591 6.82779,-7.76591c3.95804,0 7.16667,1.09915 7.16667,5.33333c0,4.23419 -3.20863,7.66667 -7.16667,7.66667c-3.95804,0 -6.33658,-1.96177 -6.82779,-5.23409z" fill="#ffffff"/><path d="M260.64703,184.92074c-4.97335,0 -4.97334,-11.33333 0.00001,-11.33333c4.95757,0 4.95757,11.33333 0,11.33333z" data-paper-data="{&quot;index&quot;:null}" fill="url(#color-7)"/><path d="M269.86925,158.80963z" fill="#8effff"/><path d="M245.82635,177.60726c0,0 9.79316,-6.4643 11.32067,-6.4643c3.43071,0 8.58462,-0.18673 10.2787,2.62201c0.98764,1.63748 -0.44537,4.37799 -0.44537,4.37799c0,0 -0.95292,-3.62421 -2.70475,-4.35289c-1.82907,-0.76081 -6.44123,-0.88623 -8.33166,0.87738c-3.4205,3.19105 -3.74137,5.69774 -3.74137,5.69774z" fill="#350000"/></g><path d="M238.69382,164.69427c1.36498,-1.3026 7.90535,-4.74789 11.20296,-6.41391c4.0287,-0.01328 9.6538,-0.02837 14.68701,-0.43659c2.02994,0.60621 3.86516,1.35457 5.63198,2.11325c-0.65617,-0.11549 -1.29072,-0.23352 -1.88504,-0.34905c3.11313,1.37346 5.50291,3.78978 6.14189,4.22162c0.46056,0.31125 -7.80597,-2.93313 -10.62556,-2.41789c-2.26177,0.41331 1.02186,1.19899 1.14944,2.03769c0.09109,0.5988 -2.79246,1.262 -4.21752,1.66541z" data-paper-data="{&quot;index&quot;:null}" fill="url(#color-8)" stroke="#0f0036" stroke-width="2" stroke-linecap="butt"/><path d="M241.9787,195.9109c0,0.28738 1.38567,0.6528 1.38567,0.6528c0,0 -1.26452,0.01782 -1.25949,0.24446c0.01168,0.52574 0.88806,1.71771 0.88806,1.71771c0,0 -1.2093,-1.40614 -1.38344,-1.2243c-0.419,0.43751 -0.40355,1.32751 -0.40355,1.32751c0,0 -0.3255,-1.18179 -0.54595,-1.28617c-0.05998,-0.0284 -0.73917,1.12292 -0.73917,1.12292c0,0 0.35752,-1.04819 0.14144,-1.39839c-0.22819,-0.36984 -0.98534,0.41615 -0.98534,0.41615c0,0 0.72662,-1.23076 0.72662,-1.33937c0,-0.16335 -1.08102,-0.86919 -1.08102,-0.86919c0,0 0.9935,0.28321 1.6065,-0.13657c0.45727,-0.31314 0.74336,-1.08245 0.74336,-1.08245c0,0 -0.12658,0.93868 0.12629,1.39805c0.07692,0.13974 1.29362,-0.931 1.29362,-0.931c0,0 -0.51359,1.2298 -0.51359,1.38785z" fill="#ffffff" stroke="none" stroke-width="0" stroke-linecap="butt"/><path d="M241.57323,191.8513l-11.75,1.25" fill="none" stroke="#7470b6" stroke-width="2" stroke-linecap="round"/><path d="M230.32323,188.8263c0,-0.55228 0.44772,-1 1,-1c0.55228,0 1,0.44772 1,1c0,0.55228 -0.44772,1 -1,1c-0.55228,0 -1,-0.44772 -1,-1z" fill="#ff4de4" stroke="none" stroke-width="0.5" stroke-linecap="butt"/><path d="M235.32323,188.8263c0,-0.55228 0.44772,-1 1,-1c0.55228,0 1,0.44772 1,1c0,0.55228 -0.44772,1 -1,1c-0.55228,0 -1,-0.44772 -1,-1z" fill="#ff4de4" stroke="none" stroke-width="0.5" stroke-linecap="butt"/><path d="M239.82323,188.8263c0,-0.55228 0.44772,-1 1,-1c0.55228,0 1,0.44772 1,1c0,0.55228 -0.44772,1 -1,1c-0.55228,0 -1,-0.44772 -1,-1z" fill="#ff4de4" stroke="none" stroke-width="0.5" stroke-linecap="butt"/><g stroke-linecap="butt"><path d="M235.49664,180.43782c6.8239,0 11.40532,5.62868 11.40532,7.91982c0,4.27564 -6.96808,4.14848 -12.35576,4.14848c-1.25741,0 -2.76885,0.29155 -4.34101,0.68504c-0.21137,-2.94681 -2.25637,-2.37758 -4.8999,-3.34016c-3.88655,-1.4152 -2.83696,-5.87614 -2.51225,-9.99956c0.0301,-0.17262 0.06664,-0.3957 0.1105,-0.65614c5.66194,0.6134 11.10563,1.24253 12.59311,1.24253z" data-paper-data="{&quot;index&quot;:null}" fill="#fb9de5" stroke="#8d5981" stroke-width="2"/><path d="M208.70456,177.94453c1.02816,-0.31898 6.3599,0.1595 12.08258,0.76047c-0.31233,0.75334 -0.60368,1.51354 -0.87663,2.29734c-0.28311,0.813 -0.01658,1.67428 -0.44254,2.4118c-0.19684,1.70727 -0.43203,3.26976 -0.43205,5.02204c0,0.28314 -0.12431,1.54525 0.11336,1.70936c0.5609,0.38729 2.91026,-0.26565 3.89509,0.30739c1.30703,0.06764 2.40176,2.69137 3.20862,3.79304c-2.42405,0.66412 -4.52293,1.11855 -5.49546,0.57737c0,0 -5.63223,-2.34974 -8.5819,-5.93018c-3.72348,-4.51971 -4.83411,-10.52572 -3.47105,-10.94862z" data-paper-data="{&quot;index&quot;:null}" fill="#9c5c52" stroke="#8d5981" stroke-width="2"/><path d="M223.0078,178.94169c-0.4229,2.50246 0.10195,6.22379 0.10195,6.22379c0,0 -0.04879,1.98261 1.5276,3.42822c1.3796,1.26514 4.29206,1.92091 5.74795,3.10508c0.05563,0.04524 -0.00158,0.87746 -0.03757,1.40918c-1.20687,0.31384 -2.43821,0.67632 -3.6082,1.00328l-0.02001,-0.07728c-0.97549,-1.21439 -2.84812,-2.49257 -4.44194,-2.74829c-1.36404,-0.77901 -2.74169,-1.27868 -2.74167,-2.8495c0.00002,-1.69886 0.25255,-3.21481 0.40797,-4.86875c0.38058,-0.67721 -1.18917,-4.10775 -0.76543,-5.05198c0.60795,0.06422 3.21928,0.36041 3.82935,0.42624z" data-paper-data="{&quot;index&quot;:null}" fill="#fdcfd8" stroke="#8d5981" stroke-width="2"/><path d="M238.49424,186.4513c0,0 -1.95875,2 -4.375,2c-2.41625,0 -4.375,-2 -4.375,-2c0,0 1.95875,-2 4.375,-2c2.41625,0 4.375,2 4.375,2z" fill="#9c5c52" stroke="#fdcfd8" stroke-width="1.5"/></g><g stroke-width="2" stroke-linecap="butt"><path d="M240.4913,156.83109c7.51361,-0.4761 -12.38499,8.23873 -17.11323,16.47469c-1.71468,2.98675 -4.43615,-3.24874 -6.96844,-2.75979c-3.14756,0.60775 -6.00026,7.17129 -6.23381,2.80045c-0.45739,-8.55982 23.0597,-16.05558 30.31548,-16.51535z" fill="#ff93bc" stroke="#79465a"/><path d="M236.4962,159.17177c6.35161,-4.39688 -7.1393,13.75977 -7.59046,23.46035c-0.16361,3.51789 -5.32717,-0.48788 -7.32107,1.28098c-2.47836,2.19864 -2.03814,9.44438 -4.19502,5.7495c-4.22401,-7.23603 12.97289,-26.24482 19.10655,-30.49083z" fill="#ff93bc" stroke="#79465a"/><path d="M263.56181,157.19098c-0.09792,2.08393 -0.15257,4.36482 -3.57935,5.4262c-2.75728,0.85402 -8.90188,2.64075 -12.73158,2.42735c-4.06638,-0.22658 -9.56551,-1.49824 -12.28406,-2.77131c-3.02375,-1.416 -2.60266,-4.83514 -2.50961,-6.81543c0.1767,-3.76071 8.61255,-12.59557 15.77529,-3.87933c0.77027,0.93734 4.0585,-0.90499 6.81968,-1.55083c2.10045,-0.4913 3.68681,0.22113 4.84814,0.39174c4.293,0.63071 3.77014,4.45894 3.66147,6.77161z" fill="#edf0ff" stroke="#707279"/><path d="M262.94424,161.27489c0,1.08828 -7.94764,5.31438 -16.6693,5.31438c-8.72167,0 -14.91464,-6.13688 -14.91464,-7.22516c0,-1.08828 7.0703,3.28416 15.79197,3.28416c8.72167,0 15.79197,-2.46166 15.79197,-1.37338z" fill="#ff93bc" stroke="#79465a"/></g><g stroke-linecap="butt"><path d="M253.52682,172.88456c-1.40909,-1.04217 -5.19316,-6.2346 -5.0262,-6.39789c1.42211,-1.39084 5.61898,0.27295 10.36861,0.27295c5.93706,0 12.58333,2.90033 12.58333,4.83333c0,1.933 -6.64627,2.16667 -12.58333,2.16667c0,0 -3.75094,0.302 -5.34241,-0.87506z" fill="#8c3fff" stroke="#32175b" stroke-width="2"/><g><path d="M282.1283,175.98931c-0.07955,0.70924 -0.48453,3.04282 -0.55292,4.00064c-0.24426,3.42057 -1.63333,6.61863 -4.18807,7.20399c-4.17209,0.95594 -7.3725,-6.43092 -8.35928,-10.73759c-0.98678,-4.30668 -10.13838,-14.26263 -5.96629,-15.21857c1.30111,-0.29812 4.28769,1.68351 5.84786,1.54494c0.60352,-0.0536 2.07141,-5.22225 2.73399,-4.94079c1.64356,0.69816 2.62342,7.51485 4.54239,8.65497c0.48763,0.28972 1.35883,0.66987 2.36297,1.09222c0.9574,1.83322 2.60095,3.41169 3.10276,5.60176c0.17299,0.74294 0.43579,1.45982 0.71021,2.17745c-0.13109,0.2591 -0.21708,0.47338 -0.23363,0.62096z" fill="#edf0ff" stroke="#6f7077" stroke-width="2"/><path d="M284.66457,170.82176c0.15493,0.67616 -1.19983,2.62388 -1.99171,3.98222c-0.21077,-0.56906 -0.4023,-1.14021 -0.53378,-1.72476c-0.46029,-2.00887 -1.91544,-3.53426 -2.88393,-5.19452c2.41839,1.00964 5.23689,2.1841 5.40941,2.93707z" fill="#8b3ffd" stroke="#3d1c6f" stroke-width="2"/><path d="M275.24606,170.73988c-0.45951,0.10529 -0.75204,-0.05568 -0.93289,-0.25527c-1.78226,-0.27977 -3.30678,0.53693 -5.06444,0.94548c0,0 -0.97474,0.22334 -1.19808,-0.7514c-0.22334,-0.97474 0.7514,-1.19808 0.7514,-1.19808c2.27824,-0.51311 4.02768,-1.40877 6.41961,-0.84964l0.77581,0.91083c0,0 0.22334,0.97474 -0.7514,1.19808z" fill="#8b3ffd" stroke="none" stroke-width="0.5"/><path d="M276.93783,173.21996c0.56938,0.82208 -0.2527,1.39145 -0.2527,1.39145l-1.08387,0.66369c-0.85639,0.15842 -1.79476,0.03208 -2.59377,-0.31445c0,0 -0.90066,-0.43452 -0.46615,-1.33518c0.43452,-0.90066 1.33518,-0.46615 1.33518,-0.46615c0.37155,0.21567 0.86884,0.29707 1.27806,0.16629l0.3918,-0.35837c0,0 0.82208,-0.56938 1.39145,0.2527z" fill="#8b3ffd" stroke="none" stroke-width="0.5"/></g></g></g></g></svg>