<svg version="1.1" xmlns="http://www.w3.org/2000/svg" xmlns:xlink="http://www.w3.org/1999/xlink" width="159.15916" height="123.12312" viewBox="0,0,159.15916,123.12312"><g transform="translate(-158.66701,-111.6753)"><g data-paper-data="{&quot;isPaintingLayer&quot;:true}" stroke-miterlimit="10" stroke-dasharray="" stroke-dashoffset="0" style="mix-blend-mode: normal"><path d="M158.66701,234.79842v-123.12312h159.15916v123.12312z" fill="#4c92ff" fill-rule="nonzero" stroke="none" stroke-width="NaN" stroke-linecap="butt" stroke-linejoin="miter"/><path d="M224.27973,206.27072l-0.1163,0.46597c-0.1163,0.46598 0.28816,0.94546 0.80892,0.95896c3.3984,-0.43301 10.03089,-0.99063 8.76587,5.59461c-1.15547,6.37964 -21.0732,8.83364 -22.57627,2.48932c-0.39848,-2.72008 1.2523,-4.08426 2.15649,-4.79038c0.47949,-0.40446 0.75335,-0.91846 0.92442,-1.48725c0.24609,-1.45272 0.62875,-4.15255 0.63473,-6.39315c0.04255,-2.55416 2.4035,-6.27826 4.74256,-6.30964c2.81271,-0.03773 5.61899,4.28992 4.6596,9.47156z" fill="#ffffff" fill-rule="evenodd" stroke="#ffffff" stroke-width="1.2" stroke-linecap="round" stroke-linejoin="round"/><path d="M210.96299,205.31335l-0.44884,0.17088c-0.44884,0.17088 -0.61115,0.7768 -0.32462,1.21184c2.29754,2.54126 6.54564,7.66518 0.41884,10.39062c-5.89548,2.69784 -19.29234,-12.24412 -14.94521,-17.10338c2.00436,-1.88154 4.06725,-1.30655 5.16342,-0.96811c0.60592,0.16231 1.18422,0.09329 1.74874,-0.09139c1.33274,-0.6283 3.7669,-1.85726 5.60894,-3.13287c2.12023,-1.42479 6.52555,-1.61577 7.88808,0.28572c1.63844,2.28653 -0.309,7.06265 -5.10933,9.23671z" fill="#ffffff" fill-rule="evenodd" stroke="#ffffff" stroke-width="1.2" stroke-linecap="round" stroke-linejoin="round"/><g fill="#ffffff" fill-rule="evenodd" stroke="#ffffff"><path d="M215.18588,192.6708c0.86091,0.24258 -1.77636,3.11112 -3.49484,6.90148c-1.71848,3.79036 -12.68671,6.83107 -17.07495,6.24507c-12.73426,-1.63668 -16.94425,-8.37979 -12.66815,-15.99458c4.21528,-7.50648 5.47132,-21.39564 11.79397,-17.61622c2.77059,1.70992 20.46606,20.14225 21.44397,20.46426z" stroke-width="1.2" stroke-linecap="round" stroke-linejoin="round"/><path d="M191.88095,172.15751c6.05758,2.06107 6.44134,5.79436 6.44134,5.79436c0,0 -8.31018,18.70177 -10.0534,20.76604c-1.42549,1.59624 -0.83913,4.1348 -0.51118,4.78476c-1.52108,-1.03261 -4.46553,-1.13693 -6.10529,-4.38672c-0.82979,-1.64454 -1.30158,-4.1719 -0.7331,-6.16187c0.55489,-1.94244 2.13659,-3.35557 2.466,-4.33296c4.48404,-13.30427 5.84317,-17.3661 8.49563,-16.46361z" stroke-width="1" stroke-linecap="butt" stroke-linejoin="miter"/></g><path d="M232.66591,191.59489c5.74576,-1.35468 12.21747,1.599 16.24519,5.04754c3.61001,3.09089 -4.83032,5.36511 -7.03216,7.77589c-3.09669,3.03641 -10.18369,4.11264 -14.72031,2.08046c-3.37601,-1.51228 -4.75571,-5.7594 -5.13954,-6.8002c-0.31426,-0.95592 -0.41064,-3.94639 1.19864,-5.21327c2.8716,-2.26062 7.99105,-2.54687 9.44818,-2.89042z" fill="#ffffff" fill-rule="evenodd" stroke="#ffffff" stroke-width="1.2" stroke-linecap="round" stroke-linejoin="round"/><path d="M210.62937,184.74484c0,0 4.77217,-9.16892 6.65764,-12.04764c0.95439,-1.45716 3.91414,-4.09326 3.91414,-4.09326l7.11369,7.84497z" fill="#ffffff" fill-rule="nonzero" stroke="#ffffff" stroke-width="1.2" stroke-linecap="round" stroke-linejoin="miter"/><g fill="#ffffff" fill-rule="evenodd" stroke="#ffffff"><path d="M203.65992,194.63486c0.26377,-9.18126 14.24946,-12.10643 19.8992,-15.4905c6.123,-3.38082 6.93669,-1.57456 13.65961,4.27609c3.93963,3.08768 6.25282,4.91141 9.10784,6.3736c4.24642,2.25652 0.02127,7.89482 -2.92246,10.40719c0,0 -4.44274,3.6692 -7.45916,5.13376c-3.68474,1.75389 -5.07035,2.1148 -8.45364,3.05657c-11.96822,3.33151 -14.91631,-3.80595 -14.91631,-3.80595c0,0 -8.97257,-7.94912 -8.91507,-9.95077z" stroke-width="1.2" stroke-linecap="round" stroke-linejoin="round"/><path d="M226.4251,207.61517c0,0 -1.03082,-2.60108 -1.97149,-5.65385c-1.22999,-3.72109 -2.67663,-7.06271 2.09178,-9.53969c4.00994,-1.73596 8.47109,-4.55606 12.06903,2.36174c3.48938,6.52039 -0.71927,8.31064 -0.71927,8.31064c-6.03237,4.10342 -11.47005,4.52114 -11.47005,4.52114z" stroke-width="1" stroke-linecap="butt" stroke-linejoin="miter"/></g><g fill="#ffffff" fill-rule="evenodd" stroke="#ffffff"><path d="M267.80082,136.25364c0.3,-0.2 0.8,-0.1 0.9,0.3l2.6,10.7c0,0 6.4,4.7 8.3,8c3.2,5.5 3.3,10 3.3,10c0,0 7.1,2.1 8.3,7.8c1.2,5.7 -3.2,16.5 -22,20.2c-18.8,3.7 -33.9,-1.4 -41,-12.8c-7.1,-11.4 4.1,-25 3.5,-24.2l-2.1,-17.9c-0.1,-0.4 0.4,-0.7 0.8,-0.5l12.1,7.9c0,0 4.5,-1.7 9.2,-1.9c2.8,-0.2 5.2,0 7.5,0.4z" stroke-width="1.2" stroke-linecap="butt" stroke-linejoin="miter"/><path d="M282.60082,165.65364c0,0 6.9,1.8 8.1,7.5c1.2,5.7 -3.6,16 -22.2,19.6c-24.2,5 -35.7,-9.4 -29,-20c6.7,-10.7 18.2,-1.6 26.6,-2.2c7.2,-0.5 8,-6.8 16.5,-4.9z" stroke-width="1" stroke-linecap="butt" stroke-linejoin="miter"/><path d="M251.10082,176.35364c0,-0.4 0.4,-0.7 0.8,-0.6c1.9,0.7 7.3,2.3 13.3,2.7c5.4,0.3 8.6,0 10.1,-0.3c0.5,-0.1 0.9,0.4 0.7,0.9c-0.9,2.7 -4.7,10.2 -15.2,9.6c-9.1,-1 -10,-7.4 -9.7,-12.3z" stroke-width="1.2" stroke-linecap="round" stroke-linejoin="round"/><path d="M301.00082,166.75364c-4.7,3.8 -11.9,3.9 -11.9,3.9" stroke-width="1.2" stroke-linecap="round" stroke-linejoin="round"/><path d="M299.70082,177.95364c-6.3,0.5 -10.2,-1.4 -10.2,-1.4" stroke-width="1.2" stroke-linecap="round" stroke-linejoin="round"/><path d="M265.70082,167.95364c2.1,0 4.3,0.2 4.4,0.9c0.1,1.4 -1.4,4.2 -3,4.3c-1.8,0.2 -6,-2.3 -6,-3.9c-0.1,-1.2 2.6,-1.3 4.6,-1.3z" stroke-width="1.2" stroke-linecap="round" stroke-linejoin="round"/><path d="M220.70082,166.45364c0,0 8.6,2.8 12.1,5.9" stroke-width="1.2" stroke-linecap="round" stroke-linejoin="round"/><path d="M233.10082,175.85364c-4.3,1.7 -11.7,0.6 -11.7,0.6" stroke-width="1.2" stroke-linecap="round" stroke-linejoin="round"/><g><path d="M277.50082,156.25364c2.9,4.5 3,9.6 0.2,11.4c-2.8,1.8 -7.4,-0.3 -10.4,-4.8c-2.9,-4.5 -3,-9.6 -0.2,-11.4c2.8,-1.9 7.5,0.3 10.4,4.8z" stroke-width="1.2" stroke-linecap="round" stroke-linejoin="round"/><path d="M277.10082,161.95364c0,1.1 -0.8,2 -1.8,2c-1,0 -1.8,-0.9 -1.8,-2c0,-1.1 0.8,-2 1.8,-2c1,0 1.8,0.9 1.8,2" stroke-width="1" stroke-linecap="butt" stroke-linejoin="miter"/></g><g><path d="M252.70082,159.05364c3,4.4 2.8,9.8 0.1,11.7c-3.3,1.9 -7.7,0.5 -10.7,-3.9c-3.1,-4.4 -3.3,-10.1 -0.2,-12.3c3.1,-2.3 7.8,0.1 10.8,4.5z" stroke-width="1.2" stroke-linecap="round" stroke-linejoin="round"/><path d="M252.10082,164.85364c0,1.1 -0.8,2 -1.8,2c-1,0 -1.8,-0.9 -1.8,-2c0,-1.1 0.8,-2 1.8,-2c1,0.1 1.8,0.9 1.8,2" stroke-width="1" stroke-linecap="butt" stroke-linejoin="miter"/></g></g><path d="M216.22302,187.78096c5.74576,-1.35468 12.21747,1.59899 16.24519,5.04753c3.61001,3.09089 -4.83032,5.36511 -7.03216,7.77589c-3.09669,3.03641 -10.18369,4.11264 -14.72031,2.08046c-3.37601,-1.51228 -4.75571,-5.7594 -5.13954,-6.8002c-0.31426,-0.95592 -0.41064,-3.94639 1.19864,-5.21327c2.8716,-2.26062 7.99105,-2.54687 9.44818,-2.89041z" fill="#ffffff" fill-rule="evenodd" stroke="#ffffff" stroke-width="1.2" stroke-linecap="round" stroke-linejoin="round"/></g></g></svg>