<svg version="1.1" xmlns="http://www.w3.org/2000/svg" xmlns:xlink="http://www.w3.org/1999/xlink" width="88.58894" height="39.80596" viewBox="0,0,88.58894,39.80596"><defs><linearGradient x1="215.9203" y1="173.32985" x2="198.31405" y2="190.9361" gradientUnits="userSpaceOnUse" id="color-1"><stop offset="0" stop-color="#e38888"/><stop offset="1" stop-color="#bf7967"/></linearGradient><linearGradient x1="250.92831" y1="164.78617" x2="239.34441" y2="176.37008" gradientUnits="userSpaceOnUse" id="color-2"><stop offset="0" stop-color="#e38888"/><stop offset="1" stop-color="#bf7967"/></linearGradient><linearGradient x1="265.8136" y1="164.56499" x2="228.5659" y2="201.8127" gradientUnits="userSpaceOnUse" id="color-3"><stop offset="0" stop-color="#be67bf"/><stop offset="1" stop-color="#d69422"/></linearGradient><linearGradient x1="250.32701" y1="180.63815" x2="237.01287" y2="193.95228" gradientUnits="userSpaceOnUse" id="color-4"><stop offset="0" stop-color="#e38888"/><stop offset="1" stop-color="#bf7967"/></linearGradient></defs><g transform="translate(-195.518,-159.60476)"><g data-paper-data="{&quot;isPaintingLayer&quot;:true}" fill-rule="nonzero" stroke-linejoin="miter" stroke-miterlimit="10" stroke-dasharray="" stroke-dashoffset="0" style="mix-blend-mode: normal"><path d="M214.53328,189.01881l-7.32711,6.35512l-9.60708,-5.1528l7.23722,-7.17034l-4.57215,-8.3667l6.15893,-5.57237l12.61114,7.33206z" data-paper-data="{&quot;index&quot;:null}" fill="url(#color-1)" stroke="#873e3e" stroke-width="2.5" stroke-linecap="butt"/><path d="M239.34441,176.37008l-0.00001,-14.51673l5.95194,3.69903l7.97823,-1.04496l0.58656,11.86266z" data-paper-data="{&quot;index&quot;:null}" fill="url(#color-2)" stroke="#873e3e" stroke-width="2.5" stroke-linecap="butt"/><path d="M224.89985,198.14665l-13.78427,-13.78427l13.78427,-13.78426l47.97145,1.27297l9.52961,10.99621l-14.09526,14.12624z" data-paper-data="{&quot;index&quot;:null}" fill="url(#color-3)" stroke="#873e3e" stroke-width="2.5" stroke-linecap="butt"/><path d="M233.68434,190.62376l-4.5,-3.40917l4.5,-3.2479l5.50315,-0.00001l2.875,-2.625l3.125,2.625h8.46805l-0.00001,6.65707z" data-paper-data="{&quot;index&quot;:null}" fill="url(#color-4)" stroke="#873e3e" stroke-width="2.5" stroke-linecap="butt"/><path d="M269.99204,179.15663c-0.60739,0.6074 -1.5922,0.60741 -2.19961,0c-0.60741,-0.6074 -0.6074,-1.59221 0,-2.19961c0.60739,-0.6074 1.5922,-0.60741 2.19961,0c0.60741,0.6074 0.6074,1.59221 0,2.19961z" data-paper-data="{&quot;index&quot;:null}" fill="#000000" stroke="none" stroke-width="0.5" stroke-linecap="butt"/><path d="M266.22823,186.45584c0,0 -0.23788,-2.38672 5.38859,-4.34496c4.81595,-1.67614 8.24904,-1.37404 8.24904,-1.37404" data-paper-data="{&quot;index&quot;:null}" fill="none" stroke="#873e3e" stroke-width="2.5" stroke-linecap="round"/><path d="M265.5625,176.33958l4.75,0.5" data-paper-data="{&quot;index&quot;:null}" fill="none" stroke="#000000" stroke-width="1.5" stroke-linecap="round"/></g></g></svg>