<svg version="1.1" xmlns="http://www.w3.org/2000/svg" xmlns:xlink="http://www.w3.org/1999/xlink" width="80.7365" height="61.29848" viewBox="0,0,80.7365,61.29848"><g transform="translate(-199.32051,-149.3448)"><g data-paper-data="{&quot;isPaintingLayer&quot;:true}" fill-rule="nonzero" stroke-linecap="butt" stroke-linejoin="miter" stroke-miterlimit="10" stroke-dasharray="" stroke-dashoffset="0" style="mix-blend-mode: normal"><path d="M202.45199,204.98997c0,0 9.28412,-7.47955 9,-14.17929c-0.28265,-6.66499 -9,-14.98713 -9,-14.98713c0,0 30.07788,0.10893 30.07788,13.36794c0,13.25901 -30.07788,15.79849 -30.07788,15.79849z" data-paper-data="{&quot;index&quot;:null}" fill="#6e624d" stroke="#594b2e" stroke-width="2.5"/><path d="M229.37325,187.49921l-9.25568,-10.06054l9.25569,-12.47505h24.95011l21.89675,19.20836c0,0 -7.05258,-0.81732 -10.7009,-0.32448c-4.09819,0.55361 -11.19585,3.6517 -11.19585,3.6517z" data-paper-data="{&quot;index&quot;:null}" fill="#6e624d" stroke="#594b2e" stroke-width="2.5"/><path d="M230.41719,209.39328l-9.25568,-10.06054l9.2557,-12.47505h24.9501c0,0 6.44808,-2.33805 9.64912,-2.85215c5.90832,-0.94889 12.53159,1.84755 12.53159,1.84755l-22.18071,23.54019z" data-paper-data="{&quot;index&quot;:null}" fill="#6e624d" stroke="#594b2e" stroke-width="2.5"/><path d="M264.73447,181.01925c-0.856,0 -1.54991,-0.69392 -1.54991,-1.54991c0,-0.856 0.86058,-0.71658 1.71658,-0.71658c0.856,0 1.38325,-0.13942 1.38325,0.71658c0,0.856 -0.69392,1.54991 -1.54991,1.54991z" data-paper-data="{&quot;index&quot;:null}" fill="#000000" stroke="none" stroke-width="0.5"/><path d="M257.44286,181.9307c-0.856,0 -1.54991,-0.69392 -1.54991,-1.54991c0,-0.856 0.69392,-0.54991 1.54991,-0.54991c0.856,0 1.54991,-0.30608 1.54991,0.54991c0,0.856 -0.69392,1.54991 -1.54991,1.54991z" data-paper-data="{&quot;index&quot;:null}" fill="#000000" stroke="none" stroke-width="0.5"/><path d="M228.77672,178.55788c9.45571,0 17.1211,2.92449 17.1211,6.53206c0,3.60755 -7.66538,6.53206 -17.1211,6.53206c-9.45574,0 -0.11357,-2.75782 -0.11357,-6.3654c0,-3.60757 -9.34214,-6.69872 0.11357,-6.69872z" data-paper-data="{&quot;index&quot;:null}" fill="#6e624d" stroke="#594b2e" stroke-width="2.5"/><path d="M234.04896,163.97467l-8.20307,-13.06413l23.39391,-0.30382l4.25344,13.36795z" data-paper-data="{&quot;index&quot;:null}" fill="#6e624d" stroke="#594b2e" stroke-width="2.5"/></g></g></svg>