<svg version="1.1" xmlns="http://www.w3.org/2000/svg" xmlns:xlink="http://www.w3.org/1999/xlink" width="96.54511" height="67.94457" viewBox="0,0,96.54511,67.94457"><g transform="translate(-191.47596,-146.00631)"><g data-paper-data="{&quot;isPaintingLayer&quot;:true}" fill-rule="nonzero" stroke-linejoin="miter" stroke-miterlimit="10" stroke-dasharray="" stroke-dashoffset="0" style="mix-blend-mode: normal"><path d="M253.25,178.35436l12.06,-1.22936l13.17666,-13.52293l8.26334,3.68807l-1.11667,43.33486l-6.03,-2.45872l-12.50667,-11.06422h-12.73z" fill="#704b42" stroke="#000000" stroke-width="2.5" stroke-linecap="round"/><path d="M193.25,181.39276l7.75,-20.325l41.5,-2.19277l23,15.42008l-8.75,31.72131l-34.75,6.60861l-25.75,-17.84324l15.5,-6.042l0.75,-6.1728z" fill="#785b54" stroke="#000000" stroke-width="2.5" stroke-linecap="round"/><path d="M213.41234,161.43994l9.62338,-13.13961l26.46428,-0.92532l-15.73052,14.25z" fill="#704b42" stroke="#000000" stroke-width="2.5" stroke-linecap="round"/><path d="M201.25,174.125c0,-1.933 1.567,-3.5 3.5,-3.5c1.933,0 3.5,1.567 3.5,3.5c0,1.933 -1.567,3.5 -3.5,3.5c-1.933,0 -3.5,-1.567 -3.5,-3.5z" fill="#000000" stroke="none" stroke-width="0.5" stroke-linecap="butt"/><path d="M253.83,168.74769l1.29415,1.19576c1.75368,2.7157 2.52865,3.05369 2.44854,6.519c-0.21877,9.46347 -12.14451,10.31117 -17.77701,4.8096c-1.33658,-1.30551 -2.8801,-2.59476 -3.54696,-4.34006c-1.31549,-3.44285 1.92987,-9.55943 5.08753,-10.97717c3.0249,-1.35813 4.85104,0.00761 7.35894,1.12545c0,0 0.45066,0.21184 0.85517,0.64756c0.54982,0.21205 1.09964,0.42411 1.64946,0.63617c1.33587,-0.67238 2.63017,0.3837 2.63017,0.3837z" fill="#704b42" stroke="none" stroke-width="0.5" stroke-linecap="butt"/><path d="M228.85626,194.53609l1.24915,0.57198c1.95853,1.58674 2.6148,1.64911 3.39641,4.23633c2.13451,7.06547 -6.49668,10.58779 -12.00547,7.87805c-1.30722,-0.64301 -2.76384,-1.22375 -3.68154,-2.35517c-1.81029,-2.23189 -0.88988,-7.55184 1.10586,-9.36868c1.91184,-1.74046 3.59645,-1.17162 5.72607,-0.95193c0,0 0.38535,0.0476 0.79083,0.2723c0.45888,0.0237 0.91775,0.0474 1.37663,0.0711c0.8267,-0.82243 2.04206,-0.35398 2.04206,-0.35398z" fill="#704b42" stroke="none" stroke-width="0.5" stroke-linecap="butt"/><path d="M222.85626,163.53608l1.24915,0.57198c1.95853,1.58674 2.6148,1.64911 3.39641,4.23633c2.13451,7.06547 -6.49668,10.58779 -12.00547,7.87805c-1.30722,-0.64301 -2.76384,-1.22375 -3.68154,-2.35517c-1.81029,-2.23189 -0.88988,-7.55184 1.10586,-9.36868c1.91184,-1.74046 3.59645,-1.17162 5.72607,-0.95193c0,0 0.38535,0.0476 0.79083,0.2723c0.45888,0.0237 0.91775,0.0474 1.37663,0.0711c0.8267,-0.82243 2.04206,-0.35398 2.04206,-0.35398z" fill="#704b42" stroke="none" stroke-width="0.5" stroke-linecap="butt"/><path d="M247.85626,191.53609l1.24915,0.57198c1.95853,1.58674 2.6148,1.64911 3.39641,4.23633c2.13451,7.06547 -6.49668,10.58779 -12.00547,7.87805c-1.30722,-0.64301 -2.76384,-1.22375 -3.68154,-2.35517c-1.81029,-2.23189 -0.88988,-7.55184 1.10586,-9.36868c1.91184,-1.74046 3.59645,-1.17162 5.72607,-0.95193c0,0 0.38535,0.0476 0.79083,0.2723c0.45888,0.0237 0.91775,0.0474 1.37663,0.0711c0.8267,-0.82243 2.04206,-0.35398 2.04206,-0.35398z" fill="#704b42" stroke="none" stroke-width="0.5" stroke-linecap="butt"/><path d="M222.5,183.61479l18.59694,-10.79081l15.15306,1.37755l-8.26531,26.17347z" fill="#704b42" stroke="#000000" stroke-width="2.5" stroke-linecap="round"/></g></g></svg>