<svg version="1.1" xmlns="http://www.w3.org/2000/svg" xmlns:xlink="http://www.w3.org/1999/xlink" width="72.87425" height="68.19706" viewBox="0,0,72.87425,68.19706"><g transform="translate(-197.2857,-140.53432)"><g data-paper-data="{&quot;isPaintingLayer&quot;:true}" fill-rule="nonzero" stroke-linejoin="miter" stroke-miterlimit="10" stroke-dasharray="" stroke-dashoffset="0" style="mix-blend-mode: normal"><path d="M221.38261,165.21813l3.81305,-23.04537l5.59148,1.81892l-3.81305,23.04537z" fill="#773f14" stroke="#000000" stroke-width="2.5" stroke-linecap="butt"/><path d="M248.2621,180.8697c0,0 3.9671,0.52205 6.75276,-0.23338c1.19126,-0.32306 2.31458,-2.54225 4.24399,-3.28467c4.1597,-1.60062 9.52805,-2.04801 9.52805,-2.04801l-2.78302,32.17872c0,0 -6.65711,0.26399 -11.53818,-2.34944c-2.75021,-1.47252 -3.98683,-5.99547 -5.48222,-6.74887c-2.31749,-1.16758 -5.76561,-2.38166 -5.76561,-2.38166z" fill="#e0262f" stroke="#000000" stroke-width="2.5" stroke-linecap="round"/><path d="M198.68948,172.25807c1.52376,-13.10354 10.76387,-11.53892 13.04542,-11.96628c8.32832,-1.56001 13.3933,4.98595 13.3933,4.98595c0,0 2.78683,-4.57246 13.21937,-4.27367c5.69823,0.1632 13.54285,0.01954 15.82845,13.5333c1.83873,10.87164 -1.06409,22.38796 -7.47938,30.20062c-5.18002,6.30832 -20.69874,-1.13965 -20.69874,-1.13965c0,0 -2.49925,1.23317 -5.78433,2.26984c-4.58895,1.44813 -10.71136,2.51285 -13.69684,-0.70283c-1.40798,-1.51655 -6.16077,-11.0465 -2.21011,-13.71577c2.7483,-1.85689 4.45645,2.649 11.92947,0.90289c5.63438,-1.3165 3.17068,-6.85097 1.97133,-7.7436c-7.54099,-5.61243 -14.95033,-0.00646 -16.63022,-1.26935c-2.92344,-2.19777 -3.14219,-8.89305 -2.88771,-11.08145z" fill="#e0262f" stroke="#000000" stroke-width="2.5" stroke-linecap="round"/><path d="M202.97311,175.9994c0,-1.38071 1.11929,-2.5 2.5,-2.5c1.38071,0 2.5,1.11929 2.5,2.5c0,1.38071 -1.11929,2.5 -2.5,2.5c-1.38071,0 -2.5,-1.11929 -2.5,-2.5z" fill="#000000" stroke="none" stroke-width="0.5" stroke-linecap="butt"/><path d="M245.65302,183.30484c0,5.28351 -4.8672,9.56665 -10.87119,9.56665c-6.00399,0 -10.87119,-4.28313 -10.87119,-9.56665c0,-5.28351 4.8672,-9.56665 10.87119,-9.56665c6.00399,0 10.87119,4.28313 10.87119,9.56665z" fill="#e0262f" stroke="#000000" stroke-width="2.5" stroke-linecap="butt"/><path d="M236.57998,159.47711c-6.16668,0.80583 -8.57741,-6.08388 -8.57741,-6.08388c0,0 2.53218,-5.74096 8.57741,-5.74589c5.10149,-0.00416 8.7746,5.57689 8.7746,5.57689c0,0 -3.81275,5.60449 -8.7746,6.25288z" fill="#03b700" stroke="#000000" stroke-width="2.5" stroke-linecap="round"/></g></g></svg>