<svg version="1.1" xmlns="http://www.w3.org/2000/svg" xmlns:xlink="http://www.w3.org/1999/xlink" width="64.37264" height="65.33835" viewBox="0,0,64.37264,65.33835"><g transform="translate(-207.57405,-146.25759)"><g data-paper-data="{&quot;isPaintingLayer&quot;:true}" fill-rule="nonzero" stroke-linecap="butt" stroke-linejoin="miter" stroke-miterlimit="10" stroke-dasharray="" stroke-dashoffset="0" style="mix-blend-mode: normal"><path d="M231.46421,184.69721l13.233,-13.233l3.83858,3.83858l-13.233,13.233z" fill="#d8d8d8" stroke="#b8b8b8" stroke-width="1.5"/><path d="M255.45534,198.28376l-33.73909,-33.73909l2.82843,-2.82843l33.73909,33.73909z" fill="#896727" stroke="#654b1c" stroke-width="1.5"/><path d="M257.99111,210.11227l-2.72866,-15.20082l15.15067,3.66702z" fill="#d8d8d8" stroke="#b8b8b8" stroke-width="1.5"/><path d="M209.21392,148.13076l24.66951,14.97949l-10.87827,-0.51445l-2.57537,12.09541c0,0 -2.32252,-5.7182 -4.01801,-9.73331c-0.76123,-1.80269 2.91731,-0.43599 2.48486,-4.22695c-1.20785,-2.45454 -3.97636,0.63528 -4.63084,-0.91459c-1.84053,-4.35859 -5.05189,-11.68559 -5.05189,-11.68559z" fill="#d8d8d8" stroke="#b8b8b8" stroke-width="1.5"/><path d="M213.85715,154.73651c0,-0.67063 0.54366,-1.21429 1.21428,-1.21429c0.67063,0 1.21429,0.54366 1.21429,1.21429c0,0.67063 -0.54366,1.21428 -1.21429,1.21428c-0.67063,0 -1.21428,-0.54366 -1.21428,-1.21428z" fill="#000000" stroke="none" stroke-width="0"/></g></g></svg>