<svg version="1.1" xmlns="http://www.w3.org/2000/svg" xmlns:xlink="http://www.w3.org/1999/xlink" width="102.78546" height="122.96521" viewBox="0,0,102.78546,122.96521"><g transform="translate(-175.70163,-134.46858)"><g data-paper-data="{&quot;isPaintingLayer&quot;:true}" fill-rule="nonzero" stroke-linejoin="miter" stroke-miterlimit="10" stroke-dasharray="" stroke-dashoffset="0" style="mix-blend-mode: normal"><path d="M237.08482,231.64496c0,0 -4.32384,22.68194 -16.12828,23.28883c-12.26848,0.63075 -15.97454,-14.67098 -18.79592,-18.27333c-10.37348,-13.2449 -22.57555,9.82314 -22.57555,9.82314" fill="none" stroke="#808080" stroke-width="5" stroke-linecap="round"/><path d="M201.84304,164.15765l-21.02142,10.91496h20.2129z" fill="#0094ff" stroke="#004a7f" stroke-width="2.5" stroke-linecap="round"/><path d="M261.66161,172.19692c0,1.26911 0.06169,9.85457 2.54798,12.1959c4.75978,4.48227 13.46256,3.38076 12.94952,5.63336c-4.30232,18.89031 -19.71305,32.86945 -38.06462,32.86945c-21.68303,0 -39.26059,-19.51524 -39.26059,-43.58852c0,-24.07328 17.57756,-43.58852 39.26059,-43.58852c18.50617,0 34.02176,14.21567 38.17099,33.34791c0.71227,3.28433 -15.60387,-0.39663 -15.60387,3.13043z" fill="#0094ff" stroke="#004a7f" stroke-width="2.5" stroke-linecap="butt"/><path d="M222.55531,178.47314c0,7.68296 2.97573,13.91124 6.64648,13.91124c3.67075,0 6.64647,-6.22827 6.64647,-13.91124c0,-7.68296 -2.97572,-13.91123 -6.64647,-13.91123c-3.67075,0 -6.64648,6.22827 -6.64648,13.91123z" fill="#0094ff" stroke="#004a7f" stroke-width="2.5" stroke-linecap="butt"/><path d="M261.19762,160.23397c0,-1.87806 1.52247,-3.40052 3.40053,-3.40052c1.87806,0 3.40053,1.52246 3.40053,3.40052c0,1.87805 -1.52247,3.40053 -3.40053,3.40053c-1.87806,0 -3.40053,-1.52247 -3.40053,-3.40053z" fill="#000000" stroke="none" stroke-width="0" stroke-linecap="butt"/><path d="M238.63051,223.60736l-8.5013,6.33734h16.53891z" fill="#0094ff" stroke="#004a7f" stroke-width="2.5" stroke-linecap="round"/></g></g></svg>