<svg version="1.1" xmlns="http://www.w3.org/2000/svg" xmlns:xlink="http://www.w3.org/1999/xlink" width="80.96367" height="97.68327" viewBox="0,0,80.96367,97.68327"><defs><radialGradient cx="252.10433" cy="175.40456" r="12" gradientUnits="userSpaceOnUse" id="color-1"><stop offset="0" stop-color="#02ff00"/><stop offset="1" stop-color="#00cf76"/></radialGradient><radialGradient cx="267.3764" cy="141.39146" r="6.08333" gradientUnits="userSpaceOnUse" id="color-2"><stop offset="0" stop-color="#006622"/><stop offset="1" stop-color="#006304"/></radialGradient><radialGradient cx="248.05412" cy="187.14137" r="40.87558" gradientUnits="userSpaceOnUse" id="color-3"><stop offset="0" stop-color="#02ff00"/><stop offset="1" stop-color="#00cf76"/></radialGradient><radialGradient cx="248.7514" cy="200.14146" r="10.83357" gradientUnits="userSpaceOnUse" id="color-4"><stop offset="0" stop-color="#02ff00"/><stop offset="1" stop-color="#00cf76"/></radialGradient><radialGradient cx="213.18038" cy="194.92006" r="12.67201" gradientUnits="userSpaceOnUse" id="color-5"><stop offset="0" stop-color="#02ff00"/><stop offset="1" stop-color="#00cf76"/></radialGradient></defs><g transform="translate(-199.51816,-131.08319)"><g data-paper-data="{&quot;isPaintingLayer&quot;:true}" fill-rule="nonzero" stroke-linejoin="miter" stroke-miterlimit="10" stroke-dasharray="" stroke-dashoffset="0" style="mix-blend-mode: normal"><path d="M258.32758,181.00917c-4.43513,4.92467 -14.53213,3.06158 -17.96913,-0.03376c-3.43701,-3.09534 5.08569,-2.53283 9.52081,-7.4575c4.43513,-4.92467 4.08164,-12.81474 7.51864,-9.7194c3.43701,3.09534 5.3648,12.28599 0.92968,17.21066z" data-paper-data="{&quot;index&quot;:null}" fill="url(#color-1)" stroke="#00850a" stroke-width="1.5" stroke-linecap="butt"/><path d="M263.44453,150.07297c0,0 3.1722,-5.50376 3.35761,-9.93204c0.19221,-4.5908 -0.94562,-8.15787 -0.94562,-8.15787l5.45175,0.7269c0,0 0.88649,3.60729 0.65195,8.23538c-0.26122,5.15451 -3.06394,9.85453 -3.06394,9.85453z" data-paper-data="{&quot;index&quot;:null}" fill="url(#color-2)" stroke="#055900" stroke-width="1.5" stroke-linecap="butt"/><path d="M260.6264,146.26646c34.77925,0.63969 17.46029,81.5 -15.125,81.75c-16.08482,0.12341 -29.125,-23.31294 -29.125,-29.25c0,-5.93706 13.03971,7.75 29.125,7.75c16.08529,0 2.44393,-60.48324 15.125,-60.25z" data-paper-data="{&quot;index&quot;:null}" fill="url(#color-3)" stroke="#00850a" stroke-width="1.5" stroke-linecap="butt"/><path d="M248.21062,205.48919c-5.97562,-0.60428 -19.0777,-12.4884 -11.44571,-19.94187c0.18837,-1.86277 1.07866,4.8953 4.44073,8.1997c1.96856,1.93478 5.87979,0.82356 8.08654,1.04671c5.97562,0.60428 10.5777,3.4884 10.27904,6.44187c-0.29867,2.95347 -5.38498,4.85786 -11.3606,4.25359z" data-paper-data="{&quot;index&quot;:null}" fill="url(#color-4)" stroke="#00850a" stroke-width="1.5" stroke-linecap="butt"/><path d="M211.30262,183.26491c2.01166,-3.42655 10.73832,-1.31519 12.43252,0.57602c2.76383,3.08521 3.66888,13.14201 -2.60438,18.7618c-6.27326,5.61979 -17.34927,4.67448 -20.1131,1.58927c-1.54948,-1.72965 -0.70503,-9.90986 2.6132,-11.45685c2.60054,-1.21239 1.51424,9.95845 11.99118,4.77839c9.08147,-4.49011 -5.58947,-12.08529 -4.31942,-14.24863z" data-paper-data="{&quot;index&quot;:null}" fill="url(#color-5)" stroke="#00850a" stroke-width="1.5" stroke-linecap="butt"/><path d="M264.1264,175.26646c0,0 2.16979,-2.76357 8.17766,-2.87628c6.51214,-0.12217 6.82234,1.12628 6.82234,1.12628" data-paper-data="{&quot;index&quot;:null}" fill="none" stroke="#00850a" stroke-width="1.5" stroke-linecap="round"/><path d="M274.85062,167.98673c-0.66648,0.17997 -1.35267,-0.21442 -1.53264,-0.88091c-0.17998,-0.66649 0.43166,-0.54816 1.09815,-0.72813c0.66649,-0.17997 1.13543,-0.5901 1.3154,0.07639c0.17997,0.66648 -0.21442,1.35267 -0.88091,1.53264z" data-paper-data="{&quot;index&quot;:null}" fill="#000000" stroke="none" stroke-width="0.5" stroke-linecap="butt"/><path d="M266.91924,168.74114c-0.67004,-0.16629 -1.0784,-0.84426 -0.91211,-1.51429c0.16629,-0.67003 0.64353,-0.2696 1.31356,-0.10331c0.67003,0.16629 1.27912,0.03546 1.11283,0.70549c-0.16629,0.67004 -0.84426,1.0784 -1.51429,0.91211z" data-paper-data="{&quot;index&quot;:null}" fill="#000000" stroke="none" stroke-width="0.5" stroke-linecap="butt"/></g></g></svg>