<svg version="1.1" xmlns="http://www.w3.org/2000/svg" xmlns:xlink="http://www.w3.org/1999/xlink" width="81.45128" height="63.76307" viewBox="0,0,81.45128,63.76307"><defs><linearGradient x1="273.35861" y1="194.3597" x2="285.21605" y2="194.3597" gradientUnits="userSpaceOnUse" id="color-1"><stop offset="0" stop-color="#65b757"/><stop offset="1" stop-color="#579856"/></linearGradient><linearGradient x1="249.41647" y1="151.28981" x2="235.22356" y2="164.19245" gradientUnits="userSpaceOnUse" id="color-2"><stop offset="0" stop-color="#65b757"/><stop offset="1" stop-color="#579856"/></linearGradient><linearGradient x1="234.00192" y1="159.03173" x2="234.00192" y2="201.88787" gradientUnits="userSpaceOnUse" id="color-3"><stop offset="0" stop-color="#65b757"/><stop offset="1" stop-color="#579856"/></linearGradient><linearGradient x1="237.08879" y1="183.89725" x2="256.96744" y2="183.89725" gradientUnits="userSpaceOnUse" id="color-4"><stop offset="0" stop-color="#65b757"/><stop offset="1" stop-color="#579856"/></linearGradient><radialGradient cx="241.46219" cy="179.39548" r="40.72564" gradientUnits="userSpaceOnUse" id="color-5"><stop offset="0" stop-color="#0050a4"/><stop offset="1" stop-color="#004fa3" stop-opacity="0.28235"/></radialGradient></defs><g transform="translate(-200.73655,-150.03981)"><g data-paper-data="{&quot;isPaintingLayer&quot;:true}" fill-rule="nonzero" stroke-linecap="butt" stroke-linejoin="miter" stroke-miterlimit="10" stroke-dasharray="" stroke-dashoffset="0" style="mix-blend-mode: normal"><path d="M279.28733,178.14291c0,0 0.52312,7.2605 0.52312,16.21679c0,8.95628 -0.52312,16.21679 -0.52312,16.21679c0,0 -5.92872,-7.2605 -5.92872,-16.21679c0,-8.95628 5.92872,-16.21679 5.92872,-16.21679z" fill="url(#color-1)" stroke="#1d4c16" stroke-width="2.5"/><path d="M249.41646,151.28981c0,0 0.6936,7.14622 -3.22566,10.70919c-3.91926,3.56297 -8.82946,4.54501 -10.96724,2.19345c-2.13778,-2.35156 -0.6936,-7.14622 3.22566,-10.70919c3.91926,-3.56297 10.96724,-2.19345 10.96724,-2.19345z" fill="url(#color-2)" stroke="#1d4c16" stroke-width="2.5"/><path d="M269.00725,180.4598c1.77436,2.90699 10.09908,10.6642 6.79542,17.75757c-2.3178,4.9766 -12.41267,4.28259 -14.43571,3.47576c-3.37632,-1.34655 -10.91398,-0.67894 -27.54977,-3.1303c-22.53849,-3.32115 -30.38722,-6.26863 -30.38722,-18.10302c0,-11.83439 12.57918,-22.72114 29.46359,-22.72114c16.88442,0 30.01777,12.73399 36.11368,22.72114z" fill="url(#color-3)" stroke="#1d4c16" stroke-width="2.5"/><path d="M256.96744,183.89725c0,3.17804 -4.44999,5.75435 -9.93932,5.75435c-5.48934,0 -9.93932,-2.57631 -9.93932,-5.75435c0,-3.17804 4.44999,-5.75435 9.93932,-5.75435c5.48934,0 9.93932,2.57631 9.93932,5.75435z" fill="url(#color-4)" stroke="#1d4c16" stroke-width="2.5"/><path d="M200.7677,171.61572c0,-0.79834 0.1871,-1.55298 0.51985,-2.22246l0.0337,-0.10109l0.04213,-0.06621l-0.02008,-0.11316l0.71282,-0.97544l0.64862,-1.01926l0.11269,-0.02254l0.0463,-0.06336l0.44223,-0.36853l0.54048,-0.72064l0.45397,-0.36885l0.34511,-0.47226l0.8909,-0.74241l0.24467,-0.11811l0.18275,-0.20103l0.73889,-0.4926l1.19214,-0.92722l0.55815,-0.24662l0.48086,-0.37567l1.33634,-0.59393l0.24215,-0.04238l0.2074,-0.13198l0.64193,-0.21398l1.3944,-0.63382l0.51554,-0.09469l0.46882,-0.23441l1.08455,-0.24101l1.09165,-0.36388l0.14165,-0.0109l0.1239,-0.06951l1.63331,-0.44545l0.25744,-0.00548l0.23615,-0.10267l0.35776,-0.05963l0.24059,-0.09623l0.14897,-0.02031l0.12684,-0.08072l0.44545,-0.14848l0.80138,-0.06164l0.68167,-0.17042l0.08655,-0.13271l0.42266,-0.07963l0.23497,-0.14953l0.44545,-0.14848l0.19547,-0.01504l0.17299,-0.09226l0.59393,-0.14848l0.61553,0l0.59715,-0.14929h0.42385l1.18464,-0.29616h0.42552l0.40368,-0.13456l1.81164,-0.13936l2.10379,-0.26297l0.0734,-0.02726l0.45004,-0.05l0.09329,-0.04664l1.12151,-0.24922l1.06773,-0.26693l0.06429,-0.04286l0.13103,0.02912l0.13103,-0.02912l0.06429,0.04286l1.06773,0.26693l1.12151,0.24922l0.12461,0.06231l0.13932,0.03483l0.02786,0.04876l0.89606,0.44803l0.05131,0.04398l0.21262,0.05316l0.14458,0.25302l0.53471,0.45832h7.80842l0.70787,0.17697l0.72887,0.0339l1.48483,0.44545l0.63788,0.37928l0.69888,0.2496l0.30216,0.20144l0.88986,0.50849l0.48217,0.46208l0.35913,0.21548h0.24159l0.77975,0.19494l0.80138,0.06164l0.8909,0.29697l0.74239,0.47243l0.79994,0.36664l1.34969,1.07975l1.32346,0.91624l1.70267,0.68107l0.30324,0.219l0.35916,0.10448l1.43358,0.83626l1.55402,0.5977l0.68444,0.48056l0.75038,0.36923l1.93027,1.63331l0.03658,0.05086l0.05552,0.02902l1.33634,1.18786l0.28541,0.41792l0.39277,0.31913l1.17505,1.56673l1.89533,2.03071l0.00688,0.01241l0.01186,0.00778l1.78179,1.93027l0.10978,0.20074l0.17932,0.1421l1.48483,1.93027l0.22702,0.52129l0.35519,0.44399l1.63331,3.56358l0.0436,0.23325l0.13037,0.19827l1.03938,2.96965l0.01368,0.14875l0.07465,0.12939l0.59393,2.07876l0.01504,0.45119l0.15253,0.4249l0.11885,1.18845l0.23235,1.04558l-0.01449,0.55045l0.13355,0.5342v0.69276l0.17653,0.88267l0.36675,1.46702l0.04984,0.04776v1.95678l0.0008,0.00141l-0.0008,0.00141v0.76892l-0.04984,0.04776l-0.09865,0.39459l-1.21268,2.27377l-0.75099,0.21121l-0.38705,0.67734l-2.5,0.625h-27.46928l-0.27314,-0.06829l-0.27901,0.0377l-2.39745,-0.26638h-5.06845l-0.45415,-0.11354l-0.46729,0.0279l-2.14288,-0.40179l-1.39738,-0.12703l-0.63488,-0.22147l-0.66805,-0.07635l-1.10119,-0.41295l-0.55839,-0.18613l-1.08455,-0.24101l-0.16633,-0.08316l-0.18576,-0.00864l-1.37351,-0.41205l-1.0113,-0.25283l-1.27213,-0.2827l-0.55055,-0.27527l-0.60087,-0.13353l-0.29697,-0.14848l-0.46734,-0.40058l-0.38916,-0.19458l-0.05864,-0.18925l-0.08107,-0.06949l-0.30325,-0.08271l-0.06308,-0.23129l-0.59401,-0.50915l-0.08861,-1.59502l-0.27251,-0.28436l0.15419,-0.54825l-0.46181,-1.69329l0.40252,-0.67087l-0.0133,-0.23937l0.26154,-0.17436l0.67506,-1.12511l0.29697,-0.29697l0.02437,-0.01462l0.02472,-0.08788l1.09575,-0.5844l1.06488,-0.63893l0.08807,0.02402l0.02507,-0.01337l0.59393,-0.14848h0.06758l0.06045,-0.03022l1.33634,-0.29697l0.55045,0.01449l0.5342,-0.13355h3.0423l0.35666,-0.04864l-2.03653,-0.11314l-0.50915,-0.59401l-0.23129,-0.06308l-0.05724,-0.20988l-0.15729,-0.24717l-0.72207,-0.84242l-0.14848,-0.29697l-0.03874,-0.17431l-0.01261,-0.00721l-0.05262,-0.2105l-0.16731,-0.26291l-0.14848,-0.44545l-0.06164,-0.80138l-0.19494,-0.77975l0,-5.68731l-0.17964,-0.26945l0.13937,-0.62716l-0.04927,-0.64056l0.25494,-0.28493l0.21398,-0.96292l0.146,-0.292l0.01717,-0.08583l0.05219,-0.11018l0,-0.12192l0.14848,-0.59393l0.34796,-0.65242l0.21529,-0.70738l0.44545,-0.74241l0.18561,-0.18561l0.10186,-0.24192l0.44545,-0.59393l0.06224,-0.05057l0.03341,-0.0729l0.08081,-0.10101l0.0114,-0.0513v-0.13932l0.20051,-0.80202l-0.06186,-0.22684l0.1921,-0.32017l0.01394,-0.06271l-0.05756,-0.21105l0.1421,-0.23684l-0.17264,-0.2713l-0.2337,-0.70111l-0.223,-0.3345l-7.10233,0l-0.59071,0.14768l-0.26249,0l-0.24309,0.09903l-1.03938,0.14848l-0.35797,-0.03703l-0.34914,0.08728h-1.48705l-0.21958,0.08783l-0.53749,0.07329l-0.49747,0.21629l-0.64136,0.10689l-1.25536,0.34237l-1.20468,0.40156l-0.26171,0.02013l-0.23477,0.11739l-0.82699,0.18378l-1.1583,0.5265l-0.26261,0.04824l-0.22526,0.14335l-0.66191,0.22064l-0.55831,0.24814l-0.8548,0.66485l-0.17068,0.07542l-0.12552,0.13807l-0.66866,0.44577l-0.23705,0.19754l-0.54048,0.72064l-0.45397,0.36885l-0.26775,0.3664c-0.36874,0.73036 -0.91137,1.35795 -1.57348,1.82837l-0.09757,0.11384l-0.07621,0.00423c-0.78263,0.50805 -1.71629,0.80314 -2.71887,0.80314c-2.64591,0 -4.8118,-2.05521 -4.98837,-4.65632l-0.04278,-0.06417l0.03285,-0.14784c-0.00113,-0.04375 -0.0017,-0.08764 -0.0017,-0.13167zM253.99064,184.18867l-0.15825,0.20256l-0.06959,0.24744l-0.52508,0.91888l-0.22296,0.44593l-0.02028,0.08111l0.1006,0.36886l-0.30262,0.50437l1.30491,0l0.98731,-0.26927l0.19919,-0.00424l0.18083,-0.08364l1.13961,-0.21707l-1.15106,-1.61149l-1.06354,-1.48136zM271.48268,193.04562l-0.06669,-0.3001l0.00796,-0.30241l-0.10221,-0.28472l-0.10393,-1.03928l-0.27038,-0.94633l-0.46964,0.82187l-0.08506,1.53103l-0.6066,0.51994zM268.57285,184.16299l-1.00211,-1.30275l-1.6202,-1.75522l-2.06936,-2.21717l-0.13251,-0.23917l-0.21221,-0.17242l-1.03435,-1.37913l-0.6875,-0.61111l1.76541,2.45896l0.0023,0.0058l0.00475,0.00404l2.08388,2.91743l0.87696,1.00224l0.04275,0.08335l0.07494,0.05621l1.86885,2.30013l0.16568,0.04142l0.76078,1.33136l0.38704,0.25803zM246.34456,172.28288l-1.18759,-0.2969l-0.40815,1.08839l-0.28616,0.41493l-0.1555,0.47945l-0.74241,1.18786l-0.24228,0.23363l3.496,-2.68923l0.02877,-0.01253l0.01979,-0.02435l0.21078,-0.15808z" fill="url(#color-5)" stroke="none" stroke-width="0.5"/><path d="M222.96449,176.22479v-7.32371h7.32371v7.32371z" fill="#ffffff" stroke="none" stroke-width="0"/><path d="M215.30442,186.01503v-8.26601h9.54426v8.26601z" fill="#ffffff" stroke="none" stroke-width="0"/><path d="M211.38446,190.36108v-8.86253h4.0904v8.86253z" fill="#ffffff" stroke="none" stroke-width="0"/><path d="M224.67242,190.24808v-8.86253h4.0904v8.86253z" fill="#ffffff" stroke="none" stroke-width="0"/><path d="M209.71206,176.22479v-7.32371h7.32371v7.32371z" fill="#ffffff" stroke="none" stroke-width="0"/></g></g></svg>