<svg version="1.1" xmlns="http://www.w3.org/2000/svg" xmlns:xlink="http://www.w3.org/1999/xlink" width="78.99831" height="77.17782" viewBox="0,0,78.99831,77.17782"><g transform="translate(-200.50092,-141.41109)"><g data-paper-data="{&quot;isPaintingLayer&quot;:true}" fill-rule="nonzero" stroke-linecap="butt" stroke-linejoin="miter" stroke-miterlimit="10" stroke-dasharray="" stroke-dashoffset="0" style="mix-blend-mode: normal"><path d="M277.09684,191.97855c3.92366,3.55337 -2.98188,9.56132 -8.57193,15.73392c-5.59006,6.17259 -10.13437,12.11117 -14.05804,8.5578c-3.92366,-3.55337 -13.64627,-21.15084 -8.05622,-27.32344c5.59006,-6.17259 26.76252,-0.52165 30.68618,3.03171z" fill="#18191b" stroke="#000000" stroke-width="2.5"/><path d="M253.36701,149.08493c0,3.54779 -4.39867,6.42384 -9.82469,6.42384c-5.42603,0 -9.82469,-2.87605 -9.82469,-6.42384c0,-3.54779 4.39867,-6.42384 9.82469,-6.42384c5.42603,0 9.82469,2.87605 9.82469,6.42384z" fill="#18191b" stroke="#000000" stroke-width="2.5"/><path d="M261.44754,195.40018c-0.26036,4.87063 -0.27201,4.98168 -3.50587,6.00556c-6.00892,1.90249 -18.10726,1.34808 -28.11224,0.81326c-15.38942,-0.82265 -27.80883,-8.59819 -28.07851,-26.20599c-0.01387,-0.90547 0.90398,-2.44654 0.90398,-2.44654c0,0 2.69999,7.20865 9.50823,6.30066c4.96469,-0.66212 8.45261,-5.22353 7.79049,-10.18822c-0.66212,-4.96469 -5.22353,-8.45261 -10.18822,-7.79049c-2.341,0.31221 -5.31824,1.8925 -5.31824,1.8925l1.88515,-5.77025c0,0 6.33009,-15.50798 23.31853,-15.30526c14.20313,0.16949 23.78792,20.32742 23.78792,20.32742c0,0 2.4978,4.57753 4.16432,10.1929c2.34245,7.89294 4.06552,18.03875 3.84445,22.17446z" fill="#18191b" stroke="#000000" stroke-width="2.5"/><path d="M211.04523,155.96551c0,-2.42266 1.16009,-4.38662 2.59114,-4.38662c1.43104,0 2.59113,1.96395 2.59113,4.38662c0,2.42266 -1.16008,4.38662 -2.59113,4.38662c-1.43104,0 -2.59114,-1.96395 -2.59114,-4.38662z" fill="#000000" stroke="none" stroke-width="0.5"/><path d="M221.88479,160.34226c0,-2.42266 1.16008,-4.38661 2.59113,-4.38661c1.43104,0 2.59114,1.96395 2.59114,4.38661c0,2.42266 -1.16009,4.38662 -2.59114,4.38662c-1.43104,0 -2.59113,-1.96395 -2.59113,-4.38662z" fill="#000000" stroke="none" stroke-width="0.5"/><path d="M244.9811,173.49065c4.43699,4.87886 5.05506,11.54302 1.38046,14.8848c-3.67458,3.34179 -10.25032,2.09575 -14.68732,-2.78311c-4.43699,-4.87886 -5.05506,-11.54302 -1.38046,-14.8848c3.67458,-3.34179 10.25032,-2.09575 14.68732,2.78311z" fill="#18191b" stroke="#000000" stroke-width="2.5"/></g></g></svg>