<svg version="1.1" xmlns="http://www.w3.org/2000/svg" xmlns:xlink="http://www.w3.org/1999/xlink" width="104.68261" height="94.63626" viewBox="0,0,104.68261,94.63626"><defs><radialGradient cx="234.83501" cy="148.80477" r="6.98204" gradientUnits="userSpaceOnUse" id="color-1"><stop offset="0" stop-color="#ffdfbe"/><stop offset="1" stop-color="#ffd0a0"/></radialGradient></defs><g transform="translate(-155.15647,-111.91906)"><g data-paper-data="{&quot;isPaintingLayer&quot;:true}" fill-rule="nonzero" stroke-linejoin="miter" stroke-miterlimit="10" stroke-dasharray="" stroke-dashoffset="0" style="mix-blend-mode: normal"><path d="M218.87693,164.78295c0,3.22012 -19.6426,11.81354 -22.40271,11.81354c-2.7601,0 -8.80498,-7.77756 -8.80498,-10.99768c0,-3.22012 0.33382,-12.62941 3.09393,-12.62941c2.7601,0 28.11376,8.59342 28.11376,11.81355z" fill="#ffdfbe" stroke="none" stroke-width="0" stroke-linecap="butt"/><path d="M187.72393,177.57731c0,4.04303 -14.83004,26.84034 -18.87309,26.84034c-4.04303,0 -13.69437,-19.61039 -13.69437,-23.65344c0,-4.04303 2.87916,-20.8649 6.9222,-20.8649c4.04303,0 25.64525,13.63495 25.64525,17.678z" fill="#6684ff" stroke="none" stroke-width="0" stroke-linecap="butt"/><path d="M195.09271,134.60979c2.77578,-1.62351 18.50473,7.00453 19.67402,8.82572c1.16928,1.82118 -2.97422,9.73098 -5.75,11.35449c-2.77578,1.62351 -11.0281,6.14718 -12.19738,4.326c-1.16928,-1.82118 -4.50241,-22.8827 -1.72664,-24.5062z" fill="#ffdfbe" stroke="none" stroke-width="0" stroke-linecap="butt"/><path d="M239.20633,173.22864l-37.71963,30.54226l-27.46969,-28.02327l32.62136,-33.3092c0,0 21.97143,2.66495 24.37808,4.94025c1.59469,1.50764 6.05244,8.56148 6.05244,8.56148z" fill="#6684ff" stroke="none" stroke-width="NaN" stroke-linecap="butt"/><path d="M198.66874,152.3468l6.87985,-10.07344l15.40489,2.18475l-14.83211,12.65564z" fill="#ff0000" stroke="none" stroke-width="0" stroke-linecap="butt"/><path d="M223.84923,175.44153l13.1463,-13.46576l0.83164,11.88218l-10.69313,7.99975z" fill="#ff0000" stroke="none" stroke-width="0" stroke-linecap="butt"/><path d="M210.2576,160.15409l16.79106,-14.32715l9.73165,11.40525l-16.79106,14.32715z" fill="#ff0000" stroke="none" stroke-width="0" stroke-linecap="butt"/><path d="M211.42934,168.75746c0,3.22012 -19.6426,11.81354 -22.40271,11.81354c-2.7601,0 -8.80498,-7.77756 -8.80498,-10.99768c0,-3.22012 0.33382,-12.62941 3.09393,-12.62941c2.7601,0 28.11376,8.59342 28.11376,11.81355z" fill="#ffdfbe" stroke="none" stroke-width="0" stroke-linecap="butt"/><path d="M204.31916,206.48056c-5.73862,-0.36498 -10.30784,-1.96344 -10.20564,-3.57025c0.1022,-1.60681 4.83711,-2.61351 10.57573,-2.24853c5.73862,0.36498 10.30784,1.96344 10.20564,3.57025c-0.1022,1.60681 -4.83711,2.61351 -10.57573,2.24853z" fill="#ff8000" stroke="none" stroke-width="0" stroke-linecap="butt"/><path d="M187.55038,194.62648c-5.24531,-1.72029 -9.0326,-4.53226 -8.45917,-6.2807c0.57343,-1.74844 5.29045,-1.77125 10.53575,-0.05095c5.24531,1.72029 9.0326,4.53226 8.45917,6.28069c-0.57343,1.74844 -5.29045,1.77125 -10.53576,0.05096z" fill="#ff8000" stroke="none" stroke-width="0" stroke-linecap="butt"/><path d="M256.02547,143.85242c0,10.58039 -9.78908,19.15749 -21.86453,19.15749c-12.07545,0 -21.86453,-8.5771 -21.86453,-19.15749c0,-10.58039 9.78908,-19.15749 21.86453,-19.15749c12.07545,0 21.86453,8.5771 21.86453,19.15749z" fill="#ffdfbe" stroke="none" stroke-width="0" stroke-linecap="butt"/><path d="M224.70676,148.27487l5.27726,3.23758l4.22599,2.16537l4.41834,-0.77321l3.21663,-3.15378l7.76448,-0.49516c0,0 -1.39306,2.86668 -2.06506,3.82378c-0.46555,0.66307 -1.58007,1.36778 -1.58007,1.36778l-3.25986,1.51997c0,0 -1.37066,0.7261 -1.93562,1.28002c-0.49906,0.48931 -1.53869,0.89085 -1.53869,0.89085c0,0 -2.07901,0.52684 -3.2744,0.50064c-1.04312,-0.02286 -3.50357,-0.64918 -3.50357,-0.64918c0,0 -1.58714,0.19819 -2.38328,0.15099c-0.59908,-0.03551 -1.97277,-0.40922 -1.97277,-0.40922c0,0 -0.71892,-0.78925 -1.09063,-1.48675c-0.33691,-0.6322 -1.75932,-2.43956 -1.75932,-2.43956c0,0 -0.76738,1.17234 -1.32927,1.27617c-0.63645,0.11761 -2.2937,-0.60668 -2.2937,-0.60668c0,0 -0.66681,-1.40749 -0.90504,-2.13682c-0.26165,-0.80103 -0.60117,-2.47445 -0.60117,-2.47445z" fill="#c16100" stroke="#c16100" stroke-width="0.5" stroke-linecap="round"/><path d="M231.70817,143.18646l-0.90885,-8.17968" fill="none" stroke="#000000" stroke-width="0.5" stroke-linecap="round"/><path d="M243.72813,134.16387l0.22721,8.17968" fill="none" stroke="#000000" stroke-width="0.5" stroke-linecap="round"/><path d="M240.88284,148.80477c0,3.16198 -2.7077,5.72528 -6.04783,5.72528c-3.34012,0 -6.04783,-2.56329 -6.04783,-5.72528c0,-3.16198 2.7077,-5.72528 6.04783,-5.72528c3.34012,0 6.04783,2.56329 6.04783,5.72528z" fill="url(#color-1)" stroke="#ffdfbe" stroke-width="0.5" stroke-linecap="butt"/><path d="M259.83908,121.73179c0,5.41942 -11.48062,9.81273 -25.64269,9.81273c-14.16207,0 -25.64269,-4.39331 -25.64269,-9.81273c0,-5.41942 11.48062,-9.81273 25.64269,-9.81273c14.16207,0 25.64269,4.39331 25.64269,9.81273z" fill="#ff0000" stroke="none" stroke-width="0" stroke-linecap="butt"/><path d="M230.21575,128.76733c-8.58927,0 -15.55225,-0.5388 -15.55225,-1.20345c0,-0.66465 6.96298,-1.20345 15.55225,-1.20345c8.58927,0 15.55225,0.5388 15.55225,1.20345c0,0.66465 -6.96298,1.20345 -15.55225,1.20345z" fill="#ff0000" stroke="none" stroke-width="0" stroke-linecap="butt"/><path d="M257.61733,126.453c0,1.58492 -12.33192,5.64695 -24.34667,5.64695c-12.01475,0 -23.42094,-6.09863 -23.42094,-7.68355c0,-1.58492 11.40619,1.94403 23.42094,1.94403c12.01475,0 24.34667,-1.49235 24.34667,0.09257z" fill="#d00000" stroke="none" stroke-width="0" stroke-linecap="butt"/><path d="M234.70466,126.2197c-4.01557,0 -7.27083,-2.39058 -7.27083,-5.33951c0,-2.94893 3.25526,-5.33951 7.27083,-5.33951c4.01557,0 7.27083,2.39058 7.27083,5.33951c0,2.94893 -3.25526,5.33951 -7.27083,5.33951z" fill="#ffffff" stroke="none" stroke-width="0" stroke-linecap="butt"/><text transform="translate(230.61482,124.81894) scale(0.24723,0.24723)" font-size="40" xml:space="preserve" fill="#ff0000" fill-rule="nonzero" stroke="none" stroke-width="1" stroke-linecap="butt" stroke-linejoin="miter" stroke-miterlimit="10" stroke-dasharray="" stroke-dashoffset="0" font-family="Sans Serif" font-weight="normal" text-anchor="start" style="mix-blend-mode: normal"><tspan x="0" dy="0">C</tspan></text></g></g></svg>