<svg version="1.1" xmlns="http://www.w3.org/2000/svg" xmlns:xlink="http://www.w3.org/1999/xlink" width="133.24446" height="126.79202" viewBox="0,0,133.24446,126.79202"><defs><radialGradient cx="233.97484" cy="158.46017" r="31.2305" gradientUnits="userSpaceOnUse" id="color-1"><stop offset="0" stop-color="#e6bb00"/><stop offset="1" stop-color="#c2a600"/></radialGradient><radialGradient cx="187.60776" cy="203.48735" r="20.91006" gradientUnits="userSpaceOnUse" id="color-2"><stop offset="0" stop-color="#e6bb00"/><stop offset="1" stop-color="#c2a600"/></radialGradient><radialGradient cx="244.83377" cy="210.68389" r="46.14633" gradientUnits="userSpaceOnUse" id="color-3"><stop offset="0" stop-color="#e6bb00"/><stop offset="1" stop-color="#c2a600"/></radialGradient><radialGradient cx="225.47433" cy="226.99241" r="14.90142" gradientUnits="userSpaceOnUse" id="color-4"><stop offset="0" stop-color="#e6bb00"/><stop offset="1" stop-color="#c2a600"/></radialGradient></defs><g transform="translate(-159.73563,-132.03821)"><g data-paper-data="{&quot;isPaintingLayer&quot;:true}" fill-rule="nonzero" stroke-width="4" stroke-linejoin="miter" stroke-miterlimit="10" stroke-dasharray="" stroke-dashoffset="0" style="mix-blend-mode: normal"><path d="M238.88795,193.94312l-20.82867,-56.44299l48.77538,35.22224z" fill="url(#color-1)" stroke="#bb9200" stroke-linecap="butt"/><path d="M163.75936,223.23126l15.74717,-22.56597l-8.94576,-26.47582l39.70678,18.12436l-3.89595,28.0919z" fill="url(#color-2)" stroke="#bb9200" stroke-linecap="butt"/><path d="M198.68743,210.68389c0,-25.48591 20.66042,-46.14633 46.14633,-46.14633c25.48591,0 46.14633,20.66042 46.14633,46.14633c0,25.48591 -20.66042,46.14633 -46.14633,46.14633c-25.48591,0 -46.14633,-20.66042 -46.14633,-46.14633z" fill="url(#color-3)" stroke="#bb9200" stroke-linecap="butt"/><path d="M220.31071,236.62854l14.71022,-23.28998l7.10444,13.09882z" fill="url(#color-4)" stroke="#bb9200" stroke-linecap="butt"/><path d="M286.65388,225.37702c0,0 -8.47058,0.93058 -15.78285,0.12659c-7.04886,-0.77503 -14.01999,-6.85627 -14.01999,-6.85627" fill="none" stroke="#bb9200" stroke-linecap="round"/><path d="M254.92828,203.74592c0,0 2.52595,-1.92277 3.84553,-1.92277c1.39963,0 4.32622,1.92277 4.32622,1.92277" fill="none" stroke="#000000" stroke-linecap="round"/><path d="M275.1173,204.22663c0,0 2.52596,-1.92277 3.84553,-1.92277c1.39963,0 4.32622,1.92277 4.32622,1.92277" fill="none" stroke="#000000" stroke-linecap="round"/></g></g></svg>