<svg version="1.1" xmlns="http://www.w3.org/2000/svg" xmlns:xlink="http://www.w3.org/1999/xlink" width="79.29885" height="61.43292" viewBox="0,0,79.29885,61.43292"><g transform="translate(-200.36537,-149.26895)"><g data-paper-data="{&quot;isPaintingLayer&quot;:true}" fill-rule="nonzero" stroke-linejoin="miter" stroke-miterlimit="10" stroke-dasharray="" stroke-dashoffset="0" style="mix-blend-mode: normal"><path d="M260.2331,182.14623l9.84909,-19.02651l8.32608,0.65996l-0.20172,39.23434h-7.96803z" fill="#38e8df" stroke="#000000" stroke-width="2.5" stroke-linecap="round"/><path d="M221.20995,161.24511v-6.17383l4.94472,-4.06569l20.17978,-0.45174l-1.06913,5.11977l-5.07835,5.5715z" fill="#38e8df" stroke="#000000" stroke-width="2.5" stroke-linecap="round"/><path d="M219.53047,208.91176c0,0 -6.23656,-3.97023 -9.23995,-5.91623c-0.59832,-0.38767 -1.17147,-0.82225 -1.71761,-1.29913c3.76219,-1.33309 8.8485,-4.07803 7.77827,-8.35894c-0.60958,-2.4383 -1.49156,-5.56105 -3.7329,-6.90586c-2.41748,-1.45048 -8.29903,-1.7866 -11.00291,-0.71095c-0.3336,-7.90014 2.83915,-16.45659 10.98051,-22.00109c4.68745,-3.19229 10.95672,-4.82182 10.95672,-4.82182l16.63879,0.60659c0,0 8.67558,4.08802 12.8457,6.65911c4.50962,2.78042 13.21816,11.48576 13.21816,11.48576l-0.05922,13.82534c0,0 -8.14459,9.86208 -12.79224,12.29699c-4.36631,2.28752 -14.09013,5.67462 -14.09013,5.67462z" fill="#38e8df" stroke="#000000" stroke-width="2.5" stroke-linecap="round"/><path d="M208.71453,179.14839c0,-1.66068 1.34624,-3.00692 3.00692,-3.00692c1.66068,0 3.00692,1.34624 3.00692,3.00692c0,1.66068 -1.34624,3.00692 -3.00692,3.00692c-1.66068,0 -3.00692,-1.34624 -3.00692,-3.00692z" fill="#000000" stroke="none" stroke-width="0.5" stroke-linecap="butt"/><path d="M258.22849,180.54133v9.90897l-5.65404,6.48364l-9.61187,0.12234l-14.1351,-6.85064l0.22616,-7.95164l10.40343,-7.4623l12.43889,-0.97867z" data-paper-data="{&quot;index&quot;:null}" fill="#38e8df" stroke="#000000" stroke-width="2.5" stroke-linecap="round"/></g></g></svg>