<svg version="1.1" xmlns="http://www.w3.org/2000/svg" xmlns:xlink="http://www.w3.org/1999/xlink" width="74.69881" height="65.69608" viewBox="0,0,74.69881,65.69608"><defs><linearGradient x1="224.45317" y1="187.16046" x2="224.45317" y2="202.82755" gradientUnits="userSpaceOnUse" id="color-1"><stop offset="0" stop-color="#8f3b7c"/><stop offset="1" stop-color="#5d0049"/></linearGradient><linearGradient x1="250.87477" y1="152.1087" x2="250.87477" y2="211.59049" gradientUnits="userSpaceOnUse" id="color-2"><stop offset="0" stop-color="#8f3b7c"/><stop offset="1" stop-color="#5d0049"/></linearGradient><linearGradient x1="238.82217" y1="197.67324" x2="238.82217" y2="211.03164" gradientUnits="userSpaceOnUse" id="color-3"><stop offset="0" stop-color="#8f3b7c"/><stop offset="1" stop-color="#5d0049"/></linearGradient></defs><g transform="translate(-202.75882,-147.14442)"><g data-paper-data="{&quot;isPaintingLayer&quot;:true}" fill-rule="nonzero" stroke-linecap="butt" stroke-linejoin="miter" stroke-miterlimit="10" stroke-dasharray="" stroke-dashoffset="0" style="mix-blend-mode: normal"><path d="M209.18441,208.66951c-2.84466,-1.08239 -7.07237,-5.81888 -4.23739,-8.28108c1.06895,-0.9284 3.10549,0.54865 5.41365,0.11483c3.20922,-0.60317 6.71026,-3.03403 6.78865,-4.14275c0.10459,-1.47932 -2.44752,-4.22198 -5.92245,-5.30675c-2.4459,-0.76354 -5.85355,0.17728 -6.92088,-0.87935c-2.18298,-2.16109 3.02916,-5.78656 6.73721,-7.79373c8.09682,-4.3828 23.10231,4.77979 23.10231,4.77979v15.66708c0,0 -19.55251,7.89993 -24.9611,5.84196z" data-paper-data="{&quot;index&quot;:null}" fill="url(#color-1)" stroke="#400037" stroke-width="2.5"/><path d="M250.87476,211.59049c-11.06362,-0.34235 -23.0887,-5.98717 -23.20125,-18.59192c-0.07722,-8.64842 14.04103,-17.09494 19.12911,-25.43898c1.73976,-2.85309 0.21639,-7.88032 -4.01952,-8.14753c-6.97498,-0.44001 -18.73761,5.18068 -16.43553,4.10337c8.46071,-9.92361 19.74359,-18.06226 28.18112,-14.09494c11.62423,5.4657 19.66946,29.42355 21.46796,40.13866c0.1364,0.81267 -3.77156,-0.43719 -8.16919,-0.08491c-4.32553,0.3465 -9.14108,2.27555 -9.11229,5.37128c0.02643,2.84234 5.05506,0.48795 9.80656,-0.49694c3.91084,-0.81064 7.71459,-0.12906 7.68873,0.25446c-0.73784,10.94133 -13.41194,17.35642 -25.33569,16.98745z" data-paper-data="{&quot;index&quot;:null}" fill="url(#color-2)" stroke="#400037" stroke-width="2.5"/><path d="M269.19728,186.89494c-1.46655,0 -2.65543,-1.18889 -2.65543,-2.65544c0,-1.46655 1.18887,-0.90543 2.65543,-0.90543c1.46656,0 2.65544,-0.56112 2.65544,0.90543c0,1.46656 -1.18888,2.65544 -2.65544,2.65544z" data-paper-data="{&quot;index&quot;:null}" fill="#000000" stroke="none" stroke-width="0.5"/><path d="M258.04445,187.16047c-1.46656,0 -2.65544,-1.18889 -2.65544,-2.65544c0,-1.46655 1.18888,-0.90543 2.65544,-0.90543c1.46656,0 2.65544,-0.56112 2.65544,0.90543c0,1.46656 -1.18888,2.65544 -2.65544,2.65544z" data-paper-data="{&quot;index&quot;:null}" fill="#000000" stroke="none" stroke-width="0.5"/><path d="M249.41156,199.86752c1.15771,2.73347 -2.64482,6.95735 -8.49319,9.43431c-5.84836,2.47696 -11.5279,2.269 -12.68561,-0.46447c-1.15771,-2.73347 2.64482,-6.95736 8.49319,-9.43432c5.84836,-2.47695 11.5279,-2.26899 12.68561,0.46448z" data-paper-data="{&quot;index&quot;:null}" fill="url(#color-3)" stroke="#400037" stroke-width="2.5"/></g></g></svg>