<svg version="1.1" xmlns="http://www.w3.org/2000/svg" xmlns:xlink="http://www.w3.org/1999/xlink" width="120.21916" height="85.4045" viewBox="0,0,120.21916,85.4045"><defs><radialGradient cx="240" cy="180" r="33.35742" gradientUnits="userSpaceOnUse" id="color-1"><stop offset="0" stop-color="#ffffff"/><stop offset="1" stop-color="#ffffff" stop-opacity="0"/></radialGradient></defs><g transform="translate(-188.23438,-131.92809)"><g data-paper-data="{&quot;isPaintingLayer&quot;:true}" fill-rule="nonzero" stroke-linecap="butt" stroke-linejoin="miter" stroke-miterlimit="10" stroke-dasharray="" stroke-dashoffset="0" style="mix-blend-mode: normal"><path d="M278.03678,177.9861c0,12.78593 29.16676,26.46056 29.16676,26.46056v-52.92113c0,0 -29.16676,13.07326 -29.16676,26.46056z" fill="#dfce9b" stroke="#a09470" stroke-width="2.5"/><path d="M220.90602,145.45838c0,5.7828 21.2346,1.70207 26.76125,0c1.20275,-0.37042 9.26823,-12.57551 3.60826,-12.27482c-8.95491,0.47573 -30.36951,6.49202 -30.36951,12.27482z" fill="#dfce9b" stroke="#a09470" stroke-width="2.5"/><path d="M290.51562,180c0,19.92786 -22.61662,36.08258 -50.51562,36.08258c-15.69752,0 -32.21287,-3.55829 -38.24332,-12.41079c-1.87073,-2.74617 10.85439,-5.22045 5.93077,-13.17671c-5.08792,-8.22174 -10.45031,2.74546 -14.37614,0.84253c-3.22699,-1.56419 -3.82693,-8.97492 -3.82693,-11.33762c0,-19.92786 22.61662,-36.08258 50.51562,-36.08258c27.899,0 50.51562,16.15472 50.51562,36.08258z" fill="#dfce9b" stroke="#a09470" stroke-width="2.5"/><path d="M198.05371,171.07027c0,-1.99279 1.61547,-3.60826 3.60826,-3.60826c1.99279,0 3.60826,1.61547 3.60826,3.60826c0,1.99279 -1.61547,3.60826 -3.60826,3.60826c-1.99279,0 -3.60826,-1.61547 -3.60826,-3.60826z" fill="#000000" stroke="none" stroke-width="0"/><path d="M273.35742,180c0,17.95529 -14.93462,32.51093 -33.35742,32.51093c-18.42279,0 -33.35742,-14.55564 -33.35742,-32.51093c0,-17.95529 14.93462,-32.51093 33.35742,-32.51093c18.42279,0 33.35742,14.55564 33.35742,32.51093z" fill="url(#color-1)" stroke="none" stroke-width="0"/><path d="M236.54181,177.53507c0,5.065 6.5292,9.17099 14.58338,9.17099c8.05418,0 14.58338,-4.10599 14.58338,-9.17099c0,-5.065 -6.5292,-9.17099 -14.58338,-9.17099c-8.05418,0 -14.58338,4.10599 -14.58338,9.17099z" fill="#dfce9b" stroke="#a09470" stroke-width="2.5"/></g></g></svg>