<svg version="1.1" xmlns="http://www.w3.org/2000/svg" xmlns:xlink="http://www.w3.org/1999/xlink" width="84.40346" height="60.51303" viewBox="0,0,84.40346,60.51303"><g transform="translate(-197.81729,-149.73867)"><g data-paper-data="{&quot;isPaintingLayer&quot;:true}" fill-rule="nonzero" stroke-linejoin="miter" stroke-miterlimit="10" stroke-dasharray="" stroke-dashoffset="0" style="mix-blend-mode: normal"><path d="M253.08333,178.81746l10,-4.7866l9.66667,-10.19753h8.16667l-1.66667,39.33333l-8.61735,-1.57618l-7.21598,-8.62135l-9.83333,-5.20282z" fill="#1ed93e" stroke="#000000" stroke-width="2.5" stroke-linecap="round"/><path d="M218.74374,165.50001l-0.18125,-8.0141l6.8875,-6.4859l20.3,0.46201l-7.6125,7.58051l-0.90625,5.05368z" fill="#1ed93e" stroke="#000000" stroke-width="2.5" stroke-linecap="round"/><path d="M211.44386,159.94517l37.72094,-0.15635l14.3352,14.50146v19.46558l-14.22269,15.08778l-37.13549,0.15635l-9.93115,-7.24162c0,0 1.88362,-2.20554 4.4879,-1.86896c2.03673,0.26323 4.39216,0.57973 5.7978,-0.3162c3.20298,-2.04152 1.62708,-4.76579 0.39607,-7.12874c-1.231,-2.36294 -6.80374,-3.95656 -8.01819,-4.40561c-2.05172,-0.75862 -5.79091,-0.22706 -5.79091,-0.22706l0.14623,-13.20882z" data-paper-data="{&quot;index&quot;:null}" fill="#1ed93e" stroke="#000000" stroke-width="2.5" stroke-linecap="round"/><path d="M222.75001,195.83334v-16.66666h29.66666v16.66666z" fill="#1ed93e" stroke="#000000" stroke-width="2.5" stroke-linecap="butt"/><path d="M203,179c0,-2.07107 1.67893,-3.75 3.75,-3.75c2.07107,0 3.75,1.67893 3.75,3.75c0,2.07107 -1.67893,3.75 -3.75,3.75c-2.07107,0 -3.75,-1.67893 -3.75,-3.75z" fill="#000000" stroke="none" stroke-width="0.5" stroke-linecap="butt"/></g></g></svg>