<svg version="1.1" xmlns="http://www.w3.org/2000/svg" xmlns:xlink="http://www.w3.org/1999/xlink" width="59.86225" height="50.45277" viewBox="0,0,59.86225,50.45277"><defs><radialGradient cx="197.33334" cy="215.74993" r="17.25" gradientUnits="userSpaceOnUse" id="color-1"><stop offset="0" stop-color="#49b296"/><stop offset="1" stop-color="#49b296" stop-opacity="0"/></radialGradient></defs><g transform="translate(-175.08333,-187.74992)"><g data-paper-data="{&quot;isPaintingLayer&quot;:true}" fill-rule="nonzero" stroke-linejoin="miter" stroke-miterlimit="10" stroke-dasharray="" stroke-dashoffset="0" style="mix-blend-mode: normal"><g><path d="M217.06302,223.68675l-0.73674,-7.19308c0,0 16.19657,-10.09246 17.3693,-7.76945c1.08877,2.15668 -2.84715,7.45296 -2.50673,9.97349c0.39299,2.90978 3.33669,7.85777 2.26163,9.33007c-1.29194,1.76932 -16.38747,-4.34103 -16.38747,-4.34103z" data-paper-data="{&quot;index&quot;:null}" fill="#1d473c" stroke="#00423c" stroke-width="2.5" stroke-linecap="butt"/><path d="M191.5,200.16659v-5.5c0,0 15.21442,-5.66667 18,-5.66667c3.33664,0 -5.33333,8.83333 -5.33333,8.83333z" fill="#1d473c" stroke="#00423c" stroke-width="2.5" stroke-linecap="butt"/><path d="M176.33333,214.78604c0,-0.55645 1.6562,0.81889 3.18442,1.12542c3.05286,0.61236 7.09033,0.44858 6.86095,-3.47742c-0.1524,-2.60854 -3.32776,-1.05053 -6.10865,-1.40708c-2.03918,-0.26146 -4.02035,-2.55402 -3.66655,-3.2335c3.61211,-6.93702 11.86777,-14.1741 20.22984,-14.1741c11.96617,0 21.66667,9.7005 21.66667,21.66667c0,11.96617 -9.7005,21.66666 -21.66667,21.66666c-11.96617,0 -20.5,-10.20049 -20.5,-22.16666z" fill="#1d473c" stroke="#00423c" stroke-width="2.5" stroke-linecap="butt"/><path d="M180.08334,215.74993c0,-9.52691 7.72309,-17.25 17.25,-17.25c9.52691,0 17.25,7.72309 17.25,17.25c0,9.52691 -7.72309,17.25 -17.25,17.25c-9.52691,0 -17.25,-7.72309 -17.25,-17.25z" fill="url(#color-1)" stroke="none" stroke-width="0" stroke-linecap="butt"/><path d="M192.91667,230.83326c0,0 -4.06378,-1.16378 -7.20389,-3.7919c-3.17113,-2.65408 -4.29611,-6.54143 -4.29611,-6.54143" data-paper-data="{&quot;index&quot;:null}" fill="none" stroke="#49b296" stroke-width="1.5" stroke-linecap="round"/><path d="M201.41667,199.33326c0,0 4.06378,1.16378 7.20389,3.7919c3.17113,2.65408 4.29611,6.54143 4.29611,6.54143" data-paper-data="{&quot;index&quot;:null}" fill="none" stroke="#49b296" stroke-width="1.5" stroke-linecap="round"/><path d="M212.52679,221.67162c-0.42408,2.26177 -4.36159,3.42147 -8.79466,2.59027c-4.43307,-0.8312 -7.683,-3.33855 -7.25892,-5.60032c0.42408,-2.26177 4.36159,-3.42147 8.79466,-2.59027c4.43307,0.8312 7.683,3.33855 7.25892,5.60032z" fill="#45a88e" stroke="#008277" stroke-width="2.5" stroke-linecap="butt"/><path d="M182.75,204.66659c0,-0.69036 0.55964,-1.25 1.25,-1.25c0.69036,0 1.25,0.55964 1.25,1.25c0,0.69036 -0.55964,1.25 -1.25,1.25c-0.69036,0 -1.25,-0.55964 -1.25,-1.25z" fill="#45a88e" stroke="none" stroke-width="0.5" stroke-linecap="butt"/><path d="M188.25,205.83326c0,-0.69036 0.55964,-1.25 1.25,-1.25c0.69036,0 1.25,0.55964 1.25,1.25c0,0.69036 -0.55964,1.25 -1.25,1.25c-0.69036,0 -1.25,-0.55964 -1.25,-1.25z" fill="#45a88e" stroke="none" stroke-width="0.5" stroke-linecap="butt"/></g></g></g></svg>