<svg version="1.1" xmlns="http://www.w3.org/2000/svg" xmlns:xlink="http://www.w3.org/1999/xlink" width="69.07418" height="29.02798" viewBox="0,0,69.07418,29.02798"><g transform="translate(-166.5,-145.40666)"><g data-paper-data="{&quot;isPaintingLayer&quot;:true}" fill-rule="nonzero" stroke-linecap="butt" stroke-linejoin="miter" stroke-miterlimit="10" stroke-dasharray="" stroke-dashoffset="0" style="mix-blend-mode: normal"><g><path d="M167.75,167.18464v-8h52.5v8c0,0 -24.38832,0 -37.75,0c-1.27784,0 1.29517,-4 0.25,-4c-1.18428,0 -5.9493,4 -6.75,4c-3.84135,0 -8.25,0 -8.25,0z" fill="#fff7e1" stroke="#fff5c3" stroke-width="2.5"/><path d="M221.5,173.18464v-20.25h4.75l7.75,10.25l-7.75,10z" fill="#f06dff" stroke="#bf00ff" stroke-width="2.5"/><path d="M201.37242,171.21763c-0.89044,0.96313 -3.62584,-0.1177 -6.1097,-2.41409c-2.48385,-2.29639 -3.77557,-4.93876 -2.88514,-5.90188c0.89044,-0.96313 3.62584,0.1177 6.1097,2.41409c2.48385,2.29639 3.77557,4.93876 2.88514,5.90188z" fill="#fff7e1" stroke="#fff5c3" stroke-width="2.5"/><path d="M186.25,158.93464c0,0 1.39212,-5.26417 5,-8.25c3.60788,-2.98583 9.5,-3.75 9.5,-3.75c0,0 -2,4.42377 -2,6.5c0,1.90986 2,5.5 2,5.5z" fill="#fff7e1" stroke="#fff5c3" stroke-width="2.5"/><path d="M171.5,162.43464c0,-0.69036 0.55964,-1.25 1.25,-1.25c0.69036,0 1.25,0.55964 1.25,1.25c0,0.69036 -0.55964,1.25 -1.25,1.25c-0.69036,0 -1.25,-0.55964 -1.25,-1.25z" fill="#000000" stroke="none" stroke-width="0.5"/></g></g></g></svg>