<svg version="1.1" xmlns="http://www.w3.org/2000/svg" xmlns:xlink="http://www.w3.org/1999/xlink" width="21.49282" height="13.72075" viewBox="0,0,21.49282,13.72075"><defs><linearGradient x1="231.49169" y1="179.71849" x2="231.49169" y2="182.86004" gradientUnits="userSpaceOnUse" id="color-1"><stop offset="0" stop-color="#e6cb59"/><stop offset="1" stop-color="#c38c35"/></linearGradient><linearGradient x1="242.47731" y1="174.92016" x2="240.85074" y2="176.98008" gradientUnits="userSpaceOnUse" id="color-2"><stop offset="0" stop-color="#e6cb59"/><stop offset="1" stop-color="#c38c35"/></linearGradient><linearGradient x1="241.95828" y1="177.38098" x2="241.95828" y2="186.23932" gradientUnits="userSpaceOnUse" id="color-3"><stop offset="0" stop-color="#e6cb59"/><stop offset="1" stop-color="#c38c35"/></linearGradient><linearGradient x1="236.83425" y1="182.4593" x2="238.14724" y2="184.73199" gradientUnits="userSpaceOnUse" id="color-4"><stop offset="0" stop-color="#e6cb59"/><stop offset="1" stop-color="#c38c35"/></linearGradient></defs><g transform="translate(-229.25359,-173.26857)"><g data-paper-data="{&quot;isPaintingLayer&quot;:true}" fill-rule="nonzero" stroke-linecap="butt" stroke-linejoin="miter" stroke-miterlimit="10" stroke-dasharray="" stroke-dashoffset="0" style="mix-blend-mode: normal"><g><path d="M235.79065,181.61996c0,0.86752 -2.81572,1.90147 -3.63758,1.90147c-0.82185,0 -2.14948,-1.36465 -2.14948,-2.23216c0,-0.86752 1.32763,-1.90146 2.14948,-1.90146c0.82185,0 3.63758,1.36464 3.63758,2.23215z" data-paper-data="{&quot;index&quot;:null}" fill="url(#color-1)" stroke="#7e5926" stroke-width="1.5"/><path d="M242.4773,174.92015c1.35098,1.06676 2.08204,2.39268 1.63288,2.96152c-0.44917,0.56884 -1.90847,0.16518 -3.25945,-0.90159c-1.35098,-1.06676 -2.08203,-2.39267 -1.63287,-2.96151c0.44916,-0.56884 1.90846,-0.16519 3.25944,0.90158z" data-paper-data="{&quot;index&quot;:null}" fill="url(#color-2)" stroke="#7e5926" stroke-width="1.5"/><path d="M241.95828,177.38098c4.43934,0 8.03813,1.983 8.03813,4.42917c0,2.44617 -3.5988,4.42917 -8.03813,4.42917c-4.43934,0 -8.03813,-1.983 -8.03813,-4.42917c0,-2.44617 3.59879,-4.42917 8.03813,-4.42917z" data-paper-data="{&quot;index&quot;:null}" fill="url(#color-3)" stroke="#7e5926" stroke-width="1.5"/><path d="M236.83425,182.4593c1.49051,-0.86111 2.99274,-1.05042 3.35531,-0.42283c0.36258,0.62759 -0.55181,1.83441 -2.04232,2.69552c-1.49051,0.86111 -2.99273,1.05042 -3.3553,0.42283c-0.36258,-0.62759 0.5518,-1.83441 2.04231,-2.69552z" data-paper-data="{&quot;index&quot;:null}" fill="url(#color-4)" stroke="#7e5926" stroke-width="1.5"/><path d="M247.03409,182.28729c-0.41422,0 -0.75,-0.33578 -0.75,-0.75c0,-0.41422 0.33578,-0.75 0.75,-0.75c0.41422,0 0.75,0.33578 0.75,0.75c0,0.41422 -0.33578,0.75 -0.75,0.75z" data-paper-data="{&quot;index&quot;:null}" fill="#000000" stroke="none" stroke-width="0.5"/></g></g></g></svg>