<svg version="1.1" xmlns="http://www.w3.org/2000/svg" xmlns:xlink="http://www.w3.org/1999/xlink" width="61.78571" height="57.36073" viewBox="0,0,61.78571,57.36073"><defs><linearGradient x1="260.54762" y1="187.83488" x2="260.54762" y2="207.47112" gradientUnits="userSpaceOnUse" id="color-1"><stop offset="0" stop-color="#e6cb59"/><stop offset="1" stop-color="#c38c35"/></linearGradient><linearGradient x1="252.00932" y1="152.52889" x2="252.00932" y2="166.17563" gradientUnits="userSpaceOnUse" id="color-2"><stop offset="0" stop-color="#e6cb59"/><stop offset="1" stop-color="#c38c35"/></linearGradient><linearGradient x1="237.11981" y1="157.18559" x2="237.11981" y2="200.85226" gradientUnits="userSpaceOnUse" id="color-3"><stop offset="0" stop-color="#e6cb59"/><stop offset="1" stop-color="#c38c35"/></linearGradient><linearGradient x1="242.94265" y1="175.18559" x2="242.94265" y2="186.51893" gradientUnits="userSpaceOnUse" id="color-4"><stop offset="0" stop-color="#e6cb59"/><stop offset="1" stop-color="#c38c35"/></linearGradient></defs><g transform="translate(-209.07065,-151.27888)"><g data-paper-data="{&quot;isPaintingLayer&quot;:true}" fill-rule="nonzero" stroke-linecap="butt" stroke-linejoin="miter" stroke-miterlimit="10" stroke-dasharray="" stroke-dashoffset="0" style="mix-blend-mode: normal"><path d="M260.21361,207.38961c-4.5087,-0.88986 -7.43917,-7.24943 -8.60134,-12.14857c-1.16217,-4.89914 1.55074,-8.14932 6.05943,-7.25947c4.5087,0.88986 10.7725,3.9161 11.93466,8.81524c1.16216,4.89914 -4.88406,11.48265 -9.39276,10.5928z" fill="url(#color-1)" stroke="#7e5926" stroke-width="2.5"/><path d="M258.85413,154.8977c1.85769,2.8545 0.29912,7.1629 -3.48117,9.62308c-3.78028,2.46018 -8.35076,2.14053 -10.20845,-0.71397c-1.85769,-2.8545 -0.29912,-7.1629 3.48116,-9.62309c3.78028,-2.46018 8.35076,-2.14053 10.20846,0.71397z" fill="url(#color-2)" stroke="#7e5926" stroke-width="2.5"/><path d="M263.10932,179.01893c0,12.05821 -11.64116,21.96037 -26,21.83334c-22.60633,-0.2 -26.37901,-14.9481 -26.37901,-14.9481c0,0 5.18957,0.58235 10.23116,-1.12627c4.34699,-1.47322 8.63527,-5.00882 8.78699,-7.85381c0.05345,-1.00218 -5.16168,2.93049 -10.06766,3.01157c-4.36339,0.07211 -9.48222,-0.33838 -9.43228,-0.5848c0.24059,-1.18717 2.38737,-6.67598 2.38737,-6.67598c0,0 9.08402,-15.28927 24.47343,-15.48927c14.35819,-0.1866 26,9.77512 26,21.83334z" fill="url(#color-3)" stroke="#7e5926" stroke-width="2.5"/><path d="M251.10932,180.85225c0,3.12962 -3.65634,5.66667 -8.16666,5.66667c-4.51032,0 -8.16666,-2.53705 -8.16666,-5.66667c0,-3.12962 3.65634,-5.66667 8.16666,-5.66667c4.51032,0 8.16666,2.53705 8.16666,5.66667z" fill="url(#color-4)" stroke="#7e5926" stroke-width="2.5"/><path d="M220.21352,170.54893c0,-0.69036 0.55964,-1.25 1.25,-1.25c0.69036,0 1.25,0.55964 1.25,1.25c0,0.69036 -0.55964,1.25 -1.25,1.25c-0.69036,0 -1.25,-0.55964 -1.25,-1.25z" fill="#000000" stroke="none" stroke-width="0.5"/><path d="M227.21352,171.34893c0,-0.69036 0.55964,-1.25 1.25,-1.25c0.69036,0 1.25,0.55964 1.25,1.25c0,0.69036 -0.55964,1.25 -1.25,1.25c-0.69036,0 -1.25,-0.55964 -1.25,-1.25z" fill="#000000" stroke="none" stroke-width="0.5"/></g></g></svg>