<svg version="1.1" xmlns="http://www.w3.org/2000/svg" xmlns:xlink="http://www.w3.org/1999/xlink" width="138.56428" height="91.60992" viewBox="0,0,138.56428,91.60992"><defs><linearGradient x1="172.15718" y1="206.72828" x2="211.47315" y2="196.3344" gradientUnits="userSpaceOnUse" id="color-1"><stop offset="0" stop-color="#8000ff"/><stop offset="1" stop-color="#b100ff"/></linearGradient><linearGradient x1="201.53214" y1="194.55496" x2="308.53214" y2="194.55496" gradientUnits="userSpaceOnUse" id="color-2"><stop offset="0" stop-color="#8000ff"/><stop offset="1" stop-color="#4200ff"/></linearGradient><linearGradient x1="225.44658" y1="187.69358" x2="257.95105" y2="198.74967" gradientUnits="userSpaceOnUse" id="color-3"><stop offset="0" stop-color="#8000ff"/><stop offset="1" stop-color="#b100ff"/></linearGradient><linearGradient x1="249.02058" y1="177.28422" x2="215.07946" y2="143.34309" gradientUnits="userSpaceOnUse" id="color-4"><stop offset="0" stop-color="#8000ff"/><stop offset="1" stop-color="#b100ff"/></linearGradient></defs><g transform="translate(-170.71786,-134.19504)"><g data-paper-data="{&quot;isPaintingLayer&quot;:true}" fill-rule="nonzero" stroke-linejoin="miter" stroke-miterlimit="10" stroke-dasharray="" stroke-dashoffset="0" style="mix-blend-mode: normal"><path d="M211.47315,196.3344c2.49666,9.44386 -6.47424,6.01526 -14.74287,10.3122c-0.64476,0.33506 -2.61683,4.23821 -1.61009,7.68948c1.02456,3.51238 5.02768,6.57261 4.28325,6.76942c-10.8568,2.87019 -24.3568,-3.44753 -27.24626,-14.37722c-2.88945,-10.92969 3.56935,-22.1167 14.42616,-24.9869c0.32236,-0.08522 -1.05282,6.99623 0.19001,10.99589c1.49234,4.8026 5.63668,6.67727 6.02379,6.61799c0.5266,-0.08064 16.1155,-12.70626 18.67601,-3.02085z" fill="url(#color-1)" stroke="#460088" stroke-width="1.5" stroke-linecap="butt"/><path d="M308.53214,194.55496c0,16.84468 -23.95276,30.5 -53.5,30.5c-29.54723,0 -53.5,-13.65532 -53.5,-30.5c0,-16.84468 23.95277,-30.5 53.5,-30.5c29.54724,0 53.5,13.65532 53.5,30.5z" fill="url(#color-2)" stroke="#460088" stroke-width="1.5" stroke-linecap="butt"/><path d="M307.19881,201.72163c0,0 -4.8195,4.96071 -11.72718,5.38625c-6.52917,0.40222 -9.60616,-2.71958 -9.60616,-2.71958" fill="none" stroke="#460088" stroke-width="1.5" stroke-linecap="round"/><path d="M293.69881,191.05496c0,-1.38071 1.11929,-2.5 2.5,-2.5c1.38071,0 2.5,1.11929 2.5,2.5c0,1.38071 -1.11929,2.5 -2.5,2.5c-1.38071,0 -2.5,-1.11929 -2.5,-2.5z" fill="#003186" stroke="none" stroke-width="0.5" stroke-linecap="butt"/><path d="M283.86546,190.05496l5.33334,3l-3.66667,3.66666" fill="none" stroke="#003186" stroke-width="1.5" stroke-linecap="round"/><path d="M257.95105,198.74967c-1.33386,3.92149 -9.69154,4.6255 -18.6674,1.57245c-8.97586,-3.05306 -15.17093,-8.70704 -13.83707,-12.62853c1.33386,-3.92149 9.69154,-4.6255 18.6674,-1.57245c8.97586,3.05306 15.17093,8.70704 13.83707,12.62854z" fill="url(#color-3)" stroke="#460088" stroke-width="1.5" stroke-linecap="butt"/><path d="M250.90621,141.45747c9.37258,9.37259 19.42034,33.78987 4.71404,32.99832c-17.08065,-0.91935 -10.6621,-9.2479 -20.03469,-18.62048c-9.37258,-9.37258 -30.92008,-2.07824 -20.5061,-12.49222c10.41398,-10.41398 26.45416,-11.2582 35.82675,-1.88562z" fill="url(#color-4)" stroke="#460088" stroke-width="1.5" stroke-linecap="butt"/></g></g></svg>