<svg version="1.1" xmlns="http://www.w3.org/2000/svg" xmlns:xlink="http://www.w3.org/1999/xlink" width="71.74698" height="61.55631" viewBox="0,0,71.74698,61.55631"><g transform="translate(-203.96115,-148.41737)"><g data-paper-data="{&quot;isPaintingLayer&quot;:true}" fill-rule="nonzero" stroke-linejoin="miter" stroke-miterlimit="10" stroke-dasharray="" stroke-dashoffset="0" style="mix-blend-mode: normal"><path d="M250.70369,184.3401c-2.8926,3.5367 -10.43718,4.01759 -11.56235,-1.83714c-1.12517,-5.85473 3.77554,-11.93988 9.07654,-11.0976c5.301,0.84227 5.37843,9.39804 2.48582,12.93474z" fill="#bfa583" stroke="#000000" stroke-width="2.5" stroke-linecap="round"/><g><path d="M230.63724,191.49877l5.65291,-5.32039l6.48422,14.13228l-11.80461,2.99272z" fill="#bfa583" stroke="#000000" stroke-width="2.5" stroke-linecap="round"/><g><path d="M229.14607,205.6931c-4.06807,2.33447 -16.53955,1.41858 -20.19967,-0.99434c-4.73317,-3.12032 -4.21933,-13.90109 -0.3771,-17.87322c3.82458,-3.95388 16.12451,-4.60343 20.64594,1.06752c4.52143,5.67095 3.40423,15.80682 -0.06918,17.80004z" data-paper-data="{&quot;index&quot;:null}" fill="#bfa583" stroke="#000000" stroke-width="2.5" stroke-linecap="round"/><path d="M208.13724,193.80338c0,-1.38071 1.11929,-2.5 2.5,-2.5c1.38071,0 2.5,1.11929 2.5,2.5c0,1.38071 -1.11929,2.5 -2.5,2.5c-1.38071,0 -2.5,-1.11929 -2.5,-2.5z" fill="#000000" stroke="none" stroke-width="0.5" stroke-linecap="butt"/><path d="M217.88724,195.05338c0,-1.38071 1.11929,-2.5 2.5,-2.5c1.38071,0 2.5,1.11929 2.5,2.5c0,1.38071 -1.11929,2.5 -2.5,2.5c-1.38071,0 -2.5,-1.11929 -2.5,-2.5z" fill="#000000" stroke="none" stroke-width="0.5" stroke-linecap="butt"/></g><path d="M233.88724,199.80338c0,1.86396 -2.46243,3.375 -5.5,3.375c-3.03757,0 -5.5,-1.51104 -5.5,-3.375c0,-1.86396 2.46243,-3.375 5.5,-3.375c3.03757,0 5.5,1.51104 5.5,3.375z" fill="#bfa583" stroke="#000000" stroke-width="2.5" stroke-linecap="butt"/><path d="M212.30636,187.30815l6.80552,-8.03744l9.12473,1.44951l-5.2346,4.74764z" fill="#bfa583" stroke="#000000" stroke-width="2.5" stroke-linecap="round"/></g><path d="M254.90257,190.37885c0.43518,-2.73503 2.58686,-16.95863 9.15494,-14.96105c6.56808,1.99758 11.61069,11.62362 10.14565,20.83104c-1.46504,9.20742 -8.92504,-1.02561 -13.05264,-2.56137c-4.1276,-1.53576 -6.68314,-0.57359 -6.24795,-3.30862z" fill="#bfa583" stroke="#000000" stroke-width="2.5" stroke-linecap="round"/><path d="M230.00698,203.60857c-7.20592,-7.0685 -8.24748,-18.57113 -0.10151,-24.28898c8.14597,-5.71785 19.45597,-2.94197 27.56459,5.01201c8.10861,7.95398 5.53904,15.40546 -1.62431,20.43358c-7.16335,5.02812 -18.63285,5.91189 -25.83877,-1.15661z" fill="#bfa583" stroke="#000000" stroke-width="2.5" stroke-linecap="butt"/><path d="M229.34126,192.81334c0,-1.45606 1.18038,-2.63644 2.63644,-2.63644c1.45606,0 2.63644,1.18038 2.63644,2.63644c0,1.45606 -1.18037,2.63644 -2.63644,2.63644c-1.45606,0 -2.63644,-1.18037 -2.63644,-2.63644z" fill="#000000" stroke="none" stroke-width="0.5" stroke-linecap="butt"/><path d="M241.2931,193.69215c0,-1.45606 1.18038,-2.63644 2.63644,-2.63644c1.45606,0 2.63643,1.18038 2.63643,2.63644c0,1.45606 -1.18037,2.63644 -2.63643,2.63644c-1.45606,0 -2.63644,-1.18037 -2.63644,-2.63644z" fill="#000000" stroke="none" stroke-width="0.5" stroke-linecap="butt"/><path d="M270.99697,195.02841c0,3.33899 -4.79337,6.04576 -9.31541,6.04576c-4.52204,0 -9.31541,-2.70677 -9.31541,-6.04576c0,-3.33899 4.79336,-6.04577 9.31541,-6.04577c4.52205,0 9.31541,2.70678 9.31541,6.04577z" fill="#bfa583" stroke="#000000" stroke-width="2.5" stroke-linecap="butt"/><path d="M237.64657,168.78654l8.68116,-14.1868l9.62061,19.75302c0,0 -8.46316,-0.97253 -12.37715,-2.42882c-3.97241,-1.47802 -5.92462,-3.13739 -5.92462,-3.13739z" fill="#bfa583" stroke="#000000" stroke-width="2.5" stroke-linecap="round"/><path d="M207.03935,186.33162l-0.09627,-23.032l26.13811,4.75263l-1.54025,19.37613z" fill="#bfa583" stroke="#000000" stroke-width="2.5" stroke-linecap="butt"/><path d="M232.82022,168.17411l11.43337,-5.24009l3.48783,20.59476l-16.18267,3.53401z" fill="#bfa583" stroke="#000000" stroke-width="2.5" stroke-linecap="round"/><path d="M207.64866,163.05589l11.33321,-6.33685l24.37249,5.97126l-11.08948,4.63077z" fill="#bfa583" stroke="#000000" stroke-width="2.5" stroke-linecap="round"/><path d="M209.40808,176.26171c0,-1.38071 1.11929,-2.5 2.5,-2.5c1.38071,0 2.5,1.11929 2.5,2.5c0,1.38071 -1.11929,2.5 -2.5,2.5c-1.38071,0 -2.5,-1.11929 -2.5,-2.5z" fill="#000000" stroke="none" stroke-width="0.5" stroke-linecap="butt"/><path d="M219.74141,176.92838c0,-1.38071 1.11929,-2.5 2.5,-2.5c1.38071,0 2.5,1.11929 2.5,2.5c0,1.38071 -1.11929,2.5 -2.5,2.5c-1.38071,0 -2.5,-1.11929 -2.5,-2.5z" fill="#000000" stroke="none" stroke-width="0.5" stroke-linecap="butt"/><path d="M219.201,161.7996l8.60682,-10.52329l2.35718,12.26535z" fill="#bfa583" stroke="#000000" stroke-width="2.5" stroke-linecap="round"/><path d="M247.24141,177.36215c0,3.16619 -8.83333,5.73289 -8.83333,5.73289c0,0 -8.83334,-2.5667 -8.83334,-5.73289c0,-3.16619 8.83334,-5.73289 8.83334,-5.73289c0,0 8.83333,2.5667 8.83333,5.73289z" fill="#bfa583" stroke="#000000" stroke-width="2.5" stroke-linecap="butt"/></g></g></svg>