<svg version="1.1" xmlns="http://www.w3.org/2000/svg" xmlns:xlink="http://www.w3.org/1999/xlink" width="67.70612" height="59.94962" viewBox="0,0,67.70612,59.94962"><g transform="translate(-97.2474,-289.09136)"><g data-paper-data="{&quot;isPaintingLayer&quot;:true}" fill-rule="nonzero" stroke-linejoin="miter" stroke-miterlimit="10" stroke-dasharray="" stroke-dashoffset="0" style="mix-blend-mode: normal"><g><path d="M118.96781,318.56273c0,0 3.86589,-8.69566 8.55743,-11.36267c7.84383,-4.45901 12.55591,-4.37634 12.55591,-4.37634c0,0 -7.90962,4.82145 -8.43324,9.42552c-0.33176,2.91709 6.39648,8.48309 6.39648,8.48309z" fill="#ff9600" stroke="#d27a00" stroke-width="2" stroke-linecap="butt"/><path d="M144.81695,335.5957l-1.9191,-12.06439c0,0 4.4931,-4.12248 7.22292,-5.81434c2.89078,-1.79161 9.66649,-4.65321 9.66649,-4.65321c0,0 -6.06615,9.63662 -5.62398,13.69172c0.4269,3.91509 8.23276,10.23364 8.23276,10.23364c0,0 -6.69293,0.57591 -9.8182,0.32819c-2.65866,-0.21074 -7.7609,-1.72159 -7.7609,-1.72159z" fill="#ff9600" stroke="#d27a00" stroke-width="2" stroke-linecap="butt"/><path d="M148.67724,331.31303c-0.17291,7.9963 -10.01444,14.26881 -21.98171,14.01004c-11.96725,-0.25878 -21.52846,-6.95083 -21.35555,-14.94714c0.17291,-7.9963 10.01444,-14.26881 21.98171,-14.01004c11.96725,0.25878 21.52846,6.95082 21.35556,14.94713z" fill="#ff9600" stroke="#d27a00" stroke-width="2" stroke-linecap="butt"/><path d="M150.82956,343.93702c-0.9524,1.89133 -5.60864,1.46866 -10.40002,-0.94407c-4.79138,-2.41273 -7.90349,-5.90187 -6.95111,-7.79319c0.9524,-1.89133 5.60863,-1.46866 10.40002,0.94407c4.79138,2.41273 7.90349,5.90186 6.9511,7.7932z" fill="#ff9600" stroke="#d27a00" stroke-width="2" stroke-linecap="butt"/><path d="M135.01394,302.18635c0.36159,-1.26388 3.31579,-3.33575 4.5418,-3.39262c0.70125,-0.03254 -0.44568,1.64557 0.27725,1.85239c0.95645,0.27364 3.21866,-0.94564 3.68886,-0.1525c0.50655,0.85445 -1.78894,2.01378 -2.08371,3.04416c-0.33755,1.17985 2.38636,1.47981 1.54201,2.08733c-0.57751,0.41551 -4.59099,1.41877 -5.39797,1.1879c-1.98682,-0.56842 -3.13667,-2.63984 -2.56824,-4.62666z" fill="#71ff00" stroke="#5cd100" stroke-width="2" stroke-linecap="butt"/><path d="M109.47803,328.22791c0.01749,-0.80854 0.68712,-1.44983 1.49565,-1.43234c0.80854,0.01748 1.44983,0.68712 1.43234,1.49566c-0.01749,0.80854 -0.68712,1.44983 -1.49565,1.43234c-0.80854,-0.01748 -1.44983,-0.68712 -1.43234,-1.49565z" fill="#000000" stroke="none" stroke-width="0.5" stroke-linecap="butt"/><path d="M118.93768,334.44108c0,0 -3.13821,2.28598 -5.5761,2.52518c-2.62709,0.25776 -6.01541,-0.41952 -6.01541,-0.41952" fill="none" stroke="#d27a00" stroke-width="2" stroke-linecap="round"/><path d="M110.11725,327.07314l3.68551,-1.99193" fill="none" stroke="#000000" stroke-width="2" stroke-linecap="round"/><path d="M108.61767,322.42296l-7.71589,-10.75178l4.16962,-2.69398l4.53237,2.22278l-2.46512,-16.8077l8.09986,14.65001l2.11103,-4.02832l4.35533,-0.26535l-1.63247,14.23634z" fill="#ffeb00" stroke="#d1b700" stroke-width="2" stroke-linecap="butt"/><path d="M98.28811,309.70755c-0.29023,-1.88488 1.0025,-3.64816 2.88739,-3.93839c1.88488,-0.29023 3.64816,1.0025 3.93839,2.88738c0.29023,1.88488 -1.0025,3.64816 -2.88738,3.93839c-1.88489,0.29023 -3.64817,-1.0025 -3.93839,-2.88738z" fill="#71ff00" stroke="#5cd100" stroke-width="2" stroke-linecap="butt"/><path d="M116.63919,303.8142c-0.29023,-1.88488 1.0025,-3.64816 2.88738,-3.93839c1.88488,-0.29023 3.64816,1.0025 3.93839,2.88738c0.29023,1.88488 -1.0025,3.64816 -2.88739,3.93839c-1.88488,0.29023 -3.64816,-1.0025 -3.93839,-2.88738z" fill="#71ff00" stroke="#5cd100" stroke-width="2" stroke-linecap="butt"/><path d="M103.83161,295.90135c-0.29023,-1.88488 1.0025,-3.64816 2.88738,-3.93839c1.88488,-0.29023 3.64816,1.0025 3.93839,2.88738c0.29023,1.88488 -1.0025,3.64817 -2.88738,3.93839c-1.88488,0.29023 -3.64816,-1.0025 -3.93839,-2.88739z" fill="#00f2ff" stroke="#00d1ca" stroke-width="2" stroke-linecap="butt"/></g></g></g></svg>