<svg version="1.1" xmlns="http://www.w3.org/2000/svg" xmlns:xlink="http://www.w3.org/1999/xlink" width="63.32278" height="50.89404" viewBox="0,0,63.32278,50.89404"><g transform="translate(-26.89788,-292.43312)"><g data-paper-data="{&quot;isPaintingLayer&quot;:true}" fill-rule="nonzero" stroke-linejoin="miter" stroke-miterlimit="10" stroke-dasharray="" stroke-dashoffset="0" style="mix-blend-mode: normal"><g><path d="M58.25795,297.07957c0.34917,-1.3284 3.38826,-3.55934 4.66764,-3.64645c0.73178,-0.04982 -0.42838,1.729 0.33144,1.92871c1.00526,0.26423 3.34079,-1.06049 3.84988,-0.24261c0.54843,0.8811 -1.8232,2.14396 -2.10785,3.22693c-0.32595,1.24007 2.52618,1.49188 1.6579,2.14555c-0.59386,0.44708 -4.76362,1.58571 -5.61177,1.36278c-2.08823,-0.54888 -3.33612,-2.68668 -2.78724,-4.77491z" fill="#71ff00" stroke="#5cd100" stroke-width="2" stroke-linecap="butt"/><g><path d="M41.8664,314.54844c0,0 3.84182,-9.17063 8.68226,-12.0625c8.09278,-4.83496 13.01679,-4.85504 13.01679,-4.85504c0,0 -8.15332,5.21504 -8.5963,10.03619c-0.28067,3.05462 6.87323,8.71678 6.87323,8.71678z" fill="#ff9600" stroke="#d27a00" stroke-width="2" stroke-linecap="butt"/><path d="M69.25261,331.75686l-2.27716,-12.55887c0,0 4.60029,-4.40775 7.41357,-6.23668c2.97917,-1.93677 9.99232,-5.07899 9.99232,-5.07899c0,0 -6.1189,10.20323 -5.56543,14.42911c0.53436,4.07999 8.83092,10.50388 8.83092,10.50388c0,0 -6.9783,0.75276 -10.24848,0.56459c-2.78195,-0.16008 -8.14575,-1.62304 -8.14575,-1.62304z" fill="#ff9600" stroke="#d27a00" stroke-width="2" stroke-linecap="butt"/><path d="M73.18825,327.19606c0,8.35668 -10.13859,15.1311 -22.64519,15.1311c-12.50659,0 -22.64518,-6.77442 -22.64518,-15.1311c0,-8.35668 10.13859,-15.1311 22.64518,-15.1311c12.50659,0 22.64519,6.77442 22.64519,15.1311z" fill="#ff9600" stroke="#d27a00" stroke-width="2" stroke-linecap="butt"/><path d="M72.49822,338.13799c-0.39579,2.17682 -5.18711,3.12867 -10.70173,2.12601c-5.51462,-1.00266 -9.66425,-3.58014 -9.26846,-5.75696c0.39579,-2.17682 5.18711,-3.12868 10.70173,-2.12601c5.51462,1.00266 9.66425,3.58014 9.26846,5.75696z" fill="#ff9600" stroke="#d27a00" stroke-width="2" stroke-linecap="butt"/><path d="M32.17188,324.85884c0,-0.84498 0.685,-1.52998 1.52998,-1.52998c0.84498,0 1.52998,0.685 1.52998,1.52998c0,0.84498 -0.685,1.52998 -1.52998,1.52998c-0.84498,0 -1.52998,-0.685 -1.52998,-1.52998z" fill="#000000" stroke="none" stroke-width="0.5" stroke-linecap="butt"/><path d="M30.13288,333.59668c0,0 2.7805,-1.73453 5.51888,-2.06313c2.54117,-0.30493 6.54182,-0.39823 6.54182,-0.39823" fill="none" stroke="#d27a00" stroke-width="2" stroke-linecap="round"/><path d="M31.88581,323.44418l3.80482,-2.16397" fill="none" stroke="#000000" stroke-width="2" stroke-linecap="round"/></g></g></g></g></svg>