<svg version="1.1" xmlns="http://www.w3.org/2000/svg" xmlns:xlink="http://www.w3.org/1999/xlink" width="75.8107" height="75.53566" viewBox="0,0,75.8107,75.53566"><defs><linearGradient x1="224.49829" y1="193.8112" x2="213.07001" y2="210.88247" gradientUnits="userSpaceOnUse" id="color-1"><stop offset="0" stop-color="#358fb0"/><stop offset="1" stop-color="#6ecbe0"/></linearGradient><linearGradient x1="236.91524" y1="147.3129" x2="236.91524" y2="160.7698" gradientUnits="userSpaceOnUse" id="color-2"><stop offset="0" stop-color="#358fb0"/><stop offset="1" stop-color="#6ecbe0"/></linearGradient><linearGradient x1="247.8674" y1="147.78322" x2="247.8674" y2="201.32554" gradientUnits="userSpaceOnUse" id="color-3"><stop offset="0" stop-color="#358fb0"/><stop offset="1" stop-color="#6ecbe0"/></linearGradient><linearGradient x1="240.30989" y1="167.06381" x2="240.30989" y2="181.45944" gradientUnits="userSpaceOnUse" id="color-4"><stop offset="0" stop-color="#358fb0"/><stop offset="1" stop-color="#6ecbe0"/></linearGradient><linearGradient x1="235.66362" y1="176.92525" x2="215.66732" y2="187.99211" gradientUnits="userSpaceOnUse" id="color-5"><stop offset="0" stop-color="#358fb0"/><stop offset="1" stop-color="#6ecbe0"/></linearGradient><linearGradient x1="230.71408" y1="151.52582" x2="208.03879" y2="154.67087" gradientUnits="userSpaceOnUse" id="color-6"><stop offset="0" stop-color="#358fb0"/><stop offset="1" stop-color="#6ecbe0"/></linearGradient><linearGradient x1="223.17876" y1="152.70489" x2="208.92876" y2="152.70489" gradientUnits="userSpaceOnUse" id="color-7"><stop offset="0" stop-color="#358fb0"/><stop offset="1" stop-color="#6ecbe0"/></linearGradient></defs><g transform="translate(-202.09465,-142.28342)"><g data-paper-data="{&quot;isPaintingLayer&quot;:true}" fill-rule="nonzero" stroke-linejoin="miter" stroke-miterlimit="10" stroke-dasharray="" stroke-dashoffset="0" style="mix-blend-mode: normal"><path d="M225.40596,216.36734c-5.05669,0.8168 -11.03899,-1.03214 -8.5312,-2.23289c11.01766,-5.27535 3.89308,-8.71386 1.0568,-10.08092c-2.88345,-1.3898 -11.94348,4.92356 -12.98299,2.87974c-0.02259,-0.04442 -2.90624,-3.89497 -0.88638,-8.66913c2.01986,-4.77415 10.79263,-8.21841 18.37924,-4.56172c7.58659,3.6567 11.30834,13.56417 9.28848,18.33833c-0.48986,1.15784 -3.12717,3.81021 -6.32395,4.32659z" data-paper-data="{&quot;index&quot;:null}" fill="url(#color-1)" stroke="#20687d" stroke-width="2.5" stroke-linecap="butt"/><path d="M224.63893,151.45685c0.72208,-3.42991 6.80374,-5.05327 13.58377,-3.62589c6.78002,1.42738 11.69095,5.36498 10.96887,8.79487c-0.72209,3.4299 -6.80374,5.05327 -13.58377,3.62589c-6.78003,-1.42738 -11.69096,-5.36498 -10.96888,-8.79487z" data-paper-data="{&quot;index&quot;:null}" fill="url(#color-2)" stroke="#20687d" stroke-width="2.5" stroke-linecap="butt"/><path d="M234.74097,162.78897c13.42984,-13.42983 29.78374,-18.84999 36.52748,-12.10625c3.451,3.45101 7.01159,11.18649 4.59273,18.14816c-3.45693,9.94935 -10.96516,16.09398 -16.69899,18.37932c-17.64293,7.03192 -29.78373,18.84999 -36.52747,12.10625c-6.74374,-6.74374 -1.32359,-23.09765 12.10625,-36.52748z" data-paper-data="{&quot;index&quot;:null}" fill="url(#color-3)" stroke="#20687d" stroke-width="2.5" stroke-linecap="butt"/><path d="M231.27849,179.27905c-1.58345,-2.85022 1.17638,-7.40716 6.16428,-10.17822c4.9879,-2.77106 10.31504,-2.70687 11.89849,0.14335c1.58346,2.85022 -1.17637,7.40716 -6.16427,10.17822c-4.9879,2.77106 -10.31504,2.70687 -11.89849,-0.14335z" data-paper-data="{&quot;index&quot;:null}" fill="url(#color-4)" stroke="#20687d" stroke-width="2.5" stroke-linecap="butt"/><path d="M269.82855,162.74936c-0.81514,0 -1.47593,-0.66079 -1.47593,-1.47593c0,-0.81514 0.66079,-1.47593 1.47593,-1.47593c0.81513,0 1.47593,0.66079 1.47593,1.47593c0,0.81514 -0.66079,1.47593 -1.47593,1.47593z" data-paper-data="{&quot;index&quot;:null}" fill="#000000" stroke="none" stroke-width="0.5" stroke-linecap="butt"/><path d="M263.62963,163.33973c-0.81513,0 -1.47593,-0.66079 -1.47593,-1.47593c0,-0.81514 0.66079,-1.47593 1.47593,-1.47593c0.81514,0 1.47593,0.66079 1.47593,1.47593c0,0.81514 -0.66079,1.47593 -1.47593,1.47593z" data-paper-data="{&quot;index&quot;:null}" fill="#000000" stroke="none" stroke-width="0.5" stroke-linecap="butt"/><path d="M275.86566,168.01862c0,0 -2.62343,4.13738 -8.42988,4.61895c-8.75471,0.20684 -9.11951,-2.6955 -9.11951,-2.6955" data-paper-data="{&quot;index&quot;:null}" fill="none" stroke="#20687d" stroke-width="2.5" stroke-linecap="round"/><path d="M229.2676,188.37346c-2.8961,1.60283 -3.25634,-0.98428 -2.06055,-3.23648c1.08415,-2.04194 3.65306,-3.63552 2.94271,-4.80194c-0.64,-1.0509 -3.7748,0.43114 -6.01547,0.20341c-2.98935,-0.30383 -4.86452,-2.26938 -1.70838,-4.01613c5.52183,-3.05603 11.74386,-2.05001 13.23771,0.40293c1.49385,2.45294 -0.8742,8.39218 -6.39602,11.44821z" data-paper-data="{&quot;index&quot;:null}" fill="url(#color-5)" stroke="#20687d" stroke-width="2.5" stroke-linecap="butt"/><path d="M221.43256,162.83967c-3.28409,0.4555 -2.97782,-3.1198 -1.21388,-5.38081c1.59928,-2.04993 4.55644,-2.67794 4.15096,-4.59896c-0.36532,-1.73077 -3.85522,-1.56736 -6.01957,-3.12812c-2.88753,-2.08227 -4.24353,-5.70196 -0.66455,-6.19836c6.2616,-0.86849 12.17586,3.95254 13.02856,7.9924c0.8527,4.03986 -3.01992,10.44537 -9.28152,11.31385z" data-paper-data="{&quot;index&quot;:null}" fill="url(#color-6)" stroke="#20687d" stroke-width="2.5" stroke-linecap="butt"/><path d="M208.92876,152.70489c0,-1.65685 3.18997,-3 7.125,-3c3.93503,0 7.125,1.34315 7.125,3c0,1.65685 -3.18997,3 -7.125,3c-3.93503,0 -7.125,-1.34315 -7.125,-3z" data-paper-data="{&quot;index&quot;:null}" fill="url(#color-7)" stroke="#20687d" stroke-width="2.5" stroke-linecap="butt"/><path d="M268.4109,160.6281l3.14286,-0.71429" data-paper-data="{&quot;index&quot;:null}" fill="none" stroke="#000000" stroke-width="1.5" stroke-linecap="round"/><path d="M264.98233,161.19953l-3.42857,-0.71429" data-paper-data="{&quot;index&quot;:null}" fill="none" stroke="#000000" stroke-width="1.5" stroke-linecap="round"/></g></g></svg>