<svg version="1.1" xmlns="http://www.w3.org/2000/svg" xmlns:xlink="http://www.w3.org/1999/xlink" width="66.97705" height="98.58685" viewBox="0,0,66.97705,98.58685"><g transform="translate(-205.53389,-131.53784)"><g data-paper-data="{&quot;isPaintingLayer&quot;:true}" fill-rule="nonzero" stroke-linejoin="miter" stroke-miterlimit="10" stroke-dasharray="" stroke-dashoffset="0" style="mix-blend-mode: normal"><path d="M258.6602,220.44267c-1.28026,1.74713 -0.74946,7.62248 -0.74946,7.62248c0,0 -9.62965,-4.53098 -12.95084,-6.96467c-1.63796,-1.20024 -5.91856,-1.14031 -7.17894,-3.26807c-1.49803,-2.52899 -1.5552,-6.47362 -2.83552,-8.94212c-1.5947,-3.07462 -3.80911,-5.66184 -3.80911,-5.66184c0,0 3.15347,-1.83035 7.8531,-1.5242c4.85979,0.31656 11.31979,2.80565 14.37494,5.04438c6.00961,4.40368 8.15768,9.78858 5.29585,13.69405z" fill="#185bed" stroke="#000000" stroke-width="2.5" stroke-linecap="butt"/><path d="M258.67077,135.81608c0.54032,4.37489 -6.56482,12.93082 -11.80236,13.57768c-5.23754,0.64686 -9.54008,2.30872 -10.55242,-1.98158c-1.90139,-8.058 3.3582,-13.21442 8.59573,-13.86128c5.23754,-0.64686 13.21873,-2.10972 13.75905,2.26517z" fill="#185bed" stroke="#000000" stroke-width="2.5" stroke-linecap="butt"/><path d="M249.33101,148.65237c20.57948,12.92368 25.35136,30.87223 19.77026,42.99878c-5.58111,12.12655 -10.57092,20.12464 -19.75724,18.9693c-2.11409,-0.26589 -3.48646,-9.53901 -6.63775,-17.19492c-2.60095,-6.31887 -5.50168,-7.27782 -7.85308,-9.05537c-2.55396,-1.93066 -7.69347,-3.03818 -10.8831,-3.21224c-2.10646,-0.11495 -7.1659,-0.70029 -10.10971,-2.61201c-2.79142,-1.81277 -3.52702,-4.95998 -3.52702,-4.95998c0,0 6.3119,0.70799 8.86878,-1.40696c3.18529,-2.63476 1.42847,-8.65821 -2.91005,-9.98818c-4.34923,-1.33326 -9.5082,2.12276 -9.5082,2.12276c0,0 -1.72733,-19.00441 13.98438,-22.89361c11.54599,-2.85805 19.44639,1.5075 28.56275,7.23245z" fill="#1653d7" stroke="#000000" stroke-width="2.5" stroke-linecap="round"/><path d="M211.0989,156.20791c-0.19787,-1.60208 0.94047,-3.06121 2.54255,-3.25908c1.60208,-0.19787 3.06121,0.94046 3.25907,2.54254c0.19787,1.60208 -0.94047,3.06122 -2.54254,3.25908c-1.60208,0.19787 -3.06121,-0.94047 -3.25908,-2.54254z" fill="#000000" stroke="none" stroke-width="0.5" stroke-linecap="butt"/><path d="M255.14663,169.68383c3.98633,4.24567 6.89574,10.74624 1.8172,15.34108c-5.07853,4.59483 -11.16777,1.51136 -15.42831,-3.02634c-4.26054,-4.5377 -6.91043,-10.73294 -1.8172,-15.34108c5.09323,-4.60815 11.44197,-1.21932 15.4283,3.02635z" fill="#185bed" stroke="#000000" stroke-width="2.5" stroke-linecap="butt"/></g></g></svg>