<svg version="1.1" xmlns="http://www.w3.org/2000/svg" xmlns:xlink="http://www.w3.org/1999/xlink" width="51.94871" height="43.29776" viewBox="0,0,51.94871,43.29776"><g transform="translate(-303.80026,-95.03121)"><g data-paper-data="{&quot;isPaintingLayer&quot;:true}" fill-rule="nonzero" stroke-linecap="butt" stroke-linejoin="miter" stroke-miterlimit="10" stroke-dasharray="" stroke-dashoffset="0" style="mix-blend-mode: normal"><g><path d="M316.74124,125.80533c-2.04778,0.29254 -3.56888,1.42488 -6.23209,3.66508c-2.05069,1.72498 5.68409,11.20129 -4.42295,4.1038c-4.46477,-3.1353 2.22486,-11.56401 2.22486,-12.93844c0,-1.2492 -7.05191,-16.07236 4.10743,-13.86261c3.30912,0.65526 -4.35177,4.86278 -1.40461,6.70162c2.11744,1.32115 4.32747,2.60088 5.67013,3.09766c3.05614,1.13076 8.94675,1.05121 8.94675,1.05121v7.90682c0,0 -5.50187,-0.20909 -8.88953,0.27486z" data-paper-data="{&quot;index&quot;:null}" fill="#ff00b6" stroke="#b500a4" stroke-width="1.5"/><path d="M330.32394,111.84856c0,0 -2.10931,-5.8009 -3.87294,-8.43918c-1.77308,-2.65243 -6.73733,-7.43319 -6.73733,-7.43319c0,0 8.8845,0.82598 12.86875,2.48713c4.27054,1.78051 11.95524,7.86272 11.95524,7.86272z" data-paper-data="{&quot;index&quot;:null}" fill="#ff00b6" stroke="#b500a4" stroke-width="1.5"/><path d="M338.62055,137.57897c-9.04555,0 -16.37841,-7.33286 -16.37841,-16.37841c0,-9.04555 7.33287,-16.37842 16.37841,-16.37842c9.04555,0 16.37842,7.33287 16.37842,16.37842c0,9.04556 -7.33287,16.37841 -16.37842,16.37841z" data-paper-data="{&quot;index&quot;:null}" fill="#ff00b6" stroke="#b500a4" stroke-width="1.5"/><path d="M350.65288,120.42307c-0.51986,0 -0.94129,-0.42142 -0.94129,-0.94129c0,-0.51986 0.42142,-0.94129 0.94129,-0.94129c0.51986,0 0.94129,0.42142 0.94129,0.94129c0,0.51986 -0.42143,0.94129 -0.94129,0.94129z" data-paper-data="{&quot;index&quot;:null}" fill="#000000" stroke="none" stroke-width="0.5"/><path d="M343.59323,120.70546c-0.51986,0 -0.94129,-0.42142 -0.94129,-0.94129c0,-0.51986 0.42143,-0.94129 0.94129,-0.94129c0.51986,0 0.94129,0.42142 0.94129,0.94129c0,0.51986 -0.42142,0.94129 -0.94129,0.94129z" data-paper-data="{&quot;index&quot;:null}" fill="#000000" stroke="none" stroke-width="0.5"/><path d="M326.89449,110.88052c3.3345,2.81961 5.31654,5.95813 4.42703,7.01008c-0.88952,1.05195 -4.31377,-0.38101 -7.64826,-3.20062c-3.3345,-2.81961 -5.31654,-5.95814 -4.42702,-7.0101c0.88952,-1.05195 4.31376,0.38102 7.64826,3.20063z" data-paper-data="{&quot;index&quot;:null}" fill="#ff00b6" stroke="#b500a4" stroke-width="1.5"/><path d="M351.9113,125.3163c0,1.43915 -2.04279,3.98536 -4.75178,3.98536c-2.70899,0 -4.90506,-2.54621 -4.90506,-3.98536c0,-1.43915 2.19607,-1.22627 4.90506,-1.22627c2.70899,0 4.75178,-0.21289 4.75178,1.22627z" fill="none" stroke="#000000" stroke-width="1.5"/></g></g></g></svg>