<svg version="1.1" xmlns="http://www.w3.org/2000/svg" xmlns:xlink="http://www.w3.org/1999/xlink" width="119.07691" height="111.40911" viewBox="0,0,119.07691,111.40911"><defs><radialGradient cx="251.70817" cy="188.45456" r="46" gradientUnits="userSpaceOnUse" id="color-1"><stop offset="0" stop-color="#e0ff00"/><stop offset="1" stop-color="#e0ff00"/></radialGradient></defs><g transform="translate(-179.88126,-124.29544)"><g data-paper-data="{&quot;isPaintingLayer&quot;:true}" fill-rule="nonzero" stroke-linejoin="miter" stroke-miterlimit="10" stroke-dasharray="" stroke-dashoffset="0" style="mix-blend-mode: normal"><path d="M247.9721,127.40183c10.28417,4.03028 16.82419,13.54947 14.60753,19.20577c-2.21666,5.65629 -9.01725,0.30777 -19.30142,-3.72251c-10.28417,-4.03028 -20.15752,-5.21614 -17.94086,-10.87243c2.21666,-5.65629 12.35058,-8.6411 22.63475,-4.61082z" data-paper-data="{&quot;index&quot;:null}" fill="#ff7000" stroke="#a53800" stroke-width="2.5" stroke-linecap="butt"/><path d="M199.48311,219.30176c-10.15529,1.41588 -17.19128,-4.32497 -17.19128,-4.32497c0,0 14.71743,-6.10331 14.60444,-25.01493c-0.10457,-17.50171 -13.93777,-37.31841 -13.93777,-37.31841c0,0 10.55978,-2.29923 20.25353,7.41946c9.72996,9.755 8.74647,15.58054 8.74647,15.58054v27c0,0 -0.98988,15.05697 -12.47539,16.65831z" data-paper-data="{&quot;index&quot;:null}" fill="#ffc500" stroke="#a68700" stroke-width="2.5" stroke-linecap="butt"/><path d="M251.70817,234.45456c-25.4051,0 -46,-20.5949 -46,-46c0,-25.4051 20.5949,-46 46,-46c25.4051,0 46,20.5949 46,46c0,25.4051 -20.5949,46 -46,46z" data-paper-data="{&quot;index&quot;:null}" fill="url(#color-1)" stroke="#afd400" stroke-width="2.5" stroke-linecap="butt"/><path d="M259.95849,216.97679c6.25923,0 11.33333,2.91015 11.33333,6.5c0,3.58985 -5.07411,6.5 -11.33333,6.5c-6.25923,0 -11.33333,-2.91015 -11.33333,-6.5c0,-3.58985 5.07411,-6.5 11.33333,-6.5z" data-paper-data="{&quot;index&quot;:null}" fill="#ff7000" stroke="#a53800" stroke-width="1.5" stroke-linecap="butt"/><path d="M241.62516,217.31012c4.78647,0 8.66667,2.01472 8.66667,4.5c0,2.48528 -3.8802,4.5 -8.66667,4.5c-4.78647,0 -8.66667,-2.01472 -8.66667,-4.5c0,-2.48528 3.8802,-4.5 8.66667,-4.5z" data-paper-data="{&quot;index&quot;:null}" fill="#ff7000" stroke="#a53800" stroke-width="1.5" stroke-linecap="butt"/><path d="M243.95849,224.64345c3.6819,0 6.66667,1.41776 6.66667,3.16667c0,1.7489 -2.98477,3.16667 -6.66667,3.16667c-3.6819,0 -6.66667,-1.41776 -6.66667,-3.16667c0,-1.7489 2.98477,-3.16667 6.66667,-3.16667z" data-paper-data="{&quot;index&quot;:null}" fill="#ff7000" stroke="#a53800" stroke-width="1.5" stroke-linecap="butt"/><path d="M270.29182,225.64345c2.94552,0 5.33333,1.04467 5.33333,2.33333c0,1.28866 -2.38781,2.33333 -5.33333,2.33333c-2.94552,0 -5.33333,-1.04467 -5.33333,-2.33333c0,-1.28866 2.38781,-2.33333 5.33333,-2.33333z" data-paper-data="{&quot;index&quot;:null}" fill="#ff7000" stroke="#a53800" stroke-width="1.5" stroke-linecap="butt"/><path d="M252.12516,229.64345c3.58985,0 6.5,0.89543 6.5,2c0,1.10457 -2.91015,2 -6.5,2c-3.58985,0 -6.5,-0.89543 -6.5,-2c0,-1.10457 2.91015,-2 6.5,-2z" data-paper-data="{&quot;index&quot;:null}" fill="#ff7000" stroke="#a53800" stroke-width="1.5" stroke-linecap="butt"/><path d="M234.79182,225.64345c2.30119,0 4.16667,0.74619 4.16667,1.66667c0,0.92047 -1.86548,1.66667 -4.16667,1.66667c-2.30119,0 -4.16667,-0.74619 -4.16667,-1.66667c0,-0.92047 1.86548,-1.66667 4.16667,-1.66667z" data-paper-data="{&quot;index&quot;:null}" fill="#ff7000" stroke="#a53800" stroke-width="1.5" stroke-linecap="butt"/><path d="M230.62516,210.31012c5.70694,0 10.33333,2.53705 10.33333,5.66667c0,3.12961 -4.62639,5.66667 -10.33333,5.66667c-5.70694,0 -10.33333,-2.53705 -10.33333,-5.66667c0,-3.12961 4.62639,-5.66667 10.33333,-5.66667z" data-paper-data="{&quot;index&quot;:null}" fill="#ff7000" stroke="#a53800" stroke-width="1.5" stroke-linecap="butt"/><path d="M229.79182,220.97679c2.48528,0 4.5,1.19391 4.5,2.66667c0,1.47276 -2.01472,2.66667 -4.5,2.66667c-2.48528,0 -4.5,-1.19391 -4.5,-2.66667c0,-1.47276 2.01472,-2.66667 4.5,-2.66667z" data-paper-data="{&quot;index&quot;:null}" fill="#ff7000" stroke="#a53800" stroke-width="1.5" stroke-linecap="butt"/><path d="M224.62516,203.31012c6.62742,0 12,2.3132 12,5.16667c0,2.85347 -5.37258,5.16667 -12,5.16667c-6.62742,0 -12,-2.3132 -12,-5.16667c0,-2.85347 5.37258,-5.16667 12,-5.16667z" data-paper-data="{&quot;index&quot;:null}" fill="#ff7000" stroke="#a53800" stroke-width="1.5" stroke-linecap="butt"/><path d="M243.62516,204.64345c3.86599,0 7,3.05939 7,6.83333c0,3.77395 -3.13401,6.83333 -7,6.83333c-3.86599,0 -7,-3.05939 -7,-6.83333c0,-3.77395 3.13401,-6.83333 7,-6.83333z" data-paper-data="{&quot;index&quot;:null}" fill="#ff7000" stroke="#a53800" stroke-width="1.5" stroke-linecap="butt"/><path d="M218.45849,193.31012c4.87852,0 8.83333,2.61167 8.83333,5.83333c0,3.22166 -3.95482,5.83333 -8.83333,5.83333c-4.87852,0 -8.83333,-2.61167 -8.83333,-5.83333c0,-3.22166 3.95482,-5.83333 8.83333,-5.83333z" data-paper-data="{&quot;index&quot;:null}" fill="#ff7000" stroke="#a53800" stroke-width="1.5" stroke-linecap="butt"/><path d="M236.41567,175.50475c9.52915,2.09641 16.45241,7.43971 15.46354,11.9346c-0.98887,4.49488 -9.51542,6.43923 -19.04457,4.34281c-9.52915,-2.09641 -16.45241,-7.43971 -15.46354,-11.9346c0.98887,-4.49488 9.51542,-6.43923 19.04457,-4.34281z" data-paper-data="{&quot;index&quot;:null}" fill="#ffc500" stroke="#a68700" stroke-width="2.5" stroke-linecap="butt"/><path d="M285.29182,188.81012c-1.38071,0 -2.5,-1.11929 -2.5,-2.5c0,-1.38071 1.11929,-2.5 2.5,-2.5c1.38071,0 2.5,1.11929 2.5,2.5c0,1.38071 -1.11929,2.5 -2.5,2.5z" data-paper-data="{&quot;index&quot;:null}" fill="#000000" stroke="none" stroke-width="0.5" stroke-linecap="butt"/><path d="M292.62516,209.31012c0,0 -6.30242,2.98102 -14.08499,-1.1275c-5.84501,-3.08566 -10.24835,-10.53916 -10.24835,-10.53916" data-paper-data="{&quot;index&quot;:null}" fill="none" stroke="#afd400" stroke-width="2.5" stroke-linecap="round"/></g></g></svg>