<svg version="1.1" xmlns="http://www.w3.org/2000/svg" xmlns:xlink="http://www.w3.org/1999/xlink" width="67.94325" height="61.24999" viewBox="0,0,67.94325,61.24999"><g transform="translate(-206.02838,-149.375)"><g data-paper-data="{&quot;isPaintingLayer&quot;:true}" fill-rule="nonzero" stroke-linejoin="miter" stroke-miterlimit="10" stroke-dasharray="" stroke-dashoffset="0" style="mix-blend-mode: normal"><g><path d="M233.72162,155.75c0,-3.1066 4.8689,-5.625 10.875,-5.625c6.0061,0 10.875,2.5184 10.875,5.625c0,3.1066 -4.8689,5.625 -10.875,5.625c-6.0061,0 -10.875,-2.5184 -10.875,-5.625z" fill="#ff5500" stroke="#bd4800" stroke-width="1.5" stroke-linecap="butt"/><path d="M273.22162,182.87501c0,3.15831 -0.43181,6.18997 -1.22535,9.00694c-0.25359,0.90022 -4.5291,2.65993 -8.60959,3.01387c-3.63577,0.31536 -7.11672,-0.89751 -7.45986,1.5885c-0.1645,1.19176 2.47981,3.04097 5.39998,4.05693c2.78778,0.9699 5.87129,1.11392 5.17665,1.94013c-3.85303,4.58281 -9.05604,7.39362 -14.78183,7.39362c-11.87412,0 -27,-13.58831 -26.75,-26c0.15933,-7.91008 14.87588,-28 26.75,-28c11.87412,0 21.5,12.08831 21.5,27z" fill="#ad4a09" stroke="#8a2f00" stroke-width="1.5" stroke-linecap="butt"/><path d="M262.22162,176.62501c0,0 -5.26208,-5.32584 -7.10683,-8.33769c-2.18177,-3.56207 -5.14317,-11.66231 -5.14317,-11.66231" fill="none" stroke="#ff5500" stroke-width="4" stroke-linecap="round"/><path d="M260.47162,179.62501c0,0 -2.78148,13.28943 -16.95,14.85c-8.39718,0.92489 -19.8,-9.6 -19.8,-9.6" fill="none" stroke="#ff5500" stroke-width="4" stroke-linecap="round"/><path d="M259.22162,178.25001c0,-2.55432 2.07068,-4.625 4.625,-4.625c2.55432,0 4.625,2.07068 4.625,4.625c0,2.55432 -2.07068,4.625 -4.625,4.625c-2.55432,0 -4.625,-2.07068 -4.625,-4.625z" fill="#adadad" stroke="#8a8a8a" stroke-width="1.5" stroke-linecap="butt"/><path d="M263.72162,178.87501c0,-1.38071 1.11929,-2.5 2.5,-2.5c1.38071,0 2.5,1.11929 2.5,2.5c0,1.38071 -1.11929,2.5 -2.5,2.5c-1.38071,0 -2.5,-1.11929 -2.5,-2.5z" fill="#ad0000" stroke="#8a0000" stroke-width="1.5" stroke-linecap="butt"/><path d="M226.97162,185.12501c0,8.97463 -10.0703,16.75 -17.25,16.75c-7.1797,0 3.25,-7.52537 3.25,-16.5c0,-8.97463 -10.9297,-16.25 -3.75,-16.25c7.1797,0 17.75,7.02537 17.75,16z" fill="#ff5500" stroke="#bd4800" stroke-width="1.5" stroke-linecap="butt"/><path d="M249.40196,193.28484c1.35844,2.71688 -2.54593,7.42215 -8.72067,10.50952c-6.17473,3.08737 -12.28157,3.3877 -13.64001,0.67082c-1.35844,-2.71688 2.54593,-7.42215 8.72067,-10.50952c6.17473,-3.08737 12.28157,-3.3877 13.64001,-0.67082z" fill="#ff5500" stroke="#bd4800" stroke-width="1.5" stroke-linecap="butt"/></g></g></g></svg>