<svg version="1.1" xmlns="http://www.w3.org/2000/svg" xmlns:xlink="http://www.w3.org/1999/xlink" width="46.4397" height="39.04811" viewBox="0,0,46.4397,39.04811"><g transform="translate(-218.69079,-154.76526)"><g data-paper-data="{&quot;isPaintingLayer&quot;:true}" fill-rule="nonzero" stroke-linecap="butt" stroke-linejoin="miter" stroke-miterlimit="10" stroke-dasharray="" stroke-dashoffset="0" style="mix-blend-mode: normal"><path d="M259.00292,186.83575c-1.5065,3.82986 -0.66337,1.90176 -7.541,0.20801c-15.30483,-3.76911 -31.22,-11.88803 -29.27882,-13.26003c1.91766,-1.35538 4.28922,0.28778 3.48561,-3.70776c-0.39905,-1.98407 -3.73679,0.12961 -4.64783,-0.36537c-1.61849,-0.87934 -1.38956,-3.76396 -1.44348,-6.08073c-0.03351,-1.43968 18.46901,-4.48927 27.84276,1.15087c9.37375,5.64014 13.70254,16.66606 11.58276,22.05501z" fill="#bf3123" stroke="none" stroke-width="0"/><path d="M220.37812,161.63588c-1.06537,0.82083 -1.46396,2.95119 0.11239,3.28459c2.13114,0.45073 13.49884,-3.96789 24.15252,2.67607c9.57689,5.97243 10.50435,16.26141 11.85964,19.72703c0.47867,1.22399 2.51471,1.25998 3.30329,0.30705c2.14332,-2.58999 -0.00799,-14.85888 -9.16836,-22.12571c-9.16037,-7.26683 -27.31422,-6.13825 -30.25948,-3.86903z" fill="#a39b20" stroke="#444f0e" stroke-width="1.5"/><path d="M246.61386,178.02341c-0.66493,1.25164 -2.78936,1.42405 -4.74504,0.38509c-1.95568,-1.03896 -3.00204,-2.89585 -2.33711,-4.14749c0.66493,-1.25164 2.78936,-1.42405 4.74504,-0.38509c1.95568,1.03896 3.00204,2.89585 2.33711,4.14749z" fill="#a39b20" stroke="#444f0e" stroke-width="1.5"/><path d="M222.22206,167.08016c0,-0.66436 0.53857,-1.20293 1.20293,-1.20293c0.66436,0 1.20293,0.53857 1.20293,1.20293c0,0.66436 -0.53857,1.20293 -1.20293,1.20293c-0.66436,0 -1.20293,-0.53857 -1.20293,-1.20293z" fill="#000000" stroke="none" stroke-width="0"/><path d="M246.6272,156.26339c-2.80692,2.50881 -4.19709,5.53309 -3.10502,6.75493c1.09207,1.22184 4.25283,0.17854 7.05975,-2.33026c2.80692,-2.50881 4.92172,-2.32832 4.92172,-2.32832c0,0 -6.06953,-4.60515 -8.87645,-2.09634z" fill="#a39b20" stroke="#444f0e" stroke-width="1.5"/><path d="M253.33775,193.06337h10.90653c0,0 -0.84705,-5.05229 -5.45327,-5.05229c-4.60621,0 -5.45327,5.05229 -5.45327,5.05229z" fill="#bf3123" stroke="#444f0e" stroke-width="1.5"/></g></g></svg>