<svg version="1.1" xmlns="http://www.w3.org/2000/svg" xmlns:xlink="http://www.w3.org/1999/xlink" width="95.86523" height="68.97001" viewBox="0,0,95.86523,68.97001"><g transform="translate(-192.00176,-145.85687)"><g data-paper-data="{&quot;isPaintingLayer&quot;:true}" fill-rule="nonzero" stroke-linejoin="miter" stroke-miterlimit="10" stroke-dasharray="" stroke-dashoffset="0" style="mix-blend-mode: normal"><path d="M252.80494,180.46747l12.06,-1.22936l13.17666,-13.52293l8.26334,3.68807l-6.99889,19.86066l5.88222,23.4742l-6.03,-2.45872l-12.50667,-11.06422h-12.73z" fill="#343a47" stroke="#000000" stroke-width="2.5" stroke-linecap="round"/><path d="M220.21728,163.80305l14.62338,-16.63961l23.71428,2.32468l-17.98052,14.5z" fill="#343a47" stroke="#000000" stroke-width="2.5" stroke-linecap="round"/><path d="M193.69506,178.81178l9.80029,-19.41965l41.50534,2.08919l21.2912,17.70491l-11.96766,30.65256l-35.24556,2.99778l-23.77726,-20.39818l-0.56877,-6.98996l6.87421,5.68533l9.6654,2.4119l1.1754,-11.36217l-9.27741,1.1182z" fill="#343a47" stroke="#000000" stroke-width="2.5" stroke-linecap="round"/><path d="M200.80494,175.48811c0,-1.933 1.567,-3.5 3.5,-3.5c1.933,0 3.5,1.567 3.5,3.5c0,1.933 -1.567,3.5 -3.5,3.5c-1.933,0 -3.5,-1.567 -3.5,-3.5z" fill="#000000" stroke="none" stroke-width="0.5" stroke-linecap="butt"/><path d="M250.04091,177.34772l1.06767,0.98649c1.44678,2.24044 2.08612,2.51928 2.02003,5.37814c-0.18048,7.80731 -10.01915,8.50665 -14.66593,3.96789c-1.10267,-1.07704 -2.37607,-2.14066 -2.92622,-3.58052c-1.08527,-2.84033 1.59213,-7.88647 4.19718,-9.0561c2.49552,-1.12045 4.00208,0.00628 6.07108,0.92849c0,0 0.37179,0.17477 0.70551,0.53423c0.4536,0.17494 0.9072,0.34989 1.36079,0.52484c1.10208,-0.55471 2.16987,0.31655 2.16987,0.31655z" fill="#2c313a" stroke="none" stroke-width="0.5" stroke-linecap="butt"/><path d="M223.92521,191.9918l1.03054,0.47188c1.61578,1.30905 2.15719,1.36051 2.80202,3.49495c1.76096,5.82897 -5.35972,8.73486 -9.90444,6.49934c-1.07845,-0.53048 -2.28015,-1.00959 -3.03725,-1.943c-1.49348,-1.8413 -0.73415,-6.23022 0.91233,-7.7291c1.57726,-1.43587 2.96705,-0.96658 4.72397,-0.78534c0,0 0.31791,0.03927 0.65243,0.22465c0.37857,0.01955 0.75714,0.0391 1.13571,0.05866c0.68202,-0.6785 1.68469,-0.29203 1.68469,-0.29203z" fill="#2c313a" stroke="none" stroke-width="0.5" stroke-linecap="butt"/><path d="M224.25649,167.85444l1.03054,0.47188c1.61578,1.30905 2.15719,1.36051 2.80202,3.49495c1.76096,5.82897 -5.35972,8.73486 -9.90444,6.49934c-1.07845,-0.53048 -2.28015,-1.00959 -3.03725,-1.943c-1.49348,-1.8413 -0.73415,-6.23022 0.91233,-7.7291c1.57726,-1.43587 2.96705,-0.96658 4.72397,-0.78534c0,0 0.31791,0.03927 0.65243,0.22465c0.37857,0.01955 0.75714,0.0391 1.13571,0.05866c0.68202,-0.6785 1.68469,-0.29203 1.68469,-0.29203z" fill="#2c313a" stroke="none" stroke-width="0.5" stroke-linecap="butt"/><path d="M247.38134,195.52925l1.03054,0.47188c1.61578,1.30905 2.15719,1.36051 2.80202,3.49495c1.76096,5.82897 -5.35972,8.73486 -9.90444,6.49934c-1.07845,-0.53048 -2.28015,-1.00959 -3.03725,-1.943c-1.49348,-1.8413 -0.73415,-6.23022 0.91233,-7.7291c1.57726,-1.43587 2.96705,-0.96658 4.72397,-0.78534c0,0 0.31791,0.03927 0.65243,0.22465c0.37857,0.01955 0.75714,0.0391 1.13571,0.05866c0.68202,-0.6785 1.68469,-0.29203 1.68469,-0.29203z" fill="#2c313a" stroke="none" stroke-width="0.5" stroke-linecap="butt"/><path d="M221.41722,192.79564l12.12675,-17.75471l14.26611,-5.29066l3.82774,27.1793z" fill="#343a47" stroke="#000000" stroke-width="2.5" stroke-linecap="round"/></g></g></svg>