<svg version="1.1" xmlns="http://www.w3.org/2000/svg" xmlns:xlink="http://www.w3.org/1999/xlink" width="107.79842" height="88.91365" viewBox="0,0,107.79842,88.91365"><g transform="translate(-186.10079,-135.54317)"><g data-paper-data="{&quot;isPaintingLayer&quot;:true}" fill-rule="nonzero" stroke-linejoin="miter" stroke-miterlimit="10" stroke-dasharray="" stroke-dashoffset="0" style="mix-blend-mode: normal"><path d="M188.51014,197.83911c-4.74867,-49.64493 9.98871,-29.89855 23.60757,-13.85661c9.02629,10.63223 18.34611,14.30053 18.34611,14.30053c0,0 -10.83849,1.42005 -19.43877,9.33531c-10.3237,9.50141 -18.14927,33.12594 -22.37379,-8.36935c-0.04686,-0.46042 -0.09524,-0.9302 -0.14111,-1.40987z" data-paper-data="{&quot;index&quot;:null}" fill="#3d1d12" stroke="#d98a3d" stroke-width="3" stroke-linecap="butt"/><path d="M193.17365,185.92787c-0.15407,-49.87129 12.70114,-28.85098 24.78392,-11.62241c8.00821,11.41871 16.95038,15.93015 16.95038,15.93015c0,0 -10.92323,0.41532 -20.21625,7.50446c-11.15527,8.50974 -21.12436,31.3127 -21.50744,-10.39532c-0.00424,-0.46278 -0.00912,-0.93501 -0.0106,-1.41687z" data-paper-data="{&quot;index&quot;:null}" fill="#3d1d12" stroke="#d98a3d" stroke-width="3" stroke-linecap="butt"/><path d="M269.51945,157.60499c-0.87271,4.82408 -9.71988,7.26228 -19.76071,5.44582c-10.04083,-1.81644 -21.26525,-15.22809 -20.39254,-20.05218c2.52638,-13.96514 13.51206,0.76616 23.55289,2.58261c10.04083,1.81644 17.47309,7.19966 16.60038,12.02375z" data-paper-data="{&quot;index&quot;:null}" fill="#3d1d12" stroke="#d98a3d" stroke-width="3" stroke-linecap="butt"/><path d="M271.81498,159.35252c-1.43637,2.90893 -7.50905,2.8435 -13.56369,-0.14618c-6.05465,-2.98967 -10.74384,-13.5707 -9.30746,-16.47964c4.15814,-8.42101 8.4544,2.95577 14.50904,5.94545c6.05464,2.98966 9.79851,7.77143 8.36213,10.68037z" data-paper-data="{&quot;index&quot;:null}" fill="#3d1d12" stroke="#d98a3d" stroke-width="3" stroke-linecap="butt"/><path d="M221.79954,184.80378c0,-19.49556 15.80427,-35.29984 35.29984,-35.29984c19.49557,0 35.29983,15.80427 35.29983,35.29984c0,19.49555 -15.80426,35.29984 -35.29983,35.29984c-19.49556,0 -35.29983,-15.80426 -35.29983,-35.29983z" data-paper-data="{&quot;index&quot;:null}" fill="#3d1d12" stroke="#d98a3d" stroke-width="3" stroke-linecap="butt"/><path d="M205.81256,169.34566c0.98879,3.92468 0.44557,7.44508 -1.21331,7.86301c-1.65888,0.41793 -3.80525,-2.42484 -4.79404,-6.34951c-0.98879,-3.92468 -0.44557,-7.44507 1.21331,-7.86301c1.65888,-0.41793 3.80525,2.42484 4.79404,6.34951z" data-paper-data="{&quot;index&quot;:null}" fill="#d98a3d" stroke="#d93c6c" stroke-width="0" stroke-linecap="butt"/><path d="M243.20544,185.49484c-1.14389,3.64398 -8.42016,4.60498 -16.25199,2.14645c-7.83184,-2.45853 -13.25348,-7.40558 -12.10959,-11.04957c1.14389,-3.64398 8.42016,-4.60499 16.25201,-2.14645c7.83184,2.45853 13.25349,7.4056 12.10959,11.04958z" data-paper-data="{&quot;index&quot;:null}" fill="#d98a3d" stroke="none" stroke-width="0" stroke-linecap="butt"/><path d="M286.94936,203.4071c0,0 -5.9418,0.80665 -9.59884,-1.33936c-5.6334,-3.30576 -7.10844,-7.91997 -7.10844,-7.91997" data-paper-data="{&quot;index&quot;:null}" fill="none" stroke="#d7893a" stroke-width="2.5" stroke-linecap="round"/><path d="M272.06568,176.37623c0,-2.90723 2.35677,-5.26401 5.264,-5.26401c2.90723,0 5.26401,2.35678 5.26401,5.26401c0,2.90723 -2.35678,5.264 -5.26401,5.264c-2.90723,0 -5.264,-2.35677 -5.264,-5.264z" data-paper-data="{&quot;index&quot;:null}" fill="#d9a83d" stroke="none" stroke-width="0" stroke-linecap="butt"/><path d="M276.81361,176.99555c0,-1.65313 1.34013,-2.99327 2.99327,-2.99327c1.65313,0 2.99327,1.34013 2.99327,2.99327c0,1.65313 -1.34013,2.99326 -2.99327,2.99326c-1.65314,0 -2.99327,-1.34013 -2.99327,-2.99326z" data-paper-data="{&quot;index&quot;:null}" fill="#8a6127" stroke="#892644" stroke-width="0" stroke-linecap="butt"/></g></g></svg>