<svg version="1.1" xmlns="http://www.w3.org/2000/svg" xmlns:xlink="http://www.w3.org/1999/xlink" width="57.54827" height="49.12293" viewBox="0,0,57.54827,49.12293"><g transform="translate(-211.16277,-155.1571)"><g data-paper-data="{&quot;isPaintingLayer&quot;:true}" fill-rule="nonzero" stroke-linejoin="miter" stroke-miterlimit="10" stroke-dasharray="" stroke-dashoffset="0" style="mix-blend-mode: normal"><path d="M242.11317,174.28273c0.82872,3.13472 -2.87897,6.83372 -8.28137,8.26193c-5.40239,1.42822 -10.4537,0.04482 -11.28243,-3.0899c-0.82872,-3.13472 2.87897,-6.83372 8.28137,-8.26193c5.40239,-1.42822 10.4537,-0.04482 11.28243,3.0899z" fill="#f3c5ff" stroke="#b581c5" stroke-width="1.5" stroke-linecap="butt"/><path d="M212.03896,201.39842l1.54299,-15.01322l6.41601,5.9557c0,0 2.51241,2.23659 5.21363,1.22863c2.74593,-1.02464 5.45719,-2.68771 5.45719,-2.68771c0,0 -3.00612,6.34016 -5.00101,7.52102c-1.96186,1.16131 -7.0902,0.20549 -7.0902,0.20549z" fill="#f3c5ff" stroke="#b581c5" stroke-width="1.5" stroke-linecap="butt"/><path d="M239.36508,185.27507c0.82872,3.13472 -2.87897,6.83372 -8.28137,8.26193c-5.40239,1.42822 -10.4537,0.04482 -11.28242,-3.0899c-0.82872,-3.13472 2.87897,-6.83372 8.28137,-8.26193c5.40239,-1.42822 10.4537,-0.04482 11.28243,3.0899z" fill="#f3c5ff" stroke="#b581c5" stroke-width="1.5" stroke-linecap="butt"/><path d="M246.84571,168.4949c-0.98386,2.57865 -4.3201,-3.53188 -9.30075,-5.94386c-4.98065,-2.41198 -9.71964,-0.21203 -8.73578,-2.79069c0.98386,-2.57865 6.1938,-5.33694 11.17445,-2.92496c4.98065,2.41198 7.84595,9.08085 6.86208,11.65951z" fill="#e167ff" stroke="#ac5bc4" stroke-width="1.5" stroke-linecap="butt"/><path d="M255.60377,178.52977c0.82872,3.13472 -2.87897,6.83372 -8.28137,8.26193c-5.40239,1.42822 -10.4537,0.04482 -11.28242,-3.0899c-0.82872,-3.13472 2.87897,-6.83372 8.28137,-8.26193c5.40239,-1.42822 10.4537,-0.04482 11.28242,3.0899z" fill="#f3c5ff" stroke="#b581c5" stroke-width="1.5" stroke-linecap="butt"/><path d="M256.60307,168.78655c0.82872,3.13472 -2.87897,6.83372 -8.28137,8.26194c-5.40239,1.42822 -10.4537,0.04482 -11.28242,-3.0899c-0.82872,-3.13472 2.87897,-6.83372 8.28137,-8.26193c5.40239,-1.42822 10.4537,-0.04482 11.28242,3.0899z" fill="#f3c5ff" stroke="#b581c5" stroke-width="1.5" stroke-linecap="butt"/><path d="M267.84524,174.28273c0.82872,3.13472 -2.87897,6.83372 -8.28137,8.26193c-5.40239,1.42822 -10.4537,0.04482 -11.28242,-3.0899c-0.82872,-3.13472 2.87897,-6.83372 8.28137,-8.26193c5.40239,-1.42822 10.4537,-0.04482 11.28242,3.0899z" fill="#f3c5ff" stroke="#b581c5" stroke-width="1.5" stroke-linecap="butt"/><path d="M252.60586,188.77264c0.82872,3.13472 -2.87897,6.83372 -8.28137,8.26193c-5.40239,1.42822 -10.4537,0.04482 -11.28242,-3.0899c-0.82872,-3.13472 2.87897,-6.83372 8.28137,-8.26193c5.40239,-1.42822 10.4537,-0.04482 11.28242,3.0899z" fill="#f3c5ff" stroke="#b581c5" stroke-width="1.5" stroke-linecap="butt"/><path d="M266.84594,184.77543c0.82872,3.13472 -2.87897,6.83372 -8.28137,8.26193c-5.40239,1.42822 -10.4537,0.04482 -11.28243,-3.0899c-0.82872,-3.13472 2.87897,-6.83372 8.28137,-8.26193c5.40239,-1.42822 10.4537,-0.04482 11.28243,3.0899z" fill="#f3c5ff" stroke="#b581c5" stroke-width="1.5" stroke-linecap="butt"/><path d="M262.5989,193.2695c0.82872,3.13472 -2.87897,6.83372 -8.28137,8.26193c-5.40239,1.42822 -10.4537,0.04482 -11.28243,-3.0899c-0.82872,-3.13472 2.87897,-6.83372 8.28137,-8.26193c5.40239,-1.42822 10.4537,-0.04482 11.28243,3.0899z" fill="#f3c5ff" stroke="#b581c5" stroke-width="1.5" stroke-linecap="butt"/><path d="M245.11108,195.2681c0.82872,3.13472 -2.87897,6.83372 -8.28137,8.26193c-5.40239,1.42822 -10.4537,0.04482 -11.28243,-3.0899c-0.82872,-3.13472 2.87897,-6.83372 8.28137,-8.26193c5.40239,-1.42822 10.4537,-0.04482 11.28243,3.0899z" fill="#f3c5ff" stroke="#b581c5" stroke-width="1.5" stroke-linecap="butt"/><path d="M265.43321,188.50823c0,0 -2.62994,0.14327 -5.30236,-0.09897c-2.3521,-0.2132 -4.81559,-1.89964 -4.81559,-1.89964" fill="none" stroke="#b581c5" stroke-width="1.5" stroke-linecap="round"/><path d="M262.18548,178.26536c0,-0.34494 0.27963,-0.62456 0.62456,-0.62456c0.34494,0 0.62456,0.27963 0.62456,0.62456c0,0.34494 -0.27963,0.62456 -0.62456,0.62456c-0.34494,0 -0.62456,-0.27963 -0.62456,-0.62456z" fill="#000000" stroke="none" stroke-width="0.5" stroke-linecap="butt"/><path d="M256.18965,178.26536c0,-0.34494 0.27963,-0.62456 0.62456,-0.62456c0.34494,0 0.62456,0.27963 0.62456,0.62456c0,0.34494 -0.27963,0.62456 -0.62456,0.62456c-0.34494,0 -0.62456,-0.27963 -0.62456,-0.62456z" fill="#000000" stroke="none" stroke-width="0.5" stroke-linecap="butt"/><path d="M243.84779,185.48306c-0.98386,2.57865 -5.81906,2.71377 -10.79971,0.30179c-4.98065,-2.41198 -8.22068,-6.45768 -7.23682,-9.03634c0.98386,-2.57865 5.81906,-2.71377 10.79971,-0.30179c4.98065,2.41198 8.22068,6.45768 7.23682,9.03634z" fill="#e167ff" stroke="#ac5bc4" stroke-width="1.5" stroke-linecap="butt"/></g></g></svg>