<svg version="1.1" xmlns="http://www.w3.org/2000/svg" xmlns:xlink="http://www.w3.org/1999/xlink" width="75.06177" height="59.32164" viewBox="0,0,75.06177,59.32164"><g transform="translate(-209.23176,-144.99172)"><g data-paper-data="{&quot;isPaintingLayer&quot;:true}" fill-rule="nonzero" stroke-linecap="butt" stroke-linejoin="miter" stroke-miterlimit="10" stroke-dasharray="" stroke-dashoffset="0" style="mix-blend-mode: normal"><path d="M257.15118,148.24327c-4.80021,4.16625 -3.54868,13.46911 2.79538,20.77853c6.34406,7.30942 15.37828,9.85746 20.17849,5.69121c4.80021,-4.16625 3.54868,-13.46911 -2.79538,-20.77853c-6.34406,-7.30942 -15.37828,-9.85746 -20.17849,-5.69121z" fill="#e9ba62" stroke="#9a5500" stroke-width="2.5"/><path d="M223.09909,161.91408c0,0.90071 0.63062,2.05058 2.60621,2.16611c2.88844,0.16891 4.76916,-2.47994 8.69377,-3.75405c2.23067,-0.72418 8.22751,-1.24186 11.27974,-3.17347c2.23869,-1.41676 1.30954,-5.17791 1.30954,-5.17791c0,0 -8.16191,0.26156 -12.29337,0.26156c-5.34488,0 -11.59588,6.16266 -11.59588,9.67776z" fill="#e9ba62" stroke="#9a5500" stroke-width="2.5"/><path d="M268.66524,170.40838c3.87488,11.58036 -5.81777,25.2624 -21.64915,30.55971c-9.16118,3.0654 -18.37047,2.65135 -25.25533,-0.4857c-1.61927,-0.73781 1.99316,-2.98426 3.17216,-5.15435c1.77598,-3.26892 -1.59097,-7.5301 -5.22765,-6.97772c-3.14651,0.47793 -7.91938,2.5895 -8.3705,1.2413c-3.87488,-11.58036 5.81777,-25.2624 21.64915,-30.55971c15.83137,-5.2973 31.80645,-0.20388 35.68133,11.37647z" fill="#e9ba62" stroke="#9a5500" stroke-width="2.5"/><path d="M215.52294,179.99361c0,-1.15565 0.93684,-2.09249 2.09249,-2.09249c1.15565,0 2.09249,0.93684 2.09249,2.09249c0,1.15565 -0.93684,2.09249 -2.09249,2.09249c-1.15565,0 -2.09249,-0.93684 -2.09249,-2.09249z" fill="#000000" stroke="none" stroke-width="0"/><path d="M224.70792,181.6805c0,-1.15565 0.93684,-2.09249 2.09249,-2.09249c1.15565,0 2.09249,0.93684 2.09249,2.09249c0,1.15565 -0.93684,2.09249 -2.09249,2.09249c-1.15565,0 -2.09249,-0.93684 -2.09249,-2.09249z" fill="#000000" stroke="none" stroke-width="0"/><path d="M236.0301,184.40139c1.78462,3.68336 7.86836,4.42264 13.58841,1.65123c5.72005,-2.77142 8.91034,-8.00405 7.12572,-11.68741c-1.78462,-3.68336 -7.86836,-4.42264 -13.58841,-1.65123c-5.72005,2.77142 -8.91034,8.00405 -7.12572,11.68741z" fill="#e9ba62" stroke="#9a5500" stroke-width="2.5"/></g></g></svg>