<svg version="1.1" xmlns="http://www.w3.org/2000/svg" xmlns:xlink="http://www.w3.org/1999/xlink" width="61.80048" height="41.51238" viewBox="0,0,61.80048,41.51238"><defs><linearGradient x1="111.91667" y1="157.85131" x2="111.91667" y2="178.10131" gradientUnits="userSpaceOnUse" id="color-1"><stop offset="0" stop-color="#f06dff"/><stop offset="1" stop-color="#de23ff"/></linearGradient><linearGradient x1="143.5" y1="140.26798" x2="143.5" y2="158.76798" gradientUnits="userSpaceOnUse" id="color-2"><stop offset="0" stop-color="#f06dff"/><stop offset="1" stop-color="#de23ff"/></linearGradient><linearGradient x1="137.79167" y1="165.85131" x2="137.79167" y2="178.85131" gradientUnits="userSpaceOnUse" id="color-3"><stop offset="0" stop-color="#f06dff"/><stop offset="1" stop-color="#de23ff"/></linearGradient><linearGradient x1="124.66667" y1="149.60131" x2="124.66667" y2="165.10131" gradientUnits="userSpaceOnUse" id="color-4"><stop offset="0" stop-color="#f06dff"/><stop offset="1" stop-color="#de23ff"/></linearGradient><linearGradient x1="122.04167" y1="142.60131" x2="122.04167" y2="157.35131" gradientUnits="userSpaceOnUse" id="color-5"><stop offset="0" stop-color="#f06dff"/><stop offset="1" stop-color="#de23ff"/></linearGradient><linearGradient x1="138.24647" y1="167.57004" x2="140.08686" y2="174.66869" gradientUnits="userSpaceOnUse" id="color-6"><stop offset="0" stop-color="#f06dff"/><stop offset="1" stop-color="#de23ff"/></linearGradient></defs><g transform="translate(-100.54167,-138.49449)"><g data-paper-data="{&quot;isPaintingLayer&quot;:true}" fill-rule="nonzero" stroke-linejoin="miter" stroke-miterlimit="10" stroke-dasharray="" stroke-dashoffset="0" style="mix-blend-mode: normal"><g><path d="M101.79167,169.85131v-12l19.5,7.5l0.75,12.75c0,0 -6.39155,-2.60397 -9.69119,-3.94826c-0.85829,-0.34967 -0.61118,-2.45888 -3.09177,-3.25961c-0.86798,-0.35362 -1.7709,1.27853 -2.63647,0.92588c-2.58135,-1.05166 -4.83057,-1.96801 -4.83057,-1.96801z" fill="url(#color-1)" stroke="#bf00ff" stroke-width="2.5" stroke-linecap="butt"/><path d="M133.125,161.51798l21.25,-13.75l-2.92086,7.27303l7.67086,1.47697l-19,12.75z" fill="url(#color-2)" stroke="#bf00ff" stroke-width="2.5" stroke-linecap="butt"/><path d="M124.29167,178.10131l-1,-12.25l24.25,-7v11.75z" fill="url(#color-3)" stroke="#bf00ff" stroke-width="2.5" stroke-linecap="butt"/><path d="M104.04167,156.35131l18.5,-6.75l22.75,8l-23.25,7.5z" fill="url(#color-4)" stroke="#bf00ff" stroke-width="2.5" stroke-linecap="butt"/><path d="M116.79167,157.35131l5.5,-16l9.25,14.5l-8.25,4z" fill="url(#color-5)" stroke="#bf00ff" stroke-width="2.5" stroke-linecap="butt"/><path d="M122.79167,158.85131l-0.25,-16.5" fill="none" stroke="#bf00ff" stroke-width="2.5" stroke-linecap="round"/><path d="M137.33823,174.69259l-5.54507,-5.44947l9.03463,-2.34231l5.71238,6.0948z" fill="url(#color-6)" stroke="#bf00ff" stroke-width="2.5" stroke-linecap="butt"/><path d="M105.25,166.4527c0,-0.69036 0.55964,-1.25 1.25,-1.25c0.69036,0 1.25,0.55964 1.25,1.25c0,0.69036 -0.55964,1.25 -1.25,1.25c-0.69036,0 -1.25,-0.55964 -1.25,-1.25z" fill="#000000" stroke="none" stroke-width="0.5" stroke-linecap="butt"/><path d="M112.58333,168.4527c0,-0.69036 0.55964,-1.25 1.25,-1.25c0.69036,0 1.25,0.55964 1.25,1.25c0,0.69036 -0.55964,1.25 -1.25,1.25c-0.69036,0 -1.25,-0.55964 -1.25,-1.25z" fill="#000000" stroke="none" stroke-width="0.5" stroke-linecap="butt"/></g></g></g></svg>