<svg version="1.1" xmlns="http://www.w3.org/2000/svg" xmlns:xlink="http://www.w3.org/1999/xlink" width="173.89996" height="105.80054" viewBox="0,0,173.89996,105.80054"><defs><linearGradient x1="153.62341" y1="200.59124" x2="205.5839" y2="200.59124" gradientUnits="userSpaceOnUse" id="color-1"><stop offset="0" stop-color="#c73535"/><stop offset="1" stop-color="#7254c7"/></linearGradient><linearGradient x1="243.72527" y1="150.29253" x2="214.3923" y2="175.16554" gradientUnits="userSpaceOnUse" id="color-2"><stop offset="0" stop-color="#36b1c7"/><stop offset="1" stop-color="#c7338f"/></linearGradient><linearGradient x1="233.29019" y1="167.86023" x2="233.29019" y2="231.27657" gradientUnits="userSpaceOnUse" id="color-3"><stop offset="0" stop-color="#36c751"/><stop offset="1" stop-color="#c7a354"/></linearGradient><linearGradient x1="216.95672" y1="192.82568" x2="222.24624" y2="209.17509" gradientUnits="userSpaceOnUse" id="color-4"><stop offset="0" stop-color="#344cc7"/><stop offset="1" stop-color="#c7a036"/></linearGradient></defs><g transform="translate(-152.62341,-127.59973)"><g data-paper-data="{&quot;isPaintingLayer&quot;:true}" fill-rule="nonzero" stroke-linecap="butt" stroke-linejoin="miter" stroke-miterlimit="10" stroke-dasharray="" stroke-dashoffset="0" style="mix-blend-mode: normal"><path d="M325.00217,128.36033c0,-0.42007 0.34053,-0.7606 0.7606,-0.7606c0.42007,0 0.7606,0.34053 0.7606,0.7606c0,0.42007 -0.34055,0.76062 -0.7606,0.76062c-0.42007,0 -0.7606,-0.34055 -0.7606,-0.76062z" fill="#ffffff" stroke="#ffffff" stroke-width="0"/><path d="M205.5839,200.59124c0,6.55286 -11.63175,11.865 -25.98024,11.865c-14.34849,0 -24.16425,51.96468 -25.98025,-11.865c-1.69961,-59.739 11.63176,-11.86499 25.98025,-11.86499c14.34849,0 25.98024,5.31213 25.98024,11.86499z" fill="url(#color-1)" stroke="#1d1d1d" stroke-width="2"/><path d="M231.50776,161.18885c-9.13363,-10.77138 -34.0423,-9.86722 -25.94222,-16.73571c8.10008,-6.8685 29.02609,-4.93199 38.15973,5.83939c9.13364,10.77139 9.9715,25.07133 1.87142,31.93982c-8.10008,6.86849 -4.95529,-10.27212 -14.08893,-21.0435z" fill="url(#color-2)" stroke="#1d1d1d" stroke-width="2"/><path d="M288.40873,199.5684c0,5.52228 -2.45396,10.71484 -6.76879,15.23649c-0.76412,0.80074 -9.33625,2.12511 -17.21715,0.58779c-8.53029,-1.664 -16.39115,-6.18931 -16.51636,-4.87728c-1.05254,11.02881 23.39905,12.10657 20.61588,13.43876c-9.55246,4.57238 -21.83403,7.32241 -35.23211,7.32241c-30.44111,0 -55.11852,-14.19623 -55.11852,-31.70817c0,-17.51193 24.6774,-31.70817 55.11852,-31.70817c30.44111,0 55.11852,14.19623 55.11852,31.70817z" fill="url(#color-3)" stroke="#1d1d1d" stroke-width="2"/><path d="M237.11871,195.33304c1.46066,4.51477 -5.19797,10.71206 -14.87247,13.84205c-9.6745,3.12999 -18.70133,2.0074 -20.16199,-2.50737c-1.46066,-4.51477 5.19797,-10.71206 14.87247,-13.84205c9.6745,-3.12999 18.70133,-2.0074 20.16199,2.50737z" fill="url(#color-4)" stroke="#1d1d1d" stroke-width="2"/><path d="M269.31171,196.90901c0,-1.6947 1.37383,-3.06853 3.06853,-3.06853c1.6947,0 3.06853,1.37383 3.06853,3.06853c0,1.6947 -1.37383,3.06853 -3.06853,3.06853c-1.6947,0 -3.06853,-1.37383 -3.06853,-3.06853z" fill="#000000" stroke="none" stroke-width="0.5"/></g></g></svg>