<svg version="1.1" xmlns="http://www.w3.org/2000/svg" xmlns:xlink="http://www.w3.org/1999/xlink" width="62.61071" height="64.58538" viewBox="0,0,62.61071,64.58538"><g transform="translate(-208.6444,-147.70731)"><g data-paper-data="{&quot;isPaintingLayer&quot;:true}" fill-rule="nonzero" stroke-linejoin="miter" stroke-miterlimit="10" stroke-dasharray="" stroke-dashoffset="0" style="mix-blend-mode: normal"><path d="M245.85794,182.0371l15.30035,-18.28855c0,0 7.93769,-1.45189 8.84683,17.18308c1.30343,26.71673 -10.55692,20.72643 -10.55692,20.72643z" fill="#f50000" stroke="#000000" stroke-width="2.5" stroke-linecap="round"/><path d="M249.54858,153.48466c0,3.7751 -4.47255,9.14347 -10.20873,9.14347c-5.73618,0 -10.20873,0.84564 -10.20873,-2.92946c0,-3.7751 4.47255,-10.74136 10.20873,-10.74136c5.73618,0 10.20873,0.75225 10.20873,4.52735z" fill="#f50000" stroke="#000000" stroke-width="2.5" stroke-linecap="butt"/><path d="M256.82342,183.91667c-0.42467,7.4029 -18.28603,27.2012 -26.75126,27.12581c-13.55487,-0.12073 -18.71393,-16.29119 -18.71393,-16.29119c0,0 4.05324,-0.11758 5.93977,-0.09348c5.51501,0.07045 8.44067,-2.82919 8.51845,-7.82405c0.07779,-4.99487 -2.92278,-2.72883 -8.43778,-2.79928c-2.84919,-0.0364 -7.48385,-1.24112 -7.48385,-1.24112c0,0 0.01224,-28.7828 17.85292,-27.70314c11.04517,0.66841 29.48194,21.74445 29.07568,28.82645z" fill="#ca0000" stroke="#000000" stroke-width="2.5" stroke-linecap="butt"/><path d="M213.24101,171.95942c0,-2.73258 1.19754,-4.94776 2.67477,-4.94776c1.47723,0 2.67476,2.21519 2.67476,4.94776c0,2.73258 -1.19753,4.94777 -2.67476,4.94777c-1.47723,0 -2.67477,-2.21519 -2.67477,-4.94777z" fill="#000000" stroke="none" stroke-width="0.5" stroke-linecap="butt"/><path d="M223.61528,174.22052c0,-2.73258 1.19753,-4.94776 2.67476,-4.94776c1.47723,0 2.67477,2.21519 2.67477,4.94776c0,2.73258 -1.19754,4.94777 -2.67477,4.94777c-1.47723,0 -2.67476,-2.21519 -2.67476,-4.94777z" fill="#000000" stroke="none" stroke-width="0.5" stroke-linecap="butt"/><path d="M253.98716,183.57824c0,4.3144 -4.9283,7.8119 -11.00768,7.8119c-6.07937,0 -11.00768,-3.4975 -11.00768,-7.8119c0,-4.3144 4.9283,-7.8119 11.00768,-7.8119c6.07937,0 11.00768,3.49751 11.00768,7.8119z" fill="#f50000" stroke="#000000" stroke-width="2.5" stroke-linecap="butt"/></g></g></svg>