<svg version="1.1" xmlns="http://www.w3.org/2000/svg" xmlns:xlink="http://www.w3.org/1999/xlink" width="107.55775" height="88.77941" viewBox="0,0,107.55775,88.77941"><g transform="translate(-185.95907,-135.61031)"><g data-paper-data="{&quot;isPaintingLayer&quot;:true}" fill-rule="nonzero" stroke="none" stroke-linecap="butt" stroke-linejoin="miter" stroke-miterlimit="10" stroke-dasharray="" stroke-dashoffset="0" style="mix-blend-mode: normal"><path d="M278.22489,171.75754c-0.47065,-2.66595 -1.28868,-6.38908 -3.2476,-8.43552c-4.39191,-4.58812 -10.61076,-5.44617 -16.40677,-6.774c-1.75253,-0.4015 -3.37029,-1.28066 -5.11794,-1.70293c-6.30591,-1.52366 -13.94388,-1.49027 -19.94081,0.9085c-6.88201,1.82114 -10.55421,8.05779 -15.99053,12.21207c-3.0759,2.35052 -4.35125,4.55224 -8.73676,3.86868c-5.65619,-0.88161 -9.77182,-5.72768 -10.96788,-10.87264c-0.097,-0.41728 -0.59096,-1.65057 -1.05025,-2.91994c0.28202,6.40067 1.33654,12.74368 1.8614,19.11883c0.56215,6.82801 0.00852,13.94423 0.00852,20.79819c0,2.92394 0.00319,5.84789 0.00004,8.77182c0.96461,-2.01356 1.93351,-4.0276 3.20182,-5.84146c3.32963,-4.76184 10.0928,-6.5125 15.12376,-3.03243c2.30958,1.59761 3.78707,4.88471 5.41162,7.09641c2.00732,2.73281 4.32357,4.63356 7.11179,6.52175c3.78922,1.34777 8.04432,3.84299 12.04292,4.35578c3.18078,0.40791 7.41079,-0.00382 10.52728,-0.69271c4.52333,-0.99987 9.11555,-1.38238 13.27205,-3.56407c2.77335,-1.4557 0.89597,-4.91708 -1.4642,-5.68568c-1.75592,-0.57182 -3.68742,-0.20956 -5.5306,-0.32312c-1.00101,-1.11178 -2.37812,-1.97608 -3.00302,-3.33533c-0.49398,-1.07447 -0.13036,-2.36194 -0.15975,-3.54416c-0.06768,-2.72269 -0.03802,-5.89094 0.50611,-8.56459c0.2842,-1.39647 0.17887,-3.1058 1.19516,-4.10482c1.04063,-1.02295 2.76986,-0.96008 4.2081,-1.20665c3.48155,-0.59686 7.95482,-0.15941 11.4817,-0.00753c1.46137,0.06293 2.9666,0.93796 4.36029,0.4939c0.93121,-0.2967 0.73451,-1.84808 0.78881,-2.8239c0.15161,-2.72427 -0.0101,-5.52445 -0.0101,-8.25454c0,0 0,-0.85575 0.50066,-1.56591zM282.70683,174.78127c0.10565,4.71352 1.35044,12.42508 -3.5887,15.00623c-1.21906,0.63707 -2.74329,0.24974 -4.11877,0.25164c-3.65594,0.00506 -7.35729,-0.23242 -11.03062,-0.23969c-0.81345,-0.00161 -1.62885,0.04633 -2.44034,-0.0101c-0.38124,-0.02652 -0.86484,-0.52069 -1.12159,-0.23762c-0.27894,0.30753 0.22654,0.80968 0.22613,1.22487c-0.00094,0.9539 -0.41903,4.33706 -0.4655,5.35744c-0.05041,1.10688 -0.47798,3.89063 0.23142,4.87789c6.47441,-0.81937 14.55912,5.10961 10.29211,12.32397c-2.05423,3.47314 -8.05505,4.91442 -11.65635,5.50308c-5.90603,0.96539 -12.10915,2.7476 -18.17004,1.94745c-4.55329,-0.60112 -9.34689,-3.26246 -13.6365,-4.85006c-3.48492,-2.29629 -6.37922,-4.63312 -8.87728,-8.01378c-2.44159,-3.30425 -3.37966,-6.65172 -7.92124,-6.737c-5.52174,-0.10369 -7.7783,9.18253 -10.09231,13.02311l-0.19375,0.12641l0.05457,0.04775l-1.68651,1.92743c-0.45841,0.52944 -1.13546,0.86438 -1.89075,0.86438c-1.25484,0 -2.29374,-0.9245 -2.47274,-2.12954l-0.47776,-2.86657l0.02247,-0.00374c-0.01693,-0.06671 -0.03295,-0.13371 -0.04797,-0.20105c-0.01015,-0.04549 -0.00851,-7.01331 -0.00851,-8.20074c0,-4.92592 0,-9.85185 0,-14.77778c0,-3.76055 0.32467,-7.67858 0.00851,-11.42222c-0.64328,-7.61696 -1.94402,-15.17585 -1.94402,-22.84955c0.43793,-1.53501 -0.07573,-3.81937 1.31379,-4.60505c3.93444,-2.22466 6.67174,1.6144 8.03649,4.11299c1.31343,2.40463 1.13264,5.40436 2.00614,7.90573c0.71487,2.04713 4.61492,4.29893 6.59481,4.77305c2.21647,0.53077 5.32243,-3.08424 7.01005,-4.36812c2.13169,-1.62171 3.24666,-3.54107 4.96991,-5.47761c2.66668,-2.99674 6.51673,-4.99577 10.29094,-6.05168c6.84757,-2.73903 15.49131,-2.72483 22.69672,-1.02957c1.72991,0.407 3.32321,1.29826 5.05693,1.68869c6.76008,1.52234 13.95538,2.83217 18.963,8.24604c2.63455,2.84829 3.81741,7.25435 4.50468,10.94518l0.04032,2.38529c0,0 0,0.82945 -0.47777,1.53282z" data-paper-data="{&quot;index&quot;:null}" fill="#040404" stroke-width="0.5"/><path d="M278.24856,172.63715c-0.50066,0.71016 -0.50022,1.56747 -0.50022,1.56747c0,2.73009 0.1633,5.5401 0.01169,8.26437c-0.0543,0.97583 0.14249,2.53071 -0.78872,2.82742c-1.39369,0.44407 -2.99891,-0.43133 -4.46028,-0.49426c-3.52688,-0.15188 -7.90015,-0.58966 -11.3817,0.0072c-1.43824,0.24656 -3.16755,0.18676 -4.20818,1.20971c-1.01628,0.99902 -0.91282,2.71928 -1.19702,4.11575c-0.54413,2.67366 -0.58243,5.85885 -0.51474,8.58154c0.02939,1.18222 -0.3378,2.47378 0.15618,3.54826c0.6249,1.35925 1.93066,2.1535 2.93167,3.26528c1.84318,0.11356 3.77107,-0.24463 5.52698,0.32719c2.36017,0.7686 4.31277,4.29573 1.53942,5.75142c-4.1565,2.18169 -8.76312,2.57465 -13.28646,3.57452c-3.11648,0.68889 -7.36172,1.10515 -10.5425,0.69724c-3.99861,-0.51279 -8.2746,-3.00972 -12.06382,-4.35749c-2.78821,-1.8882 -5.12014,-3.79689 -7.12746,-6.5297c-1.62456,-2.21171 -3.11423,-5.51204 -5.42381,-7.10965c-5.03096,-3.48008 -11.70622,-1.77655 -15.03585,2.98529c-1.26831,1.81386 -2.32643,3.87285 -3.29103,5.88641c0.00315,-2.92393 -0.00384,-5.85645 -0.00384,-8.78038c0,-6.85396 0.55199,-13.99588 -0.01016,-20.82389c-0.52487,-6.37515 -1.57209,-12.73592 -1.85411,-19.13659c0.45929,1.26938 1.0378,2.55602 1.13481,2.97329c1.19606,5.14496 5.22336,9.94449 10.87956,10.8261c4.38552,0.68356 5.66823,-1.52978 8.74413,-3.8803c5.43632,-4.15427 9.13989,-10.40813 16.0219,-12.22927c5.99693,-2.39877 13.66512,-2.42678 19.97103,-0.90313c1.74765,0.42227 3.37179,1.30546 5.12432,1.70696c5.79601,1.32783 12.02837,2.20106 16.42028,6.78918c1.95892,2.04644 2.78121,5.77916 3.25185,8.44511z" data-paper-data="{&quot;noHover&quot;:false,&quot;origItem&quot;:[&quot;Path&quot;,{&quot;applyMatrix&quot;:true,&quot;segments&quot;:[[[200.36248,174.39422],[0,0],[0.50066,0.71016]],[[200.86314,175.96013],[0,0],[0,2.73009]],[[200.85304,184.21467],[-0.15161,-2.72427],[0.0543,0.97582]],[[201.64185,187.03857],[-0.93121,-0.29671],[1.39369,0.44406]],[[206.00213,186.54467],[-1.46137,0.06293],[3.52688,-0.15188]],[[217.48383,186.5522],[-3.48155,-0.59686],[1.43824,0.24657]],[[221.69193,187.75885],[-1.04063,-1.02295],[1.01629,0.99902]],[[222.8871,191.86367],[-0.2842,-1.39647],[0.54413,2.67365]],[[223.3932,200.42826],[0.06769,-2.72269],[-0.02939,1.18222]],[[223.23346,203.97242],[0.49398,-1.07448],[-0.6249,1.35925]],[[220.23043,207.30776],[1.00101,-1.11178],[-1.84318,0.11356]],[[214.69984,207.63088],[1.75591,-0.57182],[-2.36017,0.7686]],[[213.23564,213.31656],[-2.77335,-1.45569],[4.1565,2.18169]],[[226.50769,216.88063],[-4.52334,-0.99987],[3.11649,0.68889]],[[237.03496,217.57334],[-3.18078,0.40791],[3.9986,-0.51279]],[[249.07789,213.21756],[-3.78922,1.34777],[2.78822,-1.88819]],[[256.18968,206.69581],[-2.00732,2.73281],[1.62455,-2.2117]],[[261.6013,199.5994],[-2.30958,1.59761],[5.03096,-3.48007]],[[276.72506,202.63184],[-3.32963,-4.76184],[1.26831,1.81386]],[[279.92688,208.4733],[-0.9646,-2.01356],[-0.00315,-2.92393]],[[279.92692,199.70148],[0,2.92393],[0,-6.85396]],[[279.93544,178.90329],[-0.56215,6.82801],[0.52486,-6.37515]],[[281.79684,159.78446],[-0.28202,6.40067],[-0.45929,1.26937]],[[280.74659,162.7044],[0.09701,-0.41727],[-1.19606,5.14496]],[[269.7787,173.57704],[5.6562,-0.88161],[-4.38551,0.68356]],[[261.04195,169.70836],[3.0759,2.35052],[-5.43632,-4.15428]],[[245.05142,157.49629],[6.88201,1.82114],[-5.99693,-2.39877]],[[225.11061,156.58779],[6.30591,-1.52365],[-1.74765,0.42227]],[[219.99267,158.29072],[1.75253,-0.4015],[-5.79601,1.32783]],[[203.58589,165.06472],[4.39191,-4.58812],[-1.95892,2.04644]],[[200.3383,173.50024],[0.47064,-2.66595],[0,0]]],&quot;closed&quot;:true}],&quot;index&quot;:null}" fill="#ffffff" stroke-width="0.5"/><path d="M238.09307,179.38799c1.81993,-0.82206 3.00312,0.95273 3.00312,0.95273l1.28347,2.12193c0.93393,3.12966 2.49398,6.98405 -0.09235,9.94478c-1.31514,1.50551 -3.81205,1.41992 -5.3666,2.67671c-3.04327,2.46036 -5.22399,6.18411 -9.937,4.48469c-6.73308,-2.42782 -7.68037,-14.25628 -2.74239,-18.71203c2.67712,-2.41568 8.48176,-2.07105 11.65107,-2.34671c0,0 1.41029,-0.12264 2.20069,0.87789zM236.32554,183.49129c-0.37275,0.03241 -7.6523,-0.01982 -8.69867,1.04492c-2.34126,2.38237 -1.9778,8.68361 1.13375,10.35901c1.53095,0.82433 4.39191,-3.2168 5.08304,-3.75211c1.39003,-1.07662 3.33176,-1.21389 4.80827,-2.16846c0.70064,-0.45297 -0.95249,-4.71438 -1.06139,-5.07526l-0.50228,-0.60248c-0.42007,0.16458 -0.76272,0.19438 -0.76272,0.19438z" data-paper-data="{&quot;index&quot;:null}" fill="#040404" stroke-width="0.5"/><path d="M236.35369,183.44998c0,0 0.34547,-0.02773 0.76553,-0.19231l0.50622,0.60593c0.10891,0.36088 1.7771,4.65666 1.07646,5.10963c-1.47652,0.95457 -3.4398,1.1344 -4.82983,2.21103c-0.69113,0.5353 -3.60762,4.57731 -5.13857,3.75298c-3.11155,-1.6754 -3.48409,-8.05316 -1.14282,-10.43553c1.04637,-1.06474 8.39027,-1.01933 8.76302,-1.05173z" data-paper-data="{&quot;noHover&quot;:false,&quot;origItem&quot;:[&quot;Path&quot;,{&quot;applyMatrix&quot;:true,&quot;segments&quot;:[[[241.47493,185.03959],[0.42006,0.16458],[0,0]],[[240.97265,185.64207],[0,0],[-0.1089,0.36088]],[[239.91126,190.71733],[-0.70064,-0.45297],[1.47651,0.95457]],[[244.71953,192.88579],[-1.39003,-1.07663],[0.69113,0.53531]],[[249.80257,196.6379],[-1.53095,0.82433],[3.11155,-1.6754]],[[250.93632,186.27889],[2.34127,2.38237],[-1.04637,-1.06474]],[[242.23765,185.23397],[0.37275,0.0324],[0,0]]],&quot;closed&quot;:true}],&quot;index&quot;:null}" fill="#ffffff" stroke-width="0.5"/><path d="M266.70092,167.52435c0.73683,0.74073 0.73683,1.84793 0.73683,1.84793l-0.01027,2.40667l-0.23995,2.63946c-0.10234,1.28675 -1.17897,2.29905 -2.49204,2.29905c-1.31307,0 -2.3897,-1.0123 -2.49204,-2.29905l-0.23995,-2.63946l0.0511,-0.00465l-0.05879,-0.10841c-0.00086,-1.0068 -0.00171,-2.01359 -0.00257,-3.02039c0,0 0,-2.5 2.5,-2.5c1.33603,0 1.95807,0.71399 2.24768,1.37884z" data-paper-data="{&quot;index&quot;:null}" fill="#0088ff" stroke-width="0.5"/><path d="M286.4588,155.30248l-1.09637,0.22444c-1.09374,0.64527 -2.68171,1.74739 -4.29016,2.28833c0.26316,0.3959 0.41649,0.87112 0.41649,1.38214c0,1.38071 -1.11929,2.5 -2.5,2.5h-0.05868l1.67783,1.88756c0.20839,0.23227 0.37393,0.50376 0.48421,0.80205l2.17612,1.86525c0.54156,0.45858 0.88536,1.1435 0.88536,1.90872c0,0.53274 -0.16663,1.02656 -0.45062,1.43218c0.32453,0.69274 0.54177,1.81671 -0.63073,2.85893c-1.86852,1.66091 -3.52943,-0.20761 -3.52943,-0.20761c-2.9017,-3.26451 -6.20397,-7.68842 -10.31102,-9.56038c-2.96729,-1.35246 -7.0484,-1.34773 -10.25719,-2.22324l-2.47461,-0.22496c-1.28675,-0.10234 -2.29905,-1.17897 -2.29905,-2.49204c0,-0.5479 0.17626,-1.05464 0.47516,-1.4666c-5.94059,2.58417 -5.64913,-5.77391 -5.07592,-8.81216c0.31632,-1.67665 -0.31972,-4.28058 1.24302,-4.96548c1.03997,-0.45578 2.58056,0.15037 4.15607,0.97476c1.81268,-0.8552 4.04806,-0.91983 6.31719,-0.68267l4.74474,-0.14378c0.02915,-0.001 0.05843,-0.00151 0.08782,-0.00151c0.74608,0 1.41582,0.32681 1.87388,0.84509c0.28423,-0.27885 0.56478,-0.57618 0.84326,-0.89048l1.07904,-2.15808c0.40086,-0.84562 1.26228,-1.43041 2.26029,-1.43041c1.28062,0 2.33634,0.96288 2.48268,2.20416l0.47991,3.59931l-0.05859,0.00781c0.01838,0.10219 0.03432,0.20497 0.04762,0.30839c0.51532,-0.04598 1.10147,-0.05996 1.76713,-0.03743c2.86398,0.09693 3.56569,5.22073 3.53536,7.25903c-0.00516,0.34682 -0.58373,0.76322 -0.3211,0.9898c0.24406,0.21055 0.28139,-0.60588 0.53387,-0.80625c0.6485,-0.51464 1.41171,-0.86526 2.11757,-1.29789l2.29525,-0.7446c0,0 2.40381,-0.6868 3.09061,1.71701c0.6868,2.40381 -1.71701,3.09061 -1.71701,3.09061zM256.52598,155.03624l-0.01801,-0.00188c-0.00124,0.00429 -0.0025,0.00855 -0.00377,0.01278zM267.88032,150.19329c0.26657,-0.31783 0.56883,-0.60218 0.90764,-0.84401c0.02555,-0.07995 0.0511,-0.16057 0.07672,-0.24174c-0.5374,0.34967 -1.08855,0.65855 -1.65611,0.92358c0.22868,0.04971 0.45254,0.10381 0.67175,0.16218z" data-paper-data="{&quot;index&quot;:null}" fill="#ff9d00" stroke-width="0.5"/><path d="M185.95907,224.38971v-88.77941h107.55775v88.77941z" fill="none" stroke-width="0"/></g></g></svg>