<svg version="1.1" xmlns="http://www.w3.org/2000/svg" xmlns:xlink="http://www.w3.org/1999/xlink" width="49.76713" height="45.38983" viewBox="0,0,49.76713,45.38983"><g transform="translate(-247.09282,-185.11501)"><g data-paper-data="{&quot;isPaintingLayer&quot;:true}" fill-rule="nonzero" stroke-linecap="butt" stroke-linejoin="miter" stroke-miterlimit="10" stroke-dasharray="" stroke-dashoffset="0" style="mix-blend-mode: normal"><g><path d="M252.17235,195.65544c2.39113,0 10.74056,5.97545 10.74056,13.65467c0,7.67922 -8.34943,14.15424 -10.74056,14.15424c-2.39113,0 -4.32953,-6.22523 -4.32953,-13.90445c0,-7.67922 1.93839,-13.90445 4.32953,-13.90445z" data-paper-data="{&quot;index&quot;:null}" fill="#ff0000" stroke="#b50000" stroke-width="1.5"/><path d="M280.16772,194.46235c-0.95923,2.33224 -5.28706,2.76272 -9.66649,0.9615c-4.37943,-1.80122 -7.15205,-5.15205 -6.19282,-7.48429c0.95923,-2.33224 5.28706,-2.76272 9.66649,-0.9615c4.37943,1.80122 7.15205,5.15205 6.19282,7.48429z" fill="#ff0000" stroke="#b50000" stroke-width="1.5"/><path d="M257.77457,210.58716c0,-10.58602 8.58167,-19.16769 19.16769,-19.16769c10.58602,0 19.16769,8.58167 19.16769,19.16769c0,0.76312 -11.31235,0.84508 -11.28819,1.58959c0.26172,8.06277 10.71384,3.26255 10.30548,4.48545c-2.54056,7.60834 -9.72231,13.09264 -18.18498,13.09264c-10.58602,0 -19.16769,-8.58167 -19.16769,-19.16769z" fill="#ff0000" stroke="#b50000" stroke-width="1.5"/><path d="M258.16709,213.50127c0,-6.88107 5.57821,-12.4593 12.4593,-12.4593c6.88107,0 12.4593,5.57821 12.4593,12.4593c0,6.88107 -5.57821,12.4593 -12.4593,12.4593c-6.88107,0 -12.4593,-5.57821 -12.4593,-12.4593z" fill="#f40000" stroke="#910000" stroke-width="1.5"/><path d="M274.78659,219.00447c0.92267,1.53779 -1.78154,4.85572 -6.04002,7.41081c-4.25848,2.55509 -8.45864,3.37978 -9.3813,1.84199c-0.92267,-1.53779 1.78154,-4.85572 6.04002,-7.41081c4.25848,-2.55509 8.45864,-3.37978 9.3813,-1.84199z" fill="#ff0000" stroke="#b50000" stroke-width="1.5"/><path d="M288.24483,205.81319c0,-0.63227 0.51255,-1.14483 1.14483,-1.14483c0.63227,0 1.14483,0.51255 1.14483,1.14483c0,0.63227 -0.51255,1.14483 -1.14483,1.14483c-0.63227,0 -1.14483,-0.51255 -1.14483,-1.14483z" fill="#000000" stroke="none" stroke-width="0.5"/></g></g></g></svg>