<svg version="1.1" xmlns="http://www.w3.org/2000/svg" xmlns:xlink="http://www.w3.org/1999/xlink" width="58.10845" height="42.01669" viewBox="0,0,58.10845,42.01669"><g transform="translate(-305.91955,-46.21307)"><g data-paper-data="{&quot;isPaintingLayer&quot;:true}" fill-rule="nonzero" stroke-linejoin="miter" stroke-miterlimit="10" stroke-dasharray="" stroke-dashoffset="0" style="mix-blend-mode: normal"><g><path d="M338.30588,73.49595l20.48495,-10.92531c0,0 -1.75585,6.7797 -1.75585,10.14492c0,3.33271 1.75585,9.94984 1.75585,9.94984z" data-paper-data="{&quot;index&quot;:null}" fill="#ff0000" stroke="#b50000" stroke-width="1.5" stroke-linecap="butt"/><path d="M317.27638,63.15592c0,0 5.84994,-5.87201 8.77324,-7.94268c2.64063,-1.87044 8.00492,-3.94184 8.00492,-3.94184c0,0 -2.3303,4.41747 -2.3303,6.29181c0,2.06807 2.3303,5.59272 2.3303,5.59272z" data-paper-data="{&quot;index&quot;:null}" fill="#ff0000" stroke="#b50000" stroke-width="1.5" stroke-linecap="butt"/><path d="M335.03,46.96307c1.93946,0 3.5117,1.52856 3.5117,3.41416c0,1.8856 -1.57225,3.41416 -3.5117,3.41416c-1.93946,0 -3.5117,-1.52856 -3.5117,-3.41416c0,-1.88559 1.57223,-3.41416 3.5117,-3.41416z" data-paper-data="{&quot;index&quot;:null}" fill="#ff0000" stroke="#b50000" stroke-width="1.5" stroke-linecap="butt"/><path d="M306.66955,73.73798c0,-7.58937 8.42341,-13.74178 18.81425,-13.74178c10.39082,0 18.81425,6.15241 18.81425,13.74178c0,7.58937 -8.42342,13.74178 -18.81425,13.74178c-10.39082,0 -18.81425,-6.15241 -18.81425,-13.74178z" data-paper-data="{&quot;index&quot;:null}" fill="#ff0000" stroke="#b50000" stroke-width="1.5" stroke-linecap="butt"/><path d="M335.91219,63.81891c3.072,-3.48175 6.70478,-5.29627 8.11407,-4.05284c1.40928,1.24343 0.06139,5.07393 -3.01061,8.55568c-3.07199,3.48175 -6.70479,5.29628 -8.11406,4.05284c-1.40928,-1.24343 -0.06139,-5.07393 3.01061,-8.55568z" data-paper-data="{&quot;index&quot;:null}" fill="#ff0000" stroke="#b50000" stroke-width="1.5" stroke-linecap="butt"/><path d="M359.7663,65.69214c-1.93947,0 -3.51171,-1.57224 -3.51171,-3.51171c0,-1.93946 1.57224,-3.5117 3.51171,-3.5117c1.93946,0 3.5117,1.57223 3.5117,3.5117c0,1.93947 -1.57225,3.51171 -3.5117,3.51171z" data-paper-data="{&quot;index&quot;:null}" fill="#ff0000" stroke="#b50000" stroke-width="1.5" stroke-linecap="butt"/><path d="M359.86386,85.98202c-1.6701,0 -3.02397,-1.35387 -3.02397,-3.02397c0,-1.67009 1.35387,-3.02396 3.02397,-3.02396c1.67009,0 3.02396,1.35387 3.02396,3.02396c0,1.6701 -1.35387,3.02397 -3.02396,3.02397z" data-paper-data="{&quot;index&quot;:null}" fill="#ff0000" stroke="#b50000" stroke-width="1.5" stroke-linecap="butt"/><path d="M345.68751,55.92115c2.44082,0.85413 3.72707,3.52522 2.87294,5.96603c-0.85415,2.44082 -3.52523,3.72707 -5.96604,2.87294c-2.44082,-0.85413 -3.72707,-3.52523 -2.87294,-5.96604c0.85413,-2.4408 3.52522,-3.72706 5.96603,-2.87293z" data-paper-data="{&quot;index&quot;:null}" fill="#ff0000" stroke="#b50000" stroke-width="1.5" stroke-linecap="butt"/><path d="M311.63056,73.05316c-0.52434,0 -0.9494,-0.42506 -0.9494,-0.9494c0,-0.52434 0.42506,-0.9494 0.9494,-0.9494c0.52434,0 0.9494,0.42506 0.9494,0.9494c0,0.52434 -0.42506,0.9494 -0.9494,0.9494z" data-paper-data="{&quot;index&quot;:null}" fill="#000000" stroke="none" stroke-width="0.5" stroke-linecap="butt"/><path d="M318.80601,76.25499c0,0 -1.2635,4.17432 -2.78288,4.17432c-1.46786,0 -2.31907,-4.01972 -2.31907,-4.01972" fill="none" stroke="#000000" stroke-width="1.5" stroke-linecap="round"/><path d="M321.27968,73.1629l-1.85525,-1.05278l2.00986,-0.95708" fill="none" stroke="#000000" stroke-width="2.5" stroke-linecap="round"/></g></g></g></svg>