<svg version="1.1" xmlns="http://www.w3.org/2000/svg" xmlns:xlink="http://www.w3.org/1999/xlink" width="52.84228" height="35.74898" viewBox="0,0,52.84228,35.74898"><defs><linearGradient x1="238.86445" y1="168.37998" x2="254.3063" y2="168.37998" gradientUnits="userSpaceOnUse" id="color-1"><stop offset="0" stop-color="#b1b1b1"/><stop offset="1" stop-color="#8d8d8d"/></linearGradient><linearGradient x1="260.76036" y1="176.4539" x2="260.76036" y2="188.6287" gradientUnits="userSpaceOnUse" id="color-2"><stop offset="0" stop-color="#929292"/><stop offset="1" stop-color="#797979"/></linearGradient><linearGradient x1="236.75421" y1="170.67888" x2="236.75421" y2="196.2477" gradientUnits="userSpaceOnUse" id="color-3"><stop offset="0" stop-color="#b1b1b1"/><stop offset="1" stop-color="#6d6868"/></linearGradient><linearGradient x1="242.95874" y1="183.48543" x2="251.50397" y2="183.48543" gradientUnits="userSpaceOnUse" id="color-4"><stop offset="0" stop-color="#aaaaaa"/><stop offset="1" stop-color="#585858"/></linearGradient></defs><g transform="translate(-212.95667,-162.50231)"><g data-paper-data="{&quot;isPaintingLayer&quot;:true}" fill-rule="nonzero" stroke-linejoin="miter" stroke-miterlimit="10" stroke-dasharray="" stroke-dashoffset="0" style="mix-blend-mode: normal"><g><path d="M239.67578,173.00764c0,0 -0.63778,-1.49652 -0.80116,-3.58637c-0.07017,-0.89763 0.24557,-2.7999 0.24557,-3.2659c0,-0.37899 -0.39443,-1.57436 0.2568,-2.07042c0.52598,-0.40065 2.05602,-0.15194 2.52115,-0.15194c0.70019,0 2.36407,-0.1807 3.87564,-0.1807c1.72294,0 3.35479,0.1807 5.01379,0.1807c0.76939,0 2.02345,0.08133 2.59158,0.47562c0.90773,0.62997 0.92715,1.77127 0.92715,2.48753c0,1.67245 0,6.11149 0,6.11149z" fill="url(#color-1)" stroke="#353434" stroke-width="2.5" stroke-linecap="butt"/><path d="M256.85096,188.6287v-12.1748c0,0 4.70222,0.2915 7.69799,0.62306c0.39533,0.04375 -0.30615,11.55174 -0.30615,11.55174c0,0 -1.29044,-0.12196 -2.4813,-0.07352c-0.95161,0.0387 -4.91054,0.07352 -4.91054,0.07352z" fill="url(#color-2)" stroke="#353434" stroke-width="2.5" stroke-linecap="butt"/><g stroke="#353434" stroke-width="2.5"><path d="M215.75647,193.68373l0.09327,-0.28681c0,0 4.52437,-1.29682 4.3166,-2.24972c-1.10742,-5.07909 -4.62586,-2.78197 -4.62586,-2.78197l-0.21024,-10.9423c0,0 2.05894,-0.71926 2.96397,-1.36237c0.70958,-0.50423 1.51637,-2.68704 1.51637,-2.68704c0,0 2.92718,-0.23478 5.31325,-0.20641c1.95214,0.02321 9.64254,0.40282 9.64254,0.40282c0,0 1.10515,-0.40928 1.48863,-0.92122c0.33048,-0.44118 0.67699,-1.96983 0.67699,-1.96983c0,0 7.67043,0.43989 9.96442,0.36713c1.64351,-0.05213 6.37426,-0.4851 9.97257,1.0582c1.13321,0.48603 1.30919,3.03432 1.30919,3.03432c0,0 -0.21992,14.43724 -0.21083,16.12853c0.00265,0.49323 -1.56047,-0.01111 -2.38172,0.75338c-0.90188,0.83955 -0.8748,2.73354 -0.8748,2.73354c0,0 -3.52878,1.48927 -7.49262,1.49371c-3.85693,0.00432 -8.14948,-1.4762 -8.31549,-1.4745c-0.36849,0.00379 -1.07916,-0.05933 -2.93672,-0.14335c-0.76545,-0.03462 -0.93892,-1.52313 -0.93892,-1.52313c0,0 -8.6498,0.42756 -10.15484,0.42756c-4.68937,0 -9.11575,0.14945 -9.11575,0.14945z" fill="url(#color-3)" stroke-linecap="butt"/><path d="M235.50515,193.24044l0.24592,-19.59632" fill="none" stroke-linecap="round"/></g><path d="M220.01971,182.14169c0,-0.88155 0.71463,-1.59618 1.59618,-1.59618c0.88155,0 1.59618,0.71463 1.59618,1.59618c0,0.88155 -0.71463,1.59618 -1.59618,1.59618c-0.88155,0 -1.59618,-0.71463 -1.59618,-1.59618z" fill="#000000" stroke="none" stroke-width="0.5" stroke-linecap="butt"/><path d="M243.07874,185.9941c0,0 -0.12,-1.44515 -0.12,-2.23973c0,-0.90377 0.12,-2.89761 0.12,-2.89761c0,0 1.08675,-0.16147 1.85134,-0.09964c0.65754,0.05317 0.9518,0.334 1.55736,0.30187c0.84957,-0.04507 0.88047,-0.44224 1.44299,-0.44224c1.3767,0 3.57354,0.24001 3.57354,0.24001v5.13734c0,0 -1.41138,0.00619 -2.96897,0.10915c-1.07325,0.07095 -2.27895,0.25086 -2.88466,0.25086c-1.29862,0 -2.5716,-0.36001 -2.5716,-0.36001z" fill="url(#color-4)" stroke="#353434" stroke-width="2.5" stroke-linecap="butt"/><path d="M255.34558,172.8776l-3.45575,1.19198l-6.83087,-1.47721l-8.16879,3.10839l0.1458,-1.93219l0.91766,-1.68821c0,0 10.84189,-0.05675 13.96232,0.12384c1.66164,0.09616 3.42962,0.67341 3.42962,0.67341z" data-paper-data="{&quot;index&quot;:null}" fill="#aaaaaa" stroke="none" stroke-width="0" stroke-linecap="butt"/></g></g></g></svg>