<svg version="1.1" xmlns="http://www.w3.org/2000/svg" xmlns:xlink="http://www.w3.org/1999/xlink" width="42.56803" height="44.85719" viewBox="0,0,42.56803,44.85719"><defs><linearGradient x1="250.18474" y1="159.70565" x2="250.18474" y2="178.85821" gradientUnits="userSpaceOnUse" id="color-1"><stop offset="0" stop-color="#b1b1b1"/><stop offset="1" stop-color="#6d6868"/></linearGradient><linearGradient x1="234.98475" y1="169.82199" x2="234.98475" y2="199.39378" gradientUnits="userSpaceOnUse" id="color-2"><stop offset="0" stop-color="#b1b1b1"/><stop offset="1" stop-color="#6d6868"/></linearGradient><linearGradient x1="239.0884" y1="175.8744" x2="237.72091" y2="188.81692" gradientUnits="userSpaceOnUse" id="color-3"><stop offset="0" stop-color="#9b9b9b"/><stop offset="1" stop-color="#6d6d6d"/></linearGradient></defs><g transform="translate(-218.96076,-157.93788)"><g data-paper-data="{&quot;isPaintingLayer&quot;:true}" fill-rule="nonzero" stroke-linecap="butt" stroke-linejoin="miter" stroke-miterlimit="10" stroke-dasharray="" stroke-dashoffset="0" style="mix-blend-mode: normal"><g><path d="M248.63328,178.85821l-8.02482,-8.02482l11.12774,-11.12774l8.02482,8.02482z" fill="url(#color-1)" stroke="#4c4c4c" stroke-width="2.5"/><path d="M249.71609,169.82199l0.01443,29.07103c0,0 -15.01083,0.24493 -17.75777,0.28975c-0.19045,0.00311 -3.44267,1.11159 -3.44267,1.11159c0,0 1.35133,-1.784 1.23274,-2.33224c-0.22961,-1.06147 -1.01125,-4.67494 -1.01125,-4.67494c0,0 -3.43182,1.6318 -4.89771,2.68337c-1.36435,0.97873 -3.61488,3.42324 -3.61488,3.42324l0.25617,-29.40744z" fill="url(#color-2)" stroke="#4c4c4c" stroke-width="2.5"/><path d="M222.25897,190.63545c0,-1.10457 0.89543,-2 2,-2c1.10457,0 2,0.89543 2,2c0,1.10457 -0.89543,2 -2,2c-1.10457,0 -2,-0.89543 -2,-2z" fill="#000000" stroke="none" stroke-width="0.5"/><path d="M241.33087,184.93246c-2.73826,3.09753 -6.26816,4.45042 -7.88426,3.02176c-1.6161,-1.42866 -0.70641,-5.09786 2.03184,-8.19538c2.73826,-3.09753 6.26816,-4.45042 7.88426,-3.02176c1.6161,1.42865 0.70641,5.09785 -2.03184,8.19538z" fill="url(#color-3)" stroke="#4c4c4c" stroke-width="2"/></g></g></g></svg>