<svg version="1.1" xmlns="http://www.w3.org/2000/svg" xmlns:xlink="http://www.w3.org/1999/xlink" width="65" height="50" viewBox="0 0 65 50"><defs><linearGradient x1="251.64557" y1="173.85893" x2="264.29929" y2="167.21036" gradientUnits="userSpaceOnUse" id="color-1"><stop offset="0" stop-color="#37db00"/><stop offset="1" stop-color="#00eb09"/></linearGradient><linearGradient x1="224.44423" y1="185.22312" x2="232.73348" y2="178.11001" gradientUnits="userSpaceOnUse" id="color-2"><stop offset="0" stop-color="#db8100"/><stop offset="1" stop-color="#eba100"/></linearGradient><linearGradient x1="228.12378" y1="176.60663" x2="234.84019" y2="193.96158" gradientUnits="userSpaceOnUse" id="color-3"><stop offset="0" stop-color="#db8100"/><stop offset="1" stop-color="#eba100"/></linearGradient><linearGradient x1="232.98538" y1="188.49971" x2="242.16745" y2="186.99446" gradientUnits="userSpaceOnUse" id="color-4"><stop offset="0" stop-color="#db8100"/><stop offset="1" stop-color="#eba100"/></linearGradient></defs><g transform="translate(-210,-156)"><g data-paper-data="{&quot;isPaintingLayer&quot;:true}" fill-rule="nonzero" stroke-linecap="butt" stroke-linejoin="miter" stroke-miterlimit="10" stroke-dasharray="" stroke-dashoffset="0" style="mix-blend-mode: normal"><path d="M252.96273,176.3658l-2.63434,-5.01374l9.41734,-10.42436l-1.58427,7.27756l5.55307,-1.45697l-2.19101,5.14706l6.78993,1.59766z" fill="url(#color-1)" stroke="#089c00" stroke-width="2.5"/><path d="M232.73348,178.11001c0.98212,1.1445 -0.07734,3.66464 -2.36635,5.62887c-2.28902,1.96423 -4.94079,2.62875 -5.92291,1.48424c-0.98212,-1.1445 1.94117,-5.53056 4.23018,-7.49479c2.28902,-1.96423 3.07696,-0.76282 4.05908,0.38168z" fill="url(#color-2)" stroke="#805200" stroke-width="2.5"/><path d="M211.7088,197.70801c-1.07862,-5.79173 37.42696,-28.57386 37.42696,-28.57386l5.69809,10.30518c0,0 -13.89545,9.01456 -26.39764,14.76405c-0.80052,0.36814 0.22271,-3.888 -1.09737,-3.33585c-1.06905,0.44715 -4.51034,5.71852 -5.10411,5.95802c-5.76262,2.3243 -10.09266,3.20889 -10.52593,0.88246z" fill="url(#color-3)" stroke="#805200" stroke-width="2.5"/><path d="M242.16745,186.99446c0.18976,1.15753 -1.71189,2.43287 -4.24744,2.84853c-2.53555,0.41566 -4.74487,-0.18575 -4.93462,-1.34328c-0.18976,-1.15753 1.71188,-2.43287 4.24744,-2.84853c2.53555,-0.41566 4.74487,0.18575 4.93463,1.34328z" fill="url(#color-4)" stroke="#805200" stroke-width="2.5"/><path d="M218.15806,192.70281c0,-0.55856 0.45281,-1.01137 1.01137,-1.01137c0.55856,0 1.01137,0.45281 1.01137,1.01137c0,0.55856 -0.45281,1.01137 -1.01137,1.01137c-0.55856,0 -1.01137,-0.45281 -1.01137,-1.01137z" fill="#000000" stroke="none" stroke-width="0.5"/><path d="M246.22475,172.14208c0.4717,0.72717 -0.25425,2.4963 -2.88377,3.98843c-0.68186,0.38693 -2.66984,-0.40255 -3.4061,0.13434c-0.881,0.64241 -0.84956,3.16986 -1.85825,3.80673c-0.8918,0.56305 -2.47828,-0.23552 -3.38493,0.39171c-1.18663,0.82091 -0.27425,2.54324 -1.58692,3.39476c-0.45056,0.29228 -2.08127,-0.99521 -3.04947,-0.77482c-1.21218,0.2759 -1.41018,2.67754 -2.43323,2.76289c-1.7899,0.14932 -2.37564,-0.07567 -3.2944,0.26423c-2.19575,0.81228 -0.87545,2.61703 -2.53277,3.22844c-2.59552,0.95752 -4.26034,2.45796 -4.73693,1.72324c-1.03915,-1.60193 4.64767,-7.13593 12.70184,-12.36051c8.05417,-5.22459 15.42577,-8.16133 16.46492,-6.55939z" fill="#ffe1ac" stroke="#ccb691" stroke-width="2.5"/></g></g></svg>