<svg version="1.1" xmlns="http://www.w3.org/2000/svg" xmlns:xlink="http://www.w3.org/1999/xlink" width="127.17019" height="79.64962" viewBox="0,0,127.17019,79.64962"><g transform="translate(-175.74648,-140.52253)"><g data-paper-data="{&quot;isPaintingLayer&quot;:true}" fill-rule="nonzero" stroke-linejoin="miter" stroke-miterlimit="10" stroke-dasharray="" stroke-dashoffset="0" style="mix-blend-mode: normal"><path d="M214.66666,213.33333v-32h87v32z" fill="#b0845a" stroke="#674c24" stroke-width="2.5" stroke-linecap="butt"/><path d="M261.60969,200.94309c0.26517,2.84112 -5.38927,5.69212 -12.62955,6.36788c-7.24028,0.67576 -13.32466,-1.07961 -13.58983,-3.92074c-0.26517,-2.84112 5.38927,-5.69212 12.62956,-6.36788c7.24028,-0.67576 13.32465,1.07962 13.58982,3.92074z" fill="#b0845a" stroke="#674c24" stroke-width="2.5" stroke-linecap="butt"/><path d="M182.33334,218.16666l7.33334,-20.66667l-11.33334,-21l35.66666,11.66667v19.33333z" fill="#b0845a" stroke="#674c24" stroke-width="2.5" stroke-linecap="butt"/><path d="M276,180.16666v-13.66667l-46.49288,-0.89794l0.17391,-12.48165c0,0 49.39867,-0.89023 50.24069,-0.94857c10.36581,-0.7182 9.74495,6.32816 9.74495,6.32816v21.66667z" fill="#b0b0b0" stroke="#666666" stroke-width="2.5" stroke-linecap="butt"/><path d="M236.99999,179.50001l-6.66666,-1.66667l10,-3l-9.33334,-1.33333l8.66667,-2.66667l-7.66667,-0.66666l6.33334,-3.66667" fill="none" stroke="#666666" stroke-width="2.5" stroke-linecap="round"/><path d="M234,152.5l-7,-10l24,-0.66667l-6,10.66667z" fill="#767676" stroke="#494949" stroke-width="2.5" stroke-linecap="butt"/><path d="M290.83334,196.16666c0,-1.38071 1.11929,-2.5 2.5,-2.5c1.38071,0 2.5,1.11929 2.5,2.5c0,1.38071 -1.11929,2.5 -2.5,2.5c-1.38071,0 -2.5,-1.11929 -2.5,-2.5z" fill="#000000" stroke="none" stroke-width="0.5" stroke-linecap="butt"/><path d="M274.5,196.16666c0,-1.38071 1.11929,-2.5 2.5,-2.5c1.38071,0 2.5,1.11929 2.5,2.5c0,1.38071 -1.11929,2.5 -2.5,2.5c-1.38071,0 -2.5,-1.11929 -2.5,-2.5z" fill="#000000" stroke="none" stroke-width="0.5" stroke-linecap="butt"/><path d="M296.66666,205.34103c0,0 -6.56633,1.77017 -9.64051,1.82411c-3.24943,0.05701 -9.35949,-1.49077 -9.35949,-1.49077" data-paper-data="{&quot;index&quot;:null}" fill="none" stroke="#000000" stroke-width="2.5" stroke-linecap="round"/></g></g></svg>