<svg version="1.1" xmlns="http://www.w3.org/2000/svg" xmlns:xlink="http://www.w3.org/1999/xlink" width="62.04912" height="54.53049" viewBox="0,0,62.04912,54.53049"><g transform="translate(-235.60587,-81.61524)"><g data-paper-data="{&quot;isPaintingLayer&quot;:true}" fill-rule="nonzero" stroke-linejoin="miter" stroke-miterlimit="10" stroke-dasharray="" stroke-dashoffset="0" style="mix-blend-mode: normal"><g><path d="M264.2398,105.55886l2.57104,-19.97089" fill="none" stroke="#9d4400" stroke-width="2.5" stroke-linecap="round"/><path d="M258.65076,94.9665l1.32074,-10.25902l6.2922,0.81006l-1.32074,10.25901z" fill="#cc4f00" stroke="#9d4400" stroke-width="2.5" stroke-linecap="butt"/><path d="M266.5844,95.98788l1.32074,-10.25902l6.2922,0.81005l-1.32074,10.25901z" fill="#cc4f00" stroke="#9d4400" stroke-width="2.5" stroke-linecap="butt"/><path d="M271.10816,84.61162l-1.32074,10.25902l-3.67973,0.49965l1.32074,-10.25902z" data-paper-data="{&quot;index&quot;:null}" fill="#cc4f00" stroke="#9d4400" stroke-width="2.5" stroke-linecap="butt"/><path d="M266.60771,85.00561l-1.32074,10.25902l-3.41558,-1.55216l1.32074,-10.25902z" data-paper-data="{&quot;index&quot;:null}" fill="#cc4f00" stroke="#9d4400" stroke-width="2.5" stroke-linecap="butt"/><path d="M265.59167,96.13818l1.32074,-10.25901l3.43319,1.41536l-1.32074,10.25902z" fill="#cc4f00" stroke="#9d4400" stroke-width="2.5" stroke-linecap="butt"/><path d="M261.07361,96.66895l1.32074,-10.25902l3.69734,-0.63644l-1.32074,10.25902z" fill="#cc4f00" stroke="#9d4400" stroke-width="2.5" stroke-linecap="butt"/><path d="M270.47241,108.88536c-1.73579,4.22766 -6.2274,6.38843 -10.03229,4.82622c-3.80489,-1.56221 -5.48224,-6.25582 -3.74645,-10.48348c1.73579,-4.22766 11.49196,-7.95411 15.29685,-6.3919c3.80489,1.56221 0.21768,7.8215 -1.51811,12.04916z" fill="#009c42" stroke="#007a41" stroke-width="2.5" stroke-linecap="butt"/><path d="M287.26628,119.26931c0,8.63023 -10.56567,15.62642 -23.59908,15.62642c-13.03341,0 -23.59908,-6.99619 -23.59908,-15.62642c0,-8.63023 10.56567,-15.62642 23.59908,-15.62642c13.03341,0 23.59908,6.99618 23.59908,15.62642z" fill="#9b9b9b" stroke="#7a7a7a" stroke-width="2.5" stroke-linecap="butt"/><path d="M290.30043,118.47803c0,0 9.06366,12.13659 5.10288,12.13659c-3.96078,0 -9.51619,-5.55723 -9.51619,-12.41242c0,-6.85519 5.55541,-12.41242 9.51619,-12.41242c3.96078,0 -5.10288,12.68825 -5.10288,12.68825z" fill="#9b9b9b" stroke="#7a7a7a" stroke-width="2.5" stroke-linecap="butt"/><path d="M241.78804,120.97818c-1.35407,3.23154 -3.56228,5.3859 -4.93217,4.81189c-1.36989,-0.57401 -1.38272,-3.65902 -0.02864,-6.89056c1.35407,-3.23154 3.56228,-5.38589 4.93218,-4.81189c1.36989,0.57401 1.38272,3.65901 0.02864,6.89056z" fill="#9b9b9b" stroke="#7a7a7a" stroke-width="2.5" stroke-linecap="butt"/><path d="M278.61048,126.59025c-3.80489,0.77308 -13.56106,-1.07101 -15.29685,-3.16313c-1.73579,-2.09212 -0.05844,-4.41483 3.74645,-5.18792c3.80489,-0.77308 4.39635,-0.04169 9.20479,1.97458c4.27389,1.79213 6.1505,5.60338 2.3456,6.37646z" data-paper-data="{&quot;index&quot;:null}" fill="#009c42" stroke="#007a41" stroke-width="2.5" stroke-linecap="butt"/><path d="M277.59757,90.48757l-5.18146,19.45762" fill="none" stroke="#9d4400" stroke-width="2.5" stroke-linecap="round"/><path d="M268.27229,98.70845l2.66171,-9.99535l6.13048,1.63252l-2.66171,9.99535z" fill="#cc4f00" stroke="#9d4400" stroke-width="2.5" stroke-linecap="butt"/><path d="M276.00203,100.76684l2.66171,-9.99535l6.13048,1.63252l-2.66171,9.99535z" fill="#cc4f00" stroke="#9d4400" stroke-width="2.5" stroke-linecap="butt"/><path d="M281.9861,90.08627l-2.66171,9.99535l-3.71348,0.01018l2.66171,-9.99535z" data-paper-data="{&quot;index&quot;:null}" fill="#cc4f00" stroke="#9d4400" stroke-width="2.5" stroke-linecap="butt"/><path d="M277.47299,89.8835l-2.66171,9.99535l-3.18114,-1.9889l2.66171,-9.99535z" data-paper-data="{&quot;index&quot;:null}" fill="#cc4f00" stroke="#9d4400" stroke-width="2.5" stroke-linecap="butt"/><path d="M274.99815,100.78496l2.66171,-9.99535l3.21663,1.85562l-2.66171,9.99535z" fill="#cc4f00" stroke="#9d4400" stroke-width="2.5" stroke-linecap="butt"/><path d="M270.44955,100.71546l2.66171,-9.99535l3.74898,-0.14344l-2.66171,9.99535z" fill="#cc4f00" stroke="#9d4400" stroke-width="2.5" stroke-linecap="butt"/><path d="M244.85874,116.62886c0,-0.8569 0.69465,-1.55155 1.55155,-1.55155c0.8569,0 1.55155,0.69465 1.55155,1.55155c0,0.8569 -0.69465,1.55155 -1.55155,1.55155c-0.8569,0 -1.55155,-0.69465 -1.55155,-1.55155z" fill="#494949" stroke="none" stroke-width="0.5" stroke-linecap="butt"/><path d="M252.34067,122.973c0,0 -3.70904,1.11379 -5.50774,1.42978c-1.57282,0.27631 -4.69803,0.36312 -4.69803,0.36312" fill="none" stroke="#7a7a7a" stroke-width="2.5" stroke-linecap="round"/></g></g></g></svg>