<svg version="1.1" xmlns="http://www.w3.org/2000/svg" xmlns:xlink="http://www.w3.org/1999/xlink" width="96.26696" height="93.25" viewBox="0,0,96.26696,93.25"><defs><linearGradient x1="238.58701" y1="226.83978" x2="238.58701" y2="190.83978" gradientUnits="userSpaceOnUse" id="color-1"><stop offset="0" stop-color="#1c7bff"/><stop offset="1" stop-color="#24a0ff"/></linearGradient><linearGradient x1="272.36652" y1="149.91021" x2="272.36652" y2="197.66021" gradientUnits="userSpaceOnUse" id="color-2"><stop offset="0" stop-color="#1c7bff"/><stop offset="1" stop-color="#24a0ff"/></linearGradient><linearGradient x1="230.74152" y1="133.16021" x2="230.74152" y2="169.16021" gradientUnits="userSpaceOnUse" id="color-3"><stop offset="0" stop-color="#1c7bff"/><stop offset="1" stop-color="#24a0ff"/></linearGradient><linearGradient x1="227.11652" y1="156.6977" x2="227.11652" y2="211.4477" gradientUnits="userSpaceOnUse" id="color-4"><stop offset="0" stop-color="#1c7bff"/><stop offset="1" stop-color="#24a0ff"/></linearGradient><linearGradient x1="237.48836" y1="184.41322" x2="233.62512" y2="198.9072" gradientUnits="userSpaceOnUse" id="color-5"><stop offset="0" stop-color="#1c7bff"/><stop offset="1" stop-color="#24a0ff"/></linearGradient></defs><g transform="translate(-191.86652,-133.41021)"><g data-paper-data="{&quot;isPaintingLayer&quot;:true}" fill-rule="nonzero" stroke-linejoin="miter" stroke-miterlimit="10" stroke-dasharray="" stroke-dashoffset="0" style="mix-blend-mode: normal"><path d="M238.58701,190.83978c5.79899,0 2.25,8.05888 2.25,18c0,9.94113 17.54899,16.5 11.75,16.5c-5.79899,0 -24.75,1.69113 -27.75,-11.5c-3.03618,-13.35022 7.95101,-23 13.75,-23z" fill="url(#color-1)" stroke="#104590" stroke-width="2.5" stroke-linecap="butt"/><path d="M241.86652,183.41021c-0.1118,-13.70746 8.80826,-3.9446 17.67588,-2.58086c5.61042,0.86282 12.69912,-5.68448 12.69912,-10.79414c0,-13.1858 -7.26181,-20.125 0.125,-20.125c7.38681,0 15.7092,6.23925 14.375,23.375c-2.05821,26.4344 -44.56889,47.65843 -44.875,10.125z" fill="url(#color-2)" stroke="#104590" stroke-width="2.5" stroke-linecap="butt"/><path d="M230.74152,169.16021c-5.79899,0 -2.25,-8.05887 -2.25,-18c0,-9.94112 -17.54899,-16.5 -11.75,-16.5c5.79899,0 24.75,-1.69112 27.75,11.5c3.03618,13.35022 -7.95101,23 -13.75,23z" fill="url(#color-3)" stroke="#104590" stroke-width="2.5" stroke-linecap="butt"/><path d="M193.11652,184.0727c0,-15.1188 15.22232,-27.375 34,-27.375c18.77768,0 34,12.2562 34,27.375c0,15.1188 -15.22232,27.375 -34,27.375c-18.77768,0 -34,-12.2562 -34,-27.375z" fill="url(#color-4)" stroke="#104590" stroke-width="2.5" stroke-linecap="butt"/><path d="M247.21494,194.76759c-1.0668,4.0024 -7.15117,5.85576 -13.58982,4.1396c-6.43865,-1.71616 -10.79339,-6.35198 -9.72658,-10.35438c1.0668,-4.0024 7.15117,-5.85576 13.58982,-4.1396c6.43865,1.71616 10.79339,6.35198 9.72659,10.35438z" fill="url(#color-5)" stroke="#104590" stroke-width="2.5" stroke-linecap="butt"/><path d="M209.74152,189.16021c0,0 -1.70873,3.99832 -6.17526,5.60567c-3.97482,1.4304 -7.32474,0.39433 -7.32474,0.39433" fill="none" stroke="#104590" stroke-width="2.5" stroke-linecap="round"/><path d="M199.24152,181.91021c0,-1.10457 0.89543,-2 2,-2c1.10457,0 2,0.89543 2,2c0,1.10457 -0.89543,2 -2,2c-1.10457,0 -2,-0.89543 -2,-2z" fill="#000000" stroke="none" stroke-width="0.5" stroke-linecap="butt"/></g></g></svg>