<svg version="1.1" xmlns="http://www.w3.org/2000/svg" xmlns:xlink="http://www.w3.org/1999/xlink" width="65.55926" height="52.86243" viewBox="0,0,65.55926,52.86243"><g transform="translate(-207.58443,-153.64685)"><g data-paper-data="{&quot;isPaintingLayer&quot;:true}" fill-rule="nonzero" stroke-linejoin="miter" stroke-miterlimit="10" stroke-dasharray="" stroke-dashoffset="0" style="mix-blend-mode: normal"><path d="M271.89369,182.06686c-0.25914,3.39062 -1.66597,8.37454 -5.16361,11.12585c-2.56202,2.01533 -5.6142,3.2033 -9.98251,3.7433c-3.69523,0.45679 -8.47679,0.44991 -13.21313,0.08792c-2.78377,-0.21276 -6.03089,-2.69636 -9.09028,-5.14363c-3.24395,-2.59491 -6.30843,-5.11739 -9.53121,-3.70308c-4.81862,2.11463 -9.68243,18.57491 -12.17135,16.97242c-4.41601,-2.84325 -0.92314,-21.58071 -0.65768,-25.05411c0.22573,-2.95355 -5.73018,-22.07931 -2.04113,-25.19868c2.2335,-1.88859 10.44072,13.96109 14.91372,15.07079c4.29343,1.06515 6.18939,-0.30374 9.78259,-2.21619c3.17583,-1.6903 5.5259,-3.66234 8.9459,-3.40096c0.96499,0.07375 4.41841,-0.53218 5.55822,-0.63182c1.01739,-0.08894 2.26742,0.0747 3.07935,0.10343c2.22701,0.0788 3.58286,0.71187 5.53703,1.17256c3.47466,0.81914 6.43111,2.69547 8.56026,4.19523c4.86035,3.4236 5.79893,8.62329 5.47383,12.87698z" fill="#2157c3" stroke="#1e489d" stroke-width="2.5" stroke-linecap="butt"/><path d="M262.99412,176.90025c0,-1.4734 1.19443,-2.66783 2.66783,-2.66783c1.4734,0 2.66783,1.19443 2.66783,2.66783c0,1.4734 -1.19443,2.66783 -2.66783,2.66783c-1.4734,0 -2.66783,-1.19443 -2.66783,-2.66783z" fill="#000000" stroke="none" stroke-width="0" stroke-linecap="butt"/><path d="M268.77038,185.56134c0,0 -1.34983,2.13439 -5.25564,1.65761c-3.20777,-0.39157 -3.92094,-3.44816 -3.92094,-3.44816" fill="none" stroke="#000000" stroke-width="2.5" stroke-linecap="round"/></g></g></svg>