<svg version="1.1" xmlns="http://www.w3.org/2000/svg" xmlns:xlink="http://www.w3.org/1999/xlink" width="55.95023" height="53.85389" viewBox="0,0,55.95023,53.85389"><defs><linearGradient x1="246.59697" y1="162.46084" x2="266.60755" y2="162.46084" gradientUnits="userSpaceOnUse" id="color-1"><stop offset="0" stop-color="#a289e3"/><stop offset="1" stop-color="#7f67be"/></linearGradient><linearGradient x1="221.84739" y1="177.50001" x2="235.01321" y2="177.50001" gradientUnits="userSpaceOnUse" id="color-2"><stop offset="0" stop-color="#a289e3"/><stop offset="1" stop-color="#7f67be"/></linearGradient><linearGradient x1="213.26267" y1="185.83334" x2="255.59696" y2="185.83334" gradientUnits="userSpaceOnUse" id="color-3"><stop offset="0" stop-color="#7f67be"/><stop offset="1" stop-color="#d2aed5"/></linearGradient><linearGradient x1="231.19746" y1="186.16667" x2="246.3298" y2="186.16667" gradientUnits="userSpaceOnUse" id="color-4"><stop offset="0" stop-color="#a289e3"/><stop offset="1" stop-color="#7f67be"/></linearGradient></defs><g transform="translate(-212.11412,-153.06332)"><g data-paper-data="{&quot;isPaintingLayer&quot;:true}" fill-rule="nonzero" stroke-linecap="butt" stroke-linejoin="miter" stroke-miterlimit="10" stroke-dasharray="" stroke-dashoffset="0" style="mix-blend-mode: normal"><path d="M246.59697,166l3,-11.33334l6.66667,-0.33333l10.34391,7.31489l-2.53128,8.38775l-7.77535,0.55236z" fill="url(#color-1)" stroke="#503e87" stroke-width="2.5"/><path d="M226.76364,185.74958l-4.91625,-5.58291l4.91625,-10.91624l8.24957,8.24958z" fill="url(#color-2)" stroke="#503e87" stroke-width="2.5"/><path d="M230.26363,205.66667l-16.03773,-0.0176l-0.22096,-1.59246c0,0 9.76167,-1.58169 9.25717,-5.69406c-0.04719,-0.38462 -3.62668,0.69274 -6.42297,0.91308c-1.68858,0.13306 -3.18232,-0.59097 -3.18232,-0.59097l-0.26437,-4.70001l26.53784,-27.98465h15.66666v15.66666z" fill="url(#color-3)" stroke="#503e87" stroke-width="2.5"/><path d="M234.98055,193.73283l-3.78309,-3.78308l11.34925,-11.34924l3.78308,3.78308z" fill="url(#color-4)" stroke="#503e87" stroke-width="2.5"/><path d="M217.9303,195.25001c0,-0.69036 0.55965,-1.25 1.25,-1.25c0.69035,0 1.25,0.55964 1.25,1.25c0,0.69036 -0.55965,1.25 -1.25,1.25c-0.69035,0 -1.25,-0.55964 -1.25,-1.25z" fill="#000000" stroke="none" stroke-width="0.5"/></g></g></svg>