<svg version="1.1" xmlns="http://www.w3.org/2000/svg" xmlns:xlink="http://www.w3.org/1999/xlink" width="80.0325" height="62.06961" viewBox="0,0,80.0325,62.06961"><g transform="translate(-199.42805,-148.79373)"><g data-paper-data="{&quot;isPaintingLayer&quot;:true}" fill-rule="nonzero" stroke-linecap="butt" stroke-linejoin="miter" stroke-miterlimit="10" stroke-dasharray="" stroke-dashoffset="0" style="mix-blend-mode: normal"><path d="M234.11916,188.66758c0,6.60657 -7.67557,12.4449 -15.21045,12.12477c-7.58721,-0.32235 -15.0341,-6.82628 -15.0341,-6.82628c0,0 19.87275,0.69873 19.87275,-4.45589c0,-4.46947 -21.70609,-1.54387 -21.70609,-1.54387c0,0 5.88479,-8.62999 13.17212,-10.21201c8.63648,-1.87491 18.90576,3.7221 18.90576,10.91329z" data-paper-data="{&quot;index&quot;:null}" fill="#303030" stroke="#2a2a2a" stroke-width="2.5"/><path d="M230.96251,186.9753l-9.25569,-10.06053l9.2557,-12.47505h24.95011c0,0 11.75091,6.39945 15.19796,10.81772c3.13369,4.01663 6.84815,16.66557 6.84815,16.66557c0,0 -4.69795,2.19623 -8.30436,2.73214c-3.8187,0.56746 -9.84482,-8.03411 -9.84482,-8.03411z" data-paper-data="{&quot;index&quot;:null}" fill="#303030" stroke="#2a2a2a" stroke-width="2.5"/><path d="M235.47824,209.61334l-9.25568,-10.06054l9.25569,-12.47505h24.95011c0,0 3.08998,5.36154 5.39726,7.71343c1.9447,1.98229 9.40546,0.51987 9.40546,0.51987l-14.8027,14.30229z" data-paper-data="{&quot;index&quot;:null}" fill="#303030" stroke="#2a2a2a" stroke-width="2.5"/><path d="M267.65315,178.34647c0.25137,0.81826 -0.20817,1.68536 -1.02643,1.93673c-0.81826,0.25137 -1.68536,-0.20817 -1.93673,-1.02643c-0.25138,-0.81826 0.55077,-0.57013 1.36903,-0.8215c0.81826,-0.25138 1.34275,-0.90706 1.59412,-0.0888z" data-paper-data="{&quot;index&quot;:null}" fill="#000000" stroke="none" stroke-width="0.5"/><path d="M260.65203,180.28191c-0.2255,0.82577 -1.07771,1.31237 -1.90347,1.08687c-0.82577,-0.2255 -1.31237,-1.07771 -1.08687,-1.90347c0.2255,-0.82577 0.81427,-0.34769 1.64003,-0.12219c0.82576,0.2255 1.5758,0.11303 1.3503,0.93879z" data-paper-data="{&quot;index&quot;:null}" fill="#000000" stroke="none" stroke-width="0.5"/><path d="M232.39177,177.46629c2.09095,-2.94001 -6.45953,-11.95498 1.03649,-6.5407c7.49602,5.41427 11.87772,12.18678 9.78677,15.12679c-2.09095,2.94002 -9.86273,0.93424 -17.35875,-4.48004c-7.49603,-5.41428 4.44455,-1.16603 6.5355,-4.10604z" data-paper-data="{&quot;index&quot;:null}" fill="#303030" stroke="#2a2a2a" stroke-width="2.5"/><path d="M235.63823,163.45078l-8.20307,-13.06413l11.61457,1.55608l16.03279,11.50805z" data-paper-data="{&quot;index&quot;:null}" fill="#303030" stroke="#2a2a2a" stroke-width="2.5"/></g></g></svg>