<svg version="1.1" xmlns="http://www.w3.org/2000/svg" xmlns:xlink="http://www.w3.org/1999/xlink" width="64.50821" height="49.92306" viewBox="0,0,64.50821,49.92306"><g transform="translate(-207.21851,-155.03251)"><g data-paper-data="{&quot;isPaintingLayer&quot;:true}" fill-rule="nonzero" stroke-linecap="butt" stroke-linejoin="miter" stroke-miterlimit="10" stroke-dasharray="" stroke-dashoffset="0" style="mix-blend-mode: normal"><path d="M246.21904,187.41289c0,-10.69334 24.25769,-10.78119 24.25769,-10.78119v23.52261c0,0 -24.25769,-2.04808 -24.25769,-12.74142z" fill="#6e544d" stroke="#58362e" stroke-width="2.5"/><path d="M228.64267,186.04808c0,0 -8.04039,-1.34567 -11.34715,-2.56481c-3.04471,-1.12254 -7.77224,-4.48417 -7.77224,-4.48417l19.11939,-11.12588h20.12216l7.46468,10.06108l-7.46467,8.11378z" fill="#6e544d" stroke="#58362e" stroke-width="2.5"/><path d="M227.80073,203.70557l-15.81332,-13.90974c0,0 3.96623,0.64803 6.66576,0.60152c2.94946,-0.05082 9.14756,-4.86665 9.14756,-4.86665h20.12216l7.46468,10.06108l-7.46467,8.11378z" fill="#6e544d" stroke="#58362e" stroke-width="2.5"/><path d="M218.99616,179.57202c0,-0.69036 0.55964,-1.25 1.25,-1.25c0.69036,0 1.25,0.55964 1.25,1.25c0,0.69036 -0.55964,1.25 -1.25,1.25c-0.69036,0 -1.25,-0.55964 -1.25,-1.25z" fill="#000000" stroke="none" stroke-width="0.5"/><path d="M224.87681,180.3071c0,-0.69036 0.55964,-1.25 1.25,-1.25c0.69036,0 1.25,0.55964 1.25,1.25c0,0.69036 -0.55964,1.25 -1.25,1.25c-0.69036,0 -1.25,-0.55964 -1.25,-1.25z" fill="#000000" stroke="none" stroke-width="0.5"/><path d="M253.56985,184.10502c0,2.90949 -4.05899,5.26808 -9.06601,5.26808c-5.00701,0 -9.066,-2.3586 -9.066,-5.26808c0,-2.90949 4.05899,-5.26808 9.066,-5.26808c5.00701,0 9.06601,2.35859 9.06601,5.26808z" fill="#6e544d" stroke="#58362e" stroke-width="2.5"/><path d="M229.31215,167.07564l3.43038,-10.7812l18.8671,0.24503l-6.61574,10.53617z" fill="#6e544d" stroke="#58362e" stroke-width="2.5"/></g></g></svg>