<svg version="1.1" xmlns="http://www.w3.org/2000/svg" xmlns:xlink="http://www.w3.org/1999/xlink" width="40.34078" height="58.5946" viewBox="0,0,40.34078,58.5946"><defs><radialGradient cx="337.86516" cy="229.53472" r="7.82484" gradientUnits="userSpaceOnUse" id="color-1"><stop offset="0" stop-color="#fcff00"/><stop offset="1" stop-color="#cfcb00"/></radialGradient><radialGradient cx="328.83913" cy="227.45439" r="13.83722" gradientUnits="userSpaceOnUse" id="color-2"><stop offset="0" stop-color="#fcff00"/><stop offset="1" stop-color="#cfcb00"/></radialGradient><radialGradient cx="331.74519" cy="222.95665" r="5.18576" gradientUnits="userSpaceOnUse" id="color-3"><stop offset="0" stop-color="#fcff00"/><stop offset="1" stop-color="#cfcb00"/></radialGradient></defs><g transform="translate(-304.15872,-194.25494)"><g data-paper-data="{&quot;isPaintingLayer&quot;:true}" fill-rule="nonzero" stroke-width="1.5" stroke-linejoin="miter" stroke-miterlimit="10" stroke-dasharray="" stroke-dashoffset="0" style="mix-blend-mode: normal"><g><path d="M332.55334,232.74297c-1.81957,-4.03206 -0.026,-8.77577 4.00607,-10.59534c4.03206,-1.81957 5.3705,-0.38198 7.19008,3.65009c1.04685,2.31978 -1.08712,3.47255 -2.17041,5.57103c-0.79962,1.54897 1.44507,5.03091 -0.26723,5.80363c-4.03206,1.81957 -6.93893,-0.39735 -8.75849,-4.42942z" fill="url(#color-1)" stroke="#857400" stroke-linecap="butt"/><path d="M327.50418,205.88989v-10.88495h2.25914v10.88495z" fill="#5a2300" stroke="#3d2300" stroke-linecap="butt"/><path d="M336.74612,227.45439c0,4.17434 -0.30201,8.11782 -0.83842,11.60918c-1.3001,8.46206 -27.39005,13.03596 -30.48148,13.03596c-2.86283,0 6.95225,-4.9793 9.87749,-11.20376c1.69487,-3.60644 5.62842,-8.51899 5.62842,-13.4414c0,-14.29171 3.54009,-25.87742 7.907,-25.87742c4.36691,0 7.907,11.58571 7.907,25.87742z" fill="url(#color-2)" stroke="#857400" stroke-linecap="butt"/><path d="M323.85875,212.05116c0,-0.42535 0.34481,-0.77017 0.77017,-0.77017c0.42535,0 0.77017,0.34481 0.77017,0.77017c0,0.42535 -0.34481,0.77017 -0.77017,0.77017c-0.42535,0 -0.77017,-0.34481 -0.77017,-0.77017z" fill="#000000" stroke="none" stroke-linecap="butt"/><path d="M326.52864,212.46193c0,-0.42535 0.34481,-0.77017 0.77017,-0.77017c0.42535,0 0.77017,0.34481 0.77017,0.77017c0,0.42535 -0.34481,0.77017 -0.77017,0.77017c-0.42535,0 -0.77017,-0.34481 -0.77017,-0.77017z" fill="#000000" stroke="none" stroke-linecap="butt"/><path d="M327.50418,217.39094c0,0 -1.09333,1.81694 -2.25914,2.25914c-1.16581,0.44219 -3.69677,0 -3.69677,0" fill="none" stroke="#857400" stroke-linecap="round"/><path d="M334.94907,223.2933c0,2.86401 -1.26432,5.18576 -2.82392,5.18576c-1.55962,0 -2.82392,-2.32174 -2.82392,-5.18576c0,-2.86401 1.26432,-5.18576 2.82392,-5.18576c1.55962,0 2.82392,2.32174 2.82392,5.18576z" fill="url(#color-3)" stroke="#857400" stroke-linecap="butt"/></g></g></g></svg>