<svg version="1.1" xmlns="http://www.w3.org/2000/svg" xmlns:xlink="http://www.w3.org/1999/xlink" width="53.8537" height="93.1925" viewBox="0,0,53.8537,93.1925"><g transform="translate(-190.50161,-132.79379)"><g data-paper-data="{&quot;isPaintingLayer&quot;:true}" fill-rule="nonzero" stroke-linejoin="miter" stroke-miterlimit="10" stroke-dasharray="" stroke-dashoffset="0" style="mix-blend-mode: normal"><path d="M211.08671,209.53941c0,0 5.33405,10.09293 2.74581,13.76949c-2.58824,3.67655 -11.7986,-0.91013 -11.7986,-0.91013c0,0 -1.70802,-3.73964 -3.70869,-5.62577c-2.00068,-1.88613 -6.39453,-3.89901 -6.39453,-3.89901c0,0 1.75973,-8.35669 5.03911,-8.92754c3.09533,-0.53882 14.11691,5.59296 14.11691,5.59296z" fill="#ffb900" stroke="#000000" stroke-width="2.5" stroke-linecap="round"/><path d="M243.09659,163.18576c0.20854,1.32189 -3.40095,5.80182 -2.49156,8.06103c1.57124,3.90341 4.2833,8.38487 1.45842,8.83052c-2.71268,0.42794 -8.7591,1.56802 -13.17942,-1.73159c-2.84701,-2.12519 -2.8728,-9.60814 -3.09565,-11.02075c-0.56885,-3.60583 2.58543,-7.09929 7.04528,-7.80286c4.45985,-0.70357 9.69408,0.05783 10.26293,3.66366z" fill="#ffb900" stroke="#000000" stroke-width="2.5" stroke-linecap="butt"/><path d="M197.5425,137.78012l7.08648,-3.32382l6.05675,12.91313l-7.08648,3.32382z" fill="#855223" stroke="#000000" stroke-width="2.5" stroke-linecap="butt"/><path d="M201.35213,147.47424c13.01384,-12.82815 28.36136,5.01603 32.33919,27.88607c2.09989,12.07303 -0.15812,21.58324 -5.17489,26.99343c-8.48611,9.1516 -22.86798,9.20021 -22.86798,9.20021c0,0 9.89188,-11.44996 7.61918,-30.19052c-2.27269,-18.74056 -21.31183,-24.62694 -11.9155,-33.88918z" fill="#ffb900" stroke="#000000" stroke-width="2.5" stroke-linecap="round"/><path d="M205.38291,153.89514c1.37916,-0.06542 2.55023,0.99958 2.61564,2.37875c0.06542,1.37916 -0.99959,2.55022 -2.37875,2.61564c-1.37916,0.06542 -2.55022,-0.99959 -2.61563,-2.37875c-0.06542,-1.37916 0.99958,-2.55022 2.37874,-2.61563z" fill="#000000" stroke="none" stroke-width="0.5" stroke-linecap="butt"/><path d="M214.35956,155.46633c1.37916,-0.06542 2.55022,0.99959 2.61563,2.37875c0.06542,1.37916 -0.99959,2.55022 -2.37875,2.61563c-1.37916,0.06542 -2.55022,-0.99958 -2.61563,-2.37875c-0.06542,-1.37916 0.99959,-2.55022 2.37875,-2.61564z" fill="#000000" stroke="none" stroke-width="0.5" stroke-linecap="butt"/><path d="M216.01104,163.37666c-1.75494,2.70316 -5.63248,4.03216 -8.07751,1.71805" data-paper-data="{&quot;index&quot;:null}" fill="none" stroke="#000000" stroke-width="2.5" stroke-linecap="round"/><path d="M229.47669,181.73939c0,4.89926 -2.60882,8.87089 -5.82696,8.87089c-3.21814,0 -5.82696,-3.97163 -5.82696,-8.87089c0,-4.89926 2.60882,-8.87089 5.82696,-8.87089c3.21814,0 5.82696,3.97163 5.82696,8.87089z" fill="#ffb900" stroke="#000000" stroke-width="2.5" stroke-linecap="butt"/></g></g></svg>