<svg version="1.1" xmlns="http://www.w3.org/2000/svg" xmlns:xlink="http://www.w3.org/1999/xlink" width="192.42728" height="154.15121" viewBox="0,0,192.42728,154.15121"><defs><linearGradient x1="130.32642" y1="139.82423" x2="275.0806" y2="148.04892" gradientUnits="userSpaceOnUse" id="color-1"><stop offset="0" stop-color="#fbff66" stop-opacity="0"/><stop offset="1" stop-color="#fbff66"/></linearGradient></defs><g transform="translate(-128.26535,-103.5494)"><g data-paper-data="{&quot;isPaintingLayer&quot;:true}" fill-rule="nonzero" stroke-linecap="butt" stroke-linejoin="miter" stroke-miterlimit="10" stroke-dasharray="" stroke-dashoffset="0" style="mix-blend-mode: normal"><path d="M294.61796,228.99917c-9.64123,0 -16.12439,-0.95026 -16.12439,-6.39645c0,-5.44619 6.74968,-5.5969 16.39091,-5.5969c2.29434,0 6.93314,-22.54681 10.83523,-22.00587c21.87496,3.03249 7.52058,26.5062 7.45262,28.1146c-0.07313,1.73076 18.41204,25.0371 -7.7543,24.8334c-3.53452,-0.02752 -8.82259,-18.94878 -10.80006,-18.94878z" fill="#66efff" stroke="#5ba1a2" stroke-width="2.5"/><path d="M290.15077,225.53442c0,17.07454 -22.91032,30.91619 -51.17163,30.91619c-12.6491,0 -24.22627,-2.77283 -33.15712,-7.36729c-3.12327,-1.60676 15.66514,-8.23366 4.99442,-19.04044c-0.83131,-0.84191 -3.17787,3.92726 -7.19633,6.41004c-4.31863,2.66824 -10.32044,3.06748 -11.03185,2.14704c-3.06747,-3.96878 -4.78076,-8.39628 -4.78076,-13.06554c0,-17.07454 22.91032,-30.91619 51.17163,-30.91619c28.26131,0 51.17163,13.84165 51.17163,30.91619z" fill="#66efff" stroke="#5ba1a2" stroke-width="2.5"/><path d="M251.71543,172.30253c2.56903,14.19443 7.31329,31.36407 -14.03296,32.8826c-46.67996,8.99021 11.46393,-47.07704 14.03296,-32.88261z" fill="#66efff" stroke="#5ba1a2" stroke-width="2.5"/><path d="M197.33856,219.67101c0,-1.10396 0.89493,-1.99889 1.99889,-1.99889c1.10396,0 1.99889,0.89493 1.99889,1.99889c0,1.10396 -0.89493,1.99889 -1.99889,1.99889c-1.10396,0 -1.99889,-0.89493 -1.99889,-1.99889z" fill="#000000" stroke="none" stroke-width="0.5"/><path d="M128.26535,176.09906l4.12215,-72.54966l119.40938,54.93396l-5.25286,12.57869z" fill="url(#color-1)" stroke="none" stroke-width="0"/><path d="M284.47949,201.86723c1.31456,4.11585 -5.03952,11.09252 -14.19225,15.58285c-9.15273,4.49032 -17.63814,4.7939 -18.95271,0.67805c-1.31456,-4.11585 5.03952,-11.09252 14.19225,-15.58285c9.15273,-4.49032 17.63814,-4.7939 18.95271,-0.67805z" fill="#66efff" stroke="#5ba1a2" stroke-width="2.5"/><path d="M240.24921,167.43182c0,-6.62374 5.36961,-11.99335 11.99335,-11.99335c6.62374,0 11.99335,5.36961 11.99335,11.99335c0,6.62374 -5.36961,11.99335 -11.99335,11.99335c-6.62374,0 -11.99335,-5.36961 -11.99335,-11.99335z" fill="#ffec66" stroke="#97a35b" stroke-width="2.5"/></g></g></svg>