<svg version="1.1" xmlns="http://www.w3.org/2000/svg" xmlns:xlink="http://www.w3.org/1999/xlink" width="61.5259" height="63.66667" viewBox="0,0,61.5259,63.66667"><g transform="translate(-211.65385,-150.55539)"><g data-paper-data="{&quot;isPaintingLayer&quot;:true}" fill-rule="nonzero" stroke-linejoin="miter" stroke-miterlimit="10" stroke-dasharray="" stroke-dashoffset="0" style="mix-blend-mode: normal"><path d="M223.76308,208.80539l39.92857,-47.61905" fill="none" stroke="#444444" stroke-width="1.5" stroke-linecap="round"/><path d="M226.26308,177.47206l-1.66667,-12.66667l12.16667,0.16667z" fill="#896727" stroke="#5e471a" stroke-width="1.5" stroke-linecap="butt"/><path d="M218.41666,205.1736c0,0 4.30083,-26.41359 11.32331,-35.09355c7.02089,-8.18637 30.84143,-15.25365 30.84143,-15.25365l1.00193,2.50484c0,0 -23.18813,6.17877 -29.78256,14.32966c-6.83925,8.45349 -10.54529,33.5127 -10.54529,33.5127z" fill="#896727" stroke="#5e471a" stroke-width="1.5" stroke-linecap="butt"/><path d="M226.56857,175.46243c0,0 2.04163,-3.98596 3.1714,-5.38238c1.03235,-1.20372 4.05757,-3.51966 4.05757,-3.51966l1.84329,1.65948c0,0 -2.87429,2.24732 -3.84006,3.44103c-0.92234,1.14003 -2.59466,4.22393 -2.59466,4.22393z" fill="#969696" stroke="#737373" stroke-width="1.5" stroke-linecap="butt"/><path d="M213.09641,213.47206l6.66667,-9.5l6.83333,9.5z" fill="#969696" stroke="#737373" stroke-width="1.5" stroke-linecap="butt"/><path d="M259.26308,156.22206c0,2.7154 2.94746,4.91667 6.58333,4.91667c1.50653,0 2.89486,-0.37793 4.0043,-1.01376c0.9268,-0.53116 -3.71028,-0.51744 -2.73051,-2.73013c1.17539,-2.65447 5.30954,-0.52241 5.30954,-1.17277c0,-2.7154 -2.94746,-4.91667 -6.58333,-4.91667c-3.63587,0 -6.58333,2.20127 -6.58333,4.91667z" fill="#896727" stroke="#5e471a" stroke-width="1.5" stroke-linecap="butt"/><path d="M267.29931,153.77641c0,-0.48025 0.38932,-0.86957 0.86957,-0.86957c0.48025,0 0.86957,0.38932 0.86957,0.86957c0,0.48025 -0.38932,0.86957 -0.86957,0.86957c-0.48025,0 -0.86957,-0.38932 -0.86957,-0.86957z" fill="#000000" stroke="none" stroke-width="0" stroke-linecap="butt"/><path d="M258.36108,157.47116l0.12931,-1.18272l1.76986,-0.36035l0.22486,0.97439z" fill="#896727" stroke="none" stroke-width="0" stroke-linecap="butt"/></g></g></svg>