<svg version="1.1" xmlns="http://www.w3.org/2000/svg" xmlns:xlink="http://www.w3.org/1999/xlink" width="66.1308" height="26.8172" viewBox="0,0,66.1308,26.8172"><g transform="translate(-238.03929,-146.0077)"><g data-paper-data="{&quot;isPaintingLayer&quot;:true}" fill-rule="nonzero" stroke-linejoin="miter" stroke-miterlimit="10" stroke-dasharray="" stroke-dashoffset="0" style="mix-blend-mode: normal"><g><path d="M273.74992,159.27666c-5.31276,0 -9.61959,-2.62155 -9.61959,-5.8554c0,-3.23385 5.07236,-8.73669 9.53594,-5.8554c21.12234,13.63472 5.39641,11.71081 0.08365,11.71081z" fill="#ffaf00" stroke="#b5963a" stroke-width="1.5" stroke-linecap="butt"/><path d="M273.84194,171.59225c-16.33556,0 -29.57815,-4.04468 -29.57815,-9.03405c0,-4.98937 13.24259,-9.03405 29.57815,-9.03405c16.33556,0 29.57815,4.04468 29.57815,9.03405c0,4.98937 -13.24259,9.03405 -29.57815,9.03405z" fill="#ffaf00" stroke="#b5963a" stroke-width="1.5" stroke-linecap="butt"/><path d="M262.95925,154.42505l-7.11013,5.26986" fill="none" stroke="#b5963a" stroke-width="1.5" stroke-linecap="round"/><path d="M270.57128,159.77855l5.60446,-5.77175" fill="none" stroke="#b5963a" stroke-width="1.5" stroke-linecap="round"/><path d="M287.97019,154.84329l-4.85162,4.51702" fill="none" stroke="#b5963a" stroke-width="1.5" stroke-linecap="round"/><path d="M245.72764,162.99903c0,5.01247 -1.85381,9.07587 -4.14061,9.07587c-1.07861,0 -2.06088,-0.90398 -2.79774,-2.38516c-0.82539,-1.65913 3.27239,-0.86823 3.50876,-6.85801c0.22878,-5.7973 -4.34764,-4.80172 -3.54108,-6.45775c0.74034,-1.52008 1.73561,-2.45082 2.83007,-2.45082c2.28679,0 4.14061,4.06341 4.14061,9.07587z" fill="#ffaf00" stroke="#b5963a" stroke-width="1.5" stroke-linecap="butt"/><path d="M300.93572,166.13584c0,0 -1.96661,0.73903 -6.1554,-0.12743c-3.64508,-0.75399 -6.47554,-3.7204 -6.47554,-3.7204" fill="none" stroke="#b5963a" stroke-width="1.5" stroke-linecap="round"/><path d="M269.31655,151.2464l3.51324,-3.59689" fill="none" stroke="#b5963a" stroke-width="1.5" stroke-linecap="round"/><path d="M295.49856,161.03328c0,-0.46198 0.3745,-0.83649 0.83649,-0.83649c0.46198,0 0.83649,0.3745 0.83649,0.83649c0,0.46198 -0.3745,0.83649 -0.83649,0.83649c-0.46198,0 -0.83649,-0.3745 -0.83649,-0.83649z" fill="#000000" stroke="none" stroke-width="0.5" stroke-linecap="butt"/></g></g></g></svg>