<svg version="1.1" xmlns="http://www.w3.org/2000/svg" xmlns:xlink="http://www.w3.org/1999/xlink" width="95.02803" height="60.2812" viewBox="0,0,95.02803,60.2812"><defs><linearGradient x1="203.31727" y1="188.10975" x2="222.85058" y2="186.78224" gradientUnits="userSpaceOnUse" id="color-1"><stop offset="0" stop-color="#97563e"/><stop offset="1" stop-color="#a02702"/></linearGradient><linearGradient x1="231.06344" y1="159.65815" x2="253.7843" y2="162.54075" gradientUnits="userSpaceOnUse" id="color-2"><stop offset="0" stop-color="#97563e"/><stop offset="1" stop-color="#a02702"/></linearGradient></defs><g transform="translate(-192.48598,-149.8594)"><g data-paper-data="{&quot;isPaintingLayer&quot;:true}" fill-rule="nonzero" stroke-linejoin="miter" stroke-miterlimit="10" stroke-dasharray="" stroke-dashoffset="0" style="mix-blend-mode: normal"><path d="M285.61007,183.53237c1.47761,5.57244 2.43788,10.31022 -2.97831,16.27665c-6.4243,7.07698 -19.70696,9.58158 -32.23812,9.58158c-19.4495,0 -35.21643,-11.57712 -35.21643,-25.85822c0,-14.2811 16.50574,-19.57837 35.95524,-19.57837c19.44951,0 30.81728,5.77432 34.47763,19.57837z" fill="#683b2c" stroke="#2a1812" stroke-width="1.5" stroke-linecap="butt"/><path d="M222.85058,186.78224c0.47725,7.02235 -19.02348,20.03092 -24.41745,20.3975c-5.39397,0.36658 5.36139,-12.04764 4.88414,-19.06999c-0.47724,-7.02235 -14.2228,-15.96748 -8.82883,-16.33406c5.39397,-0.36658 27.88489,7.9842 28.36214,15.00655z" fill="url(#color-1)" stroke="#d67b5c" stroke-width="1.5" stroke-linecap="butt"/><path d="M270.34141,181.31596c0,-1.63213 1.3231,-2.95522 2.95523,-2.95522c1.63213,0 2.95522,1.3231 2.95522,2.95522c0,1.63213 -1.3231,2.95523 -2.95522,2.95523c-1.63213,0 -2.95523,-1.3231 -2.95523,-2.95523z" fill="#0c0000" stroke="none" stroke-width="0.5" stroke-linecap="butt"/><path d="M286.10262,193.13686c0,0 -4.6649,2.06516 -8.82599,1.62287c-5.47925,-0.58238 -8.41282,-3.59303 -8.41282,-3.59303" fill="none" stroke="#000000" stroke-width="1.5" stroke-linecap="round"/><path d="M229.23111,159.42568c-10.71354,-21.72905 36.4859,2.98074 35.90814,7.5346c-0.57775,4.55385 -17.4873,3.18066 -23.76149,2.38465c-6.27419,-0.79601 -8.25701,-2.03032 -12.14665,-9.91924z" fill="url(#color-2)" stroke="#d67b5c" stroke-width="1.5" stroke-linecap="butt"/><path d="M255.93469,190.95533c0,3.8763 -8.38525,10.71269 -22.53359,11.0821c-8.97364,0.2343 -16.25374,-3.14236 -16.25374,-7.01866c0,-3.8763 7.27705,-7.01866 16.25374,-7.01866c3.25602,0 6.0943,2.91644 10.71032,1.75637c6.28064,-1.57842 11.82327,-1.27143 11.82327,1.19886z" fill="#3d190d" stroke="#d67b5c" stroke-width="1.5" stroke-linecap="butt"/><path d="M203.47945,188.36951c0,0 2.33524,-1.57559 5.10906,-1.71317c2.38168,-0.11812 5.60363,0.60496 5.60363,0.60496" fill="none" stroke="#d67b5c" stroke-width="1.5" stroke-linecap="round"/><path d="M259.35878,166.17172c0,0 -8.45948,-0.59575 -14.96135,-3.17529c-6.42286,-2.54819 -11.18103,-7.168 -11.18103,-7.168" fill="none" stroke="#d67b5c" stroke-width="1.5" stroke-linecap="round"/><path d="M250.94775,191.51845c0,0 -4.86437,2.81611 -8.48621,4.08301c-11.21874,3.92424 -20.95237,-0.67313 -20.95237,-0.67313" fill="none" stroke="#d67b5c" stroke-width="1.5" stroke-linecap="round"/><path d="M233.89364,178.53457c0,2.5502 -1.709,4.61754 -3.81716,4.61754c-2.10816,0 -3.81716,-2.06734 -3.81716,-4.61754c0,-2.5502 1.709,-4.61754 3.81716,-4.61754c2.10816,0 3.81716,2.06734 3.81716,4.61754z" fill="#3f0900" stroke="none" stroke-width="0" stroke-linecap="butt"/><path d="M260.45401,185.53948c-0.5815,2.90051 -3.07849,-4.94985 -7.01252,-5.73855c-3.93403,-0.7887 -7.81535,5.78292 -7.23385,2.88241c0.5815,-2.90051 4.60629,-8.93491 8.54032,-8.14621c3.93403,0.7887 6.28756,8.10184 5.70606,11.00235z" fill="#3f0900" stroke="none" stroke-width="0" stroke-linecap="butt"/><path d="M264.29378,197.53486c0.42535,1.22008 -2.18506,3.87987 -5.94162,5.18952c-3.75656,1.30964 -7.23674,0.7732 -7.66209,-0.44688c-0.42535,-1.22008 2.91503,-0.62704 6.67159,-1.93668c3.75656,-1.30964 6.50677,-4.02604 6.93212,-2.80596z" fill="#3f0900" stroke="none" stroke-width="0" stroke-linecap="butt"/></g></g></svg>