<svg version="1.1" xmlns="http://www.w3.org/2000/svg" xmlns:xlink="http://www.w3.org/1999/xlink" width="45.98092" height="44.23142" viewBox="0,0,45.98092,44.23142"><defs><radialGradient cx="230.73073" cy="196.86581" r="5.54167" gradientUnits="userSpaceOnUse" id="color-1"><stop offset="0" stop-color="#efb775"/><stop offset="1" stop-color="#f0c899"/></radialGradient><radialGradient cx="237.01996" cy="165.60947" r="8.65015" gradientUnits="userSpaceOnUse" id="color-2"><stop offset="0" stop-color="#efb775"/><stop offset="1" stop-color="#f0c899"/></radialGradient><radialGradient cx="252.16742" cy="183.39107" r="11.70873" gradientUnits="userSpaceOnUse" id="color-3"><stop offset="0" stop-color="#ffffff"/><stop offset="1" stop-color="#e2e2e2"/></radialGradient><radialGradient cx="253.47263" cy="190.51288" r="8.19484" gradientUnits="userSpaceOnUse" id="color-4"><stop offset="0" stop-color="#efb775"/><stop offset="1" stop-color="#f0c899"/></radialGradient><radialGradient cx="232.94233" cy="181.60497" r="15.32549" gradientUnits="userSpaceOnUse" id="color-5"><stop offset="0" stop-color="#ffffff"/><stop offset="1" stop-color="#e2e2e2"/></radialGradient><radialGradient cx="234.81009" cy="190.87545" r="14.53897" gradientUnits="userSpaceOnUse" id="color-6"><stop offset="0" stop-color="#efb775"/><stop offset="1" stop-color="#f0c899"/></radialGradient></defs><g transform="translate(-216.61684,-157.88652)"><g data-paper-data="{&quot;isPaintingLayer&quot;:true}" fill-rule="nonzero" stroke-linejoin="miter" stroke-miterlimit="10" stroke-dasharray="" stroke-dashoffset="0" style="mix-blend-mode: normal"><g><path d="M225.37005,193.67049c0,-1.9646 2.15326,-0.609 6.28927,-0.609c4.13601,0 4.61308,0.58951 4.61308,2.55411c0,1.10323 -0.16106,3.19986 -1.3596,4.33898c-0.93578,0.88939 -2.18554,1.16335 -3.99896,1.16335c-1.72142,0 -3.30718,0.09461 -4.57202,-0.36914c-1.77416,-0.6505 -0.97178,-5.93138 -0.97178,-7.0783z" data-paper-data="{&quot;index&quot;:null}" fill="url(#color-1)" stroke="#a27c50" stroke-width="2" stroke-linecap="butt"/><path d="M245.3876,170.51144c0,3.06659 -3.06494,1.35972 -9.52095,1.35972c-6.45601,0 -7.49683,-1.32932 -7.49683,-4.39591c0,-1.72206 0.25141,-4.99475 2.12223,-6.77282c1.46069,-1.38827 3.41146,-1.81591 6.24208,-1.81591c2.68701,0 5.16227,-0.1477 7.13659,0.57619c2.76934,1.01539 1.51688,9.25846 1.51688,11.04872z" fill="url(#color-2)" stroke="#a27c50" stroke-width="2" stroke-linecap="butt"/><path d="M241.95167,183.06474c0,-1.77284 6.88908,-6.98979 10.74728,-9.69008c3.01897,-2.11293 7.83221,-2.09193 8.69875,-0.79198c1.91177,2.86798 0.58721,20.46783 -0.18258,21.91158c-0.69015,1.2944 -4.56961,0.56501 -8.14094,-2.68554c-3.30787,-3.01075 -11.12251,-8.65769 -11.12251,-8.74399z" fill="url(#color-3)" stroke="#b2b2b2" stroke-width="2" stroke-linecap="butt"/><path d="M245.27778,185.90773c0,-0.13668 2.0202,-0.53361 4.64137,0.2712c4.592,1.40993 11.02845,4.69466 11.67861,6.53727c0.23322,0.66097 -0.08798,2.13644 -1.4322,2.52884c-1.14718,0.33489 -3.24355,-0.32314 -4.14397,-0.71717c-1.09189,-0.47781 -4.1869,-2.23179 -5.85331,-3.86162c-1.93871,-1.89616 -4.8905,-4.67021 -4.8905,-4.75852z" data-paper-data="{&quot;index&quot;:null}" fill="url(#color-4)" stroke="#a27c50" stroke-width="2" stroke-linecap="butt"/><path d="M248.26782,182.72597c0,1.9035 -0.77062,10.22868 -6.36626,12.18355c-1.91828,0.67016 -9.1534,-1.56819 -13.48449,-4.17362c-2.07523,-1.24838 -3.26423,-3.82498 -3.29524,-3.86574c-0.16687,-0.2193 -5.27978,0.51246 -5.58773,-0.36179c-0.52028,-1.47704 -1.91726,-4.69118 -1.91726,-4.93903c0,-5.54953 5.04497,-14.81946 17.27733,-14.09656c11.48942,0.67899 13.37365,9.70366 13.37365,15.2532z" fill="url(#color-5)" stroke="#b2b2b2" stroke-width="2" stroke-linecap="butt"/><path d="M234.07177,181.95205c0,-0.74308 0.60238,-1.34546 1.34546,-1.34546c0.74308,0 1.34546,0.60238 1.34546,1.34546c0,0.74308 -0.60238,1.34546 -1.34546,1.34546c-0.74308,0 -1.34546,-0.60238 -1.34546,-1.34546z" fill="#e8270f" stroke="none" stroke-width="0.5" stroke-linecap="butt"/><path d="M221.30077,182.20246c0,-0.74308 0.60238,-1.34546 1.34546,-1.34546c0.74308,0 1.34546,0.60238 1.34546,1.34546c0,0.74308 -0.60238,1.34546 -1.34546,1.34546c-0.74308,0 -1.34546,-0.60238 -1.34546,-1.34546z" fill="#e8270f" stroke="none" stroke-width="0.5" stroke-linecap="butt"/><path d="M222.80324,175.69176c0,-0.74308 0.60238,-1.34546 1.34546,-1.34546c0.74308,0 1.34546,0.60238 1.34546,1.34546c0,0.74308 -0.60238,1.34546 -1.34546,1.34546c-0.74308,0 -1.34546,-0.60238 -1.34546,-1.34546z" fill="#e8270f" stroke="none" stroke-width="0.5" stroke-linecap="butt"/><path d="M228.18709,172.81202c0,-0.74308 0.60238,-1.34546 1.34546,-1.34546c0.74308,0 1.34546,0.60238 1.34546,1.34546c0,0.74308 -0.60238,1.34546 -1.34546,1.34546c-0.74308,0 -1.34546,-0.60238 -1.34546,-1.34546z" fill="#e8270f" stroke="none" stroke-width="0.5" stroke-linecap="butt"/><path d="M234.07177,175.94217c0,-0.74308 0.60238,-1.34546 1.34546,-1.34546c0.74308,0 1.34546,0.60238 1.34546,1.34546c0,0.74308 -0.60238,1.34546 -1.34546,1.34546c-0.74308,0 -1.34546,-0.60238 -1.34546,-1.34546z" fill="#e8270f" stroke="none" stroke-width="0.5" stroke-linecap="butt"/><path d="M240.70768,172.18599c0,-0.74308 0.60238,-1.34546 1.34546,-1.34546c0.74308,0 1.34546,0.60238 1.34546,1.34546c0,0.74308 -0.60238,1.34546 -1.34546,1.34546c-0.74308,0 -1.34546,-0.60238 -1.34546,-1.34546z" fill="#e8270f" stroke="none" stroke-width="0.5" stroke-linecap="butt"/><path d="M240.08165,178.9471c0,-0.74308 0.60238,-1.34546 1.34546,-1.34546c0.74308,0 1.34546,0.60238 1.34546,1.34546c0,0.74308 -0.60238,1.34546 -1.34546,1.34546c-0.74308,0 -1.34546,-0.60238 -1.34546,-1.34546z" fill="#e8270f" stroke="none" stroke-width="0.5" stroke-linecap="butt"/><path d="M243.2118,182.32767c0,-0.74308 0.60238,-1.34546 1.34546,-1.34546c0.74308,0 1.34546,0.60238 1.34546,1.34546c0,0.74308 -0.60238,1.34546 -1.34546,1.34546c-0.74308,0 -1.34546,-0.60238 -1.34546,-1.34546z" fill="#e8270f" stroke="none" stroke-width="0.5" stroke-linecap="butt"/><path d="M250.59895,182.45288c0,-0.74308 0.60238,-1.34546 1.34546,-1.34546c0.74308,0 1.34546,0.60238 1.34546,1.34546c0,0.74308 -0.60238,1.34546 -1.34546,1.34546c-0.74308,0 -1.34546,-0.60238 -1.34546,-1.34546z" fill="#e8270f" stroke="none" stroke-width="0.5" stroke-linecap="butt"/><path d="M255.73239,184.70658c0,-0.74308 0.60238,-1.34546 1.34546,-1.34546c0.74308,0 1.34546,0.60238 1.34546,1.34546c0,0.74308 -0.60238,1.34546 -1.34546,1.34546c-0.74308,0 -1.34546,-0.60238 -1.34546,-1.34546z" fill="#e8270f" stroke="none" stroke-width="0.5" stroke-linecap="butt"/><path d="M255.9828,176.44299c0,-0.74308 0.60238,-1.34546 1.34546,-1.34546c0.74308,0 1.34546,0.60238 1.34546,1.34546c0,0.74308 -0.60238,1.34546 -1.34546,1.34546c-0.74308,0 -1.34546,-0.60238 -1.34546,-1.34546z" fill="#e8270f" stroke="none" stroke-width="0.5" stroke-linecap="butt"/><path d="M221.03095,190.3157c-0.05064,0.09962 2.45202,-0.44709 3.70599,-1.32299c1.09819,-0.76709 0.95095,-1.87518 1.13266,-1.84108c0.77867,0.14614 0.88495,1.65532 1.77575,1.80252c1.01605,0.16789 2.0915,0.32617 3.19549,0.45132c1.01915,0.11553 1.90256,-1.87795 2.94608,-1.83738c1.04879,0.04077 2.26827,2.07275 3.31415,1.95965c1.9572,-0.21165 3.86703,-0.64847 5.57137,-1.14485c0.19716,-0.05742 1.0062,-1.49874 1.62528,-1.73359c0.85682,-0.32504 1.57526,0.5335 1.82807,0.45079c3.31243,-1.08379 3.43514,-1.36661 3.09501,-1.04335c-0.35014,0.33277 -0.51881,7.39078 -8.76565,9.61369c-1.69016,0.45558 -6.28686,-0.29782 -8.87883,-0.05644c-10.60736,0.98783 -10.28206,-5.81633 -10.54538,-5.29828z" data-paper-data="{&quot;index&quot;:null}" fill="url(#color-6)" stroke="#a27c50" stroke-width="2" stroke-linecap="butt"/><path d="M228.80839,178.53749v3.6943" fill="none" stroke="#000000" stroke-width="2.5" stroke-linecap="round"/></g></g></g></svg>