<svg version="1.1" xmlns="http://www.w3.org/2000/svg" xmlns:xlink="http://www.w3.org/1999/xlink" width="63.92704" height="42.35261" viewBox="0,0,63.92704,42.35261"><defs><linearGradient x1="143.5856" y1="105.34362" x2="156.23932" y2="98.69505" gradientUnits="userSpaceOnUse" id="color-1"><stop offset="0" stop-color="#37db00"/><stop offset="1" stop-color="#00eb09"/></linearGradient><linearGradient x1="116.38426" y1="116.70781" x2="124.67351" y2="109.5947" gradientUnits="userSpaceOnUse" id="color-2"><stop offset="0" stop-color="#db8100"/><stop offset="1" stop-color="#eba100"/></linearGradient><linearGradient x1="120.06381" y1="108.09132" x2="126.78022" y2="125.44627" gradientUnits="userSpaceOnUse" id="color-3"><stop offset="0" stop-color="#db8100"/><stop offset="1" stop-color="#eba100"/></linearGradient><linearGradient x1="124.92541" y1="119.9844" x2="134.10748" y2="118.47915" gradientUnits="userSpaceOnUse" id="color-4"><stop offset="0" stop-color="#db8100"/><stop offset="1" stop-color="#eba100"/></linearGradient></defs><g transform="translate(-102.37659,-88.09009)"><g data-paper-data="{&quot;isPaintingLayer&quot;:true}" fill-rule="nonzero" stroke-linecap="butt" stroke-linejoin="miter" stroke-miterlimit="10" stroke-dasharray="" stroke-dashoffset="0" style="mix-blend-mode: normal"><g><path d="M144.90276,107.85049l-2.63434,-5.01374l9.41734,-10.42436l-1.58427,7.27756l5.55307,-1.45697l-2.19101,5.14706l6.78993,1.59766z" fill="url(#color-1)" stroke="#089c00" stroke-width="2.5"/><path d="M124.67351,109.5947c0.98212,1.1445 -0.07734,3.66464 -2.36635,5.62887c-2.28902,1.96423 -4.94079,2.62875 -5.92291,1.48424c-0.98212,-1.1445 1.94117,-5.53056 4.23018,-7.49479c2.28902,-1.96423 3.07696,-0.76282 4.05908,0.38168z" fill="url(#color-2)" stroke="#805200" stroke-width="2.5"/><path d="M103.64883,129.1927c-1.07862,-5.79173 37.42696,-28.57386 37.42696,-28.57386l5.69809,10.30518c0,0 -13.89545,9.01456 -26.39764,14.76405c-0.80052,0.36814 0.22271,-3.888 -1.09737,-3.33585c-1.06905,0.44715 -4.51034,5.71852 -5.10411,5.95802c-5.76262,2.3243 -10.09266,3.20889 -10.52593,0.88246z" fill="url(#color-3)" stroke="#805200" stroke-width="2.5"/><path d="M134.10748,118.47915c0.18976,1.15753 -1.71189,2.43287 -4.24744,2.84853c-2.53555,0.41566 -4.74487,-0.18575 -4.93462,-1.34328c-0.18976,-1.15753 1.71188,-2.43287 4.24744,-2.84853c2.53555,-0.41566 4.74487,0.18575 4.93463,1.34328z" fill="url(#color-4)" stroke="#805200" stroke-width="2.5"/><path d="M110.09809,124.1875c0,-0.55856 0.45281,-1.01137 1.01137,-1.01137c0.55856,0 1.01137,0.45281 1.01137,1.01137c0,0.55856 -0.45281,1.01137 -1.01137,1.01137c-0.55856,0 -1.01137,-0.45281 -1.01137,-1.01137z" fill="#000000" stroke="none" stroke-width="0.5"/></g></g></g></svg>