<svg version="1.1" xmlns="http://www.w3.org/2000/svg" xmlns:xlink="http://www.w3.org/1999/xlink" width="88.35118" height="66.25495" viewBox="0,0,88.35118,66.25495"><g transform="translate(-178.42785,-148.09598)"><g data-paper-data="{&quot;isPaintingLayer&quot;:true}" fill-rule="nonzero" stroke-linejoin="miter" stroke-miterlimit="10" stroke-dasharray="" stroke-dashoffset="0" style="mix-blend-mode: normal"><path d="M232.08499,200.26846l8.51242,11.58247" fill="none" stroke="#fce570" stroke-width="5" stroke-linecap="round"/><path d="M247.15616,196.08202l7.39604,10.60564" fill="none" stroke="#fce570" stroke-width="5" stroke-linecap="round"/><path d="M255.48158,179.12696c0.06744,5.14463 -0.38357,9.7718 1.23943,13.12776c1.64691,3.4054 8.80801,5.50188 8.80801,5.50188v-37.53838c0,0 -8.45809,2.98376 -10.03585,7.86355c-0.98862,3.05766 -0.06535,6.94451 -0.0116,11.04519z" fill="#ffffff" stroke="#727272" stroke-width="2.5" stroke-linecap="butt"/><path d="M210.64262,162.10212c0,3.66083 4.9045,6.62852 10.95451,6.62852c6.05001,0 7.60536,-1.85131 7.60536,-5.51214c0,-2.13399 -0.34776,-7.89625 -0.34776,-7.89625c0,0 -4.7343,0.15135 -7.2576,0.15135c-6.05001,0 -10.95451,2.96769 -10.95451,6.62852z" fill="#ffffff" stroke="#727272" stroke-width="2.5" stroke-linecap="butt"/><path d="M258.54167,180c0,10.7807 -11.04364,19.52017 -24.66667,19.52017c-13.62303,0 -24.66666,-8.73948 -24.66666,-19.52017c0,-10.7807 11.04364,-19.52017 24.66666,-19.52017c13.62303,0 24.66667,8.73948 24.66667,19.52017z" fill="#ffffff" stroke="#727272" stroke-width="2.5" stroke-linecap="butt"/><path d="M212.92785,168.22098c0,11.66701 -7.44326,21.125 -16.625,21.125c-9.18174,0 -16.625,-9.45799 -16.625,-21.125c0,-11.66701 7.44326,-18.875 16.625,-18.875c9.18174,0 16.625,7.20799 16.625,18.875z" fill="#ffffff" stroke="#727272" stroke-width="2.5" stroke-linecap="butt"/><path d="M207.6655,180.87597c1.07554,0.48681 2.11273,1.23315 3.23561,1.23315c1.87486,0 4.36488,-11.2977 3.24594,-11.7262c-0.98765,-0.37822 -2.20139,-0.48433 -3.08804,-0.48433c-1.87486,0 -4.50148,10.47588 -3.3935,10.97738z" fill="#ffffff" stroke="none" stroke-width="0" stroke-linecap="butt"/><path d="M191.56456,182.43601v-12.98065h7.10262v12.98065z" fill="#ff0000" stroke="none" stroke-width="0" stroke-linecap="butt"/><path d="M205.72765,170.67554c-2.23175,0.13276 -5.78648,0.10109 -9.55792,0.10109c-3.57229,0 -8.84704,-0.00528 -11.07236,0.04085c-0.31819,0.0066 -0.33101,-4.15841 -0.09828,-4.15534c2.211,0.02925 7.74087,0.07334 11.17064,0.07334c3.84988,0 7.46418,0.16283 9.64695,0.14766c0.11002,-0.00076 0.18067,3.77635 -0.08903,3.79239z" fill="#c19343" stroke="none" stroke-width="0" stroke-linecap="butt"/><path d="M186.6662,161.06692c0,-0.98067 0.79499,-1.77566 1.77566,-1.77566c0.98067,0 1.77566,0.79499 1.77566,1.77566c0,0.98067 -0.79499,1.77566 -1.77566,1.77566c-0.98067,0 -1.77566,-0.79499 -1.77566,-1.77566z" fill="#000000" stroke="none" stroke-width="0" stroke-linecap="butt"/><path d="M200.85062,161.29102c0,-0.98066 0.79499,-1.77566 1.77566,-1.77566c0.98066,0 1.77566,0.79499 1.77566,1.77566c0,0.98066 -0.795,1.77566 -1.77566,1.77566c-0.98066,0 -1.77566,-0.79499 -1.77566,-1.77566z" fill="#000000" stroke="none" stroke-width="0" stroke-linecap="butt"/><path d="M245.25049,178.91763c0,3.54523 -4.65459,6.4192 -10.39632,6.4192c-5.74173,0 -10.39632,-2.87397 -10.39632,-6.4192c0,-3.54523 4.65459,-6.4192 10.39632,-6.4192c5.74173,0 10.39632,2.87397 10.39632,6.4192z" fill="#ffffff" stroke="#727272" stroke-width="2.5" stroke-linecap="butt"/></g></g></svg>