<svg version="1.1" xmlns="http://www.w3.org/2000/svg" xmlns:xlink="http://www.w3.org/1999/xlink" width="168.50001" height="142.16136" viewBox="0,0,168.50001,142.16136"><g transform="translate(-155.75,-108.91932)"><g data-paper-data="{&quot;isPaintingLayer&quot;:true}" fill-rule="nonzero" stroke-linejoin="miter" stroke-miterlimit="10" stroke-dasharray="" stroke-dashoffset="0" style="mix-blend-mode: normal"><path d="M209.00001,216.33068c0,4.69442 -9.40202,8.5 -21,8.5c-11.59798,0 -21,-3.80558 -21,-8.5c0,-4.69442 9.40202,-8.5 21,-8.5c11.59798,0 21,3.80558 21,8.5z" fill="#d4d4d4" stroke="#a3a3a3" stroke-width="2.5" stroke-linecap="butt"/><path d="M157,205.08068c0,-6.76549 5.48451,-12.25 12.25,-12.25c6.76549,0 12.25,5.48451 12.25,12.25c0,6.76549 -5.48451,12.25 -12.25,12.25c-6.76549,0 -12.25,-5.48451 -12.25,-12.25z" fill="#d4d4d4" stroke="#a3a3a3" stroke-width="2.5" stroke-linecap="butt"/><path d="M264.825,189.1798c2.18042,-2.11484 5.66242,-2.06168 7.77727,0.11874c2.11484,2.18042 2.06168,5.66242 -0.11874,7.77727c-2.18042,2.11484 -5.66242,2.06168 -7.77727,-0.11874c-2.11484,-2.18042 -2.06168,-5.66242 0.11874,-7.77727z" fill="#d4d4d4" stroke="#a3a3a3" stroke-width="2.5" stroke-linecap="butt"/><path d="M262.76194,173.76694c3.86529,-3.74904 10.03793,-3.6548 13.78698,0.21049c3.74904,3.86529 3.6548,10.03793 -0.21049,13.78698c-3.86529,3.74904 -10.03793,3.6548 -13.78698,-0.21049c-3.74904,-3.86529 -3.6548,-10.03793 0.21049,-13.78698z" fill="#d4d4d4" stroke="#a3a3a3" stroke-width="2.5" stroke-linecap="butt"/><path d="M262.56899,151.66433c5.74839,-5.5755 14.92821,-5.43535 20.50371,0.31303c5.5755,5.74839 5.43535,14.92821 -0.31303,20.50371c-5.74839,5.5755 -14.92821,5.43535 -20.50371,-0.31303c-5.5755,-5.74839 -5.43535,-14.92821 0.31303,-20.50371z" fill="#d4d4d4" stroke="#a3a3a3" stroke-width="2.5" stroke-linecap="butt"/><path d="M270.81716,132.51935c7.43326,-7.2097 19.30371,-7.02847 26.51341,0.40479c7.2097,7.43326 7.02847,19.30371 -0.40479,26.51341c-7.43326,7.2097 -19.30371,7.02847 -26.51341,-0.40479c-7.2097,-7.43326 -7.02847,-19.30371 0.40479,-26.51341z" fill="#d4d4d4" stroke="#a3a3a3" stroke-width="2.5" stroke-linecap="butt"/><path d="M281.91502,112.0035c2.57686,-2.49936 6.69196,-2.43654 9.19132,0.14033c2.49936,2.57686 2.43654,6.69196 -0.14033,9.19132c-2.57686,2.49936 -6.69196,2.43654 -9.19132,-0.14033c-2.49936,-2.57686 -2.43654,-6.69196 0.14033,-9.19132z" fill="#d4d4d4" stroke="#a3a3a3" stroke-width="2.5" stroke-linecap="butt"/><path d="M307.75109,133.61362c2.57686,-2.49936 6.69196,-2.43654 9.19132,0.14033c2.49936,2.57686 2.43654,6.69196 -0.14033,9.19132c-2.57686,2.49936 -6.69196,2.43654 -9.19132,-0.14033c-2.49936,-2.57686 -2.43654,-6.69196 0.14033,-9.19132z" fill="#d4d4d4" stroke="#a3a3a3" stroke-width="2.5" stroke-linecap="butt"/><path d="M297.74209,117.54905c2.57686,-2.49936 6.69196,-2.43654 9.19132,0.14033c2.49936,2.57686 2.43654,6.69196 -0.14033,9.19132c-2.57686,2.49936 -6.69196,2.43654 -9.19132,-0.14033c-2.49936,-2.57686 -2.43654,-6.69196 0.14033,-9.19132z" fill="#d4d4d4" stroke="#a3a3a3" stroke-width="2.5" stroke-linecap="butt"/><path d="M157,226.08068c0,-6.76549 5.48451,-12.25 12.25,-12.25c6.76549,0 12.25,5.48451 12.25,12.25c0,6.76549 -5.48451,12.25 -12.25,12.25c-6.76549,0 -12.25,-5.48451 -12.25,-12.25z" fill="#d4d4d4" stroke="#a3a3a3" stroke-width="2.5" stroke-linecap="butt"/><path d="M323.00001,212.58068c0,20.57261 -28.42992,37.25 -63.5,37.25c-35.07008,0 -63.5,-16.67739 -63.5,-37.25c0,-20.57261 28.42992,-37.25 63.5,-37.25c35.07008,0 63.5,16.67739 63.5,37.25z" fill="#d4d4d4" stroke="#a3a3a3" stroke-width="2.5" stroke-linecap="butt"/><path d="M236.50001,214.33068c0,-3.03757 2.46243,-5.5 5.5,-5.5c3.03757,0 5.5,2.46243 5.5,5.5c0,3.03757 -2.46243,5.5 -5.5,5.5c-3.03757,0 -5.5,-2.46243 -5.5,-5.5z" fill="#d4d4d4" stroke="#a3a3a3" stroke-width="2.5" stroke-linecap="butt"/><path d="M224.00001,205.08068c0,-5.38477 4.36522,-9.75 9.75,-9.75c5.38478,0 9.75,4.36523 9.75,9.75c0,5.38477 -4.36522,9.75 -9.75,9.75c-5.38478,0 -9.75,-4.36523 -9.75,-9.75z" fill="#d4d4d4" stroke="#a3a3a3" stroke-width="2.5" stroke-linecap="butt"/><path d="M208.00001,189.83068c0,-8.00813 6.49187,-14.5 14.5,-14.5c8.00813,0 14.5,6.49187 14.5,14.5c0,8.00813 -6.49187,14.5 -14.5,14.5c-8.00813,0 -14.5,-6.49187 -14.5,-14.5z" fill="#d4d4d4" stroke="#a3a3a3" stroke-width="2.5" stroke-linecap="butt"/><path d="M200.00001,170.58068c0,-10.35534 8.39466,-18.75 18.75,-18.75c10.35534,0 18.75,8.39466 18.75,18.75c0,10.35534 -8.39466,18.75 -18.75,18.75c-10.35534,0 -18.75,-8.39466 -18.75,-18.75z" fill="#d4d4d4" stroke="#a3a3a3" stroke-width="2.5" stroke-linecap="butt"/><path d="M193.00001,148.33068c0,-3.58985 2.91015,-6.5 6.5,-6.5c3.58985,0 6.5,2.91015 6.5,6.5c0,3.58985 -2.91015,6.5 -6.5,6.5c-3.58985,0 -6.5,-2.91015 -6.5,-6.5z" fill="#d4d4d4" stroke="#a3a3a3" stroke-width="2.5" stroke-linecap="butt"/><path d="M226.50001,144.83068c0,-3.58985 2.91015,-6.5 6.5,-6.5c3.58985,0 6.5,2.91015 6.5,6.5c0,3.58985 -2.91015,6.5 -6.5,6.5c-3.58985,0 -6.5,-2.91015 -6.5,-6.5z" fill="#d4d4d4" stroke="#a3a3a3" stroke-width="2.5" stroke-linecap="butt"/><path d="M208.00001,140.83068c0,-3.58985 2.91015,-6.5 6.5,-6.5c3.58985,0 6.5,2.91015 6.5,6.5c0,3.58985 -2.91015,6.5 -6.5,6.5c-3.58985,0 -6.5,-2.91015 -6.5,-6.5z" fill="#d4d4d4" stroke="#a3a3a3" stroke-width="2.5" stroke-linecap="butt"/><path d="M304.00001,207.83067c0,-1.38071 1.11929,-2.5 2.5,-2.5c1.38071,0 2.5,1.11929 2.5,2.5c0,1.38071 -1.11929,2.5 -2.5,2.5c-1.38071,0 -2.5,-1.11929 -2.5,-2.5z" fill="#000000" stroke="none" stroke-width="0.5" stroke-linecap="butt"/><path d="M281.50001,208.83067c0,-1.38071 1.11929,-2.5 2.5,-2.5c1.38071,0 2.5,1.11929 2.5,2.5c0,1.38071 -1.11929,2.5 -2.5,2.5c-1.38071,0 -2.5,-1.11929 -2.5,-2.5z" fill="#000000" stroke="none" stroke-width="0.5" stroke-linecap="butt"/><path d="M313.50001,215.83067c0,0 -4.89412,6.44303 -18.00347,7.24005c-12.86373,0.78209 -19.49653,-6.74005 -19.49653,-6.74005" fill="none" stroke="#a3a3a3" stroke-width="2.5" stroke-linecap="round"/></g></g></svg>