<svg version="1.1" xmlns="http://www.w3.org/2000/svg" xmlns:xlink="http://www.w3.org/1999/xlink" width="72.80913" height="52.10365" viewBox="0,0,72.80913,52.10365"><g transform="translate(-208.74571,-150.77907)"><g data-paper-data="{&quot;isPaintingLayer&quot;:true}" fill-rule="nonzero" stroke-linecap="butt" stroke-linejoin="miter" stroke-miterlimit="10" stroke-dasharray="" stroke-dashoffset="0" style="mix-blend-mode: normal"><path d="M265.47416,178.38998c0,10.88945 3.98204,19.7171 8.89413,19.7171c4.026,0 9.24817,-11.26086 1.60688,-18.92062c-1.26982,-1.27289 0.77402,-2.71556 1.71502,-4.43986c5.35791,-9.81787 1.59019,-16.07372 -3.3219,-16.07372c-4.91209,0 -8.89413,8.82765 -8.89413,19.7171z" fill="#e89850" stroke="#b97335" stroke-width="2.5"/><path d="M240.26113,158.67287c-4.61618,0 -7.71539,1.50685 -7.71539,-1.39306c0,-2.89991 3.74215,-5.25075 8.35834,-5.25075c2.95046,0 7.45995,0.4818 7.45995,0.4818c0,0 0.65032,4.60688 -1.23283,7.51854c-1.19521,1.84799 -5.07779,-1.35653 -6.87007,-1.35653z" fill="#e89850" stroke="#b97335" stroke-width="2.5"/><path d="M270.00429,180c0,11.94742 -13.43338,21.63272 -30.00429,21.63272c-4.90653,0 -14.03864,-1.49207 -17.69913,-4.49783c-2.91881,-2.39674 9.10785,1.15027 5.98025,-7.19744c-3.15015,-8.40787 -14.48271,0.80823 -15.64892,-1.05715c-1.69386,-2.70938 -2.63648,-5.71547 -2.63648,-8.8803c0,-11.94742 13.43338,-21.63272 30.00429,-21.63272c16.57091,0 30.00429,9.6853 30.00429,21.63272z" fill="#e89850" stroke="#b97335" stroke-width="2.5"/><path d="M214.9718,179.78303c0,-1.00609 0.8156,-1.82169 1.82169,-1.82169c1.00609,0 1.82169,0.8156 1.82169,1.82169c0,1.00609 -0.8156,1.82169 -1.82169,1.82169c-1.00609,0 -1.82169,-0.8156 -1.82169,-1.82169z" fill="#000000" stroke="none" stroke-width="0"/><path d="M223.82949,180.71102c0,-1.00609 0.8156,-1.82169 1.82169,-1.82169c1.00609,0 1.82169,0.8156 1.82169,1.82169c0,1.00609 -0.8156,1.82168 -1.82169,1.82168c-1.00609,0 -1.82169,-0.81559 -1.82169,-1.82168z" fill="#000000" stroke="none" stroke-width="0"/><path d="M256.9778,181.28325c0,3.13664 -4.17394,5.67938 -9.32276,5.67938c-5.14882,0 -9.32276,-2.54275 -9.32276,-5.67938c0,-3.13664 4.17394,-5.67938 9.32276,-5.67938c5.14882,0 9.32276,2.54275 9.32276,5.67938z" fill="#e89850" stroke="#b97335" stroke-width="2.5"/><path d="M232.86855,173.0519c0,-1.05703 0.85689,-1.91393 1.91393,-1.91393c1.05703,0 1.91393,0.85689 1.91393,1.91393c0,1.05703 -0.85689,1.91393 -1.91393,1.91393c-1.05703,0 -1.91393,-0.85689 -1.91393,-1.91393z" fill="#572f1a" stroke="none" stroke-width="0"/><path d="M234.35107,166.25798c0,-1.05703 0.85689,-1.91393 1.91392,-1.91393c1.05703,0 1.91393,0.8569 1.91393,1.91393c0,1.05703 -0.8569,1.91393 -1.91393,1.91393c-1.05703,0 -1.91392,-0.8569 -1.91392,-1.91393z" fill="#572f1a" stroke="none" stroke-width="0"/><path d="M240.28217,171.6718c0,-1.05703 0.8569,-1.91393 1.91393,-1.91393c1.05703,0 1.91393,0.8569 1.91393,1.91393c0,1.05703 -0.8569,1.91393 -1.91393,1.91393c-1.05703,0 -1.91393,-0.8569 -1.91393,-1.91393z" fill="#572f1a" stroke="none" stroke-width="0"/><path d="M251.48949,167.72291c0,-1.0856 0.8569,-1.96565 1.91393,-1.96565c1.05703,0 1.91393,0.88005 1.91393,1.96565c0,1.0856 -0.8569,1.96565 -1.91393,1.96565c-1.05703,0 -1.91393,-0.88005 -1.91393,-1.96565z" fill="#572f1a" stroke="none" stroke-width="0"/><path d="M234.03967,187.93086c0,-1.0856 0.8569,-1.96565 1.91393,-1.96565c1.05703,0 1.91393,0.88005 1.91393,1.96565c0,1.0856 -0.8569,1.96565 -1.91393,1.96565c-1.05703,0 -1.91393,-0.88005 -1.91393,-1.96565z" fill="#572f1a" stroke="none" stroke-width="0"/><path d="M244.69661,192.63911c0,-1.05703 0.8569,-1.91392 1.91393,-1.91392c1.05703,0 1.91393,0.85689 1.91393,1.91392c0,1.05703 -0.8569,1.91393 -1.91393,1.91393c-1.05703,0 -1.91393,-0.8569 -1.91393,-1.91393z" fill="#572f1a" stroke="none" stroke-width="0"/><path d="M239.86834,197.4322c0,-1.05703 0.8569,-1.91393 1.91393,-1.91393c1.05703,0 1.91393,0.8569 1.91393,1.91393c0,1.05703 -0.8569,1.91393 -1.91393,1.91393c-1.05703,0 -1.91393,-0.8569 -1.91393,-1.91393z" fill="#572f1a" stroke="none" stroke-width="0"/><path d="M233.76344,194.06887c0,-1.0856 0.8569,-1.96565 1.91393,-1.96565c1.05703,0 1.91393,0.88005 1.91393,1.96565c0,1.0856 -0.8569,1.96565 -1.91393,1.96565c-1.05703,0 -1.91393,-0.88005 -1.91393,-1.96565z" fill="#572f1a" stroke="none" stroke-width="0"/><path d="M260.48908,176.30867c0,-1.0856 0.8569,-1.96565 1.91393,-1.96565c1.05703,0 1.91392,0.88005 1.91392,1.96565c0,1.0856 -0.85689,1.96565 -1.91392,1.96565c-1.05703,0 -1.91393,-0.88005 -1.91393,-1.96565z" fill="#572f1a" stroke="none" stroke-width="0"/><path d="M263.21306,180.7914c0,-1.0856 0.8569,-1.96565 1.91393,-1.96565c1.05703,0 1.91393,0.88005 1.91393,1.96565c0,1.0856 -0.8569,1.96565 -1.91393,1.96565c-1.05703,0 -1.91393,-0.88005 -1.91393,-1.96565z" fill="#572f1a" stroke="none" stroke-width="0"/><path d="M255.17767,189.82616c0,-1.0856 0.8569,-1.96565 1.91393,-1.96565c1.05703,0 1.91393,0.88005 1.91393,1.96565c0,1.0856 -0.8569,1.96565 -1.91393,1.96565c-1.05703,0 -1.91393,-0.88005 -1.91393,-1.96565z" fill="#572f1a" stroke="none" stroke-width="0"/></g></g></svg>