<svg version="1.1" xmlns="http://www.w3.org/2000/svg" xmlns:xlink="http://www.w3.org/1999/xlink" width="82.33534" height="71.57336" viewBox="0,0,82.33534,71.57336"><defs><linearGradient x1="279.16668" y1="210.42916" x2="257.04372" y2="208.89341" gradientUnits="userSpaceOnUse" id="color-1"><stop offset="0" stop-color="#e66e6e"/><stop offset="1" stop-color="#b54c4c"/></linearGradient><linearGradient x1="269.37183" y1="170.76462" x2="241.10743" y2="170.76462" gradientUnits="userSpaceOnUse" id="color-2"><stop offset="0" stop-color="#b54c4c"/><stop offset="1" stop-color="#e66e6e"/></linearGradient><linearGradient x1="235.00277" y1="173.6328" x2="196.70161" y2="173.6328" gradientUnits="userSpaceOnUse" id="color-3"><stop offset="0" stop-color="#de7373"/><stop offset="1" stop-color="#e6756e"/></linearGradient><radialGradient cx="244.64553" cy="191.82817" r="35.27214" gradientUnits="userSpaceOnUse" id="color-4"><stop offset="0" stop-color="#6f9468"/><stop offset="1" stop-color="#487348"/></radialGradient><linearGradient x1="259.22801" y1="167.59113" x2="226.92415" y2="167.59113" gradientUnits="userSpaceOnUse" id="color-5"><stop offset="0" stop-color="#ba4f4f"/><stop offset="1" stop-color="#e36c6c"/></linearGradient><linearGradient x1="244.19526" y1="182.97899" x2="215.93086" y2="182.97899" gradientUnits="userSpaceOnUse" id="color-6"><stop offset="0" stop-color="#b54c4c"/><stop offset="1" stop-color="#e66e6e"/></linearGradient></defs><g transform="translate(-198.83233,-144.21332)"><g data-paper-data="{&quot;isPaintingLayer&quot;:true}" fill-rule="nonzero" stroke-linecap="butt" stroke-linejoin="miter" stroke-miterlimit="10" stroke-dasharray="" stroke-dashoffset="0" style="mix-blend-mode: normal"><path d="M257.02031,209.24651c0.10039,-2.68267 5.14463,-4.67172 11.26667,-4.44263c6.12202,0.22909 11.0035,2.58953 10.90312,5.27222c-0.1004,2.68269 -5.14461,4.67171 -11.26665,4.44262c-6.122,-0.22909 -11.0035,-2.58953 -10.90311,-5.27222z" data-paper-data="{&quot;index&quot;:null}" fill="url(#color-1)" stroke="#662525" stroke-width="2.5"/><path d="M253.25272,172.63551c7.51347,5.8123 17.69716,5.93094 15.59124,8.6532c-2.10592,2.72226 -13.50394,2.8173 -21.01741,-2.995c-7.51347,-5.8123 -8.29716,-15.33094 -6.19124,-18.05321c2.10592,-2.72226 4.10394,6.58271 11.61741,12.395z" data-paper-data="{&quot;index&quot;:null}" fill="url(#color-2)" stroke="#662525" stroke-width="2.5"/><path d="M233.1643,172.27492c5.98685,5.98685 -4.16509,7.14991 -8.83775,11.82258c-4.67266,4.67266 -13.07489,7.31669 -18.55294,0.86101c-6.98394,-8.23031 -10.8109,-29.21151 8.48924,-26.82413c7.54237,0.93297 -10.36028,9.9579 -3.60057,15.48622c8.94152,7.31268 19.96661,-3.88109 22.50203,-1.34567z" data-paper-data="{&quot;index&quot;:null}" fill="url(#color-3)" stroke="#913131" stroke-width="2.5"/><path d="M209.37339,194.07163c0,-12.73443 15.79188,-23.05775 35.27214,-23.05775c19.48026,0 35.27214,10.32332 35.27214,23.05775c0,3.69961 -9.56256,2.36488 -12.23217,3.14641c-17.1081,5.00841 1.49963,15.42442 -12.32123,15.42442c-19.48026,0 -45.99086,-5.8364 -45.99086,-18.57083z" data-paper-data="{&quot;index&quot;:null}" fill="url(#color-4)" stroke="#2d3b2a" stroke-width="2.5"/><path d="M233.30361,177.74426c0,0 13.60289,-6.5062 10.07903,-15.8525c-6.03981,-16.01929 -25.58953,11.63795 -14.74278,-8.67195c4.79468,-8.97776 16.67811,-11.30827 22.98591,-0.81571c5.84095,9.71598 7.60224,25.34016 7.60224,25.34016z" data-paper-data="{&quot;index&quot;:null}" fill="url(#color-5)" stroke="#662525" stroke-width="2.5"/><path d="M228.07615,184.84988c7.51347,5.8123 17.69716,5.93094 15.59124,8.6532c-2.10592,2.72226 -13.50394,2.81729 -21.01741,-2.995c-7.51347,-5.8123 -8.29716,-15.33094 -6.19124,-18.0532c2.10592,-2.72226 4.10394,6.58271 11.61741,12.395z" data-paper-data="{&quot;index&quot;:null}" fill="url(#color-6)" stroke="#662525" stroke-width="2.5"/><path d="M268.85818,190.7236c-1.28706,-0.65807 -1.79694,-2.23492 -1.13888,-3.52196c0.65807,-1.28706 1.77968,-0.90658 3.06672,-0.24852c1.28706,0.65807 2.25219,1.34456 1.59413,2.6316c-0.65807,1.28706 -2.23492,1.79695 -3.52197,1.13888z" data-paper-data="{&quot;index&quot;:null}" fill="#000000" stroke="none" stroke-width="0"/></g></g></svg>