<svg version="1.1" xmlns="http://www.w3.org/2000/svg" xmlns:xlink="http://www.w3.org/1999/xlink" width="91.00835" height="69.27789" viewBox="0,0,91.00835,69.27789"><g transform="translate(-196.71475,-143.87693)"><g data-paper-data="{&quot;isPaintingLayer&quot;:true}" fill-rule="nonzero" stroke-linecap="butt" stroke-linejoin="miter" stroke-miterlimit="10" stroke-dasharray="" stroke-dashoffset="0" style="mix-blend-mode: normal"><path d="M272.15819,146.7184c6.54952,2.31962 16.22929,8.3258 13.98402,14.66539c-2.24526,6.33959 -17.26733,12.93239 -23.81685,10.61277c-6.54952,-2.31962 -9.82886,-15.42382 -7.58359,-21.76342c2.24526,-6.33959 10.8669,-5.83436 17.41642,-3.51474z" fill="#f09767" stroke="#000000" stroke-width="2.5"/><path d="M238.48403,151.47687c4.95885,-1.10471 3.01382,9.58007 4.0513,14.23716c1.03749,4.65709 -3.62446,2.67079 -8.58331,3.7755c-4.95885,1.10471 -8.40795,1.85918 -9.77749,-2.7131c-2.94223,-9.8228 9.35065,-14.19485 14.30949,-15.29956z" fill="#f09767" stroke="#000000" stroke-width="2.5"/><path d="M213.71527,199.37151c7.80896,-0.68491 14.38546,1.56554 14.68901,5.02652c0.30356,3.46098 -5.78078,6.82188 -13.58974,7.50679c-7.80896,0.68491 -15.09875,-2.31406 -15.59392,-7.95974c-0.30356,-3.46098 6.68569,-3.88865 14.49465,-4.57356z" fill="#ed7d41" stroke="#000000" stroke-width="2.5"/><path d="M234.94581,160.87522c12.25572,-5.69014 29.44351,-4.71689 34.3515,5.8542c4.90799,10.57108 -3.04234,26.69881 -15.29805,32.38895c-12.25572,5.69014 -19.89475,-1.92155 -24.80274,-12.49264c-4.90799,-10.57108 -6.50642,-20.06038 5.7493,-25.75052z" fill="#ed7d41" stroke="#000000" stroke-width="2.5"/><path d="M223.17903,165.86638c9.2033,0 11.02834,9.80684 18.90717,16.90102c10.87091,9.78829 21.17379,6.4852 21.17379,12.13146c0,12.11473 -10.7667,16.40012 -28.00346,16.40012c-3.99729,0 -11.63062,-1.6058 -13.17063,-3.55501c-2.06719,-2.61646 0.93349,-7.46895 -4.49235,-10.5569c-3.62349,-2.0622 -14.32841,0.27506 -18.51116,-1.83691c-1.40101,-0.7074 -0.47861,-3.20274 -0.8229,-4.80617c-2.15893,-10.05454 7.68279,-24.67761 24.91955,-24.67761z" fill="#52979c" stroke="#000000" stroke-width="2.5"/><path d="M211.24346,187.07622c-1.60342,0 -2.90325,-1.29983 -2.90325,-2.90325c0,-1.60342 1.29983,-2.90325 2.90325,-2.90325c1.60342,0 2.90325,1.29983 2.90325,2.90325c0,1.60342 -1.29983,2.90325 -2.90325,2.90325z" fill="#000000" stroke="none" stroke-width="0.5"/><path d="M244.66955,175.15207c6.05103,-3.57561 12.88876,-3.20399 15.2725,0.83003c2.38374,4.03402 -0.58919,10.20284 -6.64022,13.77845c-6.05103,3.57561 -12.88876,3.20399 -15.2725,-0.83003c-2.38374,-4.03402 0.58919,-10.20284 6.64022,-13.77845z" fill="#ed7d41" stroke="#000000" stroke-width="2.5"/></g></g></svg>