<svg version="1.1" xmlns="http://www.w3.org/2000/svg" xmlns:xlink="http://www.w3.org/1999/xlink" width="51.04549" height="34.92059" viewBox="0,0,51.04549,34.92059"><defs><linearGradient x1="217.03866" y1="193.40891" x2="229.97553" y2="193.40891" gradientUnits="userSpaceOnUse" id="color-1"><stop offset="0" stop-color="#e5876f"/><stop offset="1" stop-color="#b66b4d"/></linearGradient><linearGradient x1="221.87934" y1="171.52356" x2="238.36786" y2="171.52356" gradientUnits="userSpaceOnUse" id="color-2"><stop offset="0" stop-color="#b66b4d"/><stop offset="1" stop-color="#e5876f"/></linearGradient><linearGradient x1="241.92912" y1="173.19676" x2="264.27275" y2="173.19676" gradientUnits="userSpaceOnUse" id="color-3"><stop offset="0" stop-color="#dd8a73"/><stop offset="1" stop-color="#e5876f"/></linearGradient><radialGradient cx="236.30385" cy="183.81134" r="20.5766" gradientUnits="userSpaceOnUse" id="color-4"><stop offset="0" stop-color="#679382"/><stop offset="1" stop-color="#497464"/></radialGradient><linearGradient x1="227.79691" y1="169.67225" x2="246.64192" y2="169.67225" gradientUnits="userSpaceOnUse" id="color-5"><stop offset="0" stop-color="#b66b4d"/><stop offset="1" stop-color="#e5876f"/></linearGradient><linearGradient x1="236.56652" y1="178.64902" x2="253.05504" y2="178.64902" gradientUnits="userSpaceOnUse" id="color-6"><stop offset="0" stop-color="#b66b4d"/><stop offset="1" stop-color="#e5876f"/></linearGradient></defs><g transform="translate(-214.47725,-162.58016)"><g data-paper-data="{&quot;isPaintingLayer&quot;:true}" fill-rule="nonzero" stroke-linecap="butt" stroke-linejoin="miter" stroke-miterlimit="10" stroke-dasharray="" stroke-dashoffset="0" style="mix-blend-mode: normal"><path d="M229.97488,193.61533c-0.04996,1.56529 -2.98618,2.74178 -6.55824,2.62778c-3.57207,-0.114 -6.42729,-1.47533 -6.37734,-3.04062c0.04996,-1.56529 2.98618,-2.74178 6.55824,-2.62778c3.57207,0.114 6.42729,1.47534 6.37734,3.04062z" fill="url(#color-1)" stroke="#663725" stroke-width="2.5"/><path d="M238.05991,165.38414c1.22852,1.58808 -1.32878,5.62419 -5.71189,9.01489c-4.38311,3.3907 -8.93222,4.85202 -10.16074,3.26394c-1.22852,-1.58808 1.32878,-5.62419 5.71189,-9.01489c4.38311,-3.3907 8.93222,-4.85202 10.16074,-3.26394z" fill="url(#color-2)" stroke="#663725" stroke-width="2.5"/><path d="M262.69527,166.07227c3.64993,4.6227 0.35937,8.93024 -3.71483,13.73153c-3.19571,3.76603 -8.09729,2.2236 -10.82317,-0.50228c-2.72588,-2.72588 -8.64818,-3.40437 -5.15565,-6.8969c3.49253,-3.49253 15.54777,-11.58318 19.69365,-6.33235z" fill="url(#color-3)" stroke="#924a31" stroke-width="2.5"/><path d="M256.88044,185.1201c0,7.42885 -15.46541,10.83361 -26.82955,10.83361c-8.06263,0 2.7925,-6.07636 -7.1878,-8.9981c-1.55736,-0.45592 -7.13584,0.32272 -7.13584,-1.83551c0,-7.42885 9.21246,-13.45113 20.5766,-13.45113c11.36414,0 20.5766,6.02228 20.5766,13.45113z" fill="url(#color-4)" stroke="#293a34" stroke-width="2.5"/><path d="M227.79691,175.59525c0,0 13.75942,-11.48799 15.70511,-11.77883c7.38946,-1.10455 -0.58167,11.77883 -0.58167,11.77883z" fill="url(#color-5)" stroke="#663725" stroke-width="2.5"/><path d="M252.74709,172.5096c1.22852,1.58808 -1.32878,5.62419 -5.71189,9.01489c-4.38311,3.3907 -8.93222,4.85202 -10.16074,3.26394c-1.22852,-1.58808 1.32878,-5.62419 5.71189,-9.01489c4.38311,-3.3907 8.93222,-4.85202 10.16074,-3.26394z" fill="url(#color-6)" stroke="#663725" stroke-width="2.5"/><path d="M220.08978,181.7755c0,-0.84327 0.68361,-1.52689 1.52689,-1.52689c0.84327,0 1.52689,0.68361 1.52689,1.52689c0,0.84327 -0.68361,1.52689 -1.52689,1.52689c-0.84327,0 -1.52689,-0.68361 -1.52689,-1.52689z" fill="#000000" stroke="none" stroke-width="0"/></g></g></svg>