<svg version="1.1" xmlns="http://www.w3.org/2000/svg" xmlns:xlink="http://www.w3.org/1999/xlink" width="153.53583" height="87.16077" viewBox="0,0,153.53583,87.16077"><g transform="translate(-152.30865,-137.11803)"><g data-paper-data="{&quot;isPaintingLayer&quot;:true}" fill-rule="nonzero" stroke-linecap="butt" stroke-linejoin="miter" stroke-miterlimit="10" stroke-dasharray="" stroke-dashoffset="0" style="mix-blend-mode: normal"><path d="M247.58062,140.9269c-5.64164,3.7833 -4.39023,7.67372 -7.90962,14.0993c-1.2773,2.3284 -2.53456,4.63251 -3.61488,6.90585c-7.57315,-3.09779 -15.16019,-6.16171 -22.76,-9.19333c11.79555,-4.63385 21.72659,-11.64735 34.2845,-11.81181z" fill="#000000" stroke="#272525" stroke-width="2.5"/><g><path d="M163.79825,146.55726c2.11907,-10.18572 24.41411,-6.63133 30.26459,3.9563c6.82606,12.35312 17.02833,21.27139 19.69505,34.78828c-4.74043,-4.86516 -8.34069,-2.93138 -15.29643,-5.23178c-10.5083,-3.48302 -20.53834,-6.69971 -27.57598,1.4425c-1.10074,0.56914 -1.89087,1.45571 -2.78579,2.5348c-0.11851,0.14432 -0.16995,0.28822 -0.18783,0.43057c-2.30788,1.07591 -4.99962,1.28472 -7.6264,0.7256c-2.16458,-0.46005 -4.00797,-1.69635 -5.45801,-3.32559c-1.49194,-1.67864 9.37615,-33.16825 8.9708,-35.32067z" fill="#000000" stroke="#272525" stroke-width="2.5"/><path d="M182.5432,150.44586c0.01353,0.40659 -0.00001,0.76793 -0.04197,1.06494c-1.42414,10.07957 -7.54983,24.0027 -15.09258,31.03394c-5.96955,5.56474 -8.51023,6.62432 -15.08536,-1.398c-0.22398,-0.27329 2.19362,-6.40543 2.3853,-7.09818c0.90212,-2.69777 0.64695,-5.4999 1.23269,-8.28836c0.90339,-4.30084 2.77622,-8.39101 3.3124,-12.84887c0.35582,-2.9582 -0.23538,-6.43877 1.68244,-8.99942c1.35906,-1.8146 2.74077,-3.67706 4.51999,-5.08215c4.32746,-3.41751 9.39196,-0.68779 12.95819,2.88957c1.37688,0.17269 2.47086,1.93633 3.18669,3.981c0.2002,0.3205 0.38095,0.63195 0.54054,0.93023c0,0 1.01348,1.89426 0.40169,3.81531z" fill="#ffffff" stroke="none" stroke-width="0.5"/></g><text transform="translate(195.67738,174.2758) scale(0.5,0.5)" font-size="40" xml:space="preserve" fill="#000000" fill-rule="nonzero" stroke="none" stroke-width="1" stroke-linecap="butt" stroke-linejoin="miter" stroke-miterlimit="10" stroke-dasharray="" stroke-dashoffset="0" font-family="Sans Serif" font-weight="normal" text-anchor="start" style="mix-blend-mode: normal"><tspan x="0" dy="0">e</tspan></text><g stroke="none" stroke-width="1"><path d="M211.42134,193.33557c0,0 6.71517,2.68315 -0.52063,10.16643c-7.23581,7.48328 -11.16476,10.22143 -11.16476,10.22143c0,0 4.84732,5.47761 -2.77068,6.16027c0,0 -7.15066,3.15129 -8.09918,-1.39092c0,0 -6.86447,-1.62678 -6.4857,-5.64189c0.37877,-4.01511 3.59255,-5.49455 8.12863,-5.13805z" fill="#000000"/><path d="M200.25944,213.67434c1.31976,0.8056 2.43517,2.13436 2.22668,3.51679c-0.41608,2.75729 -2.96323,4.28412 -6.51642,3.75349c-3.18312,2.11368 -8.39193,1.07041 -8.28416,-2.09952c-2.60304,0.00447 -4.90154,-1.3059 -5.88576,-3.1373c-2.9015,-5.40919 2.02374,-9.36486 8.66918,-9.17375c0.63189,-0.55124 21.38153,-15.43416 22.37894,-15.58024l-1.42656,2.38178c-1.1678,1.37132 -19.82192,15.6248 -21.9801,15.23221c-5.8135,-1.06095 -8.81563,5.24785 -3.26426,8.34719c2.26433,1.26519 6.61055,-1.94943 7.37654,-3.09592c0.58148,2.191 -2.01582,3.97553 -3.24914,4.87721c0.41366,1.96838 2.61247,1.7422 3.73838,1.44145c3.24864,-0.86627 2.55658,-3.39687 2.3644,-5.32838c0.59172,-0.5248 0.80899,0.26499 1.04047,0.55851c0.82429,1.04867 0.49145,2.39478 0.44646,3.63516c3.48965,0.29394 3.02491,-3.95826 0.26488,-4.81141l12.78679,-11.37117c0.68126,-0.23531 0.92194,1.24194 1.11741,1.53356z" fill="#272525"/></g><g stroke="none" stroke-width="1"><path d="M234.90545,220.93582c-1.89729,1.73702 -4.94957,1.89369 -7.07994,0.56385c-0.76472,-0.47942 -0.78067,-1.21617 -1.69945,-1.50995c-1.46724,-0.4718 -2.66649,0.211 -3.98739,-0.48378c-1.96422,-1.02618 -2.82254,-3.25357 -1.31115,-4.8373c-3.0747,-0.8242 -2.88695,-4.12735 -1.4172,-6.46779c0.70964,-1.15446 2.01609,-1.37703 3.49381,-1.83277c4.77269,-1.48042 8.00821,-0.96467 12.52488,-2.88662c2.81907,-1.19469 4.38318,-2.37484 5.85854,-4.67064c0.93285,-1.43949 2.38724,-2.32165 2.5042,-3.7413c-0.10793,-0.02474 -0.22541,-0.07751 -0.34664,-0.14392c0.71078,-0.51158 1.42627,-1.01771 2.18612,-1.41148c0.15467,-0.00431 0.31257,0.00105 0.46649,-0.00922c0.94114,-0.06581 1.80414,-0.3123 2.56921,-0.6886c2.56341,0.18796 3.60794,2.654 3.73605,4.8693c0.07521,1.29674 -0.09735,2.66693 -0.43885,4.02408c-1.63257,1.79851 -3.67185,3.37599 -5.78231,5.59031c-2.44787,2.56107 -4.40625,3.58717 -7.32218,5.84019c-1.37726,1.05489 -2.94398,1.80501 -2.70864,3.29329c0.29416,1.74796 0.24515,3.14699 -1.24554,4.50235z" fill="#000000"/><path d="M237.1695,215.53954c2.11262,4.76685 -3.56715,9.47248 -9.27329,6.9722c-0.69242,-0.30507 -2.00368,-0.85089 -2.24123,-1.49027c-4.61882,-0.02248 -7.50215,-1.68204 -6.23397,-5.85968c-2.09884,-1.08687 -3.09755,-2.89147 -2.79629,-4.96216c1.03628,-7.15496 11.59081,-3.63101 16.56337,-6.65739c2.63625,-1.60711 5.38779,-3.71652 7.35217,-5.87419c0.40842,-0.4474 1.77487,-2.75168 2.04663,-2.9632c0.55677,-0.43781 1.98727,-1.83904 2.46021,-0.03189c0.34662,1.32312 -1.21322,2.97845 -1.72976,3.90506c-2.01856,3.61982 -8.18875,7.55859 -12.93869,8.12102c-3.40042,0.40196 -8.82468,-0.98577 -10.33459,2.82414c-1.59846,4.02764 2.53002,4.59146 5.61188,3.3305c0.17847,0.58632 -1.70362,1.82659 -3.70635,1.91389c-1.89365,2.20724 1.30523,3.87553 3.81126,3.73508c3.72166,-0.21152 3.10376,-2.38646 3.79697,-3.43101c1.66876,2.22032 -0.36691,4.44439 -1.5146,5.25677c2.35063,1.69523 6.53178,-0.21783 6.99337,-2.36813c0.50772,-2.36069 -0.41654,-2.4895 -1.12135,-3.78374c6.49573,-2.39028 13.70715,-9.0319 17.55131,-15.60127c0.67623,-0.21698 1.15007,0.6346 1.6807,0.87131c-0.77833,5.4616 -10.77855,13.51484 -15.97775,16.09298z" fill="#272525"/></g><g stroke="none"><path d="M262.2,138.75c8.625,-2.375 10.836,-0.431 14.125,6.125c3.289,6.556 8.75,8.75 12.625,10c3.875,1.25 13.5,0.375 15.25,12.125c1.75,11.75 -5.625,11.125 -5.625,11.125c0.125,11.625 -14.375,9.375 -14.375,9.375c-4.375,11.875 -18.875,4.125 -18.875,4.125c-12.625,21.625 -37.125,22.249 -53.25,14.447c-16.125,-7.802 -20,-21.822 -19.25,-27.572c0.75,-5.75 -5,-18.5 17.25,-26.25c22.25,-7.75 38.783,5.509 38.783,5.509c0,-3.375 4.717,-16.634 13.342,-19.009z" fill="#20a6d8" stroke-width="1"/><path d="M299.878,178.957c-1.265,7.123 -6.835,11.588 -15.271,9.551c-3.597,8.731 -11.414,7.66 -15.007,6.327c-0.882,-0.328 -3.384,-1.494 -3.774,-1.591c-1.336,1.734 -2.588,3.457 -4.276,5.113l0.009,0.004c0,0 -2.487,3.605 -6.295,6.339c-7.261,5.214 -14.788,6.136 -17.413,6.588c-1.882,0.324 -28.772,6.653 -43.142,-20.922c-0.105,-0.185 -0.186,-0.337 -0.223,-0.419c-2.071,-4.536 -2.847,-12.148 -2.557,-17.486c0.077,-1.414 -0.125,-15.211 11.146,-18.898c13.583,-4.442 29.654,-9.063 45.077,3.312c0,0 1.548,-16.637 16.298,-19.381c14.75,-2.744 10.734,10.306 18.549,14.084c0.4,0.339 0.797,0.609 1.223,0.824c0.803,0.404 5.064,1.529 7.458,2.173c9.354,1.701 11.415,6.831 11.415,6.831c4.384,6.493 3.677,17.071 -3.217,17.551zM302.272,163.088c-1.687,-5.026 -12.167,-7.163 -14.843,-7.631c-2.276,-0.3 -4.102,-1.357 -5.717,-2.789c0,0 -2.778,-1.86 -5.012,-5.418c-2.234,-3.558 -4,-12.625 -15.875,-6.5c-11.875,6.125 -12.125,18.625 -12.125,18.625c0,0 -7.624,-7.092 -16.874,-7.796c-9.25,-0.704 -38.199,-0.986 -37.787,19.405l-0.24,2.414c-0.521,6.466 0.35,10.215 2.451,16.213c0.081,0.136 14.37,30.031 51.903,16.461c6.423,-2.322 8.593,-4.644 11.923,-8.572c0.062,-0.073 4.694,-7.259 5.057,-7.555c5.885,3.195 13.732,5.195 18.09,-1.618c-2.055,-0.707 -4.5,-1.779 -7.754,-1.579c3.418,-2.597 10.006,0.086 13.996,-0.2c8.388,-0.6 7.905,-7.667 8.066,-15.783c0.017,-0.851 1.13,-0.981 1.322,-0.55c0.563,1.26 1.139,5.744 1.104,6.543c4.52,-1.498 3.795,-9.565 2.315,-13.67z" fill="#272525" stroke-width="1"/><path d="M300.20694,176.76054c0.035,-0.799 -0.64078,-5.28165 -1.20378,-6.54165c-0.192,-0.431 -1.20527,-0.30833 -1.22227,0.54267c-0.161,8.116 0.31997,15.20094 -8.06803,15.80094c-3.99,0.286 -10.58056,-2.39031 -13.99856,0.20669c3.254,-0.2 5.69999,0.86973 7.75499,1.57673c-4.358,6.813 -12.21506,4.82855 -18.10006,1.63355c-0.363,0.296 -5.00906,7.49235 -5.07106,7.56535c-3.33,3.928 -5.52275,6.25517 -11.94575,8.57717c-37.533,13.57 -51.86936,-16.36081 -51.95036,-16.49681c-2.101,-5.998 -2.97405,-9.76187 -2.45305,-16.22787l0.24008,-2.41621c-0.412,-20.391 28.55717,-20.14629 37.80717,-19.44229c9.25,0.704 16.90433,7.78619 16.90433,7.78619c0,0 0.2667,-12.49692 12.1417,-18.62192c11.875,-6.125 13.65989,2.9544 15.89389,6.5124c2.234,3.558 5.01781,5.42536 5.01781,5.42536c1.615,1.432 3.44409,2.49452 5.72009,2.79452c2.676,0.468 13.1599,2.61658 14.8469,7.64258c1.48,4.105 2.20596,12.18461 -2.31404,13.68261z" data-paper-data="{&quot;noHover&quot;:false,&quot;origItem&quot;:[&quot;Path&quot;,{&quot;applyMatrix&quot;:true,&quot;segments&quot;:[[[302.072,163.088],[1.48,4.105],[-1.687,-5.026]],[[287.229,155.457],[2.676,0.468],[-2.276,-0.3]],[[281.512,152.668],[1.615,1.432],[0,0]],[[276.5,147.25],[2.234,3.558],[-2.234,-3.558]],[[260.625,140.75],[11.875,-6.125],[-11.875,6.125]],[248.5,159.375],[[231.626,151.579],[9.25,0.704],[-9.25,-0.704]],[[193.839,170.984],[-0.412,-20.391],[0,0]],[[193.599,173.398],[0,0],[-0.521,6.466]],[[196.05,189.611],[-2.101,-5.998],[0.081,0.136]],[[247.953,206.072],[-37.533,13.57],[6.423,-2.322]],[[259.876,197.5],[-3.33,3.928],[0.062,-0.073]],[[264.933,189.945],[-0.363,0.296],[5.885,3.195]],[[283.023,188.327],[-4.358,6.813],[-2.055,-0.707]],[[275.269,186.748],[3.254,-0.2],[3.418,-2.597]],[[289.265,186.548],[-3.99,0.286],[8.388,-0.6]],[[297.331,170.765],[-0.161,8.116],[0.017,-0.851]],[[298.653,170.215],[-0.192,-0.431],[0.563,1.26]],[[299.757,176.758],[0.035,-0.799],[4.52,-1.498]]],&quot;closed&quot;:true,&quot;fillColor&quot;:[0,0,0,1]}]}" fill="#000000" stroke-width="0.5"/></g><g stroke="none" stroke-width="1"><path d="M170.12876,206.98565c0,0 -4.17158,-1.64552 -3.42461,-5.11516c0.74696,-3.46964 6.25245,-6.81799 11.68058,-6.32961c5.42813,0.48837 12.961,-1.56929 15.43948,-3.59546c2.47849,-2.02617 9.3306,-7.6388 9.3306,-7.6388c0,0 13.21065,9.00766 -0.10609,15.87147c-13.31673,6.86381 -17.43888,5.66452 -17.43888,5.66452c0,0 0.24015,6.10915 -4.00117,7.48686c-4.24132,1.37771 -5.64861,-0.61679 -5.64861,-0.61679c0,0 -8.60697,0.89129 -5.8313,-5.72704z" fill="#000000"/><path d="M171.4908,207.80986c-0.83524,1.47953 -0.10777,3.76267 2.1015,3.80429c4.71349,0.08916 5.10281,-5.26253 5.63236,-5.57803c0.99862,1.2089 -0.27384,4.75373 -1.90795,6.17171c2.44592,3.74577 10.03689,-3.23539 6.3953,-8.19303c2.96622,1.49727 13.51192,-0.86047 20.75476,-6.14047c0.8093,-0.58991 -0.32306,2.57867 -0.31168,3.452c0.02398,1.91798 -14.10889,6.52141 -17.32884,5.86862c-0.70396,2.64351 -0.43805,4.18229 -3.19825,6.22376c-2.02615,1.49832 -6.43825,1.97706 -8.06609,0.51353c-1.88333,1.13254 -9.11694,-0.90418 -7.10267,-6.33897c-2.9123,-1.25882 -3.27333,-4.02314 -2.8421,-5.67023c0.82189,-3.14811 4.47131,-7.07799 7.59071,-7.8459c4.95637,-1.22073 9.22518,1.33855 14.44415,-1.00693c3.24377,-1.45844 6.91385,-2.80581 9.59827,-5.32104c0.77668,-0.72759 3.55698,-3.47491 4.35464,-4.09532c0.61391,-0.47612 3.1561,-0.72041 2.93582,0.21424c-0.08057,0.33958 -1.73121,2.92497 -4.25817,4.77117c-5.06955,3.7039 -9.85529,6.35694 -15.29739,8.07838c-5.67527,1.79348 -11.74376,-2.81027 -16.40937,3.42817c-2.33602,3.12507 -0.25609,6.00136 2.92209,5.7443c1.73203,-0.14302 1.94742,-1.07669 3.35891,-2.22422c-0.45476,2.40484 -1.84864,3.33889 -3.36599,4.14397z" fill="#272525"/></g><g stroke="none" stroke-width="1"><path d="M235.43861,196.69161c0,0 16.72659,-1.55065 6.57028,7.18937l-23.44684,10.0585c0,0 4.07321,7.35918 -5.97614,7.68905c0,0 -9.09646,3.4663 -9.38654,-2.28182c0,0 -3.42335,0.24887 -4.76208,-1.71684c-1.33874,-1.96571 -1.00705,-12.48328 8.19289,-11.2608c8.96232,1.19094 12.51527,-1.98389 13.26351,-2.23912c0.74824,-0.25522 15.54492,-7.43836 15.54492,-7.43836z" fill="#000000"/><path d="M220.03329,213.99863c2.74331,3.42016 -0.64805,8.02772 -5.14726,9.0739c-1.77857,0.41221 -2.03736,-0.07319 -3.57628,-0.34348c-3.56724,2.55993 -9.48603,2.09399 -8.90059,-2.49201c-7.71839,1.14724 -8.93318,-9.69016 -1.22565,-13.48558c4.11118,-2.02511 7.02438,-0.31378 9.67611,-0.65027c5.45333,-0.68903 18.39792,-7.53345 23.75259,-10.55506c1.65552,-0.93556 2.08485,1.57891 0.46467,2.59063c-7.35886,4.60701 -19.03883,9.93117 -27.04018,9.10474c-2.47205,-0.25637 -5.70148,0.84017 -7.48193,2.93263c-1.82689,2.14539 -1.87095,4.97737 -0.5691,6.87314c0.84582,1.23373 4.80353,1.03314 7.78453,-1.64491c-0.30864,2.89382 -3.92804,2.90485 -2.87175,4.83793c1.60878,2.94645 7.78996,0.57011 7.50418,-3.5012c2.05652,0.52607 0.89868,3.27821 0.65276,3.92274c0.70032,0.24492 1.78801,0.13853 2.57299,-0.18234c4.49794,-1.8306 2.91092,-4.78481 1.54364,-6.91353c6.96487,-2.74023 24.18684,-10.57887 25.69826,-10.43721c0.8778,0.08348 1.02219,1.40111 0.24835,1.71351c-7.6631,3.0529 -15.33548,6.46847 -23.08533,9.15636z" fill="#272525"/></g><g stroke="none" stroke-width="1"><path d="M297.346,168.074c-3.614,0.887 -9.998,-0.198 -12.099,-5.327c-3.039,-7.419 13.72,-12.784 16.636,-7.695c2.937,5.127 -0.924,12.134 -4.537,13.022zM300.534,156.366c-1.843,-2.626 -11.087,0.235 -12.198,3.372c-1.669,4.701 6.069,7.023 8.674,6.233c2.605,-0.788 5.066,-7.406 3.524,-9.605z" fill="#272525"/><path d="M300.534,156.366c1.542,2.199 -0.919,8.817 -3.524,9.605c-2.606,0.79 -10.343,-1.532 -8.674,-6.233c1.111,-3.137 10.355,-5.998 12.198,-3.372z" fill="#000000"/></g><g stroke="none" stroke-width="1"><path d="M277.837,154.562c-0.206,-6.587 10.006,-7.692 8.521,-3.132c-1.071,3.287 -6.098,5.753 -8.521,3.132z" fill="#272525"/><path d="M278.977,153.981c-0.158,-1.872 3.75,-4.045 5.115,-3.577c2.099,0.721 -1.955,4.838 -5.115,3.577z" fill="#ffffff"/><path d="M282.277,151.457c0,-0.92232 0.70829,-1.67 1.582,-1.67c0.87371,0 1.582,0.74768 1.582,1.67c0,0.92232 -0.70829,1.67 -1.582,1.67c-0.87371,0 -1.582,-0.74768 -1.582,-1.67z" fill="#272525"/></g><g stroke="none" stroke-width="1"><path d="M273.959,156.689c-1.152,8.077 -13.12,6.358 -10.453,1.257c1.926,-3.68 8.221,-5.173 10.453,-1.257z" fill="#272525"/><path d="M272.525,157.05399c-0.211,2.325 -5.16,3.797 -6.631,2.818c-2.26,-1.506 3.268,-5.299 6.631,-2.818z" fill="#ffffff"/><path d="M269.005,158.027c0,-1.18576 0.91065,-2.147 2.034,-2.147c1.12335,0 2.034,0.96124 2.034,2.147c0,1.18576 -0.91065,2.147 -2.034,2.147c-1.12335,0 -2.034,-0.96124 -2.034,-2.147z" fill="#272525"/></g><g stroke="none" stroke-width="1"><path d="M253.222,178.121c-1.765,2.698 -5.428,2.229 -7.46,-0.156c-2.432,-2.855 -3.33,-5.632 -3.33,-9.698c0,-7.272 0.866,-13.802 6.395,-17.049c2.699,-1.564 4.999,-0.39 7.728,1.096c1.498,0.821 2.932,1.252 3.33,3.128c0.368,1.838 -0.797,2.894 -1.731,4.38c-3.798,5.944 -0.998,12.357 -4.932,18.299z" fill="#000000"/><path d="M259.689,156.615c0.623,1.913 -1.82,4.457 -2.196,6.188c-1.067,4.909 -0.757,8.595 -2.709,13.438c-0.956,2.368 -2.665,4.904 -5.178,4.89c-3.183,-0.02 -6.87,-4.283 -7.644,-7.738c-1.415,-6.323 0.286,-19.461 6.362,-22.38c1.199,-0.536 1.861,-0.673 2.843,-0.664c1.226,-0.049 4.426,-0.016 7.122,3.217c-0.975,0.344 -5.86,-3.051 -9.453,-1.018c-5.74,3.249 -7.54,20.374 -1.941,25.07c1.187,0.996 3.377,1.496 4.65,0.475c5.427,-4.348 2.57,-22.228 8.144,-21.478z" fill="#272525"/></g><path d="M261.1196,151.65549c-1.58387,-2.37581 -3.98631,-5.22193 -3.49115,-8.31437c0.6451,-4.02889 3.0733,-5.00072 7.1106,-5.00072c0.8338,0 1.77064,-0.40151 2.5014,0c1.25394,0.68898 2.8004,1.84609 3.45606,3.27438c0.7998,1.74229 0.98406,4.14317 2.5391,5.44223c0.4897,0.54411 0.81406,1.15547 1.10657,1.77593c2.25578,0.9456 4.08557,3.03964 4.82661,5.28411c0.25778,0.78076 0.22397,1.64399 0.08788,2.52762c0.16715,0.27521 0.34525,0.50232 0.53365,0.63825c0.20805,0.15011 -0.37101,-0.68409 -0.12574,-0.7593c0.31348,-0.09613 0.73367,-0.02078 1.19022,0.08689c0.28958,-0.29058 0.58902,-0.56101 0.89109,-0.80787c1.12051,-0.91571 2.89391,-3.03297 3.87088,-1.96544l1.22336,-0.0941c0.07219,-0.00627 0.14526,-0.00947 0.21907,-0.00947c1.38071,0 2.5,1.11929 2.5,2.5c0,0.90176 -0.47743,1.692 -1.19332,2.13175l-1.66414,1.059c-1.21101,0.83631 -2.06409,1.77477 -3.68326,2.3879c-0.03271,0.01239 -0.06576,0.02424 -0.09913,0.03557c-0.06551,0.09542 -0.11953,0.1924 -0.1592,0.29134c-0.06935,0.17294 0.47465,-0.32218 0.5392,-0.14739c0.16525,0.44745 -0.26168,2.20815 0.67991,2.51623c0.34586,0.11316 -0.53796,-0.89148 -0.22042,-1.06922c0.40549,-0.22697 3.56743,0.93841 4.03557,1.18063c1.66032,0.85905 3.28857,2.80007 5.14243,3.30864c0.62665,0.17191 1.3655,0.23543 2.11879,0.2653c0.06052,-0.04028 0.12248,-0.07989 0.18592,-0.1188c0.17952,-0.11012 1.6342,-1.05663 2.40187,-1.31601v-0.90418c0,-1.38071 1.11929,-2.5 2.5,-2.5c1.38071,0 2.5,1.11929 2.5,2.5v1.2507c0.25806,0.1291 0.13658,0.48018 0.05277,0.82148c0.1327,0.38629 0.36755,0.77889 0.26614,1.1515c0.28072,1.26359 0.50928,3.18324 0.25834,3.31844v1.34691c0,1.38071 -1.11929,2.5 -2.5,2.5c-1.38071,0 -2.5,-1.11929 -2.5,-2.5v-0.32905c-0.16852,-0.0242 -0.32811,-0.04723 -0.47182,-0.06789c-0.07765,0.44195 -0.31395,0.9154 -0.30063,1.35902c0.05941,1.97821 0.16779,4.59832 -0.19242,6.54211c-0.21752,1.1738 -0.07847,2.83129 -1.12871,3.39884c-0.06257,0.03382 -0.1256,0.06672 -0.18904,0.09875c-0.07318,0.08415 -0.15425,0.16825 -0.24383,0.25207c-0.85668,0.80157 -1.6875,0.82495 -2.32806,0.624c-0.46035,0.10496 -0.9246,0.19304 -1.38527,0.27509c-1.19465,0.21279 -2.88876,-1.52058 -3.41839,-1.91891c-1.3784,-1.3784 -3.29443,-1.1945 -4.90213,-2.32063c-1.16141,-0.81352 -1.99374,-2.02056 -3.062,-2.95303c-1.77928,-1.5531 -5.23845,-2.4424 -6.47474,-4.5648c-1.97903,-3.39749 -1.09248,-6.96183 -0.68774,-10.54469c-0.18893,-0.74211 -0.37456,-1.48255 -0.55851,-2.21887c-0.25923,-1.0377 -0.35317,-3.4743 -0.76064,-4.23903c-0.54054,-1.01449 -1.24848,-1.94362 -2.00571,-2.8554c-0.116,0.20335 -0.23869,0.40257 -0.36851,0.59698c-0.22512,0.33712 -0.72561,-0.18817 -1.16358,-0.32532c-0.00804,0.0039 -0.01606,0.00778 -0.02408,0.01167l0.06159,0.24638l-3.02425,0.75606c-0.21047,0.05753 -0.43201,0.08824 -0.66073,0.08824c-1.38071,0 -2.5,-1.11929 -2.5,-2.5c0,-0.15349 0.01383,-0.30375 0.04032,-0.44959c-0.85128,-0.29853 -1.35218,-1.04988 -1.35218,-1.04988zM263.39085,141.80193c-0.00039,-0.11618 -0.01986,-0.10481 -0.05277,-0.02047c0.01769,0.0069 0.03528,0.01399 0.05277,0.02128c0,-0.00027 0,-0.00054 0,-0.00081z" fill="#ffffff" stroke="none" stroke-width="0.5"/><path d="M234.09872,184.06113c-6.1785,5.45617 -10.64942,5.51685 -19.28778,6.4186c-3.13163,0.32513 -6.2359,0.60797 -9.16778,1.10624c-9.81465,1.66798 -19.006,-12.68568 -6.92139,-24.03154c6.51678,-6.1184 34.70736,3.92894 35.37695,16.50669z" fill="#000000" stroke="#272525" stroke-width="2.5"/></g></g></svg>