<svg version="1.1" xmlns="http://www.w3.org/2000/svg" xmlns:xlink="http://www.w3.org/1999/xlink" width="93.85297" height="78.68529" viewBox="0,0,93.85297,78.68529"><defs><radialGradient cx="251.01596" cy="162.52579" r="23.64358" gradientUnits="userSpaceOnUse" id="color-1"><stop offset="0" stop-color="#4fffca"/><stop offset="1" stop-color="#27727e"/></radialGradient><radialGradient cx="220.86218" cy="169.43716" r="25.30813" gradientUnits="userSpaceOnUse" id="color-2"><stop offset="0" stop-color="#4fffca"/><stop offset="1" stop-color="#27727e"/></radialGradient></defs><g transform="translate(-183.95564,-123.61133)"><g data-paper-data="{&quot;isPaintingLayer&quot;:true}" fill-rule="nonzero" stroke-linejoin="miter" stroke-miterlimit="10" stroke-dasharray="" stroke-dashoffset="0" style="mix-blend-mode: normal"><path d="M255.83447,139.59177c9.14317,-2.32926 10.42327,6.74447 10.42327,6.74447l-4.90507,19.00714c0,0 22.32114,19.35517 12.8758,20.84654c-9.44534,1.49137 -31.10185,-2.17928 -36.17487,-17.16774c-5.07302,-14.98846 5.64769,-26.33942 17.78087,-29.4304z" fill="url(#color-1)" stroke="#000000" stroke-width="2.5" stroke-linecap="round"/><path d="M236.24693,135.22636c0,3.39586 -2.54132,7.20281 -8.9906,7.20281c-6.44928,0 -14.36429,-3.80696 -14.36429,-7.20281c0,-3.39586 11.63527,-10.36503 18.08454,-10.36503c6.44928,0 5.27035,6.96917 5.27035,10.36503z" fill="#27727e" stroke="#000000" stroke-width="2.5" stroke-linecap="butt"/><path d="M217.99671,135.64555c18.06001,0 32.70054,14.64053 32.70054,32.70054c0,18.06001 -14.64053,32.70054 -32.70054,32.70054c-13.25342,0 -24.6653,-7.88455 -29.80096,-19.21895c1.00135,0.3366 2.07352,0.51901 3.18829,0.51901c5.52285,0 10,-4.47715 10,-10c0,-5.52285 -4.47715,-10 -10,-10c-2.17558,0 -4.1889,0.69475 -5.83019,1.87449c2.02805,-16.11273 15.78002,-28.57562 32.44286,-28.57562z" fill="#27727e" stroke="#000000" stroke-width="2.5" stroke-linecap="butt"/><path d="M220.91924,143.81943c13.97118,0.41317 24.96213,12.07399 24.54896,26.04518c-0.41317,13.97118 -12.07399,24.96213 -26.04518,24.54896c-9.43184,-0.27893 -17.50543,-5.68397 -21.62898,-13.46535c3.49115,-1.47608 4.24807,-4.93446 4.36745,-8.97102c0.1461,-4.94027 -1.57792,-9.09802 -6.26378,-10.04518c3.17612,-10.75691 13.28341,-18.45971 25.02154,-18.11258z" fill="url(#color-2)" stroke="none" stroke-width="0" stroke-linecap="butt"/><path d="M189.75374,159.12732c0,-1.38071 1.11929,-2.5 2.5,-2.5c1.38071,0 2.5,1.11929 2.5,2.5c0,1.38071 -1.11929,2.5 -2.5,2.5c-1.38071,0 -2.5,-1.11929 -2.5,-2.5z" fill="#000000" stroke="none" stroke-width="0.5" stroke-linecap="butt"/><path d="M204.19068,160.86671c0,-1.38071 1.11929,-2.5 2.5,-2.5c1.38071,0 2.5,1.11929 2.5,2.5c0,1.38071 -1.11929,2.5 -2.5,2.5c-1.38071,0 -2.5,-1.11929 -2.5,-2.5z" fill="#000000" stroke="none" stroke-width="0.5" stroke-linecap="butt"/><path d="M240.43485,172.08577c0,4.08271 -5.06188,7.39241 -11.30604,7.39241c-6.24415,0 -11.30604,-3.30969 -11.30604,-7.39241c0,-4.08271 5.06188,-7.39241 11.30604,-7.39241c6.24415,0 11.30604,3.30969 11.30604,7.39241z" fill="#27727e" stroke="#000000" stroke-width="2.5" stroke-linecap="butt"/><path fill="#27727e" stroke="none" stroke-width="0.5" stroke-linecap="butt"/></g></g></svg>