<svg version="1.1" xmlns="http://www.w3.org/2000/svg" xmlns:xlink="http://www.w3.org/1999/xlink" width="63.37651" height="23.74914" viewBox="0,0,63.37651,23.74914"><g transform="translate(-233.81175,-51.77977)"><g data-paper-data="{&quot;isPaintingLayer&quot;:true}" fill-rule="nonzero" stroke-linejoin="miter" stroke-miterlimit="10" stroke-dasharray="" stroke-dashoffset="0" style="mix-blend-mode: normal"><g><path d="M283.00991,64.86375c0,0 4.45957,-3.81152 8.24329,-0.8825c2.05082,0.91859 3.93506,6.33739 3.93506,6.33739" fill="none" stroke="#000000" stroke-width="4" stroke-linecap="round"/><path d="M247.04573,70.03744v-10.02176h36.78875v10.02176z" fill="#ffffff" stroke="#cecece" stroke-width="2" stroke-linecap="butt"/><path d="M235.43825,64.35631l11.79777,-9.26062v18.39437z" fill="#ff0000" stroke="#cf0000" stroke-width="2" stroke-linecap="butt"/><path d="M249.77318,69.93806l4.05945,-10.02176h3.67887l-4.05945,10.02176z" fill="#ff0000" stroke="#cf0000" stroke-width="2" stroke-linecap="butt"/><path d="M257.89207,69.93806l4.05945,-10.02176h3.67887l-4.05945,10.02176z" fill="#ff0000" stroke="#cf0000" stroke-width="2" stroke-linecap="butt"/><path d="M273.62243,70.06493l4.05945,-10.02176h3.67887l-4.05945,10.02176z" fill="#ff0000" stroke="#cf0000" stroke-width="2" stroke-linecap="butt"/><path d="M266.13783,69.93806l4.05945,-10.02176h3.67887l-4.05945,10.02176z" fill="#ff0000" stroke="#cf0000" stroke-width="2" stroke-linecap="butt"/><path d="M273.42813,70.55798c-0.28628,0.82702 -2.46868,0.82232 -4.87455,-0.01047c-2.40586,-0.8328 -4.12413,-2.17835 -3.83786,-3.00536c0.28628,-0.82702 2.46868,-0.82232 4.87454,0.01047c2.40586,0.8328 4.12414,2.17835 3.83786,3.00536z" fill="#ff0000" stroke="#cf0000" stroke-width="2" stroke-linecap="butt"/><path d="M262.07838,59.53574l10.65605,-5.45488l-2.79087,5.45488z" fill="#ff0000" stroke="#cf0000" stroke-width="2" stroke-linecap="butt"/><path d="M241.27371,62.19975c0,-0.56049 0.45437,-1.01486 1.01486,-1.01486c0.56049,0 1.01486,0.45437 1.01486,1.01486c0,0.56049 -0.45437,1.01486 -1.01486,1.01486c-0.56049,0 -1.01486,-0.45437 -1.01486,-1.01486z" fill="#000000" stroke="none" stroke-width="0.5" stroke-linecap="butt"/><path d="M245.55968,67.05241c0,0 -1.48507,0.80228 -2.32494,0.99154c-0.87434,0.19704 -2.82186,0.1683 -2.82186,0.1683" data-paper-data="{&quot;index&quot;:null}" fill="none" stroke="#000000" stroke-width="2" stroke-linecap="round"/></g></g></g></svg>