<svg version="1.1" xmlns="http://www.w3.org/2000/svg" xmlns:xlink="http://www.w3.org/1999/xlink" width="78.39466" height="61.62031" viewBox="0,0,78.39466,61.62031"><g transform="translate(-200.62633,-149.23262)"><g data-paper-data="{&quot;isPaintingLayer&quot;:true}" fill-rule="nonzero" stroke-linejoin="miter" stroke-miterlimit="10" stroke-dasharray="" stroke-dashoffset="0" style="mix-blend-mode: normal"><path d="M258.84696,179.24464l8.80833,-11.73334l8.62857,-0.15238l1.4381,32.30476l-10.42619,1.52381z" fill="#333333" stroke="#000000" stroke-width="2.5" stroke-linecap="round"/><path d="M239.97196,163.0625l-14.75,-4.625l4.75,-7.875l25,2.75z" fill="#333333" stroke="#000000" stroke-width="2.5" stroke-linecap="round"/><path d="M229.59697,209.4375l-24.8476,-12.43689l4.84694,-1.39289c0,0 5.83665,-4.57085 5.62566,-7.17022c-0.40963,-5.04654 -5.86434,-7.73555 -5.86434,-7.73555l-7.07959,-0.74678l3.94393,-12.51767l9.875,-13.5l21.125,2.375l29,23.625l3.25,7z" fill="#333333" stroke="#000000" stroke-width="2.5" stroke-linecap="round"/><path d="M235.79018,176.18751c0,0 3.77831,0.15236 7.2261,1.16666c3.44779,1.01429 7.44706,3.15 7.44706,3.15l4.63362,6.53333l-3.01888,4.9l-10.10973,-0.58334c0,0 -3.84193,-0.69827 -7.24985,-1.75c-3.40792,-1.05173 -7.49351,-2.8 -7.49351,-2.8l-3.86136,-4.66666l3.08909,-5.71667l9.33746,-0.23333z" fill="#333333" stroke="#000000" stroke-width="2.5" stroke-linecap="round"/><path d="M211.22196,172.4375c0,-1.38071 1.11929,-2.5 2.5,-2.5c1.38071,0 2.5,1.11929 2.5,2.5c0,1.38071 -1.11929,2.5 -2.5,2.5c-1.38071,0 -2.5,-1.11929 -2.5,-2.5z" fill="#000000" stroke="none" stroke-width="0.5" stroke-linecap="butt"/></g></g></svg>