<svg version="1.1" xmlns="http://www.w3.org/2000/svg" xmlns:xlink="http://www.w3.org/1999/xlink" width="89.55156" height="90.50142" viewBox="0,0,89.55156,90.50142"><g transform="translate(-195.69788,-134.75)"><g data-paper-data="{&quot;isPaintingLayer&quot;:true}" fill-rule="nonzero" stroke-linecap="butt" stroke-linejoin="miter" stroke-miterlimit="10" stroke-dasharray="" stroke-dashoffset="0" style="mix-blend-mode: normal"><path d="M232.24242,169.98393c-2.26112,-9.57564 -23.84485,-17.93468 -14.2692,-20.19579c3.57367,-0.84386 23.53445,4.09017 26.73139,5.2917c5.36927,2.01798 -10.20107,24.47974 -12.46218,14.90409z" data-paper-data="{&quot;index&quot;:null}" fill="#ffd983" stroke="#dcbc70" stroke-width="2.5"/><path d="M199.23809,224.00142c-0.82848,0 -1.65697,-0.31925 -2.29021,-0.94721c-1.26384,-1.26384 -1.26384,-3.31657 0,-4.58041l19.84141,-19.84141c1.26648,-1.26384 3.31393,-1.26384 4.58041,0c1.26648,1.26384 1.26648,3.31657 0,4.58041l-19.84141,19.84141c-0.63323,0.6306 -1.46172,0.94721 -2.29021,0.94721z" data-paper-data="{&quot;index&quot;:null}" fill="#d99e82" stroke="#ae7e68" stroke-width="2.5"/><path d="M199.23809,224.00142c-0.82848,0 -1.65697,-0.31925 -2.29021,-0.94985c-1.26384,-1.26384 -1.26384,-3.31657 0,-4.58041l80.84584,-80.84584c1.26384,-1.26384 3.31657,-1.26384 4.58041,0c1.26384,1.26384 1.26384,3.31657 0,4.58041l-80.84584,80.84848c-0.63323,0.6306 -1.46172,0.94721 -2.29021,0.94721z" data-paper-data="{&quot;index&quot;:null}" fill="#d99e82" stroke="#ae7e68" stroke-width="2.5"/><path d="M266.18438,136c9.83892,0 17.81506,7.97614 17.81506,17.81506c0,1.97695 -13.07346,-3.60644 -13.28202,4.72821c-0.20317,8.11954 9.9891,6.64812 9.9891,6.64812c0,0 -0.0993,0.50931 -0.09882,0.86871c-0.4631,1.56588 -10.83864,5.57002 -14.42332,5.57002c-9.83892,0 -17.81506,-7.97614 -17.81506,-17.81506c0,-9.83892 7.97614,-17.81506 17.81506,-17.81506z" data-paper-data="{&quot;index&quot;:null}" fill="#a6d388" stroke="#89af70" stroke-width="2.5"/><path d="M229.40639,177.34947c-2.26112,-9.57564 3.66847,-19.17124 13.24412,-21.43235c9.57564,-2.26112 19.17124,3.66847 21.43235,13.24412c2.26112,9.57564 -3.66847,19.17124 -13.24412,21.43235c-9.57564,2.26112 -19.17124,-3.66847 -21.43235,-13.24412z" data-paper-data="{&quot;index&quot;:null}" fill="#ffd983" stroke="#dcbc70" stroke-width="2.5"/><path d="M227.3142,174.87018c9.83892,0 17.81506,7.97614 17.81506,17.81506c0,9.83891 -7.97614,17.81769 -17.81506,17.81769c-9.83891,0 -17.81769,-7.97877 -17.81769,-17.81769c0,-9.83628 7.97877,-17.81506 17.81769,-17.81506z" data-paper-data="{&quot;index&quot;:null}" fill="#fcb1e3" stroke="#dc9ac6" stroke-width="2.5"/><path d="M241.60941,177.90763c1.65955,1.83701 5.67515,0.91387 8.96909,-2.06187c3.29394,-2.97574 4.61888,-6.87725 2.95933,-8.71426c-1.65955,-1.83701 -5.67515,-0.91387 -8.96909,2.06187c-3.29394,2.97574 -4.61887,6.87725 -2.95932,8.71426z" fill="#ffd983" stroke="#dcbc70" stroke-width="2.5"/><path d="M275.34502,148.4036c0,-1.18323 0.9592,-2.14243 2.14243,-2.14243c1.18323,0 2.14243,0.95919 2.14243,2.14243c0,1.18323 -0.9592,2.14242 -2.14243,2.14242c-1.18323,0 -2.14243,-0.95919 -2.14243,-2.14242z" fill="#000000" stroke="none" stroke-width="0"/></g></g></svg>