<svg version="1.1" xmlns="http://www.w3.org/2000/svg" xmlns:xlink="http://www.w3.org/1999/xlink" width="248.70972" height="266.24778" viewBox="0,0,248.70972,266.24778"><defs><radialGradient cx="241.93176" cy="181.93322" r="90.5" gradientUnits="userSpaceOnUse" id="color-1"><stop offset="0" stop-color="#00a7ff"/><stop offset="1" stop-color="#00a7ff" stop-opacity="0"/></radialGradient></defs><g transform="translate(-106.82193,-49.31246)"><g data-paper-data="{&quot;isPaintingLayer&quot;:true}" fill-rule="nonzero" stroke="none" stroke-linecap="butt" stroke-linejoin="miter" stroke-miterlimit="10" stroke-dasharray="" stroke-dashoffset="0" style="mix-blend-mode: normal"><path d="M223.18176,176.43322c0,-0.69036 0.55965,-1.25 1.25,-1.25c0.69035,0 1.25,0.55964 1.25,1.25c0,0.69036 -0.55965,1.25 -1.25,1.25c-0.69035,0 -1.25,-0.55964 -1.25,-1.25z" fill="#ffffff" stroke-width="0.5"/><path d="M322.18176,212.43322c0,-0.69036 0.55964,-1.25 1.25,-1.25c0.69036,0 1.25,0.55964 1.25,1.25c0,0.69036 -0.55964,1.25 -1.25,1.25c-0.69036,0 -1.25,-0.55964 -1.25,-1.25z" fill="#ffffff" stroke-width="0.5"/><path d="M151.43176,181.93322c0,-49.98177 40.51823,-90.5 90.5,-90.5c49.98177,0 90.5,40.51823 90.5,90.5c0,49.98177 -40.51823,90.5 -90.5,90.5c-49.98177,0 -90.5,-40.51823 -90.5,-90.5z" fill="url(#color-1)" stroke-width="0"/><path d="M317.40871,187.67586c42.81355,28.24199 40.13907,63.82783 35.88402,70.2091c-4.25505,6.38127 -10.19424,-34.49058 -44.98919,-57.69199c-33.48196,-22.3259 -74.80906,-12.97139 -70.55401,-19.35266c4.25505,-6.38127 39.96236,-19.25508 79.65918,6.83555z" data-paper-data="{&quot;index&quot;:null}" fill="#00a7ff" stroke-width="0"/><path d="M222.67291,257.04563c-34.27732,38.15332 -69.07338,30.23253 -74.75329,25.07842c-5.6799,-5.15411 35.62079,-4.96809 63.72442,-35.93872c27.04313,-29.80195 23.91905,-72.05922 29.59896,-66.90511c5.67991,5.1541 13.11757,42.37543 -18.57009,77.76542z" data-paper-data="{&quot;index&quot;:null}" fill="#00a7ff" stroke-width="0"/><path d="M193.63637,124.10128c-9.74391,-50.3554 17.56751,-73.32476 25.10479,-74.74444c7.53728,-1.41967 -17.53065,31.40381 -9.78963,72.50211c7.44892,39.54746 43.03243,62.55288 35.49515,63.97256c-7.53728,1.41968 -41.70753,-15.1073 -50.81031,-61.73023z" data-paper-data="{&quot;index&quot;:null}" fill="#00a7ff" stroke-width="0"/><path d="M282.14577,245.58819c1.85025,51.25609 -28.68083,69.73197 -36.34694,69.97057c-7.66611,0.23861 22.17025,-28.31965 20.86923,-70.12038c-1.25194,-40.22338 -32.85564,-68.44822 -25.18953,-68.68683c7.66611,-0.23861 38.874,21.36725 40.66724,68.83664z" data-paper-data="{&quot;index&quot;:null}" fill="#00a7ff" stroke-width="0"/><path d="M170.67142,208.70319c-50.96396,-5.76932 -64.70919,-38.70218 -63.80859,-46.31894c0.90059,-7.61676 24.71978,26.12384 66.25145,31.03448c39.96447,4.72533 72.56288,-22.34457 71.6623,-14.72781c-0.90059,7.61676 -26.89449,35.27655 -74.10515,30.01226z" data-paper-data="{&quot;index&quot;:null}" fill="#00a7ff" stroke-width="0"/><path d="M262.08017,107.8976c35.35092,-37.16077 69.90707,-28.25137 75.43775,-22.93746c5.53068,5.31391 -35.74793,3.95073 -64.72292,34.10772c-27.88161,29.01901 -25.96332,71.34815 -31.494,66.03425c-5.53068,-5.31391 -11.90437,-42.73212 20.77917,-77.2045z" data-paper-data="{&quot;index&quot;:null}" fill="#00a7ff" stroke-width="0"/></g></g></svg>