<svg version="1.1" xmlns="http://www.w3.org/2000/svg" xmlns:xlink="http://www.w3.org/1999/xlink" width="21.49282" height="13.72074" viewBox="0,0,21.49282,13.72074"><defs><linearGradient x1="248.50831" y1="179.71848" x2="248.50831" y2="182.86003" gradientUnits="userSpaceOnUse" id="color-1"><stop offset="0" stop-color="#e6e6e6"/><stop offset="1" stop-color="#c2c2c2"/></linearGradient><linearGradient x1="237.52269" y1="174.92016" x2="239.14926" y2="176.98008" gradientUnits="userSpaceOnUse" id="color-2"><stop offset="0" stop-color="#e6e6e6"/><stop offset="1" stop-color="#c2c2c2"/></linearGradient><linearGradient x1="238.04172" y1="177.38097" x2="238.04172" y2="186.23931" gradientUnits="userSpaceOnUse" id="color-3"><stop offset="0" stop-color="#e6e6e6"/><stop offset="1" stop-color="#c2c2c2"/></linearGradient><linearGradient x1="243.16575" y1="182.45929" x2="241.85276" y2="184.73198" gradientUnits="userSpaceOnUse" id="color-4"><stop offset="0" stop-color="#e6e6e6"/><stop offset="1" stop-color="#c2c2c2"/></linearGradient></defs><g transform="translate(-229.25359,-173.26857)"><g data-paper-data="{&quot;isPaintingLayer&quot;:true}" fill-rule="nonzero" stroke-linecap="butt" stroke-linejoin="miter" stroke-miterlimit="10" stroke-dasharray="" stroke-dashoffset="0" style="mix-blend-mode: normal"><g><path d="M247.84693,179.3878c0.82185,0 2.14948,1.03394 2.14948,1.90146c0,0.86751 -1.32763,2.23216 -2.14948,2.23216c-0.82186,0 -3.63758,-1.03395 -3.63758,-1.90147c0,-0.86751 2.81573,-2.23215 3.63758,-2.23215z" data-paper-data="{&quot;index&quot;:null}" fill="url(#color-1)" stroke="#7d7d7d" stroke-width="1.5"/><path d="M240.78214,174.01857c0.44916,0.56884 -0.28189,1.89475 -1.63287,2.96151c-1.35098,1.06677 -2.81028,1.47043 -3.25945,0.90159c-0.44916,-0.56884 0.2819,-1.89476 1.63288,-2.96152c1.35098,-1.06677 2.81028,-1.47042 3.25944,-0.90158z" data-paper-data="{&quot;index&quot;:null}" fill="url(#color-2)" stroke="#7d7d7d" stroke-width="1.5"/><path d="M246.07985,181.81014c0,2.44617 -3.59879,4.42917 -8.03813,4.42917c-4.43933,0 -8.03813,-1.983 -8.03813,-4.42917c0,-2.44617 3.59879,-4.42917 8.03813,-4.42917c4.43934,0 8.03813,1.983 8.03813,4.42917z" data-paper-data="{&quot;index&quot;:null}" fill="url(#color-3)" stroke="#7d7d7d" stroke-width="1.5"/><path d="M245.20806,185.15481c-0.36257,0.62759 -1.86479,0.43828 -3.3553,-0.42283c-1.49051,-0.86111 -2.4049,-2.06793 -2.04232,-2.69552c0.36257,-0.62759 1.8648,-0.43828 3.35531,0.42283c1.49051,0.86111 2.40489,2.06793 2.04231,2.69552z" data-paper-data="{&quot;index&quot;:null}" fill="url(#color-4)" stroke="#7d7d7d" stroke-width="1.5"/><path d="M232.21591,181.53728c0,-0.41422 0.33578,-0.75 0.75,-0.75c0.41422,0 0.75,0.33578 0.75,0.75c0,0.41422 -0.33578,0.75 -0.75,0.75c-0.41422,0 -0.75,-0.33578 -0.75,-0.75z" data-paper-data="{&quot;index&quot;:null}" fill="#000000" stroke="none" stroke-width="0.5"/></g></g></g></svg>