<svg version="1.1" xmlns="http://www.w3.org/2000/svg" xmlns:xlink="http://www.w3.org/1999/xlink" width="96.125" height="94.13741" viewBox="0,0,96.125,94.13741"><defs><linearGradient x1="238.58701" y1="226.69747" x2="238.58701" y2="190.69747" gradientUnits="userSpaceOnUse" id="color-1"><stop offset="0" stop-color="#ff491c"/><stop offset="1" stop-color="#ff6e24"/></linearGradient><linearGradient x1="272.36652" y1="149.7679" x2="272.36652" y2="197.5179" gradientUnits="userSpaceOnUse" id="color-2"><stop offset="0" stop-color="#ff491c"/><stop offset="1" stop-color="#ff6e24"/></linearGradient><linearGradient x1="230.74152" y1="133.0179" x2="230.74152" y2="169.0179" gradientUnits="userSpaceOnUse" id="color-3"><stop offset="0" stop-color="#ff491c"/><stop offset="1" stop-color="#ff6e24"/></linearGradient><linearGradient x1="227.11652" y1="156.55539" x2="227.11652" y2="211.30539" gradientUnits="userSpaceOnUse" id="color-4"><stop offset="0" stop-color="#ff491c"/><stop offset="1" stop-color="#ff6e24"/></linearGradient><linearGradient x1="237.48835" y1="184.27091" x2="233.62512" y2="198.76489" gradientUnits="userSpaceOnUse" id="color-5"><stop offset="0" stop-color="#ff491c"/><stop offset="1" stop-color="#ff6e24"/></linearGradient></defs><g transform="translate(-191.86652,-132.95434)"><g data-paper-data="{&quot;isPaintingLayer&quot;:true}" fill-rule="nonzero" stroke-linejoin="miter" stroke-miterlimit="10" stroke-dasharray="" stroke-dashoffset="0" style="mix-blend-mode: normal"><path d="M224.83702,213.69747c-3.03618,-13.35022 7.95101,-23 13.75,-23c5.79899,0 2.25,8.05888 2.25,18c0,9.94113 17.54899,16.5 11.75,16.5c-2.00074,0 -6.85521,1.52941 -11.36566,-0.12455c-1.0082,-0.36971 -1.28668,-4.69861 -2.31649,-4.95c-1.2907,-0.31507 -3.05726,3.28191 -4.25034,2.76717c-0.72636,-0.31337 0.30199,-5.11025 -0.40891,-5.38287c-1.3265,-0.50869 -4.7843,3.64548 -5.80335,2.94775c-1.64135,-1.12381 1.87605,-2.74542 0.67462,-4.41796c-0.92189,-1.28339 -3.87277,-0.54943 -4.27988,-2.33954z" fill="url(#color-1)" stroke="#8f1010" stroke-width="2.5" stroke-linecap="butt"/><path d="M286.74152,173.14289c-2.05821,26.4344 -44.56889,47.65843 -44.875,10.125c-0.11179,-13.70746 8.80826,-3.9446 17.67588,-2.58086c2.61727,0.40251 1.80625,-2.8076 4.19721,-4.7321c1.44627,-1.16411 3.74115,2.96992 5.58231,2.009c0.93556,-0.48828 -1.99604,-4.87873 -1.46565,-6.86561c0.3992,-1.49548 4.38524,-0.65395 4.38524,-1.20542c0,-1.90392 -4.40139,-3.92761 -4.63824,-5.56898c-0.17198,-1.19189 6.75448,0.94619 6.79997,-0.10521c0.0743,-1.71707 -4.21229,-3.09655 -4.66211,-4.60026c-0.52586,-1.75788 5.8549,-1.86764 5.72407,-3.25367c-0.29381,-3.11256 -6.13539,-6.59688 -3.09868,-6.59688c7.38681,0 15.7092,6.23925 14.375,23.375z" fill="url(#color-2)" stroke="#8f1010" stroke-width="2.5" stroke-linecap="butt"/><path d="M244.49153,146.01789c3.03618,13.35022 -7.95101,23 -13.75,23c-5.79899,0 -2.25,-8.05887 -2.25,-18c0,-9.94112 -17.54899,-16.5 -11.75,-16.5c1.61186,0 2.98984,2.36934 6.00896,2.46394c2.95818,0.09269 2.7197,-3.20404 6.06252,-2.7871c1.32012,0.16466 1.07842,2.83753 2.62785,3.46683c0.78409,0.31846 3.37299,-0.61715 4.23355,-0.29543c0.78538,0.29361 0.53664,3.38059 1.2466,3.75673c3.40247,1.80266 6.85637,1.75491 7.57051,4.89504z" fill="url(#color-3)" stroke="#8f1010" stroke-width="2.5" stroke-linecap="butt"/><path d="M193.11652,183.93039c0,-7.78682 2.038,-19.56429 8.52002,-24.549c2.81168,-2.1622 2.25765,10.818 6.31677,10.61659c2.05701,-0.10207 4.25359,-9.6345 7.33253,-12.47416c1.64645,-1.51848 2.95567,9.29121 4.70991,9.30194c2.54392,0.01557 5.47221,-10.27038 7.12077,-10.27038c2.2915,0 2.28005,5.43252 4.44446,5.78049c3.37192,0.5421 4.16938,-10.76041 7.26651,-9.86549c2.36082,0.68217 2.21622,10.5117 4.46368,12.28278c3.451,2.71952 4.31746,-11.44766 7.38407,-9.07627c4.41567,3.41461 10.44129,23.40922 10.44129,28.25348c0,15.1188 -15.22232,27.375 -34,27.375c-18.77768,0 -34,-12.2562 -34,-27.375z" fill="url(#color-4)" stroke="#8f1010" stroke-width="2.5" stroke-linecap="butt"/><path d="M247.21494,194.62528c-1.0668,4.0024 -7.15117,5.85576 -13.58982,4.1396c-6.43865,-1.71616 -10.79339,-6.35198 -9.72658,-10.35438c1.0668,-4.0024 7.15117,-5.85576 13.58982,-4.1396c6.43865,1.71616 10.79339,6.35198 9.72659,10.35438z" fill="url(#color-5)" stroke="#8f1010" stroke-width="2.5" stroke-linecap="butt"/><path d="M209.74152,189.0179c0,0 -1.70872,3.99832 -6.17526,5.60567c-3.97481,1.4304 -7.32474,0.39433 -7.32474,0.39433" fill="none" stroke="#8f1010" stroke-width="2.5" stroke-linecap="round"/><path d="M199.24152,181.7679c0,-1.10457 0.89543,-2 2,-2c1.10457,0 2,0.89543 2,2c0,1.10457 -0.89543,2 -2,2c-1.10457,0 -2,-0.89543 -2,-2z" fill="#000000" stroke="none" stroke-width="0.5" stroke-linecap="butt"/></g></g></svg>