<svg version="1.1" xmlns="http://www.w3.org/2000/svg" xmlns:xlink="http://www.w3.org/1999/xlink" width="282.80614" height="278" viewBox="0,0,282.80614,278"><defs><linearGradient x1="312.60692" y1="159.25" x2="312.60692" y2="246.25" gradientUnits="userSpaceOnUse" id="color-1"><stop offset="0" stop-color="#2f1405"/><stop offset="1" stop-color="#8a0000"/></linearGradient><linearGradient x1="199.10693" y1="271.75" x2="199.10693" y2="315.75" gradientUnits="userSpaceOnUse" id="color-2"><stop offset="0" stop-color="#2f1405"/><stop offset="1" stop-color="#8a0000"/></linearGradient><linearGradient x1="222.10692" y1="44.25" x2="222.10692" y2="150.25" gradientUnits="userSpaceOnUse" id="color-3"><stop offset="0" stop-color="#2f1405"/><stop offset="1" stop-color="#8a0000"/></linearGradient><linearGradient x1="194.07211" y1="99.44569" x2="194.07211" y2="271.5041" gradientUnits="userSpaceOnUse" id="color-4"><stop offset="0" stop-color="#652828"/><stop offset="1" stop-color="#451313"/></linearGradient><linearGradient x1="194.07211" y1="99.44569" x2="194.07211" y2="271.5041" gradientUnits="userSpaceOnUse" id="color-5"><stop offset="0" stop-color="#2f1405"/><stop offset="1" stop-color="#8a0000"/></linearGradient><linearGradient x1="165.89841" y1="147.73413" x2="165.89841" y2="207.76588" gradientUnits="userSpaceOnUse" id="color-6"><stop offset="0" stop-color="#8e0000"/><stop offset="1" stop-color="#ff0000"/></linearGradient><linearGradient x1="111.83333" y1="229.1" x2="111.83333" y2="236.1" gradientUnits="userSpaceOnUse" id="color-7"><stop offset="0" stop-color="#740501"/><stop offset="1" stop-color="#8a0000"/></linearGradient></defs><g transform="translate(-97.99733,-41)"><g data-paper-data="{&quot;isPaintingLayer&quot;:true}" fill-rule="nonzero" stroke-linejoin="miter" stroke-miterlimit="10" stroke-dasharray="" stroke-dashoffset="0" style="mix-blend-mode: normal"><g stroke-linecap="butt"><path d="M373.10692,272.75c0,36.80061 -51.69939,-51.5 -88.5,-51.5c-16.90166,0 -37.9379,11.38233 -47.54043,1.10356c-6.87069,-7.35455 6.04043,-13.5834 6.04043,-23.60355c0,-14.30633 2.33515,-15.99962 15.20122,-23.9278c6.4246,-3.95889 6.37679,0.18962 28.04278,-1.57307c7.80733,-0.63519 32.256,-10.99913 32.256,-10.99913c0,0 51.05924,-57.70062 58.94655,-40.20127c5.56055,12.33701 -4.44655,140.76745 -4.44655,150.70128z" fill="#e66410" stroke="url(#color-1)" stroke-width="6.5"/><path d="M305.10692,197.5v-12h32l-2,17z" fill="#ca4e06" stroke="none" stroke-width="0"/><path d="M345.10692,187.5l-15,-8l32,-11l-8,19z" fill="#ca4e06" stroke="none" stroke-width="0"/><path d="M323.10692,245.5l-8,-28h36l-1,46z" fill="#f48522" stroke="none" stroke-width="0"/><path d="M362.10692,261.5l-3,-42h12v42z" fill="#f48522" stroke="none" stroke-width="0"/><path d="M341.10692,260.5v-15h24v15z" fill="#f89e44" stroke="none" stroke-width="0"/></g><g stroke-linecap="butt"><path d="M242.10693,268.75c0,12.15026 -26.43146,47 -43,47c-16.56854,0 -26,-9.84974 -26,-22c0,-4.50256 -21.15553,-30.6892 -17.99046,-34.17576c5.37594,-5.92199 33.56178,12.17576 43.99047,12.17576c16.56854,0 43,-15.15026 43,-3z" fill="#ca4e06" stroke="url(#color-2)" stroke-width="6.5"/><path d="M178.44026,303.88332c0,0 -6.23894,-13.66897 -6.40015,-16.36915c-0.24618,-4.12349 5.06681,-5.96419 5.06681,-5.96419h20.33333l-3.66667,32c0,0 -5.74996,-0.067 -7.60467,-1.23628c-2.83106,-1.7848 -7.72867,-8.43039 -7.72867,-8.43039z" fill="#f89e44" stroke="none" stroke-width="0"/><path d="M193.44026,313.54999l3.33333,-26l13.33333,-2c0,0 8.28841,-2.02762 7.47374,2.09365c-0.44395,2.24585 -4.30021,16.86185 -7.01859,22.13056c-0.47279,0.91636 1.75044,-1.02839 1.33691,-0.46542c-2.70018,3.67594 -6.79206,3.24122 -6.79206,3.24122z" fill="#f48522" stroke="none" stroke-width="0"/><path d="M208.10693,310.88332l8.33333,-24.33333l9,2c0,0 6.23613,-2.09996 5.26768,-0.42289c-2.29507,3.97438 -21.60101,24.08956 -21.60101,24.08956z" fill="#e66410" stroke="none" stroke-width="0"/></g><g stroke-linecap="butt"><path d="M222.10692,44.25c6.65611,0 26.09527,8.11643 27.78925,18.87573c0.69426,4.40959 5.73303,24.78621 2.30036,38.14729c-1.56961,6.10944 -4.4362,11.2263 -7.36769,15.61069l-1.55964,-2.12055c-6.3383,-0.40288 -11.43707,-4.56633 -17.94045,-5.43824c-5.5423,-0.74307 -11.47886,-0.50411 -17.29766,-0.27927c-4.47344,-2.07465 -5.96628,-1.75772 -10.92417,-1.79565c-0.35146,-0.00269 -0.70504,-0.00325 -1.0605,-0.00156c-7.33442,-1.29515 -15.60784,-2.11195 -22.54132,-0.86931c-2.72657,0.48866 -5.39433,1.4755 -7.90694,2.84198c-2.2828,0.00952 -4.56548,0.02396 -6.84798,0.04489c12.14588,-18.97847 45.17184,-65.01599 63.35674,-65.01599z" fill="#ca4e06" stroke="url(#color-3)" stroke-width="6.5"/><path d="M186.10692,90.25l-1,-15l35,-30c0,0 14.4862,3.35352 13.60699,9.9476c-1.07943,8.09569 -19.60699,35.05241 -19.60699,35.05241z" fill="#f89e44" stroke="none" stroke-width="NaN"/><path d="M177.38344,87.51343c6.44961,-6.77007 14.49295,-14.26343 21.72348,-14.26343c12.70255,0 15,16.95431 15,28c0,2.70623 -0.61812,5.28691 -1.73828,7.64113c-1.44789,0.04229 -2.89633,0.09883 -4.33755,0.15452c-4.47344,-2.07465 -5.96628,-1.75772 -10.92417,-1.79565c-0.35146,-0.00269 -0.70504,-0.00325 -1.0605,-0.00156c-7.33442,-1.29515 -15.60784,-2.11195 -22.54132,-0.86931c-1.43282,0.25679 -2.8494,0.65116 -4.23576,1.1659c-0.75419,-1.97931 -1.16242,-4.09571 -1.16242,-6.29502c0,-4.75827 4.3955,-8.61303 9.27652,-13.73657z" fill="#f48522" stroke="none" stroke-width="0"/><path d="M240.10692,88.25l-18,20l-28,-10c0,0 13.08995,-26.79396 16.70937,-30.1643c5.11632,-4.76422 11.29063,0.1643 11.29063,0.1643z" fill="#e66410" stroke="none" stroke-width="0"/><path d="M251.10692,64.25l-12.5,27l-26.5,-12c0,0 12.72726,-24.63634 15.16,-27.88c1.96798,-2.62398 10.34,-0.12 10.34,-0.12z" fill="#f48522" stroke="none" stroke-width="0"/></g><path d="" fill="#cf7b28" stroke="none" stroke-width="0.5" stroke-linecap="butt"/><path d="M287.37977,195.96897c0,28.33545 -21.08442,51.85356 -48.35552,66.12301c-9.9257,5.19357 -20.67096,15.23468 -31.51749,15.23468c-12.07393,0 -53.29083,-4.3538 -71.05927,-6.49805c-20.88421,-2.52025 -28.16291,-27.01069 -35.20016,-37.64633c-3.87918,-5.86273 0.32514,-23.54238 0.32514,-28.52621c0,-16.61344 10.98835,-53.6396 20.14294,-68.99706c12.14211,-20.36925 51.51633,-36.21331 74.69118,-36.21331c21.78745,0 47.61361,12.42585 65.69016,31.58739c2.77911,2.94593 5.37505,6.05106 7.74498,9.29471c10.97399,15.01983 17.53805,40.89345 17.53805,55.64117z" fill="url(#color-4)" stroke="url(#color-5)" stroke-width="6.5" stroke-linecap="butt"/><path d="M178.28303,264.50842c0.74179,0.0559 3.57389,0.48269 3.57389,3.74158c0,3.75 -3.75,3.75 -3.75,3.75l-3.08013,-0.62982c-1.81183,-1.23603 -4.07102,-1.70678 -5.89137,-2.93024c-3.80841,-2.55967 -5.77027,-7.54766 -4.67819,-12.05151c0.35128,-1.44873 1.63183,-2.55547 2,-4c0.37682,-1.47848 -0.4297,-3.17712 0.18514,-4.57349c0.71393,-1.62142 2.45317,-2.56268 3.56452,-3.94239c0.83051,-1.03107 1.29143,-2.35926 2.24838,-3.27419c0.62598,-0.59849 1.91768,-0.36476 2.34537,-1.11782c0.37437,-0.65919 -0.29582,-1.48702 -0.44372,-2.23053c0,-3.97683 1.07104,-9.48957 0.06767,-13.29085c-1.73308,-6.56576 -5.88909,-12.09679 -10.15061,-17.25214c-0.72746,-0.88004 -1.76338,-1.51017 -2.35699,-2.48552c-1.72639,-2.83659 -2.73176,-6.42656 -4.21698,-9.40453c-2.05371,-4.11784 -4.03574,-7.84835 -5.96175,-11.91939c-1.02236,-2.16098 -0.96828,-4.68425 -1.3329,-7.04689c-0.56953,-3.69036 -2.85164,-7.41091 -4,-11c-0.08255,-7.84273 -0.94791,-16.42522 0,-24.20137c0.12755,-1.04635 0.84506,-1.95736 1,-3c0.21988,-1.47956 -0.30402,-3.04936 0.11249,-4.48601c0.38949,-1.34349 1.59287,-2.31073 2.22042,-3.56088c0.58101,-1.15744 0.58056,-2.61652 1.38853,-3.62866c0.92684,-1.16105 2.45687,-1.67818 3.60269,-2.62381c3.06913,-2.5329 6.89654,-4.89855 9.68471,-7.70987c1.18725,-1.19711 1.8489,-2.84955 3.04109,-4.04174c1.1922,-1.19219 2.82965,-1.86914 4.04174,-3.04109c1.81237,-1.75235 2.79613,-4.43725 4.98545,-5.68715c1.63169,-0.93154 3.74964,-0.24674 5.62446,-0.37011c0,0 3.75,0 3.75,3.75c0,3.75 -3.75,3.75 -3.75,3.75c-0.79184,-0.12337 -1.72871,-0.84325 -2.37554,-0.37011c-1.41567,1.03553 -1.80059,3.04685 -3.01455,4.31285c-1.14013,1.18901 -2.79343,1.79408 -3.95826,2.95891c-1.16483,1.16483 -1.78973,2.79778 -2.9589,3.95826c-2.84058,2.81945 -7.05223,5.7848 -10.31529,8.29012c-0.73084,0.56113 -1.82045,0.6577 -2.39731,1.37619c-0.51105,0.63653 -0.24813,1.64035 -0.61147,2.37134c-0.44796,0.90125 -1.50818,1.46997 -1.77958,2.43913c-0.31603,1.12851 0.2707,2.35279 0.11249,3.51399c-0.1423,1.04444 -0.86554,1.95452 -1,3c-0.8992,6.99208 0.10077,14.724 0,21.79863c1.28194,3.61433 3.33028,7.20474 4,11c0.17378,0.98478 -0.13348,2.00895 0,3c0.33938,2.51987 1.61722,2.49615 2.72785,5.08361c0.55369,1.28993 0.46505,2.79924 1.03512,4.08201c0.77002,1.73268 2.09261,3.1731 2.94237,4.8681c1.36435,2.72145 2.25374,5.9949 3.78302,8.59547c0.37757,0.64206 1.16369,0.94435 1.64301,1.51449c2.93809,3.49481 6.46954,7.70321 8.53573,11.80944c3.9102,7.77091 3.38132,15.24028 3.38132,23.64757c-0.14791,1.92316 0.38202,4.02632 -0.44372,5.76946c-0.66419,1.4021 -2.57785,1.76523 -3.65463,2.88218c-0.74958,0.77756 -1.04025,1.91314 -1.75161,2.72581c-0.69999,0.79968 -2.03204,1.07439 -2.43548,2.0576c-0.43422,1.05821 0.45667,2.31537 0.18514,3.42651c-0.77022,3.15177 -3.09166,4.069 -1.45974,7.16693c0.68129,1.29332 2.35428,1.04834 3.45763,1.60281c0.89594,0.45023 1.70807,1.04591 2.52854,1.6271z" fill="#e66410" stroke="none" stroke-width="0.5" stroke-linecap="butt"/><path d="M203.85692,105.5c0,3.75 -3.75,3.75 -3.75,3.75h-3c-2,0 -4.01091,0.20863 -6,0c-0.43365,-0.04548 -0.88589,-0.71082 -1.23053,-0.44372c-0.59183,0.45866 -0.43293,1.46282 -0.86943,2.07118c-0.62144,0.86612 -1.49892,1.51613 -2.24838,2.27419c0,0 -2.65165,2.65165 -5.3033,0c-2.65165,-2.65165 0,-5.3033 0,-5.3033c1.77387,-1.74773 2.70343,-4.44872 4.88218,-5.65463c2.23783,-1.23861 8.10592,-0.44372 10.76947,-0.44372h3c0,0 3.75,0 3.75,3.75z" fill="#f48522" stroke="none" stroke-width="0.5" stroke-linecap="butt"/><path d="M298.85692,213.5c0,3.75 -3.75,3.75 -3.75,3.75l-2.18585,-0.19244c-0.24683,-0.08228 -0.53547,-0.17004 -0.85672,-0.2634c-2.2229,3.30812 -7.23581,6.01632 -10.99958,1.89851c-0.72629,-0.79461 -0.20955,-4.05602 0.61464,-6.82932c-0.20864,-0.63712 -0.33619,-1.45088 -0.3786,-2.34553c-0.52503,0.18467 -1.06,0.32978 -1.59319,0.43376c-0.71276,0.13899 -1.47442,-0.45971 -2.16562,-0.23703c-0.45126,0.14538 -0.4606,0.83988 -0.78341,1.1871c-0.83782,0.90115 -1.63576,1.88771 -2.68016,2.53829c-0.8947,0.55733 -2.11649,0.42508 -3,1c-1.7351,1.12905 -2.83371,3.02062 -4.31984,4.46171c-0.88335,0.85657 -1.63402,1.89052 -2.68016,2.53829c-0.79599,0.49289 -1.95808,0.21307 -2.69526,0.79021c-0.72551,0.568 -0.7939,1.6832 -1.37619,2.3973c-1.17052,1.43551 -5.68968,4.52 -6.31094,6.70924c-0.229,0.80697 0.24972,1.68645 0.11248,2.51399c-0.38923,2.34713 -1.69076,4.49593 -1.97967,6.85751c-0.2147,1.7549 -0.302,3.58312 -0.36621,5.42324l0.20186,-0.06728l0.97232,2.91696c0.14248,0.3963 0.22012,0.82353 0.22012,1.2689c0,2.07107 -1.67893,3.75 -3.75,3.75c-1.03553,0 -1.97304,-0.41974 -2.65165,-1.09835l-2,-2l0.30236,-0.30236l-0.84065,-0.3778c-0.75208,-2.08178 -1.4889,-4.16935 -2.19417,-6.26746l-1.17345,-1.51818c-0.67728,-2.12249 -0.78796,-4.38587 -1.14402,-6.58517c-0.66541,-4.1102 -2.55884,-7.98903 -3.03017,-12.23117c-0.23132,-2.08201 0.87286,-4.3194 0.14266,-6.28283c-0.35082,-0.94332 -1.3232,-1.54211 -1.77959,-2.43912c-1.20814,-2.37457 -2.21802,-4.85 -3.14839,-7.34652c-0.43455,-1.16607 -0.24009,-2.54831 -0.84336,-3.63671c-1.10626,-1.99589 -3.33109,-3.30413 -4.17818,-5.42306c-0.63784,-1.59551 0.32716,-3.47832 -0.05049,-5.15458c-0.19143,-0.84969 -1.10803,-1.34915 -1.5797,-2.08138c-0.98595,-1.53061 -1.69506,-3.24061 -2.78698,-4.69752c-0.9289,-1.2394 -2.38693,-2.0397 -3.23417,-3.33631c-0.43129,-0.66003 -0.04552,-1.65018 -0.46171,-2.31984c-0.16721,-0.26906 -0.63269,0.03328 -0.94904,0.04993c-4.5881,0 -9.0821,-1.83124 -13.79863,-1c-1.03809,0.18295 -1.95896,0.83464 -3,1c-1.97524,0.31374 -4.03035,-0.34713 -6,0c-1.03809,0.18295 -1.95896,0.83464 -3,1c-5.61335,0.8916 -11.5909,-0.58341 -17.23117,0.03018c-2.65589,0.28893 -5.12357,1.59587 -7.76883,1.96982c-0.4418,0.06245 -7.84184,0.04843 -8.60068,0.04843c0,0 -3.75,0 -3.75,-3.75c0,-3.75 3.75,-3.75 3.75,-3.75c2.46649,0 4.95829,0.40194 7.39932,0.04842c2.79677,-0.40504 5.42309,-1.7129 8.23117,-2.03017c5.43849,-0.61447 11.3951,0.97724 16.76883,0.03017c1.03809,-0.18295 1.95896,-0.83464 3,-1c1.97524,-0.31374 4.03035,0.34713 6,0c1.03809,-0.18295 1.95896,-0.83464 3,-1c5.56816,-0.88442 10.80836,1 16.20137,1c1.68366,0.68331 3.67986,0.8576 5.05097,2.04993c1.00328,0.87247 0.79181,2.57991 1.53829,3.68015c0.71864,1.0592 1.9975,1.63998 2.76583,2.6637c1.24055,1.65291 2.13561,3.53889 3.21302,5.30249c0.80038,1.31013 2.01955,2.43657 2.4203,3.91862c0.42162,1.55923 -0.6507,3.34584 -0.05049,4.84542c0.73858,1.84527 2.85484,2.84044 3.82183,4.57694c0.73204,1.31458 0.6256,2.95545 1.15664,4.36328c0.8516,2.25767 1.78607,4.48855 2.85161,6.65348c0.61771,1.25503 1.80454,2.22531 2.22041,3.56088c0.42513,1.3653 -0.02453,6.2126 0.14266,7.71717c0.37946,3.4149 1.72717,6.57013 2.55509,9.83753c0.00388,-0.02287 0.00774,-0.04577 0.01158,-0.06869c0.19205,-1.14664 -0.28155,-2.39221 0.11248,-3.48601c1.48219,-4.11438 5.02516,-6.15455 7.68906,-9.29076c0.96177,-1.13229 1.47037,-2.66639 2.62381,-3.60269c0.91077,-0.73932 2.28897,-0.62301 3.30474,-1.20979c2.58404,-1.49274 4.54044,-5.32906 7,-7c0.87191,-0.59235 2.08417,-0.4781 3,-1c1.80516,-1.02869 2.62948,-3.44975 4.53642,-4.27461c0.00832,-0.0036 0.01665,-0.00715 0.02499,-0.01066c0.92352,-2.0248 3.41007,-2.0248 3.41007,-2.0248c1.18733,0 2.37466,0 3.56199,0c0.09119,-0.09218 0.18625,-0.18786 0.28642,-0.28706c-0.17022,-1.29179 0.10399,-2.66846 1.10943,-4.1556c1.00845,-1.49159 3.23754,-1.5766 4.8563,-2.3649l2.91696,-0.97232c0.3963,-0.14248 0.82353,-0.22012 1.2689,-0.22012c1.24738,0 2.35251,0.60903 3.03425,1.54596c0.85983,-0.37344 1.69944,-0.76689 2.3141,-1.44761l2.9746,-1.70245c0,0 3.3541,-1.67705 5.03115,1.67705c1.67705,3.3541 -1.67705,5.03115 -1.67705,5.03115l-1.0254,0.29755c-0.48909,0.4632 -0.93239,0.98583 -1.40511,1.47029c0.32017,0.55227 0.50346,1.19376 0.50346,1.87806c0,2.07107 -1.67893,3.75 -3.75,3.75h-1.80011c-0.79051,0.92026 -2.00094,1.97605 -3.37501,2.83084c0.00573,0.32539 0.0058,0.64909 0.00208,0.96827c0.78357,0.30904 1.56462,0.62857 2.35889,0.89333l-0.18585,-0.19244c0,0 3.75,0 3.75,3.75z" fill="#e66410" stroke="none" stroke-width="0.5" stroke-linecap="butt"/><g stroke="#2f1405" stroke-width="1" stroke-linecap="butt"><path d="M194.05438,189.55953c0,12.77268 -15.48323,19.19047 -33.40539,19.19047c-17.92216,0 -27.58763,-12.40192 -27.58763,-25.1746c0,-12.77268 8.71103,-32.88889 26.63319,-32.88889c10.74312,0 26.06798,6.3025 32.79831,18.83325c4.49751,8.37362 1.56153,14.92344 1.56153,20.03977z" fill="#ffffff"/><path d="M187.3733,177.75c0,16.5773 -11.19601,30.01588 -21.47489,30.01588c-10.27889,0 -22.42933,-13.43857 -22.42933,-30.01588c0,-16.5773 12.15045,-30.01587 22.42933,-30.01587c10.27889,0 21.47489,13.43857 21.47489,30.01587z" fill="url(#color-6)"/><path d="M189.31634,163.50211c-2.53506,-2.44144 -13.17622,-6.91083 -16.73685,-6.91083c-6.20335,0 -15.5594,-2.85175 -21.54895,1.33807c-13.09628,9.16112 -16.92362,15.66194 -16.92362,15.66194c0,0 -3.24665,-26.84127 16.52045,-26.84127c11.42172,0 53.09497,5.10284 62.06982,17.57963c4.17771,5.80785 -3.2206,19.25314 -11.21904,26.96464c-4.55631,4.39285 -9.33265,0.99425 -9.33265,2.20176c0,0 8.70931,-18.88155 -2.82916,-29.99394z" fill="#2f1405"/><path d="M169.23895,179.22619c0,2.44583 -2.13659,4.42857 -4.7722,4.42857c-2.63561,0 -4.77219,-1.98274 -4.77219,-4.42857c0,-2.44583 2.13658,-4.42857 4.77219,-4.42857c2.63561,0 4.7722,1.98274 4.7722,4.42857z" fill="none"/></g><path d="M102.5,229.1l21.66667,3" fill="none" stroke="url(#color-7)" stroke-width="6.5" stroke-linecap="round"/></g></g></svg>