<svg version="1.1" xmlns="http://www.w3.org/2000/svg" xmlns:xlink="http://www.w3.org/1999/xlink" width="84.67399" height="66.11982" viewBox="0,0,84.67399,66.11982"><g transform="translate(-197.76091,-147.37111)"><g data-paper-data="{&quot;isPaintingLayer&quot;:true}" fill-rule="nonzero" stroke-linejoin="miter" stroke-miterlimit="10" stroke-dasharray="" stroke-dashoffset="0" style="mix-blend-mode: normal"><path d="M257.60301,201.02451c0,5.99377 -6.78362,11.20056 -6.78362,11.20056c0,0 -5.85688,-0.21753 -9.76211,-1.97025c-4.64095,-2.08293 -7.45786,-5.97543 -7.45786,-9.23031c0,-5.99377 5.37339,-10.85269 12.00179,-10.85269c6.62841,0 12.00179,4.85891 12.00179,10.85269z" fill="#ff5d00" stroke="#000000" stroke-width="2.5" stroke-linecap="butt"/><path d="M249.64604,158.97549c0,5.99377 -5.37339,10.85268 -12.00179,10.85268c-6.62841,0 -12.00179,-4.85891 -12.00179,-10.85268c0,-2.90675 1.75813,-6.11963 5.71917,-7.9414c4.20669,-1.93475 10.63109,-2.38946 10.63109,-2.38946c0,0 7.65332,4.3371 7.65332,10.33087z" fill="#ff5d00" stroke="#000000" stroke-width="2.5" stroke-linecap="butt"/><path d="M252.42907,184.53665c0,0 5.40982,-11.18131 8.62904,-12.47563c1.08218,-0.43511 3.78977,-4.0688 6.76862,-5.84261c5.05505,-3.01011 10.89129,-4.58775 10.89129,-4.58775c0,0 2.65656,17.02322 2.45608,24.80604c-0.16115,6.25604 -3.56693,18.31871 -3.56693,18.31871c0,0 -4.73928,1.12302 -9.39214,-1.17217c-3.82483,-1.88673 -7.53487,-7.09851 -8.99059,-8.41776c-2.82312,-2.55845 -6.79537,-10.62884 -6.79537,-10.62884z" fill="#ff5d00" stroke="#000000" stroke-width="2.5" stroke-linecap="round"/><path d="M264.93379,184.09118c-0.81297,5.22831 -6.43158,14.2395 -6.43158,14.2395c0,0 -16.78452,10.72075 -27.05168,10.72075c-5.56204,0 -16.79314,-2.2812 -16.79314,-2.2812c0,0 -4.75922,-2.52725 -6.59484,-3.93693c-2.58073,-1.9819 9.48553,-1.22784 9.59654,-4.49765c0.21689,-6.38898 -9.06183,-3.59002 -14.43302,-6.57725c-2.24983,-1.25126 -2.93881,-4.82297 -2.93881,-4.82297c0,0 -1.27636,-4.45064 -1.27636,-5.27941c0,-8.70782 9.16413,-21.21224 9.16413,-21.21224c0,0 15.45442,-5.4874 23.27549,-5.4874c7.88318,0 22.43029,8.72865 22.43029,8.72865c0,0 11.8422,15.33046 11.05297,20.40614z" fill="#2d2020" stroke="#000000" stroke-width="2.5" stroke-linecap="butt"/><path d="M249.42707,203.89811c-2.03446,0 -2.4133,-1.65561 -2.48385,-2.27222c-1.14237,-3.84139 -4.50281,-6.47415 -5.95109,-10.325c-1.09197,-2.90347 -0.25445,-5.74399 -2.13948,-8.30294c-2.087,-2.83313 -5.26332,-4.73934 -7.1856,-7.7343c-0.90874,-1.41583 -2.06868,-4.61003 -2.54978,-6.19396c-0.2522,-0.83032 -0.55227,-3.22583 -1.36817,-4.08152c-2.50993,-2.63232 -10.2177,-3.53816 -13.49804,-4.29096c0,0 -0.69659,0.65543 -0.13444,-1.78055c0.56215,-2.43598 6.47691,-2.74352 6.47691,-2.74352c4.2492,0.98565 7.75788,1.93108 10.85342,5.44962c2.68673,3.05387 2.26767,7.58696 4.43112,10.94508c1.87288,2.90709 5.12681,4.72332 7.0774,7.57234c2.39893,3.50385 1.36588,5.86061 2.73082,9.43884c1.55912,4.08729 4.87262,6.73009 6.14459,10.95835l0.09619,0.86075c0,0 0,2.5 -2.5,2.5z" fill="#ff5d00" stroke="none" stroke-width="0.5" stroke-linecap="butt"/><path d="M233.14372,191.79382c1.34219,2.10915 -0.76696,3.45134 -0.76696,3.45134l-1.71096,1.07422c-0.56669,0.32462 -1.3078,0.45172 -1.70008,0.97386c-0.76196,1.0142 1.64935,1.98994 2.09301,3.17837c0.49156,1.31673 0.82491,2.82003 0.49797,4.18696c-0.9359,3.9131 -2.98589,3.7517 -6.07852,4.79097c0,0 -2.39841,0.70542 -3.10383,-1.693c-0.70542,-2.39841 1.693,-3.10383 1.693,-3.10383c4.8154,-1.07062 1.34224,-1.4642 0.47149,-4.50037c-0.45152,-1.57438 -0.72912,-3.3865 -0.13236,-4.91177c0.51796,-1.32389 2.11347,-1.90187 3.17021,-2.8528l2.11569,-1.36093c0,0 2.10915,-1.34219 3.45134,0.76696z" fill="#ff5d00" stroke="none" stroke-width="0.5" stroke-linecap="butt"/><path d="M257.87074,183.98904l0.14068,2.33182c-0.6088,2.99963 -1.35236,7.35555 -4.17452,9.22894c-3.52834,2.34216 -9.46126,-1.12704 -11.31982,3.34344c-0.36256,0.87209 -0.4831,1.82609 -0.72464,2.73913c0,0 -0.66911,2.40879 -3.0779,1.73969c-2.40879,-0.66911 -1.73969,-3.0779 -1.73969,-3.0779c1.02651,-3.56351 2.20062,-7.19747 6.20675,-8.50724c2.17812,-0.71212 5.80866,0.9087 7.83964,-0.36894c1.44861,-0.91129 1.80566,-4.64498 2.08728,-6.07769l-0.04264,-0.16445c-2.09318,-0.25533 -2.09318,-2.47617 -2.09318,-2.47617l0.04855,-1.35999c0.19008,-0.89437 0.91444,-3.44202 0.41705,-4.42573c-0.85324,-1.68747 -3.18262,-2.2579 -4.11867,-3.90089c-1.91665,-3.36416 -1.46821,-6.67698 -1.02398,-10.2786c0,0 0.31009,-2.48069 2.79078,-2.17061c2.48069,0.31009 2.17061,2.79078 2.17061,2.79078c-0.2917,2.29954 -0.92606,4.95682 0.36753,7.11531c1.00951,1.68446 3.42635,2.30865 4.2304,4.10031c1.23107,2.74318 0.67694,4.72838 0.16931,7.24118c1.64187,0.33642 1.84644,2.1776 1.84644,2.1776z" fill="#ff5d00" stroke="none" stroke-width="0.5" stroke-linecap="butt"/><path d="M230.55248,182.18352c-0.35355,2.47487 -2.82843,2.12132 -2.82843,2.12132l-1.19443,-0.17074c-1.09452,-0.17893 -2.30308,-0.01846 -3.28355,-0.53679c-4.22199,-2.23198 -3.94437,-5.50655 -3.57473,-9.61621c0.13305,-1.47921 1.2774,-3.22012 0.42362,-4.43536c-0.99927,-1.42232 -6.68464,0.97378 -7.54616,1.77575c-3.03469,2.82492 -3.60733,6.25388 -9.03725,4.48776c-1.2652,-0.41152 -2.03104,-1.71908 -3.04656,-2.57862c0,0 -1.83701,-1.6957 -0.14131,-3.53271c1.6957,-1.83701 3.53271,-0.14131 3.53271,-0.14131c3.10228,3.35465 2.72529,0.27398 5.3101,-1.91752c2.457,-2.08314 7.20709,-3.90005 10.54246,-3.24624c4.30361,0.84361 5.07069,2.14916 5.47481,6.38586c0.20463,2.14533 -1.33812,5.53462 -0.75611,7.72965c0.24286,0.91594 1.81838,0.59199 2.76279,0.66959l1.24072,0.17714c0,0 2.47487,0.35355 2.12132,2.82843z" fill="#ff5d00" stroke="none" stroke-width="0.5" stroke-linecap="butt"/><g stroke-linecap="butt"><path d="M229.53872,175.56975c0.3553,1.44185 -0.64803,2.06227 -1.15883,2.27921c-0.875,1.15229 -2.18583,2.2023 -3.03906,2.95775l-2.04703,1.19191c0,0 -1.71541,0.95697 -2.67238,-0.75844c-0.95697,-1.71541 0.75843,-2.67238 0.75843,-2.67238l0.26966,-0.14061c-0.69877,-0.2574 -1.21994,-0.90299 -1.28054,-1.69404c-0.03225,-0.42096 0.07068,-0.82107 0.27222,-1.15769l0.23486,-0.40469c-0.36783,-0.26021 -0.68029,-0.69861 -0.73674,-1.43549c-0.15004,-1.95854 1.80851,-2.10859 1.80851,-2.10859c2.53168,-0.17314 6.81438,-0.31744 7.2998,3.24501c0.12116,0.18704 0.22178,0.41667 0.29111,0.69805z" fill="#000000" stroke="none" stroke-width="0.5"/><path d="M225.53361,180.86071c0.40357,5.26808 -3.75342,9.88222 -9.2849,10.30597c-5.53148,0.42375 -10.34279,-3.50335 -10.74636,-8.77143c-0.40357,-5.26808 3.75342,-9.88222 9.2849,-10.30597c5.53148,-0.42375 10.34279,3.50335 10.74636,8.77142z" fill="#ffffff" stroke="#000000" stroke-width="2.5"/><path d="M217.94963,182.0585c0.3661,4.7789 -1.74697,8.83758 -4.71967,9.06531c-2.9727,0.22773 -5.67933,-3.46172 -6.04543,-8.24062c-0.3661,-4.7789 1.74697,-8.83757 4.71967,-9.0653c2.9727,-0.22773 5.67933,3.46172 6.04543,8.24062z" fill="#ff0000" stroke="#000000" stroke-width="2.5"/></g><path d="M234.62417,177.16446c-2.46598,-0.411 -2.05499,-2.87698 -2.05499,-2.87698l0.45951,-2.51711c1.58242,-3.93498 3.32521,-4.95568 7.2535,-6.38381c0,0 2.35435,-0.84084 3.1952,1.51351c0.84084,2.35435 -1.51351,3.1952 -1.51351,3.1952c-2.40455,0.83964 -3.53632,0.84535 -4.22647,3.35678l-0.23625,1.65742c0,0 -0.411,2.46598 -2.87698,2.05499z" fill="#ff5d00" stroke="none" stroke-width="0.5" stroke-linecap="butt"/><path d="M255.38603,183.13451c0,4.08271 -4.94507,7.39241 -11.04513,7.39241c-6.10006,0 -11.04513,-3.30969 -11.04513,-7.39241c0,-4.08271 4.94507,-7.39241 11.04513,-7.39241c6.10006,0 11.04513,3.30969 11.04513,7.39241z" fill="#ff5d00" stroke="#000000" stroke-width="2.5" stroke-linecap="butt"/><path d="M264.93379,184.09118c-0.81297,5.22832 -6.43158,14.2395 -6.43158,14.2395c0,0 -16.78452,10.72074 -27.05168,10.72074c-5.56204,0 -16.79315,-2.28119 -16.79315,-2.28119c0,0 -4.75921,-2.52724 -6.59483,-3.93693c-2.58073,-1.9819 9.48553,-1.22784 9.59654,-4.49765c0.21689,-6.38898 -9.06183,-3.59002 -14.43302,-6.57725c-2.24983,-1.25125 -2.93881,-4.82296 -2.93881,-4.82296c0,0 -1.27635,-4.45065 -1.27635,-5.27941c0,-8.70782 9.16413,-21.21224 9.16413,-21.21224c0,0 15.45442,-5.4874 23.27549,-5.4874c7.88318,0 22.43029,8.72865 22.43029,8.72865c0,0 11.84221,15.33047 11.05297,20.40615z" fill="none" stroke="#000000" stroke-width="2.5" stroke-linecap="butt"/></g></g></svg>