<svg version="1.1" xmlns="http://www.w3.org/2000/svg" xmlns:xlink="http://www.w3.org/1999/xlink" width="205.58135" height="145.49556" viewBox="0,0,205.58135,145.49556"><g transform="translate(-137.91865,-103.61277)"><g data-paper-data="{&quot;isPaintingLayer&quot;:true}" fill-rule="nonzero" stroke-linejoin="miter" stroke-miterlimit="10" stroke-dasharray="" stroke-dashoffset="0" style="mix-blend-mode: normal"><path d="M229.90197,157.02302c-12.2715,-12.33146 -15.77682,-31.81569 -9.12174,-38.4384c6.65507,-6.62271 13.64575,9.06694 25.91725,21.39839c12.2715,12.33146 25.17685,16.63505 18.52178,23.25776c-6.65507,6.62271 -23.04579,6.1137 -35.31729,-6.21775z" data-paper-data="{&quot;index&quot;:null}" fill="#2aa923" stroke="#00951b" stroke-width="2.5" stroke-linecap="butt"/><path d="M176.6086,165.31455c19.29747,26.55991 43.30815,21.96953 37.0411,26.79207c-6.26705,4.82255 -24.76586,11.21551 -46.90706,-17.5577c-20.28896,-26.36617 -11.75194,-45.70479 -5.48489,-50.52733c6.26705,-4.82255 -4.72912,13.65605 15.35085,41.29296z" fill="#2aa923" stroke="#00951b" stroke-width="2.5" stroke-linecap="butt"/><path d="M342.25,183.30296c0,35.65295 -38.27965,64.55537 -85.5,64.55537c-47.22035,0 -85.5,-28.90242 -85.5,-64.55537c0,-35.65295 39.4273,-29.55202 86.64765,-29.55202c47.22035,0 84.35235,-6.10093 84.35235,29.55202z" fill="#2aa923" stroke="#00951b" stroke-width="2.5" stroke-linecap="butt"/><path d="M308.3693,175.11375c0,26.60821 -28.56856,48.17842 -63.80965,48.17842c-35.24109,0 -63.80965,-21.57021 -63.80965,-48.17842c0,-26.60821 29.42506,-22.05501 64.66616,-22.05501c35.24109,0 62.95315,-4.5532 62.95315,22.05501z" fill="#ff4935" stroke="#c22f00" stroke-width="2.5" stroke-linecap="butt"/><path d="M195.875,165.67917c0,-1.38071 1.11929,-2.5 2.5,-2.5c1.38071,0 2.5,1.11929 2.5,2.5c0,1.38071 -1.11929,2.5 -2.5,2.5c-1.38071,0 -2.5,-1.11929 -2.5,-2.5z" fill="#000000" stroke="none" stroke-width="0.5" stroke-linecap="butt"/><path d="M221.375,193.42917c0,-1.38071 1.11929,-2.5 2.5,-2.5c1.38071,0 2.5,1.11929 2.5,2.5c0,1.38071 -1.11929,2.5 -2.5,2.5c-1.38071,0 -2.5,-1.11929 -2.5,-2.5z" fill="#000000" stroke="none" stroke-width="0.5" stroke-linecap="butt"/><path d="M250.125,168.42917c0,-1.38071 1.11929,-2.5 2.5,-2.5c1.38071,0 2.5,1.11929 2.5,2.5c0,1.38071 -1.11929,2.5 -2.5,2.5c-1.38071,0 -2.5,-1.11929 -2.5,-2.5z" fill="#000000" stroke="none" stroke-width="0.5" stroke-linecap="butt"/><path d="M264.375,192.67917c0,-1.38071 1.11929,-2.5 2.5,-2.5c1.38071,0 2.5,1.11929 2.5,2.5c0,1.38071 -1.11929,2.5 -2.5,2.5c-1.38071,0 -2.5,-1.11929 -2.5,-2.5z" fill="#000000" stroke="none" stroke-width="0.5" stroke-linecap="butt"/><path d="M287.125,168.92917c0,-1.38071 1.11929,-2.5 2.5,-2.5c1.38071,0 2.5,1.11929 2.5,2.5c0,1.38071 -1.11929,2.5 -2.5,2.5c-1.38071,0 -2.5,-1.11929 -2.5,-2.5z" fill="#000000" stroke="none" stroke-width="0.5" stroke-linecap="butt"/><path d="M326.875,191.67917c0,-1.38071 1.11929,-2.5 2.5,-2.5c1.38071,0 2.5,1.11929 2.5,2.5c0,1.38071 -1.11929,2.5 -2.5,2.5c-1.38071,0 -2.5,-1.11929 -2.5,-2.5z" fill="#000000" stroke="none" stroke-width="0.5" stroke-linecap="butt"/><path d="M313.375,195.92917c0,0 1.52353,6.30822 8.63312,9.30871c6.77434,3.5647 12.11688,2.19129 12.11688,2.19129" fill="none" stroke="#00951b" stroke-width="2.5" stroke-linecap="round"/><path d="M237.59663,184.95693c-1.03715,4.50761 -10.93145,6.07863 -22.09955,3.50898c-11.1681,-2.56965 -19.38085,-8.3069 -18.34371,-12.81451c1.03715,-4.50761 10.93145,-6.07863 22.09955,-3.50898c11.1681,2.56965 19.38085,8.3069 18.34371,12.81451z" fill="#ff3923" stroke="#e53900" stroke-width="2.5" stroke-linecap="butt"/><path d="M190.42785,121.20086c-1.61597,8.7515 -14.85353,15.40409 -29.00623,11.82255c-14.15271,-3.58154 -23.69078,-16.96403 -22.07481,-25.71553c1.61597,-8.7515 10.15913,8.52915 24.31184,12.1107c14.15271,3.58154 28.38517,-6.96921 26.76921,1.78229z" fill="#ff4935" stroke="#c22f00" stroke-width="2.5" stroke-linecap="butt"/></g></g></svg>