<svg version="1.1" xmlns="http://www.w3.org/2000/svg" xmlns:xlink="http://www.w3.org/1999/xlink" width="85.15037" height="87.51391" viewBox="0,0,85.15037,87.51391"><g transform="translate(-205.49127,-133.488)"><g data-paper-data="{&quot;isPaintingLayer&quot;:true}" fill-rule="nonzero" stroke-linecap="butt" stroke-linejoin="miter" stroke-miterlimit="10" stroke-dasharray="" stroke-dashoffset="0" style="mix-blend-mode: normal"><path d="M248.55892,210.32326c0,5.2073 9.14071,9.42864 20.41636,9.42864c11.27564,0 20.41636,-4.22135 20.41636,-9.42864c0,-5.2073 -20.56484,-25.1678 -20.56484,-25.1678c0,0 -20.26787,19.9605 -20.26787,25.1678z" fill="#e88a82" stroke="#ad332e" stroke-width="2.5"/><path d="M264.33764,156.72775c7.45765,14.24894 22.0352,53.07826 4.07079,52.8946c-5.82504,-0.05955 -4.10042,-11.14885 -15.43242,-23.43807c-2.00303,-2.17223 -4.597,-5.4798 -7.23512,-7.83889c-5.47243,-4.89365 -13.96059,-4.59971 -18.13416,-6.73813c-3.88122,-1.98863 3.00382,-2.03159 0.41363,-8.2987c-2.95354,-7.14628 -14.93025,1.40283 -16.67628,-0.33235c-5.65706,-5.62191 -6.38791,-8.7127 -0.57625,-14.14424c6.78436,-6.34061 23.88437,-8.49852 34.39406,-5.43116c13.67872,4.48189 16.80329,8.82829 19.17574,13.32694z" fill="#e88a82" stroke="#ad332e" stroke-width="2.5"/><path d="M212.09271,154.2171c0,-1.16303 0.94282,-2.10585 2.10585,-2.10585c1.16303,0 2.10584,0.94282 2.10584,2.10585c0,1.16303 -0.94281,2.10585 -2.10584,2.10585c-1.16303,0 -2.10585,-0.94282 -2.10585,-2.10585z" fill="#000000" stroke="none" stroke-width="0"/><path d="M248.86176,138.03721c-3.67805,3.945 -4.81384,8.86401 -2.53686,10.98691c2.27698,2.1229 7.10449,0.64579 10.78254,-3.29921c3.67805,-3.945 4.81384,-8.86401 2.53686,-10.98691c-2.27698,-2.1229 -7.10449,-0.64579 -10.78254,3.29921z" fill="#e88a82" stroke="#ad332e" stroke-width="2.5"/><path d="M259.29525,161.77794c4.3075,4.70971 5.28804,10.82459 2.19009,13.65797c-3.09794,2.83338 -9.10124,1.31231 -13.40874,-3.3974c-4.3075,-4.70971 -5.28804,-10.82459 -2.19009,-13.65797c3.09794,-2.83338 9.10124,-1.31231 13.40874,3.3974z" fill="#e88a82" stroke="#ad332e" stroke-width="2.5"/></g></g></svg>