<svg version="1.1" xmlns="http://www.w3.org/2000/svg" xmlns:xlink="http://www.w3.org/1999/xlink" width="63.16159" height="43.06934" viewBox="0,0,63.16159,43.06934"><defs><linearGradient x1="143.10147" y1="243.71534" x2="143.10147" y2="264.7443" gradientUnits="userSpaceOnUse" id="color-1"><stop offset="0" stop-color="#eb7034"/><stop offset="1" stop-color="#eb8c34"/></linearGradient><linearGradient x1="108.78797" y1="258.01838" x2="108.78797" y2="279.99394" gradientUnits="userSpaceOnUse" id="color-2"><stop offset="0" stop-color="#eb7034"/><stop offset="1" stop-color="#eb8c34"/></linearGradient><linearGradient x1="106.91927" y1="270.39929" x2="157.3308" y2="270.39929" gradientUnits="userSpaceOnUse" id="color-3"><stop offset="0" stop-color="#245a84"/><stop offset="1" stop-color="#176bb2"/></linearGradient><linearGradient x1="131.90487" y1="249.7859" x2="131.90487" y2="263.08885" gradientUnits="userSpaceOnUse" id="color-4"><stop offset="0" stop-color="#eb7034"/><stop offset="1" stop-color="#eb8c34"/></linearGradient><linearGradient x1="116.88666" y1="268.02365" x2="116.88666" y2="279.55418" gradientUnits="userSpaceOnUse" id="color-5"><stop offset="0" stop-color="#eb7034"/><stop offset="1" stop-color="#eb8c34"/></linearGradient></defs><g transform="translate(-95.41922,-242.46534)"><g data-paper-data="{&quot;isPaintingLayer&quot;:true}" fill-rule="nonzero" stroke-linejoin="miter" stroke-miterlimit="10" stroke-dasharray="" stroke-dashoffset="0" style="mix-blend-mode: normal"><g><path d="M146.86906,255.77707c-2.35846,5.74298 -5.9572,9.70588 -8.03799,8.85135c-2.0808,-0.85453 -1.85568,-6.20284 0.50278,-11.94583c2.35846,-5.74298 5.9572,-9.70588 8.038,-8.85135c2.0808,0.85453 1.85568,6.20284 -0.50278,11.94583z" data-paper-data="{&quot;index&quot;:null}" fill="url(#color-1)" stroke="#a83f0d" stroke-width="2.5" stroke-linecap="butt"/><path d="M118.34346,262.48605c5.47126,0.82811 0.58133,5.3767 -0.06499,9.64695c-0.64632,4.27026 -4.04145,8.91949 -9.42684,7.64742c-6.86579,-1.62175 -14.87797,-13.20465 -11.29989,-18.74909c4.63624,-7.18411 15.32045,0.6266 20.79171,1.45472z" data-paper-data="{&quot;index&quot;:null}" fill="url(#color-2)" stroke="#a83f0d" stroke-width="2.5" stroke-linecap="butt"/><path d="M127.48524,259.26526c13.55081,-4.79336 26.48714,-3.16303 28.89412,3.64146c0.60954,1.72319 2.58399,9.9242 -1.96905,14.73687c-4.64744,4.91245 -15.85418,6.41882 -18.20866,6.26289c-14.3422,-0.94984 -26.48715,3.16303 -28.89412,-3.64146c-2.40697,-6.80449 6.6269,-16.2064 20.17771,-20.99977z" data-paper-data="{&quot;index&quot;:null}" fill="url(#color-3)" stroke="#2d4457" stroke-width="2.5" stroke-linecap="butt"/><path d="M127.61039,263.08885c0,0 -16.4394,-9.26861 -2.64611,-12.94471c9.98403,-2.66088 19.39343,10.37424 19.39343,10.37424z" data-paper-data="{&quot;index&quot;:null}" fill="url(#color-4)" stroke="#a83f0d" stroke-width="2.5" stroke-linecap="butt"/><path d="M115.30055,270.03752c5.71829,-2.41773 11.06402,-2.69811 11.93999,-0.62626c0.87598,2.07185 -3.04949,5.71134 -8.76777,8.12907c-5.71829,2.41773 -11.06402,2.69811 -11.93999,0.62627c-0.87598,-2.07185 3.04949,-5.71135 8.76777,-8.12908z" data-paper-data="{&quot;index&quot;:null}" fill="url(#color-5)" stroke="#a83f0d" stroke-width="2.5" stroke-linecap="butt"/><path d="M156.1715,274.01487c0,0 -3.1033,1.41467 -6.39067,1.37547c-2.42854,-0.02895 -5.62151,-1.66148 -5.62151,-1.66148" fill="none" stroke="#2d4457" stroke-width="2.5" stroke-linecap="round"/><path d="M144.68365,266.48344c0,-0.65814 0.53354,-1.19168 1.19169,-1.19168c0.65814,0 1.19168,0.53354 1.19168,1.19168c0,0.65814 -0.53354,1.19168 -1.19168,1.19168c-0.65814,0 -1.19169,-0.53354 -1.19169,-1.19168z" fill="#000000" stroke="none" stroke-width="0.5" stroke-linecap="butt"/><path d="M151.35709,266.29275c0,-0.65814 0.53354,-1.19168 1.19168,-1.19168c0.65814,0 1.19168,0.53354 1.19168,1.19168c0,0.65814 -0.53354,1.19168 -1.19168,1.19168c-0.65814,0 -1.19168,-0.53354 -1.19168,-1.19168z" fill="#000000" stroke="none" stroke-width="0.5" stroke-linecap="butt"/></g></g></g></svg>