<svg version="1.1" xmlns="http://www.w3.org/2000/svg" xmlns:xlink="http://www.w3.org/1999/xlink" width="65.01724" height="50.60901" viewBox="0,0,65.01724,50.60901"><g transform="translate(-208.46789,-154.52403)"><g data-paper-data="{&quot;isPaintingLayer&quot;:true}" fill-rule="nonzero" stroke-linecap="butt" stroke-linejoin="miter" stroke-miterlimit="10" stroke-dasharray="" stroke-dashoffset="0" style="mix-blend-mode: normal"><path d="M245.67439,186.99037c0,-10.69334 24.25769,-10.78119 24.25769,-10.78119c0,0 -8.5,7.99055 -8.5,11.59516c0,4.15718 8.5,11.92745 8.5,11.92745c0,0 -24.25769,-2.04808 -24.25769,-12.74142z" fill="#595959" stroke="#4d4d4d" stroke-width="2.5"/><path d="M224.95517,185.33984c0,0 -2.60993,2.45557 -7.93982,2.47948c-4.5962,0.02062 -6.94743,-1.45346 -6.94743,-1.45346c0,0 3.2457,-6.95132 5.77301,-10.19072c2.78003,-3.56332 12.2571,-8.72445 12.2571,-8.72445h20.12216l7.46468,10.06108l-7.46467,8.11378z" fill="#595959" stroke="#4d4d4d" stroke-width="2.5"/><path d="M224.4561,203.88304l-12.18832,-10.53474c0,0 4.51707,0.42944 7.58546,-1.16927c3.06839,-1.59871 4.60287,-6.47085 4.60287,-6.47085h20.12216l7.46468,10.06108l-7.46467,8.11378z" fill="#595959" stroke="#4d4d4d" stroke-width="2.5"/><path d="M218.45151,179.1495c0,-0.69036 0.55964,-1.25 1.25,-1.25c0.69036,0 1.25,0.55964 1.25,1.25c0,0.69036 -0.55964,1.25 -1.25,1.25c-0.69036,0 -1.25,-0.55964 -1.25,-1.25z" fill="#000000" stroke="none" stroke-width="0.5"/><path d="M224.33216,179.88458c0,-0.69036 0.55964,-1.25 1.25,-1.25c0.69036,0 1.25,0.55964 1.25,1.25c0,0.69036 -0.55964,1.25 -1.25,1.25c-0.69036,0 -1.25,-0.55964 -1.25,-1.25z" fill="#000000" stroke="none" stroke-width="0.5"/><path d="M254.50329,176.15086c0.97293,2.74199 -2.06368,6.32213 -6.78246,7.99647c-4.71877,1.67434 -9.3328,0.80883 -10.30573,-1.93316c-0.97293,-2.74199 2.06369,-6.32213 6.78246,-7.99646c4.71877,-1.67434 9.3328,-0.80884 10.30573,1.93315z" fill="#595959" stroke="#4d4d4d" stroke-width="2.5"/><path d="M228.76751,166.65313l12.93038,-9.2812l9.3671,-1.25497l-6.61574,10.53617z" fill="#595959" stroke="#4d4d4d" stroke-width="2.5"/></g></g></svg>