<svg version="1.1" xmlns="http://www.w3.org/2000/svg" xmlns:xlink="http://www.w3.org/1999/xlink" width="126.11962" height="106.06046" viewBox="0,0,126.11962,106.06046"><g transform="translate(-176.94019,-126.96977)"><g data-paper-data="{&quot;isPaintingLayer&quot;:true}" fill-rule="nonzero" stroke-linejoin="miter" stroke-miterlimit="10" stroke-dasharray="" stroke-dashoffset="0" style="mix-blend-mode: normal"><path d="M178.44189,189.12534c-0.19117,-61.87972 15.75943,-35.79797 30.75161,-14.42096c9.93649,14.16821 21.03183,19.76594 21.03183,19.76594c0,0 -13.55342,0.51533 -25.08409,9.31145c-13.84133,10.55878 -26.21087,38.85244 -26.68619,-12.89839c-0.00527,-0.57422 -0.01131,-1.16015 -0.01316,-1.75804z" fill="#3d121f" stroke="#d93c6c" stroke-width="3" stroke-linecap="butt"/><path d="M273.17087,153.98264c-1.08285,5.98567 -12.06031,9.01094 -24.51886,6.7571c-12.45855,-2.25382 -26.38568,-18.89484 -25.30283,-24.88051c3.1347,-17.32778 16.76561,0.95064 29.22416,3.20447c12.45855,2.25382 21.6804,8.93326 20.59755,14.91894z" fill="#3d121f" stroke="#d93c6c" stroke-width="3" stroke-linecap="butt"/><path d="M213.96055,187.7306c0,-24.18987 19.60975,-43.79963 43.79963,-43.79963c24.18987,0 43.79963,19.60975 43.79963,43.79963c0,24.18986 -19.60975,43.79963 -43.79963,43.79963c-24.18987,0 -43.79963,-19.60975 -43.79963,-43.79963z" fill="#3d121f" stroke="#d93c6c" stroke-width="3" stroke-linecap="butt"/><path d="M194.12409,168.55032c1.22688,4.8697 0.55286,9.23776 -1.50546,9.75633c-2.05832,0.51857 -4.72151,-3.00871 -5.94839,-7.8784c-1.22688,-4.8697 -0.55286,-9.23776 1.50546,-9.75633c2.05832,-0.51857 4.72151,3.00871 5.94839,7.8784z" fill="#d93c6c" stroke="#d93c6c" stroke-width="0" stroke-linecap="butt"/><path d="M240.52076,188.58805c-1.41932,4.5214 -10.44764,5.71381 -20.16529,2.66329c-9.71765,-3.05051 -16.44476,-9.18876 -15.02544,-13.71018c1.41932,-4.5214 10.44764,-5.71381 20.1653,-2.66329c9.71765,3.05051 16.44478,9.18878 15.02544,13.71019z" fill="#d93c6c" stroke="none" stroke-width="0" stroke-linecap="butt"/><path d="M294.79776,210.81337c0,0 -8.91951,-0.59587 -12.84073,-1.35167c-3.57769,-0.68958 -9.75066,-3.00267 -9.75066,-3.00267" fill="none" stroke="#d93c6c" stroke-width="2.5" stroke-linecap="round"/><path d="M276.33019,177.2738c0,-3.60726 2.92426,-6.53152 6.53152,-6.53152c3.60726,0 6.53152,2.92426 6.53152,6.53152c0,3.60726 -2.92426,6.53152 -6.53152,6.53152c-3.60726,0 -6.53152,-2.92426 -6.53152,-6.53152z" fill="#d93c6c" stroke="none" stroke-width="0" stroke-linecap="butt"/><path d="M282.22138,178.04221c0,-2.05119 1.66282,-3.71401 3.71401,-3.71401c2.05119,0 3.71401,1.66282 3.71401,3.71401c0,2.05119 -1.66282,3.71401 -3.71401,3.71401c-2.05119,0 -3.71401,-1.66282 -3.71401,-3.71401z" fill="#892644" stroke="#892644" stroke-width="0" stroke-linecap="butt"/></g></g></svg>