<svg version="1.1" xmlns="http://www.w3.org/2000/svg" xmlns:xlink="http://www.w3.org/1999/xlink" width="54.32068" height="55.81505" viewBox="0,0,54.32068,55.81505"><g transform="translate(-209.70102,-153.34224)"><g data-paper-data="{&quot;isPaintingLayer&quot;:true}" fill-rule="nonzero" stroke-linecap="butt" stroke-linejoin="miter" stroke-miterlimit="10" stroke-dasharray="" stroke-dashoffset="0" style="mix-blend-mode: normal"><path d="M225.91885,158.92668c0,0 3.04376,5.57917 7.9557,6.53898c4.91193,0.9598 5.8863,-3.11186 5.82223,-3.70478c-0.4538,-4.19981 -13.77793,-2.83419 -13.77793,-2.83419z" fill="#fcfcf2" stroke="#aeaeae" stroke-width="1.5"/><path d="M210.85728,192.4856l8.86233,-6.93765l15.31075,15.31075l-7.25843,7.25843z" fill="#fcfcf2" stroke="#aeaeae" stroke-width="1.5"/><path d="M214.48208,184.53652c0,0 11.4362,-8.86995 16.40743,-13.84119c5.0458,-5.0458 13.647,-16.21325 13.647,-16.21325c0,0 9.26048,9.42087 12.58424,12.74463c0.42937,0.42937 -3.53758,4.41853 0.15044,7.06344c3.79922,2.72466 6.16165,-0.27018 6.16165,-0.27018c0,0 -10.82103,13.22688 -15.89247,18.29832c-4.94343,4.94343 -12.0769,13.19963 -12.0769,13.19963c0,0 -5.75205,-6.71439 -9.11891,-10.08125c-3.60997,-3.60997 -11.86249,-10.90015 -11.86249,-10.90015z" fill="#fcfcf2" stroke="#aeaeae" stroke-width="1.5"/><path d="M236.24716,179.18058c-2.16095,2.16095 -2.79566,5.02984 -1.41766,6.40783c1.378,1.378 4.24688,0.74329 6.40783,-1.41766c2.16095,-2.16095 2.79566,-5.02984 1.41766,-6.40783c-1.378,-1.378 -4.24688,-0.74329 -6.40783,1.41766z" fill="#fcfcf2" stroke="#aeaeae" stroke-width="1.5"/><path d="M244.3559,163.31099c0,-0.88581 0.71809,-1.6039 1.6039,-1.6039c0.88581,0 1.6039,0.71809 1.6039,1.6039c0,0.88581 -0.71809,1.6039 -1.6039,1.6039c-0.88581,0 -1.6039,-0.71809 -1.6039,-1.6039z" fill="#000000" stroke="none" stroke-width="0"/></g></g></svg>