<svg version="1.1" xmlns="http://www.w3.org/2000/svg" xmlns:xlink="http://www.w3.org/1999/xlink" width="95.79415" height="66.68729" viewBox="0,0,95.79415,66.68729"><g transform="translate(-184.8951,-145.45522)"><g data-paper-data="{&quot;isPaintingLayer&quot;:true}" fill-rule="nonzero" stroke-linecap="butt" stroke-linejoin="miter" stroke-miterlimit="10" stroke-dasharray="" stroke-dashoffset="0" style="mix-blend-mode: normal"><path d="M221.66742,181.60371c-0.13766,6.82791 1.91848,12.70719 23.24049,12.83662c21.94246,0.13319 23.60135,-5.06152 23.73901,-11.88943c0.13766,-6.82791 -1.29804,-12.70343 -23.2405,-12.83662c-21.32201,-0.12943 -23.60135,5.06152 -23.73901,11.88944z" fill="#dfe9dc" stroke="#b2bbb0" stroke-width="2"/><path d="M187.26691,206.20132c3.38778,5.45953 8.12635,6.04095 12.21356,3.46816c7.34759,-4.62511 2.08267,-6.60151 -0.38442,-11.11208c-1.42959,-2.61371 -1.00223,-9.71095 -7.45298,-4.85371c-4.33179,2.13546 -7.76394,7.03811 -4.37616,12.49764z" fill="#dfe9dc" stroke="#b2bbb0" stroke-width="2"/><path d="M195.36309,200.79392c3.60083,5.80287 8.52572,9.61588 26.48324,-1.88076c18.48006,-11.83118 17.04431,-17.09193 13.44347,-22.89481c-3.60083,-5.80287 -8.00319,-9.95042 -26.48324,1.88075c-17.95752,11.49664 -17.0443,17.09194 -13.44347,22.89481z" fill="#dfe9dc" stroke="#b2bbb0" stroke-width="2"/><path d="M279.68907,158.57244c0.02993,6.42515 -3.6759,9.43496 -8.50544,9.42639c-8.68207,-0.01541 -5.27134,-4.4867 -5.57721,-9.61878c-0.17724,-2.97385 -4.30948,-8.75987 3.73607,-8.07138c4.80444,-0.49187 10.31665,1.83862 10.34658,8.26377z" data-paper-data="{&quot;index&quot;:null}" fill="#dfe9dc" stroke="#b2bbb0" stroke-width="2"/><path d="M269.54894,158.71649c0.03182,6.82923 -2.1152,12.67592 -23.43666,12.47486c-21.94189,-0.20692 -23.52006,-5.42671 -23.55188,-12.25594c-0.03182,-6.82923 1.49477,-12.68179 23.43666,-12.47487c21.32146,0.20106 23.52007,5.42672 23.55188,12.25595z" data-paper-data="{&quot;index&quot;:null}" fill="#dfe9dc" stroke="#b2bbb0" stroke-width="2"/><path d="M225.28571,176.30794c0,-1.06512 0.86345,-1.92857 1.92857,-1.92857c1.06512,0 1.92857,0.86345 1.92857,1.92857c0,1.06512 -0.86345,1.92857 -1.92857,1.92857c-1.06512,0 -1.92857,-0.86345 -1.92857,-1.92857z" fill="#000000" stroke="none" stroke-width="0"/><path d="M226.42857,154.16508c0,-1.06512 0.86345,-1.92857 1.92857,-1.92857c1.06512,0 1.92857,0.86345 1.92857,1.92857c0,1.06512 -0.86345,1.92857 -1.92857,1.92857c-1.06512,0 -1.92857,-0.86345 -1.92857,-1.92857z" fill="#000000" stroke="none" stroke-width="0"/><path d="M259.71429,178.09365c0,-1.10457 0.89543,-2 2,-2c1.10457,0 2,0.89543 2,2c0,1.10457 -0.89543,2 -2,2c-1.10457,0 -2,-0.89543 -2,-2z" fill="#000000" stroke="none" stroke-width="0"/></g></g></svg>