<svg version="1.1" xmlns="http://www.w3.org/2000/svg" xmlns:xlink="http://www.w3.org/1999/xlink" width="59.44044" height="60.52853" viewBox="0,0,59.44044,60.52853"><g transform="translate(-205.63171,-142.33609)"><g data-paper-data="{&quot;isPaintingLayer&quot;:true}" fill-rule="nonzero" stroke-linecap="butt" stroke-linejoin="miter" stroke-miterlimit="10" stroke-dasharray="" stroke-dashoffset="0" style="mix-blend-mode: normal"><path d="M250.54986,187.36206c-0.86812,7.47358 1.20495,13.85466 4.63034,14.25255c12.93008,1.50195 0.82173,-6.37137 1.68985,-13.84494c0.86812,-7.47358 14.22289,-11.73604 1.4539,-13.21927c-3.42539,-0.39789 -6.90597,5.33809 -7.77409,12.81166z" fill="#91c2ac" stroke="#306456" stroke-width="2.5"/><path d="M246.61731,149.29632l-1.78398,-5.51411l8.10898,-0.16218l-4.37885,14.75835z" fill="#91c2ac" stroke="#306456" stroke-width="2.5"/><path d="M206.88328,158.2162c-0.27905,-1.6187 36.77921,-15.24173 37.62569,-14.59617c2.62967,2.00549 11.03872,48.32383 8.43334,49.14045c-0.4695,0.14716 -21.74985,-13.9291 -35.22155,-24.33774c-2.07123,-1.60029 3.92996,-0.50771 2.22868,-6.90847c-1.09237,-4.10987 -12.88896,-2.27014 -13.06616,-3.29807z" fill="#91c2ac" stroke="#306456" stroke-width="2.5"/><path d="M251.15834,172.32584c0,2.3288 -2.61397,4.21667 -5.83847,4.21667c-3.2245,0 -5.83847,-1.88787 -5.83847,-4.21667c0,-2.3288 2.61397,-4.21667 5.83847,-4.21667c3.2245,0 5.83847,1.88787 5.83847,4.21667z" fill="#91c2ac" stroke="#306456" stroke-width="2.5"/><path d="M219.69548,156.18896c0,-1.03005 0.83502,-1.86507 1.86507,-1.86507c1.03005,0 1.86507,0.83502 1.86507,1.86507c0,1.03005 -0.83502,1.86507 -1.86507,1.86507c-1.03005,0 -1.86507,-0.83502 -1.86507,-1.86507z" fill="#000000" stroke="none" stroke-width="0"/></g></g></svg>