<svg version="1.1" xmlns="http://www.w3.org/2000/svg" xmlns:xlink="http://www.w3.org/1999/xlink" width="102.07774" height="91.73397" viewBox="0,0,102.07774,91.73397"><g transform="translate(-189.24704,-134.11434)"><g data-paper-data="{&quot;isPaintingLayer&quot;:true}" fill-rule="nonzero" stroke-linejoin="miter" stroke-miterlimit="10" stroke-dasharray="" stroke-dashoffset="0" style="mix-blend-mode: normal"><g><path d="M225.63331,146.96726c-0.80154,-5.48964 9.80046,-12.7666 12.28901,-11.44564c2.72598,1.447 3.69429,18.55788 -0.3031,20.83439c-1.90653,1.08577 -11.18436,-3.89911 -11.9859,-9.38875z" fill="#ede2d8" stroke="#000000" stroke-width="2.5" stroke-linecap="round"/><path d="M232.18703,145.7413c1.77463,2.70739 -8.07144,12.02185 -18.63093,15.69752c-4.95471,1.72469 -9.11114,5.08828 -13.0958,5.36214c-4.50746,0.3098 -8.60948,-2.79305 -9.96326,-6.6822c-1.43853,-4.13263 -0.21541,-9.05696 4.26692,-12.44604c3.46491,-2.61982 9.45326,-3.96282 14.05709,-5.56538c10.55949,-3.67567 21.81852,1.27313 23.36599,3.63396z" fill="#ede2d8" stroke="#000000" stroke-width="2.5" stroke-linecap="butt"/><path d="M192.94227,158.77301c-0.4539,-1.30397 0.23522,-2.72901 1.53919,-3.18291c1.30397,-0.4539 2.72901,0.23522 3.18291,1.53919c0.4539,1.30397 -0.23522,2.72901 -1.53919,3.18291c-1.30397,0.4539 -2.72901,-0.23522 -3.18291,-1.53919z" fill="#000000" stroke="none" stroke-width="0.5" stroke-linecap="butt"/><path d="M228.02997,146.61733c0.91351,2.62432 -2.24024,6.10732 -7.04408,7.7795c-4.80384,1.67218 -9.43867,0.90032 -10.35218,-1.72401c-0.91351,-2.62432 2.24024,-6.10732 7.04408,-7.7795c4.80384,-1.67218 9.43867,-0.90032 10.35218,1.72401z" fill="#ede2d8" stroke="#000000" stroke-width="2.5" stroke-linecap="butt"/></g><g><path d="M283.99258,157.5452c-0.78525,1.69309 -14.2313,-5.05349 -11.25089,-10.47308c2.98042,-5.41959 12.71525,-5.62613 15.50834,-4.39436c5.62317,2.47986 -3.4722,13.17434 -4.25745,14.86743z" fill="#ede2d8" stroke="#000000" stroke-width="2.5" stroke-linecap="round"/><g><path d="M247.96011,145.38389c4.89515,-2.92199 13.49404,-2.82732 19.55867,-2.53246c6.13479,0.29827 12.52322,3.6933 8.67843,7.99063c-0.70358,0.7864 -8.72543,1.98988 -16.65828,8.61123c-5.1083,4.26378 -11.03964,3.53826 -15.49521,0.92229c-4.45557,-2.61597 -0.97876,-12.06969 3.91639,-14.99168z" fill="#ede2d8" stroke="#000000" stroke-width="2.5" stroke-linecap="round"/><path d="M244.99311,153.96091c0.46883,-1.28688 1.8921,-1.95004 3.17898,-1.48121c1.28688,0.46883 1.95003,1.8921 1.48121,3.17898c-0.46883,1.28688 -1.8921,1.95004 -3.17897,1.48121c-1.28688,-0.46883 -1.95004,-1.8921 -1.48121,-3.17898z" fill="#000000" stroke="none" stroke-width="0.5" stroke-linecap="butt"/></g><path d="M273.12846,156.43317c-0.69631,2.39724 -4.6205,3.51909 -8.76491,2.50572c-4.14441,-1.01337 -6.93965,-3.77823 -6.24334,-6.17547c0.69631,-2.39724 4.62049,-3.51909 8.7649,-2.50571c4.14441,1.01337 6.93966,3.77822 6.24335,6.17547z" fill="#ede2d8" stroke="#000000" stroke-width="2.5" stroke-linecap="butt"/></g><g><path d="M270.94908,206.19354c-2.17316,5.03477 -15.36285,13.90918 -19.29965,10.61223c-3.9368,-3.29695 1.24067,-15.46216 5.13989,-16.89094c3.89922,-1.42878 16.33292,1.24394 14.15976,6.27871z" fill="#ede2d8" stroke="#000000" stroke-width="2.5" stroke-linecap="round"/><path d="M261.23257,205.3032c-1.35196,5.32914 -10.88412,3.02164 -17.62034,0.08209c-4.56763,-1.99322 -8.41385,-3.22201 -6.18282,-12.01627c2.23103,-8.79426 10.08957,-8.40831 14.80903,-7.5283c3.77774,0.70441 10.34609,14.13335 8.99413,19.46248z" fill="#ede2d8" stroke="#000000" stroke-width="2.5" stroke-linecap="butt"/><path d="M261.71333,205.40132c-0.53422,2.10578 -3.70655,3.11793 -7.0856,2.26069c-3.37905,-0.85724 -5.68524,-3.25924 -5.15102,-5.36503c0.53422,-2.10578 3.70655,-3.11793 7.0856,-2.26069c3.37905,0.85724 5.68524,3.25924 5.15102,5.36503z" fill="#ede2d8" stroke="#000000" stroke-width="2.5" stroke-linecap="butt"/><path d="M240.93755,193.05232c0.33952,-1.33831 1.69967,-2.14801 3.03799,-1.80849c1.33831,0.33952 2.148,1.69968 1.80848,3.03799c-0.33952,1.33831 -1.69967,2.148 -3.03799,1.80848c-1.33831,-0.33952 -2.148,-1.69967 -1.80848,-3.03799z" fill="#000000" stroke="none" stroke-width="0.5" stroke-linecap="butt"/></g><path d="M277.75965,170.74531c3.17241,6.2344 1.14067,26.41107 -5.30259,27.59024c-6.44327,1.17917 -14.16834,-13.81256 -12.39486,-18.80416c1.77348,-4.9916 14.52504,-15.02048 17.69745,-8.78608z" fill="#ede2d8" stroke="#000000" stroke-width="2.5" stroke-linecap="round"/><path d="M267.26208,183.69322c0,6.37242 -24.02509,0.46777 -37.92928,0.46777c-13.90419,0 -26.83206,-1.80198 -26.83206,-12.3179c0,-10.51592 13.92165,-13.87713 27.82584,-13.87713c13.90419,0 36.9355,19.35484 36.9355,25.72726z" fill="#ede2d8" stroke="#000000" stroke-width="2.5" stroke-linecap="butt"/><path d="M260.40437,175.32231c0,4.09237 -7.2494,7.40989 -16.19198,7.40989c-8.94259,0 -16.19198,-3.31752 -16.19198,-7.40989c0,-4.09237 7.2494,-7.40989 16.19198,-7.40989c8.94259,0 16.19198,3.31752 16.19198,7.40989z" fill="#ede2d8" stroke="#000000" stroke-width="2.5" stroke-linecap="butt"/><path d="M208.32215,170.83978c0,-1.38071 1.11929,-2.5 2.5,-2.5c1.38071,0 2.5,1.11929 2.5,2.5c0,1.38071 -1.11929,2.5 -2.5,2.5c-1.38071,0 -2.5,-1.11929 -2.5,-2.5z" fill="#000000" stroke="none" stroke-width="0.5" stroke-linecap="butt"/><g><path d="M238.50102,203.0888c2.3547,4.95246 0.33737,20.72121 -4.73677,21.50951c-5.07414,0.7883 -10.81205,-11.12283 -9.31707,-14.99715c1.49498,-3.87432 11.69914,-11.46482 14.05384,-6.51236z" fill="#ede2d8" stroke="#000000" stroke-width="2.5" stroke-linecap="round"/><path d="M226.05704,212.44542c-2.47722,4.90824 -7.61143,-0.73718 -16.68123,-5.31476c-9.06979,-4.57758 -19.47782,-11.00891 -15.38986,-19.1086c4.08796,-8.09969 14.12435,-5.25445 23.19414,-0.67687c9.06979,4.57758 11.35416,20.19199 8.87695,25.10024z" fill="#ede2d8" stroke="#000000" stroke-width="2.5" stroke-linecap="butt"/><path d="M225.78711,205.65124c-1.29047,2.55688 -5.66267,2.95096 -9.76557,0.8802c-4.1029,-2.07076 -6.38282,-5.8222 -5.09235,-8.37909c1.29047,-2.55688 5.66267,-2.95096 9.76557,-0.8802c4.1029,2.07076 6.38282,5.82221 5.09235,8.37909z" fill="#ede2d8" stroke="#000000" stroke-width="2.5" stroke-linecap="butt"/><path d="M198.82837,189.15003c0.62211,-1.23262 2.12566,-1.72754 3.35828,-1.10543c1.23262,0.62211 1.72753,2.12566 1.10542,3.35828c-0.62211,1.23262 -2.12566,1.72753 -3.35827,1.10542c-1.23262,-0.62211 -1.72753,-2.12566 -1.10542,-3.35828z" fill="#000000" stroke="none" stroke-width="0.5" stroke-linecap="butt"/></g></g></g></svg>