<svg version="1.1" xmlns="http://www.w3.org/2000/svg" xmlns:xlink="http://www.w3.org/1999/xlink" width="81.40578" height="75.53423" viewBox="0,0,81.40578,75.53423"><defs><radialGradient cx="225.04571" cy="165.96967" r="11.65279" gradientUnits="userSpaceOnUse" id="color-1"><stop offset="0" stop-color="#ffffff"/><stop offset="1" stop-color="#ffffff" stop-opacity="0"/></radialGradient></defs><g transform="translate(-207.06331,-137.40246)"><g data-paper-data="{&quot;isPaintingLayer&quot;:true}" fill-rule="nonzero" stroke-linecap="butt" stroke-linejoin="miter" stroke-miterlimit="10" stroke-dasharray="" stroke-dashoffset="0" style="mix-blend-mode: normal"><path d="M265.14357,182.97788c2.79752,6.94869 9.74633,10.69717 15.52059,8.37246c5.77426,-2.3247 8.18738,-9.84227 5.38986,-16.79096c-2.79752,-6.94869 -9.74633,-10.69717 -15.52059,-8.37246c-5.77426,2.3247 -8.18738,9.84227 -5.38986,16.79096z" fill="#76be6d" stroke="#477a42" stroke-width="2.5"/><path d="M227.66526,147.72636c0,1.54921 0.57428,3.2684 1.9123,3.18371c1.89676,-0.12005 5.13543,-2.51511 8.78534,-2.51511c0.47845,0 5.96482,1.3181 7.61694,0.6994c3.8428,-1.43909 7.47438,-8.81815 7.47438,-8.81815c0,0 -4.82393,1.42758 -7.38325,0.76883c-2.44788,-0.63006 -4.28295,-2.39258 -7.32601,-2.39258c-6.22465,0 -11.07971,5.32855 -11.07971,9.0739z" fill="#76be6d" stroke="#477a42" stroke-width="2.5"/><path d="M208.31331,180c0,-17.50008 14.18662,-31.68669 31.68669,-31.68669c17.50008,0 31.68669,14.18662 31.68669,31.68669c0,17.50008 -14.18662,31.68669 -31.68669,31.68669c-5.9555,0 -16.16433,-2.87954 -20.9238,-5.73698c-2.86502,-1.72007 12.80455,1.82138 11.548,-8.5509c-1.22881,-10.14336 -18.65194,-2.19076 -19.97819,-5.4439c-1.50397,-3.68906 -2.33271,-7.72521 -2.33271,-11.95492z" fill="#76be6d" stroke="#477a42" stroke-width="2.5"/><path d="M242.62041,184.69055c0,3.27058 4.61845,5.92191 10.31559,5.92191c5.69714,0 10.31559,-2.65133 10.31559,-5.92191c0,-3.27058 -4.61845,-5.92191 -10.31559,-5.92191c-5.69714,0 -10.31559,2.65133 -10.31559,5.92191z" fill="#76be6d" stroke="#477a42" stroke-width="2.5"/><path d="M213.39291,165.96967c0,-6.43566 5.21713,-11.65279 11.65279,-11.65279c6.43566,0 11.65279,5.21713 11.65279,11.65279c0,6.43566 -5.21713,11.65279 -11.65279,11.65279c-6.43566,0 -11.65279,-5.21713 -11.65279,-11.65279z" fill="url(#color-1)" stroke="none" stroke-width="0"/><path d="M227.88307,182.59625c0,-1.58772 1.2871,-2.87481 2.87481,-2.87481c1.58772,0 2.87481,1.2871 2.87481,2.87481c0,1.58772 -1.2871,2.87481 -2.87481,2.87481c-1.58772,0 -2.87481,-1.2871 -2.87481,-2.87481z" fill="#000000" stroke="none" stroke-width="0"/><path d="M212.20043,177.74221c0,-1.58772 1.28709,-2.87481 2.87481,-2.87481c1.58772,0 2.87482,1.28709 2.87482,2.87481c0,1.58772 -1.2871,2.87481 -2.87482,2.87481c-1.58772,0 -2.87481,-1.2871 -2.87481,-2.87481z" fill="#000000" stroke="none" stroke-width="0"/></g></g></svg>