<svg version="1.1" xmlns="http://www.w3.org/2000/svg" xmlns:xlink="http://www.w3.org/1999/xlink" width="165.17714" height="112.46791" viewBox="0,0,165.17714,112.46791"><defs><linearGradient x1="275.53031" y1="181.63578" x2="275.53031" y2="217.01803" gradientUnits="userSpaceOnUse" id="color-1"><stop offset="0" stop-color="#505050"/><stop offset="1" stop-color="#4c4c4c"/></linearGradient><linearGradient x1="221.59487" y1="165.68896" x2="202.62388" y2="184.65996" gradientUnits="userSpaceOnUse" id="color-2"><stop offset="0" stop-color="#505050"/><stop offset="1" stop-color="#4c4c4c"/></linearGradient><linearGradient x1="215.29014" y1="168.12147" x2="215.29014" y2="235.60894" gradientUnits="userSpaceOnUse" id="color-3"><stop offset="0" stop-color="#505050"/><stop offset="1" stop-color="#4c4c4c"/></linearGradient><linearGradient x1="207.76358" y1="207.15938" x2="223.56055" y2="204.61862" gradientUnits="userSpaceOnUse" id="color-4"><stop offset="0" stop-color="#505050"/><stop offset="1" stop-color="#4c4c4c"/></linearGradient></defs><g transform="translate(-156.78643,-124.39104)"><g data-paper-data="{&quot;isPaintingLayer&quot;:true}" fill-rule="nonzero" stroke-linecap="butt" stroke-linejoin="miter" stroke-miterlimit="10" stroke-dasharray="" stroke-dashoffset="0" style="mix-blend-mode: normal"><path d="M320.44237,125.15165c0,-0.42007 0.34053,-0.7606 0.7606,-0.7606c0.42007,0 0.7606,0.34053 0.7606,0.7606c0,0.42007 -0.34055,0.76062 -0.7606,0.76062c-0.42007,0 -0.7606,-0.34055 -0.7606,-0.76062z" fill="#ffffff" stroke="#ffffff" stroke-width="0"/><path d="M261.20375,217.01803v-35.38226l28.43605,-16.28018l-8.03155,34.73106l6.94621,33.86278z" fill="url(#color-1)" stroke="#363636" stroke-width="2.5"/><path d="M193.13838,175.17446l29.75792,-28.92816l8.18407,28.92816l-18.97099,18.97099z" fill="url(#color-2)" stroke="#363636" stroke-width="2.5"/><path d="M272.54387,201.86521c0,18.63615 -25.63337,33.74374 -57.25372,33.74374c-22.36664,0 -41.73774,-7.55898 -51.16008,-18.57893c-1.08944,-1.27415 5.54921,-0.93394 10.53406,-3.70998c5.23512,-2.91541 8.84552,-8.95465 8.32157,-10.46405c-0.41711,-1.20162 -7.84648,2.35473 -14.48996,2.68514c-5.49886,0.27348 -10.45931,-2.6212 -10.45931,-3.67593c0,-18.63614 11.52737,-28.48856 57.25372,-33.74373c31.41357,-3.61026 57.25371,15.10758 57.25371,33.74373z" fill="url(#color-3)" stroke="#363636" stroke-width="2.5"/><path d="M209.03396,215.05788l-2.54077,-15.79697l15.79698,-2.54078l19.28948,27.90449z" fill="url(#color-4)" stroke="#363636" stroke-width="2.5"/><path d="M168.96165,192.73781c0,-1.14567 0.92875,-2.07441 2.07441,-2.07441c1.14566,0 2.07441,0.92874 2.07441,2.07441c0,1.14567 -0.92875,2.07441 -2.07441,2.07441c-1.14566,0 -2.07441,-0.92874 -2.07441,-2.07441z" fill="#000000" stroke="none" stroke-width="0.5"/></g></g></svg>