<svg version="1.1" xmlns="http://www.w3.org/2000/svg" xmlns:xlink="http://www.w3.org/1999/xlink" width="132.2779" height="118.35026" viewBox="0,0,132.2779,118.35026"><g transform="translate(-173.86081,-120.16973)"><g data-paper-data="{&quot;isPaintingLayer&quot;:true}" fill-rule="nonzero" stroke-linecap="butt" stroke-linejoin="miter" stroke-miterlimit="10" stroke-dasharray="" stroke-dashoffset="0" style="mix-blend-mode: normal"><path d="M225.13334,175.46134c0.1563,0.27786 0.27723,0.5898 0.37017,0.91985c0.16342,0.49098 0.25276,1.01579 0.25479,1.56119c0.1092,1.50155 -0.09502,2.89204 -0.02162,2.89169c2.31852,-0.01101 2.2366,1.37376 3.83806,2.21436c7.62561,4.00265 17.03329,10.16579 9.96711,19.58902c-1.99925,2.66613 -2.73421,10.42352 -6.95619,10.18954c-2.4363,-0.13502 -4.39619,-0.74105 -5.79796,-2.62529c-0.77594,-1.043 -1.24714,-4.9772 -1.77901,-5.05564c-2.54043,-0.37466 -4.46594,-3.39951 -4.81421,-3.45183c-1.76113,-0.26458 -3.26133,0.67612 -5.22226,-0.44441c-4.34683,-2.4839 -0.81998,-12.40452 0.27569,-16.1391c0.25819,-0.88005 0.30551,-4.22507 0.52646,-6.74598c-0.01062,-0.13307 -0.01604,-0.2676 -0.01604,-0.4034c0,-0.61919 0.11255,-1.21209 0.31831,-1.75937c0.71188,-1.89341 2.53945,-3.24063 4.68169,-3.24063c1.62714,0 3.07275,0.77725 3.98581,1.98072c0.14902,0.15393 0.28022,0.32556 0.38919,0.51928z" fill="#7f6a33" stroke="none" stroke-width="0.5"/><path d="M273.59882,236.01999c-3.21909,-2.4278 2.38637,-20.40783 -3.39456,-28.09962c-2.75191,-3.66153 -13.44752,1.65141 -15.76923,2.0559c-11.11387,1.93626 -19.75479,-6.98098 -27.83644,-15.06263c-13.31648,-13.31648 -12.89376,-31.14419 -2.70017,-41.33778c10.19359,-10.19359 30.97562,-10.12392 44.2921,3.19256c7.50407,7.50407 15.40449,15.42919 13.45966,25.53593c-0.27367,1.4222 -4.28444,11.81318 1.44341,18.21629c5.39713,6.0334 20.4324,5.25882 20.54512,8.13962c0.13043,3.33326 -26.4272,30.08438 -30.03989,27.35973z" fill="#dcbb65" stroke="#7f6a33" stroke-width="5"/><path d="M176.36081,144.92696c0,2.65244 13.05402,-3.13089 13.44513,6.29071c0.31462,7.57891 -8.48923,5.83122 -6.20376,7.70873c5.08847,4.18017 12.42373,6.80391 20.57849,6.80391c15.36449,0 17.0929,-6.14394 23.74013,-14.67899c1.94114,-2.49243 14.40236,-28.18818 14.40236,-28.18818c0,0 -27.00266,1.26049 -38.14248,1.26049c-15.36449,0 -27.81986,9.31397 -27.81986,20.80334z" fill="#dcbb65" stroke="#7f6a33" stroke-width="5"/><path d="M183.67571,138.27973c0,-1.83558 1.48803,-3.32361 3.32361,-3.32361c1.83558,0 3.32361,1.48803 3.32361,3.32361c0,1.83558 -1.48803,3.32361 -3.32361,3.32361c-1.83558,0 -3.32361,-1.48803 -3.32361,-3.32361z" fill="#000000" stroke="none" stroke-width="0"/><path d="M249.90061,174.0197c5.17557,6.65429 6.06495,14.62017 1.98651,17.79229c-4.07844,3.17212 -11.58029,0.34925 -16.75585,-6.30504c-5.17557,-6.65429 -6.06496,-14.62017 -1.98652,-17.79229c4.07844,-3.17212 11.58029,-0.34925 16.75585,6.30504z" fill="#dcbb65" stroke="#7f6a33" stroke-width="5"/></g></g></svg>